G75*
%MOIN*%
%OFA0B0*%
%FSLAX24Y24*%
%IPPOS*%
%LPD*%
%AMOC8*
5,1,8,0,0,1.08239X$1,22.5*
%
%ADD10R,0.0394X0.0433*%
%ADD11R,0.0315X0.0315*%
%ADD12R,0.0500X0.0250*%
%ADD13R,0.0138X0.0276*%
%ADD14R,0.0236X0.0236*%
%ADD15R,0.0079X0.0344*%
%ADD16R,0.0344X0.0079*%
%ADD17C,0.0126*%
%ADD18R,0.0472X0.0217*%
%ADD19R,0.0354X0.0295*%
%ADD20R,0.0850X0.1071*%
%ADD21C,0.0043*%
D10*
X007623Y015656D03*
X007623Y016325D03*
D11*
X018728Y014670D03*
X019319Y014670D03*
D12*
X009933Y015163D03*
X008673Y015163D03*
X008673Y016817D03*
X009933Y016817D03*
D13*
X010170Y015990D03*
D14*
X013927Y014130D03*
X014400Y014130D03*
X013863Y014794D03*
X013863Y015266D03*
X016267Y014070D03*
X016740Y014070D03*
X017767Y014670D03*
X018240Y014670D03*
X018240Y015270D03*
X017767Y015270D03*
X017767Y015750D03*
X018240Y015750D03*
X018727Y015870D03*
X019200Y015870D03*
X019863Y016354D03*
X019863Y016826D03*
X018003Y016826D03*
X018003Y016354D03*
X016170Y017850D03*
X015697Y017850D03*
X013803Y017786D03*
X013323Y017786D03*
X013323Y017314D03*
X013803Y017314D03*
X010923Y017314D03*
X010923Y017786D03*
X007143Y016226D03*
X007143Y015754D03*
X006300Y015150D03*
X005827Y015150D03*
X005827Y016830D03*
X006300Y016830D03*
D15*
X014820Y017348D03*
X014977Y017348D03*
X015135Y017348D03*
X015292Y017348D03*
X015450Y017348D03*
X015607Y017348D03*
X015765Y017348D03*
X015922Y017348D03*
X016080Y017348D03*
X016237Y017348D03*
X016395Y017348D03*
X016552Y017348D03*
X016710Y017348D03*
X016867Y017348D03*
X016867Y014632D03*
X016710Y014632D03*
X016552Y014632D03*
X016395Y014632D03*
X016237Y014632D03*
X016080Y014632D03*
X015922Y014632D03*
X015765Y014632D03*
X015607Y014632D03*
X015450Y014632D03*
X015292Y014632D03*
X015135Y014632D03*
X014977Y014632D03*
X014820Y014632D03*
D16*
X014485Y014967D03*
X014485Y015124D03*
X014485Y015281D03*
X014485Y015439D03*
X014485Y015596D03*
X014485Y015754D03*
X014485Y015911D03*
X014485Y016069D03*
X014485Y016226D03*
X014485Y016384D03*
X014485Y016541D03*
X014485Y016699D03*
X014485Y016856D03*
X014485Y017014D03*
X017202Y017014D03*
X017202Y016856D03*
X017202Y016699D03*
X017202Y016541D03*
X017202Y016384D03*
X017202Y016226D03*
X017202Y016069D03*
X017202Y015911D03*
X017202Y015754D03*
X017202Y015596D03*
X017202Y015439D03*
X017202Y015281D03*
X017202Y015124D03*
X017202Y014967D03*
D17*
X015276Y015423D02*
X015276Y016557D01*
X016410Y016557D01*
X016410Y015423D01*
X015276Y015423D01*
X015276Y015548D02*
X016410Y015548D01*
X016410Y015673D02*
X015276Y015673D01*
X015276Y015798D02*
X016410Y015798D01*
X016410Y015923D02*
X015276Y015923D01*
X015276Y016048D02*
X016410Y016048D01*
X016410Y016173D02*
X015276Y016173D01*
X015276Y016298D02*
X016410Y016298D01*
X016410Y016423D02*
X015276Y016423D01*
X015276Y016548D02*
X016410Y016548D01*
D18*
X006575Y016364D03*
X005552Y016364D03*
X005552Y015990D03*
X005552Y015616D03*
X006575Y015616D03*
D19*
X018639Y016344D03*
X019288Y016344D03*
X019288Y016836D03*
X018639Y016836D03*
D20*
X012063Y015990D03*
D21*
X011126Y015805D02*
X010760Y015805D01*
X011126Y015805D02*
X011126Y015675D01*
X010760Y015675D01*
X010760Y015805D01*
X010760Y015717D02*
X011126Y015717D01*
X011126Y015759D02*
X010760Y015759D01*
X010760Y015801D02*
X011126Y015801D01*
X011126Y016305D02*
X010760Y016305D01*
X011126Y016305D02*
X011126Y016175D01*
X010760Y016175D01*
X010760Y016305D01*
X010760Y016217D02*
X011126Y016217D01*
X011126Y016259D02*
X010760Y016259D01*
X010760Y016301D02*
X011126Y016301D01*
X011126Y016805D02*
X010760Y016805D01*
X011126Y016805D02*
X011126Y016675D01*
X010760Y016675D01*
X010760Y016805D01*
X010760Y016717D02*
X011126Y016717D01*
X011126Y016759D02*
X010760Y016759D01*
X010760Y016801D02*
X011126Y016801D01*
X013000Y016805D02*
X013366Y016805D01*
X013366Y016675D01*
X013000Y016675D01*
X013000Y016805D01*
X013000Y016717D02*
X013366Y016717D01*
X013366Y016759D02*
X013000Y016759D01*
X013000Y016801D02*
X013366Y016801D01*
X013366Y016305D02*
X013000Y016305D01*
X013366Y016305D02*
X013366Y016175D01*
X013000Y016175D01*
X013000Y016305D01*
X013000Y016217D02*
X013366Y016217D01*
X013366Y016259D02*
X013000Y016259D01*
X013000Y016301D02*
X013366Y016301D01*
X013366Y015805D02*
X013000Y015805D01*
X013366Y015805D02*
X013366Y015675D01*
X013000Y015675D01*
X013000Y015805D01*
X013000Y015717D02*
X013366Y015717D01*
X013366Y015759D02*
X013000Y015759D01*
X013000Y015801D02*
X013366Y015801D01*
X013366Y015305D02*
X013000Y015305D01*
X013366Y015305D02*
X013366Y015175D01*
X013000Y015175D01*
X013000Y015305D01*
X013000Y015217D02*
X013366Y015217D01*
X013366Y015259D02*
X013000Y015259D01*
X013000Y015301D02*
X013366Y015301D01*
X011126Y015305D02*
X010760Y015305D01*
X011126Y015305D02*
X011126Y015175D01*
X010760Y015175D01*
X010760Y015305D01*
X010760Y015217D02*
X011126Y015217D01*
X011126Y015259D02*
X010760Y015259D01*
X010760Y015301D02*
X011126Y015301D01*
M02*
