%
M48
M72
T01C0.0080
T02C0.0120
T03C0.0197
T04C0.0472
T05C0.1063
%
T01
X922Y14022
X1512Y17959
X10503Y16510
X11083Y16090
X10563Y15750
X13333Y14610
X14193Y15270
X14093Y15510
X14183Y15910
X13883Y16010
X14103Y16350
X14803Y16070
X14883Y16590
X15423Y16890
X16323Y16890
X16213Y17660
X15733Y18080
X15423Y17670
X15123Y17970
X14883Y18150
X14453Y17350
X13323Y17630
X10623Y17840
X14863Y15520
X14433Y14820
X14433Y14400
X16233Y14340
X16943Y14080
X19323Y14420
X18453Y15340
X18443Y15650
X17533Y15750
X16923Y15910
X17563Y16750
X18543Y17250
X20823Y18090
X21783Y17910
X22803Y17730
X25134Y17959
X20823Y15330
X24544Y14022
X25134Y14612
T02
X23163Y14750
X20173Y16780
X18223Y16360
X16373Y16510
X15533Y16510
X15513Y15470
X16363Y15470
X12473Y15780
X11623Y15770
X11283Y17070
X12493Y17250
X9323Y16830
X7313Y16430
X5883Y15990
X6963Y15510
X7323Y15510
X8233Y15150
X6153Y17260
X5823Y17780
X4323Y17490
X4323Y17010
X2583Y17550
X2173Y15280
X1793Y15280
T03
X1107Y14691
X910Y14691
X713Y14691
X713Y17289
X910Y17289
X1107Y17289
T04
X4323Y15990
X22323Y15990
T05
X24741Y15990
M30
