G75*
%MOIN*%
%OFA0B0*%
%FSLAX24Y24*%
%IPPOS*%
%LPD*%
%AMOC8*
5,1,8,0,0,1.08239X$1,22.5*
%
%ADD10C,0.0397*%
%ADD11R,0.0531X0.0157*%
%ADD12R,0.0591X0.0591*%
%ADD13C,0.0397*%
%ADD14R,0.0276X0.0335*%
%ADD15R,0.0236X0.0236*%
%ADD16C,0.0394*%
%ADD17R,0.0433X0.0866*%
%ADD18C,0.0220*%
%ADD19C,0.0060*%
%ADD20C,0.0180*%
%ADD21C,0.0090*%
%ADD22C,0.0200*%
%ADD23C,0.0080*%
D10*
X000712Y014691D02*
X001108Y014691D01*
X001108Y017289D02*
X000712Y017289D01*
D11*
X001985Y016502D03*
X001985Y016246D03*
X001985Y015990D03*
X001985Y015734D03*
X001985Y015478D03*
D12*
X000922Y015596D03*
X000922Y016384D03*
X001867Y017289D03*
X001867Y014691D03*
D13*
X001107Y014691D03*
X000713Y014691D03*
X000713Y017289D03*
X001107Y017289D03*
D14*
X003003Y017466D03*
X003003Y016836D03*
D15*
X002583Y016834D03*
X002583Y017306D03*
X002570Y016302D03*
X003042Y016302D03*
X003060Y015930D03*
X002587Y015930D03*
D16*
X000922Y017959D03*
X025134Y014022D03*
D17*
X022823Y014740D03*
X021823Y014740D03*
X020823Y014740D03*
X019823Y014740D03*
X018823Y014740D03*
X017823Y014740D03*
X016823Y014740D03*
X015823Y014740D03*
X014823Y014740D03*
X013823Y014740D03*
X012823Y014740D03*
X011823Y014740D03*
X010823Y014740D03*
X009823Y014740D03*
X008823Y014740D03*
X007823Y014740D03*
X006823Y014740D03*
X005823Y014740D03*
X004823Y014740D03*
X003823Y014740D03*
X003823Y017240D03*
X004823Y017240D03*
X005823Y017240D03*
X006823Y017240D03*
X007823Y017240D03*
X008823Y017240D03*
X009823Y017240D03*
X010823Y017240D03*
X011823Y017240D03*
X012823Y017240D03*
X013823Y017240D03*
X014823Y017240D03*
X015823Y017240D03*
X016823Y017240D03*
X017823Y017240D03*
X018823Y017240D03*
X019823Y017240D03*
X020823Y017240D03*
X021823Y017240D03*
X022823Y017240D03*
D18*
X020173Y016780D03*
X018223Y016360D03*
X016373Y016510D03*
X015533Y016510D03*
X015513Y015470D03*
X016363Y015470D03*
X012473Y015780D03*
X011623Y015770D03*
X011283Y017070D03*
X012493Y017250D03*
X009323Y016830D03*
X007313Y016430D03*
X005883Y015990D03*
X006963Y015510D03*
X007323Y015510D03*
X008233Y015150D03*
X006153Y017260D03*
X005823Y017780D03*
X004323Y017490D03*
X004323Y017010D03*
X002583Y017550D03*
X002173Y015280D03*
X001793Y015280D03*
X023163Y014750D03*
D19*
X000658Y014413D02*
X000658Y013758D01*
X024711Y013758D01*
X024711Y014428D01*
X024728Y014445D01*
X025398Y014445D01*
X025398Y015849D01*
X025301Y015615D01*
X025115Y015429D01*
X024872Y015329D01*
X024609Y015329D01*
X024366Y015429D01*
X024180Y015615D01*
X024079Y015859D01*
X024079Y016122D01*
X024180Y016365D01*
X024366Y016551D01*
X024609Y016652D01*
X024872Y016652D01*
X025115Y016551D01*
X025301Y016365D01*
X025398Y016132D01*
X025398Y018222D01*
X020946Y018222D01*
X021003Y018165D01*
X021003Y017753D01*
X021073Y017753D01*
X021120Y017706D01*
X021120Y016774D01*
X021073Y016727D01*
X020574Y016727D01*
X020527Y016774D01*
X020527Y017706D01*
X020574Y017753D01*
X020643Y017753D01*
X020643Y018165D01*
X020701Y018222D01*
X015052Y018222D01*
X015053Y018221D01*
X015053Y018140D01*
X015194Y018140D01*
X015293Y018041D01*
X015293Y017996D01*
X015318Y018020D01*
X016369Y018020D01*
X016489Y017900D01*
X016553Y017836D01*
X016553Y017733D01*
X016574Y017753D01*
X017073Y017753D01*
X017120Y017706D01*
X017120Y016774D01*
X017073Y016727D01*
X016574Y016727D01*
X016527Y016774D01*
X016527Y017178D01*
X016489Y017140D01*
X016433Y017085D01*
X016433Y017021D01*
X016493Y016961D01*
X016493Y016820D01*
X016394Y016720D01*
X016253Y016720D01*
X016153Y016820D01*
X016153Y016961D01*
X016213Y017021D01*
X016213Y017176D01*
X016333Y017296D01*
X016333Y017540D01*
X016284Y017490D01*
X016143Y017490D01*
X016120Y017513D01*
X016120Y016774D01*
X016073Y016727D01*
X015574Y016727D01*
X015537Y016764D01*
X015494Y016720D01*
X015413Y016720D01*
X015413Y014145D01*
X015233Y013965D01*
X015169Y013900D01*
X005298Y013900D01*
X004971Y014227D01*
X004574Y014227D01*
X004527Y014274D01*
X004527Y015206D01*
X004574Y015253D01*
X005073Y015253D01*
X005120Y015206D01*
X005120Y014389D01*
X005389Y014120D01*
X006038Y014120D01*
X005931Y014227D01*
X005574Y014227D01*
X005527Y014274D01*
X005527Y015206D01*
X005574Y015253D01*
X006073Y015253D01*
X006120Y015206D01*
X006120Y014349D01*
X006229Y014240D01*
X006561Y014240D01*
X006527Y014274D01*
X006527Y015206D01*
X006574Y015253D01*
X007073Y015253D01*
X007120Y015206D01*
X007120Y014274D01*
X007086Y014240D01*
X008561Y014240D01*
X008527Y014274D01*
X008527Y015206D01*
X008574Y015253D01*
X009073Y015253D01*
X009120Y015206D01*
X009120Y014274D01*
X009086Y014240D01*
X009561Y014240D01*
X009527Y014274D01*
X009527Y015206D01*
X009574Y015253D01*
X009717Y015253D01*
X009667Y015303D01*
X009667Y015303D01*
X009330Y015640D01*
X007462Y015640D01*
X007513Y015589D01*
X007513Y015431D01*
X007402Y015320D01*
X007245Y015320D01*
X007143Y015421D01*
X007042Y015320D01*
X006885Y015320D01*
X006773Y015431D01*
X006773Y015589D01*
X006825Y015640D01*
X006667Y015640D01*
X006287Y015260D01*
X003690Y015260D01*
X003587Y015363D01*
X003250Y015700D01*
X003232Y015682D01*
X002888Y015682D01*
X002823Y015746D01*
X002759Y015682D01*
X002415Y015682D01*
X002339Y015758D01*
X002339Y015815D01*
X002338Y015815D01*
X002331Y015808D01*
X002331Y015622D01*
X002284Y015576D01*
X001686Y015576D01*
X001639Y015622D01*
X001639Y015808D01*
X001589Y015858D01*
X001589Y016289D01*
X001573Y016305D01*
X001573Y016914D01*
X001538Y016914D01*
X001491Y016961D01*
X001491Y017618D01*
X001538Y017665D01*
X002195Y017665D01*
X002242Y017618D01*
X002242Y017060D01*
X002809Y017060D01*
X002832Y017083D01*
X003174Y017083D01*
X003197Y017060D01*
X003289Y017060D01*
X003353Y016996D01*
X003353Y016305D01*
X003353Y016304D01*
X003897Y015760D01*
X004035Y015760D01*
X004013Y015783D01*
X003957Y015917D01*
X003957Y016063D01*
X004013Y016198D01*
X004116Y016301D01*
X004251Y016356D01*
X004396Y016356D01*
X004531Y016301D01*
X004634Y016198D01*
X004690Y016063D01*
X004690Y015917D01*
X004634Y015783D01*
X004611Y015760D01*
X006080Y015760D01*
X006357Y016038D01*
X006460Y016140D01*
X009537Y016140D01*
X009977Y015700D01*
X010393Y015700D01*
X010393Y015821D01*
X010453Y015881D01*
X010453Y016050D01*
X010524Y016120D01*
X010874Y016470D01*
X013983Y016470D01*
X013983Y016470D01*
X010673Y016470D01*
X010673Y016440D01*
X010574Y016340D01*
X010433Y016340D01*
X010333Y016440D01*
X010333Y016581D01*
X010433Y016680D01*
X010504Y016680D01*
X010534Y016710D01*
X014763Y016710D01*
X014780Y016727D01*
X014574Y016727D01*
X014527Y016774D01*
X014527Y017183D01*
X014524Y017180D01*
X014383Y017180D01*
X014283Y017280D01*
X014283Y017421D01*
X014383Y017520D01*
X014524Y017520D01*
X014527Y017517D01*
X014527Y017706D01*
X014549Y017729D01*
X014533Y017745D01*
X014081Y017745D01*
X014073Y017753D02*
X014120Y017706D01*
X014120Y016774D01*
X014073Y016727D01*
X013574Y016727D01*
X013527Y016774D01*
X013527Y017706D01*
X013574Y017753D01*
X014073Y017753D01*
X014120Y017687D02*
X014527Y017687D01*
X014533Y017745D02*
X014478Y017800D01*
X011029Y017800D01*
X010982Y017753D01*
X011073Y017753D01*
X011120Y017706D01*
X011120Y017175D01*
X011205Y017260D01*
X011362Y017260D01*
X011473Y017149D01*
X011473Y016991D01*
X011362Y016880D01*
X011205Y016880D01*
X011120Y016965D01*
X011120Y016774D01*
X011073Y016727D01*
X010574Y016727D01*
X010527Y016774D01*
X010527Y017706D01*
X010574Y017753D01*
X010713Y017753D01*
X010713Y017796D01*
X010838Y017920D01*
X008089Y017920D01*
X007933Y017765D01*
X007933Y017753D01*
X008073Y017753D01*
X008120Y017706D01*
X008120Y016774D01*
X008073Y016727D01*
X007574Y016727D01*
X007527Y016774D01*
X007527Y017706D01*
X007574Y017753D01*
X007713Y017753D01*
X007713Y017856D01*
X007898Y018040D01*
X007189Y018040D01*
X006933Y017785D01*
X006933Y017753D01*
X007073Y017753D01*
X007120Y017706D01*
X007120Y016774D01*
X007073Y016727D01*
X006574Y016727D01*
X006527Y016774D01*
X006527Y017706D01*
X006574Y017753D01*
X006713Y017753D01*
X006713Y017876D01*
X007033Y018196D01*
X007060Y018222D01*
X001346Y018222D01*
X001346Y017553D01*
X001328Y017535D01*
X001243Y017535D01*
X001266Y017525D01*
X001344Y017447D01*
X001387Y017345D01*
X001387Y017234D01*
X001344Y017132D01*
X001266Y017053D01*
X001164Y017011D01*
X000658Y017011D01*
X000658Y016759D01*
X001250Y016759D01*
X001297Y016712D01*
X001297Y016055D01*
X001250Y016009D01*
X000658Y016009D01*
X000658Y015972D01*
X001250Y015972D01*
X001297Y015925D01*
X001297Y015268D01*
X001250Y015221D01*
X000658Y015221D01*
X000658Y014969D01*
X001164Y014969D01*
X001266Y014927D01*
X001344Y014849D01*
X001387Y014746D01*
X001387Y014636D01*
X001344Y014533D01*
X001266Y014455D01*
X001164Y014413D01*
X000658Y014413D01*
X000658Y014411D02*
X001491Y014411D01*
X001491Y014363D02*
X001538Y014316D01*
X002195Y014316D01*
X002242Y014363D01*
X002242Y015019D01*
X002195Y015066D01*
X001538Y015066D01*
X001491Y015019D01*
X001491Y014363D01*
X001502Y014352D02*
X000658Y014352D01*
X000658Y014294D02*
X003527Y014294D01*
X003527Y014274D02*
X003574Y014227D01*
X004073Y014227D01*
X004120Y014274D01*
X004120Y015206D01*
X004073Y015253D01*
X003574Y015253D01*
X003527Y015206D01*
X003527Y014274D01*
X003566Y014235D02*
X000658Y014235D01*
X000658Y014177D02*
X005021Y014177D01*
X005080Y014118D02*
X000658Y014118D01*
X000658Y014060D02*
X005138Y014060D01*
X005197Y014001D02*
X000658Y014001D01*
X000658Y013943D02*
X005255Y013943D01*
X005343Y014010D02*
X004923Y014430D01*
X004923Y014640D01*
X004823Y014740D01*
X004527Y014762D02*
X004120Y014762D01*
X004120Y014820D02*
X004527Y014820D01*
X004527Y014879D02*
X004120Y014879D01*
X004120Y014937D02*
X004527Y014937D01*
X004527Y014996D02*
X004120Y014996D01*
X004120Y015054D02*
X004527Y015054D01*
X004527Y015113D02*
X004120Y015113D01*
X004120Y015171D02*
X004527Y015171D01*
X004550Y015230D02*
X004097Y015230D01*
X003662Y015288D02*
X001297Y015288D01*
X001297Y015347D02*
X003603Y015347D01*
X003545Y015405D02*
X001297Y015405D01*
X001297Y015464D02*
X003486Y015464D01*
X003428Y015522D02*
X001297Y015522D01*
X001297Y015581D02*
X001681Y015581D01*
X001639Y015639D02*
X001297Y015639D01*
X001297Y015698D02*
X001639Y015698D01*
X001639Y015756D02*
X001297Y015756D01*
X001297Y015815D02*
X001632Y015815D01*
X001589Y015873D02*
X001297Y015873D01*
X001290Y015932D02*
X001589Y015932D01*
X001589Y015990D02*
X000658Y015990D01*
X001290Y016049D02*
X001589Y016049D01*
X001589Y016107D02*
X001297Y016107D01*
X001297Y016166D02*
X001589Y016166D01*
X001589Y016224D02*
X001297Y016224D01*
X001297Y016283D02*
X001589Y016283D01*
X001573Y016341D02*
X001297Y016341D01*
X001297Y016400D02*
X001573Y016400D01*
X001573Y016458D02*
X001297Y016458D01*
X001297Y016517D02*
X001573Y016517D01*
X001573Y016575D02*
X001297Y016575D01*
X001297Y016634D02*
X001573Y016634D01*
X001573Y016692D02*
X001297Y016692D01*
X001259Y016751D02*
X001573Y016751D01*
X001573Y016809D02*
X000658Y016809D01*
X000658Y016868D02*
X001573Y016868D01*
X001526Y016926D02*
X000658Y016926D01*
X000658Y016985D02*
X001491Y016985D01*
X001491Y017043D02*
X001242Y017043D01*
X001314Y017102D02*
X001491Y017102D01*
X001491Y017160D02*
X001356Y017160D01*
X001381Y017219D02*
X001491Y017219D01*
X001491Y017277D02*
X001387Y017277D01*
X001387Y017336D02*
X001491Y017336D01*
X001491Y017394D02*
X001366Y017394D01*
X001339Y017453D02*
X001491Y017453D01*
X001491Y017511D02*
X001280Y017511D01*
X001346Y017570D02*
X001491Y017570D01*
X001502Y017628D02*
X001346Y017628D01*
X001346Y017687D02*
X002713Y017687D01*
X002713Y017716D02*
X002713Y017625D01*
X002713Y017205D01*
X002778Y017140D01*
X003373Y017140D01*
X003373Y016725D01*
X003438Y016660D01*
X005149Y016660D01*
X005213Y016725D01*
X005213Y017716D01*
X005149Y017780D01*
X002778Y017780D01*
X002713Y017716D01*
X002743Y017745D02*
X001346Y017745D01*
X001346Y017804D02*
X006713Y017804D01*
X006713Y017862D02*
X001346Y017862D01*
X001346Y017921D02*
X006758Y017921D01*
X006817Y017979D02*
X001346Y017979D01*
X001346Y018038D02*
X006875Y018038D01*
X006934Y018096D02*
X001346Y018096D01*
X001346Y018155D02*
X006992Y018155D01*
X007051Y018213D02*
X001346Y018213D01*
X002232Y017628D02*
X002713Y017628D01*
X002713Y017570D02*
X002242Y017570D01*
X002242Y017511D02*
X002713Y017511D01*
X002713Y017453D02*
X002242Y017453D01*
X002242Y017394D02*
X002713Y017394D01*
X002713Y017336D02*
X002242Y017336D01*
X002242Y017277D02*
X002713Y017277D01*
X002713Y017219D02*
X002242Y017219D01*
X002242Y017160D02*
X002758Y017160D01*
X002823Y017250D02*
X002823Y017670D01*
X005103Y017670D01*
X005103Y016770D01*
X003483Y016770D01*
X003483Y017250D01*
X002823Y017250D01*
X002823Y017277D02*
X005103Y017277D01*
X005103Y017219D02*
X003483Y017219D01*
X003483Y017160D02*
X005103Y017160D01*
X005103Y017102D02*
X003483Y017102D01*
X003483Y017043D02*
X005103Y017043D01*
X005103Y016985D02*
X003483Y016985D01*
X003483Y016926D02*
X005103Y016926D01*
X005103Y016868D02*
X003483Y016868D01*
X003483Y016809D02*
X005103Y016809D01*
X005213Y016809D02*
X006527Y016809D01*
X006527Y016868D02*
X005213Y016868D01*
X005213Y016926D02*
X006527Y016926D01*
X006527Y016985D02*
X005213Y016985D01*
X005213Y017043D02*
X006527Y017043D01*
X006527Y017102D02*
X005213Y017102D01*
X005213Y017160D02*
X006527Y017160D01*
X006527Y017219D02*
X005213Y017219D01*
X005213Y017277D02*
X006527Y017277D01*
X006527Y017336D02*
X005213Y017336D01*
X005213Y017394D02*
X006527Y017394D01*
X006527Y017453D02*
X005213Y017453D01*
X005213Y017511D02*
X006527Y017511D01*
X006527Y017570D02*
X005213Y017570D01*
X005213Y017628D02*
X006527Y017628D01*
X006527Y017687D02*
X005213Y017687D01*
X005184Y017745D02*
X006566Y017745D01*
X006823Y017830D02*
X007143Y018150D01*
X014883Y018150D01*
X015053Y018155D02*
X020643Y018155D01*
X020643Y018096D02*
X015238Y018096D01*
X015293Y018038D02*
X020643Y018038D01*
X020643Y017979D02*
X016410Y017979D01*
X016468Y017921D02*
X020643Y017921D01*
X020643Y017862D02*
X016527Y017862D01*
X016553Y017804D02*
X020643Y017804D01*
X020566Y017745D02*
X019081Y017745D01*
X019073Y017753D02*
X018574Y017753D01*
X018527Y017706D01*
X018527Y017420D01*
X018473Y017420D01*
X018373Y017321D01*
X018373Y017180D01*
X018473Y017080D01*
X018527Y017080D01*
X018527Y016774D01*
X018574Y016727D01*
X019073Y016727D01*
X019120Y016774D01*
X019120Y017706D01*
X019073Y017753D01*
X019120Y017687D02*
X020527Y017687D01*
X020527Y017628D02*
X019120Y017628D01*
X019120Y017570D02*
X020527Y017570D01*
X020527Y017511D02*
X019120Y017511D01*
X019120Y017453D02*
X020527Y017453D01*
X020527Y017394D02*
X019120Y017394D01*
X019120Y017336D02*
X020527Y017336D01*
X020527Y017277D02*
X019120Y017277D01*
X019120Y017219D02*
X020527Y017219D01*
X020527Y017160D02*
X019120Y017160D01*
X019120Y017102D02*
X020527Y017102D01*
X020527Y017043D02*
X019120Y017043D01*
X019120Y016985D02*
X020527Y016985D01*
X020527Y016926D02*
X019120Y016926D01*
X019120Y016868D02*
X020527Y016868D01*
X020527Y016809D02*
X019120Y016809D01*
X019097Y016751D02*
X020550Y016751D01*
X021097Y016751D02*
X021550Y016751D01*
X021527Y016774D02*
X021574Y016727D01*
X022073Y016727D01*
X022120Y016774D01*
X022120Y017706D01*
X022073Y017753D01*
X021963Y017753D01*
X021963Y017985D01*
X021858Y018090D01*
X021709Y018090D01*
X021603Y017985D01*
X021603Y017753D01*
X021574Y017753D01*
X021527Y017706D01*
X021527Y016774D01*
X021527Y016809D02*
X021120Y016809D01*
X021120Y016868D02*
X021527Y016868D01*
X021527Y016926D02*
X021120Y016926D01*
X021120Y016985D02*
X021527Y016985D01*
X021527Y017043D02*
X021120Y017043D01*
X021120Y017102D02*
X021527Y017102D01*
X021527Y017160D02*
X021120Y017160D01*
X021120Y017219D02*
X021527Y017219D01*
X021527Y017277D02*
X021120Y017277D01*
X021120Y017336D02*
X021527Y017336D01*
X021527Y017394D02*
X021120Y017394D01*
X021120Y017453D02*
X021527Y017453D01*
X021527Y017511D02*
X021120Y017511D01*
X021120Y017570D02*
X021527Y017570D01*
X021527Y017628D02*
X021120Y017628D01*
X021120Y017687D02*
X021527Y017687D01*
X021566Y017745D02*
X021081Y017745D01*
X021003Y017804D02*
X021603Y017804D01*
X021603Y017862D02*
X021003Y017862D01*
X021003Y017921D02*
X021603Y017921D01*
X021603Y017979D02*
X021003Y017979D01*
X021003Y018038D02*
X021656Y018038D01*
X021910Y018038D02*
X025398Y018038D01*
X025398Y018096D02*
X021003Y018096D01*
X021003Y018155D02*
X025398Y018155D01*
X025398Y018213D02*
X020955Y018213D01*
X020692Y018213D02*
X015053Y018213D01*
X015123Y017970D02*
X014703Y017970D01*
X014643Y018030D01*
X008043Y018030D01*
X007823Y017810D01*
X007823Y017240D01*
X007527Y017219D02*
X007120Y017219D01*
X007120Y017277D02*
X007527Y017277D01*
X007527Y017336D02*
X007120Y017336D01*
X007120Y017394D02*
X007527Y017394D01*
X007527Y017453D02*
X007120Y017453D01*
X007120Y017511D02*
X007527Y017511D01*
X007527Y017570D02*
X007120Y017570D01*
X007120Y017628D02*
X007527Y017628D01*
X007527Y017687D02*
X007120Y017687D01*
X007081Y017745D02*
X007566Y017745D01*
X007713Y017804D02*
X006952Y017804D01*
X007011Y017862D02*
X007720Y017862D01*
X007778Y017921D02*
X007069Y017921D01*
X007128Y017979D02*
X007837Y017979D01*
X007895Y018038D02*
X007186Y018038D01*
X006823Y017830D02*
X006823Y017240D01*
X007120Y017160D02*
X007527Y017160D01*
X007527Y017102D02*
X007120Y017102D01*
X007120Y017043D02*
X007527Y017043D01*
X007527Y016985D02*
X007120Y016985D01*
X007120Y016926D02*
X007527Y016926D01*
X007527Y016868D02*
X007120Y016868D01*
X007120Y016809D02*
X007527Y016809D01*
X007550Y016751D02*
X007097Y016751D01*
X006550Y016751D02*
X005213Y016751D01*
X005181Y016692D02*
X010516Y016692D01*
X010550Y016751D02*
X009097Y016751D01*
X009120Y016774D02*
X009120Y017706D01*
X009073Y017753D01*
X008574Y017753D01*
X008527Y017706D01*
X008527Y016774D01*
X008574Y016727D01*
X009073Y016727D01*
X009120Y016774D01*
X009120Y016809D02*
X010527Y016809D01*
X010527Y016868D02*
X009120Y016868D01*
X009120Y016926D02*
X010527Y016926D01*
X010527Y016985D02*
X009120Y016985D01*
X009120Y017043D02*
X010527Y017043D01*
X010527Y017102D02*
X009120Y017102D01*
X009120Y017160D02*
X010527Y017160D01*
X010527Y017219D02*
X009120Y017219D01*
X009120Y017277D02*
X010527Y017277D01*
X010527Y017336D02*
X009120Y017336D01*
X009120Y017394D02*
X010527Y017394D01*
X010527Y017453D02*
X009120Y017453D01*
X009120Y017511D02*
X010527Y017511D01*
X010527Y017570D02*
X009120Y017570D01*
X009120Y017628D02*
X010527Y017628D01*
X010527Y017687D02*
X009120Y017687D01*
X009081Y017745D02*
X010566Y017745D01*
X010721Y017804D02*
X007972Y017804D01*
X008031Y017862D02*
X010780Y017862D01*
X010823Y017750D02*
X010983Y017910D01*
X014523Y017910D01*
X014643Y017790D01*
X015243Y017790D01*
X015363Y017910D01*
X016323Y017910D01*
X016443Y017790D01*
X016443Y017250D01*
X016323Y017130D01*
X016323Y016890D01*
X016153Y016868D02*
X016120Y016868D01*
X016120Y016926D02*
X016153Y016926D01*
X016177Y016985D02*
X016120Y016985D01*
X016120Y017043D02*
X016213Y017043D01*
X016213Y017102D02*
X016120Y017102D01*
X016120Y017160D02*
X016213Y017160D01*
X016256Y017219D02*
X016120Y017219D01*
X016120Y017277D02*
X016315Y017277D01*
X016333Y017336D02*
X016120Y017336D01*
X016120Y017394D02*
X016333Y017394D01*
X016333Y017453D02*
X016120Y017453D01*
X016120Y017511D02*
X016122Y017511D01*
X016305Y017511D02*
X016333Y017511D01*
X016553Y017745D02*
X016566Y017745D01*
X017081Y017745D02*
X018566Y017745D01*
X018527Y017687D02*
X017120Y017687D01*
X017120Y017628D02*
X018527Y017628D01*
X018527Y017570D02*
X017120Y017570D01*
X017120Y017511D02*
X018527Y017511D01*
X018527Y017453D02*
X017120Y017453D01*
X017120Y017394D02*
X018447Y017394D01*
X018388Y017336D02*
X017120Y017336D01*
X017120Y017277D02*
X018373Y017277D01*
X018373Y017219D02*
X017120Y017219D01*
X017120Y017160D02*
X018393Y017160D01*
X018451Y017102D02*
X017120Y017102D01*
X017120Y017043D02*
X018527Y017043D01*
X018527Y016985D02*
X017120Y016985D01*
X017120Y016926D02*
X018527Y016926D01*
X018527Y016868D02*
X017120Y016868D01*
X017120Y016809D02*
X018527Y016809D01*
X018550Y016751D02*
X017097Y016751D01*
X016550Y016751D02*
X016424Y016751D01*
X016483Y016809D02*
X016527Y016809D01*
X016527Y016868D02*
X016493Y016868D01*
X016493Y016926D02*
X016527Y016926D01*
X016527Y016985D02*
X016469Y016985D01*
X016433Y017043D02*
X016527Y017043D01*
X016527Y017102D02*
X016450Y017102D01*
X016509Y017160D02*
X016527Y017160D01*
X016164Y016809D02*
X016120Y016809D01*
X016097Y016751D02*
X016222Y016751D01*
X015550Y016751D02*
X015524Y016751D01*
X015413Y016692D02*
X025398Y016692D01*
X025398Y016634D02*
X024916Y016634D01*
X025057Y016575D02*
X025398Y016575D01*
X025398Y016517D02*
X025150Y016517D01*
X025208Y016458D02*
X025398Y016458D01*
X025398Y016400D02*
X025267Y016400D01*
X025311Y016341D02*
X025398Y016341D01*
X025398Y016283D02*
X025336Y016283D01*
X025360Y016224D02*
X025398Y016224D01*
X025398Y016166D02*
X025384Y016166D01*
X025384Y015815D02*
X025398Y015815D01*
X025398Y015756D02*
X025360Y015756D01*
X025336Y015698D02*
X025398Y015698D01*
X025398Y015639D02*
X025311Y015639D01*
X025267Y015581D02*
X025398Y015581D01*
X025398Y015522D02*
X025208Y015522D01*
X025150Y015464D02*
X025398Y015464D01*
X025398Y015405D02*
X025057Y015405D01*
X024916Y015347D02*
X025398Y015347D01*
X025398Y015288D02*
X021003Y015288D01*
X021003Y015253D02*
X021003Y015405D01*
X024424Y015405D01*
X024332Y015464D02*
X020944Y015464D01*
X020898Y015510D02*
X020749Y015510D01*
X020643Y015405D01*
X020643Y015253D01*
X020574Y015253D01*
X020527Y015206D01*
X020527Y014274D01*
X020574Y014227D01*
X021073Y014227D01*
X021120Y014274D01*
X021120Y015206D01*
X021073Y015253D01*
X021003Y015253D01*
X021003Y015347D02*
X024566Y015347D01*
X024273Y015522D02*
X015413Y015522D01*
X015413Y015464D02*
X018336Y015464D01*
X018383Y015510D02*
X018283Y015411D01*
X018283Y015270D01*
X018383Y015170D01*
X018524Y015170D01*
X018527Y015173D01*
X018527Y014274D01*
X018574Y014227D01*
X019073Y014227D01*
X019120Y014274D01*
X019120Y015206D01*
X019073Y015253D01*
X018607Y015253D01*
X018623Y015270D01*
X018623Y015411D01*
X018524Y015510D01*
X018383Y015510D01*
X018283Y015405D02*
X015413Y015405D01*
X015413Y015347D02*
X018283Y015347D01*
X018283Y015288D02*
X015413Y015288D01*
X015413Y015230D02*
X016550Y015230D01*
X016527Y015206D02*
X016527Y014274D01*
X016574Y014227D01*
X017073Y014227D01*
X017120Y014274D01*
X017120Y015206D01*
X017073Y015253D01*
X016574Y015253D01*
X016527Y015206D01*
X016527Y015171D02*
X015413Y015171D01*
X015413Y015113D02*
X016527Y015113D01*
X016527Y015054D02*
X015413Y015054D01*
X015413Y014996D02*
X016527Y014996D01*
X016527Y014937D02*
X015413Y014937D01*
X015413Y014879D02*
X016527Y014879D01*
X016527Y014820D02*
X015413Y014820D01*
X015413Y014762D02*
X016527Y014762D01*
X016527Y014703D02*
X015413Y014703D01*
X015413Y014645D02*
X016527Y014645D01*
X016527Y014586D02*
X015413Y014586D01*
X015413Y014528D02*
X016527Y014528D01*
X016527Y014469D02*
X016345Y014469D01*
X016304Y014510D02*
X016163Y014510D01*
X016063Y014411D01*
X016063Y014270D01*
X016163Y014170D01*
X016304Y014170D01*
X016403Y014270D01*
X016403Y014411D01*
X016527Y014411D01*
X016527Y014352D02*
X016403Y014352D01*
X016403Y014294D02*
X016527Y014294D01*
X016566Y014235D02*
X016369Y014235D01*
X016310Y014177D02*
X024711Y014177D01*
X024711Y014235D02*
X022081Y014235D01*
X022073Y014227D02*
X022120Y014274D01*
X022120Y015206D01*
X022073Y015253D01*
X021574Y015253D01*
X021527Y015206D01*
X021527Y014274D01*
X021574Y014227D01*
X022073Y014227D01*
X022120Y014294D02*
X024711Y014294D01*
X024711Y014352D02*
X022120Y014352D01*
X022120Y014411D02*
X024711Y014411D01*
X025398Y014469D02*
X022120Y014469D01*
X022120Y014528D02*
X025398Y014528D01*
X025398Y014586D02*
X022120Y014586D01*
X022120Y014645D02*
X025398Y014645D01*
X025398Y014703D02*
X022120Y014703D01*
X022120Y014762D02*
X025398Y014762D01*
X025398Y014820D02*
X022120Y014820D01*
X022120Y014879D02*
X025398Y014879D01*
X025398Y014937D02*
X022120Y014937D01*
X022120Y014996D02*
X025398Y014996D01*
X025398Y015054D02*
X022120Y015054D01*
X022120Y015113D02*
X025398Y015113D01*
X025398Y015171D02*
X022120Y015171D01*
X022097Y015230D02*
X025398Y015230D01*
X024215Y015581D02*
X017604Y015581D01*
X017604Y015580D02*
X017703Y015680D01*
X017703Y015821D01*
X017604Y015920D01*
X017463Y015920D01*
X017363Y015821D01*
X017363Y015680D01*
X017463Y015580D01*
X017604Y015580D01*
X017663Y015639D02*
X022214Y015639D01*
X022251Y015624D02*
X022116Y015680D01*
X022013Y015783D01*
X021957Y015917D01*
X021957Y016063D01*
X022013Y016198D01*
X022116Y016301D01*
X022251Y016356D01*
X022396Y016356D01*
X022531Y016301D01*
X022634Y016198D01*
X022690Y016063D01*
X022690Y015917D01*
X022634Y015783D01*
X022531Y015680D01*
X022396Y015624D01*
X022251Y015624D01*
X022098Y015698D02*
X017703Y015698D01*
X017703Y015756D02*
X022039Y015756D01*
X022000Y015815D02*
X017703Y015815D01*
X017651Y015873D02*
X021975Y015873D01*
X021957Y015932D02*
X017093Y015932D01*
X017093Y015981D02*
X017093Y015840D01*
X016994Y015740D01*
X016853Y015740D01*
X016753Y015840D01*
X016753Y015981D01*
X016853Y016080D01*
X016994Y016080D01*
X017093Y015981D01*
X017084Y015990D02*
X021957Y015990D01*
X021957Y016049D02*
X017025Y016049D01*
X017093Y015873D02*
X017416Y015873D01*
X017363Y015815D02*
X017068Y015815D01*
X017010Y015756D02*
X017363Y015756D01*
X017363Y015698D02*
X015413Y015698D01*
X015413Y015756D02*
X016837Y015756D01*
X016778Y015815D02*
X015413Y015815D01*
X015413Y015873D02*
X016753Y015873D01*
X016753Y015932D02*
X015413Y015932D01*
X015413Y015990D02*
X016763Y015990D01*
X016821Y016049D02*
X015413Y016049D01*
X015413Y016107D02*
X021975Y016107D01*
X022000Y016166D02*
X015413Y016166D01*
X015413Y016224D02*
X022039Y016224D01*
X022098Y016283D02*
X015413Y016283D01*
X015413Y016341D02*
X022214Y016341D01*
X022433Y016341D02*
X024170Y016341D01*
X024146Y016283D02*
X022549Y016283D01*
X022607Y016224D02*
X024122Y016224D01*
X024097Y016166D02*
X022647Y016166D01*
X022671Y016107D02*
X024079Y016107D01*
X024079Y016049D02*
X022690Y016049D01*
X022690Y015990D02*
X024079Y015990D01*
X024079Y015932D02*
X022690Y015932D01*
X022671Y015873D02*
X024079Y015873D01*
X024097Y015815D02*
X022647Y015815D01*
X022607Y015756D02*
X024122Y015756D01*
X024146Y015698D02*
X022549Y015698D01*
X022433Y015639D02*
X024170Y015639D01*
X024215Y016400D02*
X015413Y016400D01*
X015413Y016458D02*
X024273Y016458D01*
X024332Y016517D02*
X015413Y016517D01*
X015413Y016575D02*
X024424Y016575D01*
X024566Y016634D02*
X015413Y016634D01*
X015303Y016770D02*
X015303Y014190D01*
X015123Y014010D01*
X005343Y014010D01*
X005332Y014177D02*
X005981Y014177D01*
X006183Y014130D02*
X005823Y014490D01*
X005823Y014740D01*
X005527Y014762D02*
X005120Y014762D01*
X005120Y014820D02*
X005527Y014820D01*
X005527Y014879D02*
X005120Y014879D01*
X005120Y014937D02*
X005527Y014937D01*
X005527Y014996D02*
X005120Y014996D01*
X005120Y015054D02*
X005527Y015054D01*
X005527Y015113D02*
X005120Y015113D01*
X005120Y015171D02*
X005527Y015171D01*
X005550Y015230D02*
X005097Y015230D01*
X005120Y014703D02*
X005527Y014703D01*
X005527Y014645D02*
X005120Y014645D01*
X005120Y014586D02*
X005527Y014586D01*
X005527Y014528D02*
X005120Y014528D01*
X005120Y014469D02*
X005527Y014469D01*
X005527Y014411D02*
X005120Y014411D01*
X005157Y014352D02*
X005527Y014352D01*
X005527Y014294D02*
X005215Y014294D01*
X005274Y014235D02*
X005566Y014235D01*
X006120Y014352D02*
X006527Y014352D01*
X006527Y014294D02*
X006175Y014294D01*
X006120Y014411D02*
X006527Y014411D01*
X006527Y014469D02*
X006120Y014469D01*
X006120Y014528D02*
X006527Y014528D01*
X006527Y014586D02*
X006120Y014586D01*
X006120Y014645D02*
X006527Y014645D01*
X006527Y014703D02*
X006120Y014703D01*
X006120Y014762D02*
X006527Y014762D01*
X006527Y014820D02*
X006120Y014820D01*
X006120Y014879D02*
X006527Y014879D01*
X006527Y014937D02*
X006120Y014937D01*
X006120Y014996D02*
X006527Y014996D01*
X006527Y015054D02*
X006120Y015054D01*
X006120Y015113D02*
X006527Y015113D01*
X006527Y015171D02*
X006120Y015171D01*
X006097Y015230D02*
X006550Y015230D01*
X006432Y015405D02*
X006800Y015405D01*
X006773Y015464D02*
X006490Y015464D01*
X006549Y015522D02*
X006773Y015522D01*
X006773Y015581D02*
X006607Y015581D01*
X006666Y015639D02*
X006824Y015639D01*
X006858Y015347D02*
X006373Y015347D01*
X006315Y015288D02*
X009682Y015288D01*
X009623Y015347D02*
X007429Y015347D01*
X007487Y015405D02*
X009565Y015405D01*
X009506Y015464D02*
X007513Y015464D01*
X007513Y015522D02*
X009448Y015522D01*
X009389Y015581D02*
X007513Y015581D01*
X007463Y015639D02*
X009331Y015639D01*
X009745Y015932D02*
X010453Y015932D01*
X010453Y015990D02*
X009687Y015990D01*
X009628Y016049D02*
X010453Y016049D01*
X010511Y016107D02*
X009570Y016107D01*
X009804Y015873D02*
X010446Y015873D01*
X010393Y015815D02*
X009862Y015815D01*
X009921Y015756D02*
X010393Y015756D01*
X010693Y015861D02*
X010693Y015950D01*
X010973Y016230D01*
X010983Y016230D01*
X010913Y016161D01*
X010913Y016020D01*
X011013Y015920D01*
X011084Y015920D01*
X011114Y015890D01*
X013763Y015890D01*
X013768Y015885D01*
X013715Y015885D01*
X013612Y015783D01*
X013530Y015700D01*
X010733Y015700D01*
X010733Y015821D01*
X010693Y015861D01*
X010693Y015873D02*
X013703Y015873D01*
X013644Y015815D02*
X010733Y015815D01*
X010733Y015756D02*
X013586Y015756D01*
X013527Y015200D02*
X013120Y015200D01*
X013120Y014274D01*
X013086Y014240D01*
X013561Y014240D01*
X013527Y014274D01*
X013527Y015200D01*
X013527Y015171D02*
X013120Y015171D01*
X013120Y015113D02*
X013527Y015113D01*
X013527Y015054D02*
X013120Y015054D01*
X013120Y014996D02*
X013527Y014996D01*
X013527Y014937D02*
X013120Y014937D01*
X013120Y014879D02*
X013527Y014879D01*
X013527Y014820D02*
X013120Y014820D01*
X013120Y014762D02*
X013527Y014762D01*
X013527Y014703D02*
X013120Y014703D01*
X013120Y014645D02*
X013527Y014645D01*
X013527Y014586D02*
X013120Y014586D01*
X013120Y014528D02*
X013527Y014528D01*
X013527Y014469D02*
X013120Y014469D01*
X013120Y014411D02*
X013527Y014411D01*
X013527Y014352D02*
X013120Y014352D01*
X013120Y014294D02*
X013527Y014294D01*
X015063Y014130D02*
X015183Y014250D01*
X015183Y017430D01*
X015423Y017670D01*
X014527Y017628D02*
X014120Y017628D01*
X014120Y017570D02*
X014527Y017570D01*
X014374Y017511D02*
X014120Y017511D01*
X014120Y017453D02*
X014315Y017453D01*
X014283Y017394D02*
X014120Y017394D01*
X014120Y017336D02*
X014283Y017336D01*
X014286Y017277D02*
X014120Y017277D01*
X014120Y017219D02*
X014344Y017219D01*
X014527Y017160D02*
X014120Y017160D01*
X014120Y017102D02*
X014527Y017102D01*
X014527Y017043D02*
X014120Y017043D01*
X014120Y016985D02*
X014527Y016985D01*
X014527Y016926D02*
X014120Y016926D01*
X014120Y016868D02*
X014527Y016868D01*
X014527Y016809D02*
X014120Y016809D01*
X014097Y016751D02*
X014550Y016751D01*
X015303Y016770D02*
X015423Y016890D01*
X013550Y016751D02*
X012097Y016751D01*
X012120Y016774D02*
X012120Y017706D01*
X012073Y017753D01*
X011574Y017753D01*
X011527Y017706D01*
X011527Y016774D01*
X011574Y016727D01*
X012073Y016727D01*
X012120Y016774D01*
X012120Y016809D02*
X013527Y016809D01*
X013527Y016868D02*
X012120Y016868D01*
X012120Y016926D02*
X013527Y016926D01*
X013527Y016985D02*
X012120Y016985D01*
X012120Y017043D02*
X013527Y017043D01*
X013527Y017102D02*
X012120Y017102D01*
X012120Y017160D02*
X013527Y017160D01*
X013527Y017219D02*
X012120Y017219D01*
X012120Y017277D02*
X013527Y017277D01*
X013527Y017336D02*
X012120Y017336D01*
X012120Y017394D02*
X013527Y017394D01*
X013527Y017453D02*
X012120Y017453D01*
X012120Y017511D02*
X013202Y017511D01*
X013153Y017560D02*
X013253Y017460D01*
X013394Y017460D01*
X013493Y017560D01*
X013493Y017701D01*
X013394Y017800D01*
X013253Y017800D01*
X013153Y017701D01*
X013153Y017560D01*
X013153Y017570D02*
X012120Y017570D01*
X012120Y017628D02*
X013153Y017628D01*
X013153Y017687D02*
X012120Y017687D01*
X012081Y017745D02*
X013198Y017745D01*
X013449Y017745D02*
X013566Y017745D01*
X013527Y017687D02*
X013493Y017687D01*
X013493Y017628D02*
X013527Y017628D01*
X013527Y017570D02*
X013493Y017570D01*
X013527Y017511D02*
X013445Y017511D01*
X011566Y017745D02*
X011081Y017745D01*
X011120Y017687D02*
X011527Y017687D01*
X011527Y017628D02*
X011120Y017628D01*
X011120Y017570D02*
X011527Y017570D01*
X011527Y017511D02*
X011120Y017511D01*
X011120Y017453D02*
X011527Y017453D01*
X011527Y017394D02*
X011120Y017394D01*
X011120Y017336D02*
X011527Y017336D01*
X011527Y017277D02*
X011120Y017277D01*
X011120Y017219D02*
X011163Y017219D01*
X011404Y017219D02*
X011527Y017219D01*
X011527Y017160D02*
X011462Y017160D01*
X011473Y017102D02*
X011527Y017102D01*
X011527Y017043D02*
X011473Y017043D01*
X011467Y016985D02*
X011527Y016985D01*
X011527Y016926D02*
X011408Y016926D01*
X011527Y016868D02*
X011120Y016868D01*
X011120Y016926D02*
X011159Y016926D01*
X011120Y016809D02*
X011527Y016809D01*
X011550Y016751D02*
X011097Y016751D01*
X010862Y016458D02*
X010673Y016458D01*
X010633Y016400D02*
X010803Y016400D01*
X010745Y016341D02*
X010575Y016341D01*
X010686Y016283D02*
X004549Y016283D01*
X004607Y016224D02*
X010628Y016224D01*
X010569Y016166D02*
X004647Y016166D01*
X004671Y016107D02*
X006427Y016107D01*
X006368Y016049D02*
X004690Y016049D01*
X004690Y015990D02*
X006310Y015990D01*
X006251Y015932D02*
X004690Y015932D01*
X004671Y015873D02*
X006193Y015873D01*
X006134Y015815D02*
X004647Y015815D01*
X004433Y016341D02*
X010432Y016341D01*
X010373Y016400D02*
X003353Y016400D01*
X003353Y016458D02*
X010333Y016458D01*
X010333Y016517D02*
X003353Y016517D01*
X003353Y016575D02*
X010333Y016575D01*
X010386Y016634D02*
X003353Y016634D01*
X003353Y016692D02*
X003406Y016692D01*
X003373Y016751D02*
X003353Y016751D01*
X003353Y016809D02*
X003373Y016809D01*
X003373Y016868D02*
X003353Y016868D01*
X003353Y016926D02*
X003373Y016926D01*
X003373Y016985D02*
X003353Y016985D01*
X003373Y017043D02*
X003306Y017043D01*
X003373Y017102D02*
X002242Y017102D01*
X002231Y016950D02*
X003243Y016950D01*
X003243Y016521D01*
X003214Y016551D01*
X002870Y016551D01*
X002806Y016486D01*
X002742Y016551D01*
X002398Y016551D01*
X002322Y016474D01*
X002322Y016437D01*
X002304Y016455D01*
X001683Y016455D01*
X001683Y016914D01*
X002195Y016914D01*
X002231Y016950D01*
X002207Y016926D02*
X003243Y016926D01*
X003243Y016868D02*
X001683Y016868D01*
X001683Y016809D02*
X003243Y016809D01*
X003243Y016751D02*
X001683Y016751D01*
X001683Y016692D02*
X003243Y016692D01*
X003243Y016634D02*
X001683Y016634D01*
X001683Y016575D02*
X003243Y016575D01*
X003353Y016341D02*
X004214Y016341D01*
X004098Y016283D02*
X003374Y016283D01*
X003433Y016224D02*
X004039Y016224D01*
X004000Y016166D02*
X003491Y016166D01*
X003550Y016107D02*
X003975Y016107D01*
X003957Y016049D02*
X003608Y016049D01*
X003667Y015990D02*
X003957Y015990D01*
X003957Y015932D02*
X003725Y015932D01*
X003784Y015873D02*
X003975Y015873D01*
X004000Y015815D02*
X003842Y015815D01*
X003369Y015581D02*
X002289Y015581D01*
X002331Y015639D02*
X003311Y015639D01*
X003252Y015698D02*
X003247Y015698D01*
X002872Y015698D02*
X002775Y015698D01*
X002400Y015698D02*
X002331Y015698D01*
X002331Y015756D02*
X002341Y015756D01*
X002338Y015815D02*
X002339Y015815D01*
X002322Y016458D02*
X001683Y016458D01*
X001683Y016517D02*
X002364Y016517D01*
X002776Y016517D02*
X002836Y016517D01*
X002823Y017336D02*
X005103Y017336D01*
X005103Y017394D02*
X002823Y017394D01*
X002823Y017453D02*
X005103Y017453D01*
X005103Y017511D02*
X002823Y017511D01*
X002823Y017570D02*
X005103Y017570D01*
X005103Y017628D02*
X002823Y017628D01*
X003550Y015230D02*
X001259Y015230D01*
X001242Y014937D02*
X001491Y014937D01*
X001491Y014879D02*
X001314Y014879D01*
X001356Y014820D02*
X001491Y014820D01*
X001491Y014762D02*
X001381Y014762D01*
X001387Y014703D02*
X001491Y014703D01*
X001491Y014645D02*
X001387Y014645D01*
X001366Y014586D02*
X001491Y014586D01*
X001491Y014528D02*
X001339Y014528D01*
X001280Y014469D02*
X001491Y014469D01*
X001491Y014996D02*
X000658Y014996D01*
X000658Y015054D02*
X001526Y015054D01*
X002207Y015054D02*
X003527Y015054D01*
X003527Y014996D02*
X002242Y014996D01*
X002242Y014937D02*
X003527Y014937D01*
X003527Y014879D02*
X002242Y014879D01*
X002242Y014820D02*
X003527Y014820D01*
X003527Y014762D02*
X002242Y014762D01*
X002242Y014703D02*
X003527Y014703D01*
X003527Y014645D02*
X002242Y014645D01*
X002242Y014586D02*
X003527Y014586D01*
X003527Y014528D02*
X002242Y014528D01*
X002242Y014469D02*
X003527Y014469D01*
X003527Y014411D02*
X002242Y014411D01*
X002232Y014352D02*
X003527Y014352D01*
X004081Y014235D02*
X004566Y014235D01*
X004527Y014294D02*
X004120Y014294D01*
X004120Y014352D02*
X004527Y014352D01*
X004527Y014411D02*
X004120Y014411D01*
X004120Y014469D02*
X004527Y014469D01*
X004527Y014528D02*
X004120Y014528D01*
X004120Y014586D02*
X004527Y014586D01*
X004527Y014645D02*
X004120Y014645D01*
X004120Y014703D02*
X004527Y014703D01*
X003527Y015113D02*
X000658Y015113D01*
X000658Y015171D02*
X003527Y015171D01*
X006183Y014130D02*
X015063Y014130D01*
X015211Y013943D02*
X024711Y013943D01*
X024711Y014001D02*
X015270Y014001D01*
X015328Y014060D02*
X024711Y014060D01*
X024711Y014118D02*
X015387Y014118D01*
X015413Y014177D02*
X016156Y014177D01*
X016098Y014235D02*
X015413Y014235D01*
X015413Y014294D02*
X016063Y014294D01*
X016063Y014352D02*
X015413Y014352D01*
X015413Y014411D02*
X016063Y014411D01*
X016122Y014469D02*
X015413Y014469D01*
X016304Y014510D02*
X016403Y014411D01*
X017081Y014235D02*
X017566Y014235D01*
X017574Y014227D02*
X017527Y014274D01*
X017527Y015206D01*
X017574Y015253D01*
X018073Y015253D01*
X018120Y015206D01*
X018120Y014274D01*
X018073Y014227D01*
X017574Y014227D01*
X017527Y014294D02*
X017120Y014294D01*
X017120Y014352D02*
X017527Y014352D01*
X017527Y014411D02*
X017120Y014411D01*
X017120Y014469D02*
X017527Y014469D01*
X017527Y014528D02*
X017120Y014528D01*
X017120Y014586D02*
X017527Y014586D01*
X017527Y014645D02*
X017120Y014645D01*
X017120Y014703D02*
X017527Y014703D01*
X017527Y014762D02*
X017120Y014762D01*
X017120Y014820D02*
X017527Y014820D01*
X017527Y014879D02*
X017120Y014879D01*
X017120Y014937D02*
X017527Y014937D01*
X017527Y014996D02*
X017120Y014996D01*
X017120Y015054D02*
X017527Y015054D01*
X017527Y015113D02*
X017120Y015113D01*
X017120Y015171D02*
X017527Y015171D01*
X017550Y015230D02*
X017097Y015230D01*
X017462Y015581D02*
X015413Y015581D01*
X015413Y015639D02*
X017404Y015639D01*
X018097Y015230D02*
X018323Y015230D01*
X018382Y015171D02*
X018120Y015171D01*
X018120Y015113D02*
X018527Y015113D01*
X018525Y015171D02*
X018527Y015171D01*
X018527Y015054D02*
X018120Y015054D01*
X018120Y014996D02*
X018527Y014996D01*
X018527Y014937D02*
X018120Y014937D01*
X018120Y014879D02*
X018527Y014879D01*
X018527Y014820D02*
X018120Y014820D01*
X018120Y014762D02*
X018527Y014762D01*
X018527Y014703D02*
X018120Y014703D01*
X018120Y014645D02*
X018527Y014645D01*
X018527Y014586D02*
X018120Y014586D01*
X018120Y014528D02*
X018527Y014528D01*
X018527Y014469D02*
X018120Y014469D01*
X018120Y014411D02*
X018527Y014411D01*
X018527Y014352D02*
X018120Y014352D01*
X018120Y014294D02*
X018527Y014294D01*
X018566Y014235D02*
X018081Y014235D01*
X019081Y014235D02*
X019566Y014235D01*
X019574Y014227D02*
X019527Y014274D01*
X019527Y015206D01*
X019574Y015253D01*
X020073Y015253D01*
X020120Y015206D01*
X020120Y014274D01*
X020073Y014227D01*
X019574Y014227D01*
X019527Y014294D02*
X019437Y014294D01*
X019394Y014250D02*
X019493Y014350D01*
X019493Y014491D01*
X019394Y014590D01*
X019253Y014590D01*
X019153Y014491D01*
X019153Y014350D01*
X019253Y014250D01*
X019394Y014250D01*
X019493Y014352D02*
X019527Y014352D01*
X019527Y014411D02*
X019493Y014411D01*
X019493Y014469D02*
X019527Y014469D01*
X019527Y014528D02*
X019456Y014528D01*
X019398Y014586D02*
X019527Y014586D01*
X019527Y014645D02*
X019120Y014645D01*
X019120Y014703D02*
X019527Y014703D01*
X019527Y014762D02*
X019120Y014762D01*
X019120Y014820D02*
X019527Y014820D01*
X019527Y014879D02*
X019120Y014879D01*
X019120Y014937D02*
X019527Y014937D01*
X019527Y014996D02*
X019120Y014996D01*
X019120Y015054D02*
X019527Y015054D01*
X019527Y015113D02*
X019120Y015113D01*
X019120Y015171D02*
X019527Y015171D01*
X019550Y015230D02*
X019097Y015230D01*
X018623Y015288D02*
X020643Y015288D01*
X020643Y015347D02*
X018623Y015347D01*
X018623Y015405D02*
X020644Y015405D01*
X020702Y015464D02*
X018570Y015464D01*
X020097Y015230D02*
X020550Y015230D01*
X020527Y015171D02*
X020120Y015171D01*
X020120Y015113D02*
X020527Y015113D01*
X020527Y015054D02*
X020120Y015054D01*
X020120Y014996D02*
X020527Y014996D01*
X020527Y014937D02*
X020120Y014937D01*
X020120Y014879D02*
X020527Y014879D01*
X020527Y014820D02*
X020120Y014820D01*
X020120Y014762D02*
X020527Y014762D01*
X020527Y014703D02*
X020120Y014703D01*
X020120Y014645D02*
X020527Y014645D01*
X020527Y014586D02*
X020120Y014586D01*
X020120Y014528D02*
X020527Y014528D01*
X020527Y014469D02*
X020120Y014469D01*
X020120Y014411D02*
X020527Y014411D01*
X020527Y014352D02*
X020120Y014352D01*
X020120Y014294D02*
X020527Y014294D01*
X020566Y014235D02*
X020081Y014235D01*
X019209Y014294D02*
X019120Y014294D01*
X019120Y014352D02*
X019153Y014352D01*
X019153Y014411D02*
X019120Y014411D01*
X019120Y014469D02*
X019153Y014469D01*
X019120Y014528D02*
X019190Y014528D01*
X019249Y014586D02*
X019120Y014586D01*
X020898Y015510D02*
X021003Y015405D01*
X021097Y015230D02*
X021550Y015230D01*
X021527Y015171D02*
X021120Y015171D01*
X021120Y015113D02*
X021527Y015113D01*
X021527Y015054D02*
X021120Y015054D01*
X021120Y014996D02*
X021527Y014996D01*
X021527Y014937D02*
X021120Y014937D01*
X021120Y014879D02*
X021527Y014879D01*
X021527Y014820D02*
X021120Y014820D01*
X021120Y014762D02*
X021527Y014762D01*
X021527Y014703D02*
X021120Y014703D01*
X021120Y014645D02*
X021527Y014645D01*
X021527Y014586D02*
X021120Y014586D01*
X021120Y014528D02*
X021527Y014528D01*
X021527Y014469D02*
X021120Y014469D01*
X021120Y014411D02*
X021527Y014411D01*
X021527Y014352D02*
X021120Y014352D01*
X021120Y014294D02*
X021527Y014294D01*
X021566Y014235D02*
X021081Y014235D01*
X024711Y013884D02*
X000658Y013884D01*
X000658Y013826D02*
X024711Y013826D01*
X024711Y013767D02*
X000658Y013767D01*
X007120Y014294D02*
X008527Y014294D01*
X008527Y014352D02*
X007120Y014352D01*
X007120Y014411D02*
X008527Y014411D01*
X008527Y014469D02*
X007120Y014469D01*
X007120Y014528D02*
X008527Y014528D01*
X008527Y014586D02*
X007120Y014586D01*
X007120Y014645D02*
X008527Y014645D01*
X008527Y014703D02*
X007120Y014703D01*
X007120Y014762D02*
X008527Y014762D01*
X008527Y014820D02*
X007120Y014820D01*
X007120Y014879D02*
X008527Y014879D01*
X008527Y014937D02*
X007120Y014937D01*
X007120Y014996D02*
X008527Y014996D01*
X008527Y015054D02*
X007120Y015054D01*
X007120Y015113D02*
X008527Y015113D01*
X008527Y015171D02*
X007120Y015171D01*
X007097Y015230D02*
X008550Y015230D01*
X009097Y015230D02*
X009550Y015230D01*
X009527Y015171D02*
X009120Y015171D01*
X009120Y015113D02*
X009527Y015113D01*
X009527Y015054D02*
X009120Y015054D01*
X009120Y014996D02*
X009527Y014996D01*
X009527Y014937D02*
X009120Y014937D01*
X009120Y014879D02*
X009527Y014879D01*
X009527Y014820D02*
X009120Y014820D01*
X009120Y014762D02*
X009527Y014762D01*
X009527Y014703D02*
X009120Y014703D01*
X009120Y014645D02*
X009527Y014645D01*
X009527Y014586D02*
X009120Y014586D01*
X009120Y014528D02*
X009527Y014528D01*
X009527Y014469D02*
X009120Y014469D01*
X009120Y014411D02*
X009527Y014411D01*
X009527Y014352D02*
X009120Y014352D01*
X009120Y014294D02*
X009527Y014294D01*
X007218Y015347D02*
X007069Y015347D01*
X007127Y015405D02*
X007160Y015405D01*
X008097Y016751D02*
X008550Y016751D01*
X008527Y016809D02*
X008120Y016809D01*
X008120Y016868D02*
X008527Y016868D01*
X008527Y016926D02*
X008120Y016926D01*
X008120Y016985D02*
X008527Y016985D01*
X008527Y017043D02*
X008120Y017043D01*
X008120Y017102D02*
X008527Y017102D01*
X008527Y017160D02*
X008120Y017160D01*
X008120Y017219D02*
X008527Y017219D01*
X008527Y017277D02*
X008120Y017277D01*
X008120Y017336D02*
X008527Y017336D01*
X008527Y017394D02*
X008120Y017394D01*
X008120Y017453D02*
X008527Y017453D01*
X008527Y017511D02*
X008120Y017511D01*
X008120Y017570D02*
X008527Y017570D01*
X008527Y017628D02*
X008120Y017628D01*
X008120Y017687D02*
X008527Y017687D01*
X008566Y017745D02*
X008081Y017745D01*
X010823Y017750D02*
X010823Y017240D01*
X010967Y016224D02*
X010977Y016224D01*
X010918Y016166D02*
X010909Y016166D01*
X010913Y016107D02*
X010850Y016107D01*
X010792Y016049D02*
X010913Y016049D01*
X010943Y015990D02*
X010733Y015990D01*
X010693Y015932D02*
X011001Y015932D01*
X018543Y017250D02*
X018813Y017250D01*
X018823Y017240D01*
X021783Y017280D02*
X021823Y017240D01*
X022120Y017219D02*
X022527Y017219D01*
X022527Y017277D02*
X022120Y017277D01*
X022120Y017336D02*
X022527Y017336D01*
X022527Y017394D02*
X022120Y017394D01*
X022120Y017453D02*
X022527Y017453D01*
X022527Y017511D02*
X022120Y017511D01*
X022120Y017570D02*
X022527Y017570D01*
X022527Y017628D02*
X022120Y017628D01*
X022120Y017687D02*
X022527Y017687D01*
X022527Y017706D02*
X022527Y016774D01*
X022574Y016727D01*
X023073Y016727D01*
X023120Y016774D01*
X023120Y017706D01*
X023073Y017753D01*
X022983Y017753D01*
X022983Y017805D01*
X022878Y017910D01*
X022729Y017910D01*
X022623Y017805D01*
X022623Y017753D01*
X022574Y017753D01*
X022527Y017706D01*
X022566Y017745D02*
X022081Y017745D01*
X021963Y017804D02*
X022623Y017804D01*
X022681Y017862D02*
X021963Y017862D01*
X021963Y017921D02*
X025398Y017921D01*
X025398Y017979D02*
X021963Y017979D01*
X022926Y017862D02*
X025398Y017862D01*
X025398Y017804D02*
X022983Y017804D01*
X023081Y017745D02*
X025398Y017745D01*
X025398Y017687D02*
X023120Y017687D01*
X023120Y017628D02*
X025398Y017628D01*
X025398Y017570D02*
X023120Y017570D01*
X023120Y017511D02*
X025398Y017511D01*
X025398Y017453D02*
X023120Y017453D01*
X023120Y017394D02*
X025398Y017394D01*
X025398Y017336D02*
X023120Y017336D01*
X023120Y017277D02*
X025398Y017277D01*
X025398Y017219D02*
X023120Y017219D01*
X023120Y017160D02*
X025398Y017160D01*
X025398Y017102D02*
X023120Y017102D01*
X023120Y017043D02*
X025398Y017043D01*
X025398Y016985D02*
X023120Y016985D01*
X023120Y016926D02*
X025398Y016926D01*
X025398Y016868D02*
X023120Y016868D01*
X023120Y016809D02*
X025398Y016809D01*
X025398Y016751D02*
X023097Y016751D01*
X022550Y016751D02*
X022097Y016751D01*
X022120Y016809D02*
X022527Y016809D01*
X022527Y016868D02*
X022120Y016868D01*
X022120Y016926D02*
X022527Y016926D01*
X022527Y016985D02*
X022120Y016985D01*
X022120Y017043D02*
X022527Y017043D01*
X022527Y017102D02*
X022120Y017102D01*
X022120Y017160D02*
X022527Y017160D01*
X022803Y017260D02*
X022823Y017240D01*
D20*
X022803Y017730D03*
X021783Y017910D03*
X020823Y018090D03*
X018543Y017250D03*
X017563Y016750D03*
X016323Y016890D03*
X015423Y016890D03*
X014883Y016590D03*
X014803Y016070D03*
X014183Y015910D03*
X013883Y016010D03*
X014103Y016350D03*
X014863Y015520D03*
X014193Y015270D03*
X014093Y015510D03*
X014433Y014820D03*
X014433Y014400D03*
X013333Y014610D03*
X011083Y016090D03*
X010563Y015750D03*
X010503Y016510D03*
X010623Y017840D03*
X013323Y017630D03*
X014453Y017350D03*
X015123Y017970D03*
X014883Y018150D03*
X015423Y017670D03*
X015733Y018080D03*
X016213Y017660D03*
X016923Y015910D03*
X017533Y015750D03*
X018443Y015650D03*
X018453Y015340D03*
X019323Y014420D03*
X020823Y015330D03*
X024544Y014022D03*
X025134Y014612D03*
X025134Y017959D03*
X016943Y014080D03*
X016233Y014340D03*
X001512Y017959D03*
X000922Y014022D03*
D21*
X003267Y015930D02*
X003762Y015435D01*
X006214Y015435D01*
X006594Y015815D01*
X009402Y015815D01*
X009842Y015375D01*
X013664Y015375D01*
X013809Y015510D01*
X014093Y015510D01*
X013787Y015710D02*
X014673Y015710D01*
X014863Y015520D01*
X013787Y015710D02*
X013602Y015525D01*
X009904Y015525D01*
X009464Y015965D01*
X006532Y015965D01*
X006152Y015585D01*
X003824Y015585D01*
X003107Y016302D01*
X003042Y016302D01*
X002570Y016302D02*
X002570Y016246D01*
X001985Y016246D01*
X001985Y015990D02*
X002587Y015990D01*
X002587Y015930D01*
X003060Y015930D02*
X003267Y015930D01*
D22*
X020823Y015330D02*
X020823Y014740D01*
X020823Y017240D02*
X020823Y018090D01*
X021783Y017910D02*
X021783Y017280D01*
X022803Y017260D02*
X022803Y017730D01*
D23*
X014883Y016590D02*
X010583Y016590D01*
X010503Y016510D01*
X010923Y016350D02*
X010573Y016000D01*
X010573Y015760D01*
X010563Y015750D01*
X011083Y016090D02*
X011163Y016010D01*
X013883Y016010D01*
X014103Y016350D02*
X010923Y016350D01*
M02*
