G75*
%MOIN*%
%OFA0B0*%
%FSLAX24Y24*%
%IPPOS*%
%LPD*%
%AMOC8*
5,1,8,0,0,1.08239X$1,22.5*
%
%ADD10C,0.0010*%
%ADD11C,0.0030*%
%ADD12C,0.0070*%
%ADD13R,0.1423X0.0003*%
%ADD14R,0.1423X0.0002*%
%ADD15R,0.0003X0.0003*%
%ADD16R,0.0007X0.0002*%
%ADD17R,0.0012X0.0003*%
%ADD18R,0.0010X0.0003*%
%ADD19R,0.0017X0.0002*%
%ADD20R,0.0022X0.0003*%
%ADD21R,0.0020X0.0003*%
%ADD22R,0.0027X0.0002*%
%ADD23R,0.0032X0.0003*%
%ADD24R,0.0030X0.0003*%
%ADD25R,0.0037X0.0002*%
%ADD26R,0.0035X0.0002*%
%ADD27R,0.0045X0.0003*%
%ADD28R,0.0040X0.0003*%
%ADD29R,0.0050X0.0002*%
%ADD30R,0.0045X0.0002*%
%ADD31R,0.0055X0.0003*%
%ADD32R,0.0050X0.0003*%
%ADD33R,0.0060X0.0002*%
%ADD34R,0.0055X0.0002*%
%ADD35R,0.0065X0.0003*%
%ADD36R,0.0060X0.0003*%
%ADD37R,0.0065X0.0002*%
%ADD38R,0.0062X0.0003*%
%ADD39R,0.0062X0.0002*%
%ADD40R,0.0063X0.0003*%
%ADD41R,0.0067X0.0002*%
%ADD42R,0.0063X0.0002*%
%ADD43R,0.0090X0.0002*%
%ADD44R,0.0090X0.0003*%
%ADD45R,0.0085X0.0002*%
%ADD46R,0.0095X0.0003*%
%ADD47R,0.0110X0.0002*%
%ADD48R,0.0120X0.0003*%
%ADD49R,0.0132X0.0002*%
%ADD50R,0.0140X0.0003*%
%ADD51R,0.0150X0.0002*%
%ADD52R,0.0157X0.0003*%
%ADD53R,0.0165X0.0002*%
%ADD54R,0.0170X0.0003*%
%ADD55R,0.0177X0.0002*%
%ADD56R,0.0182X0.0003*%
%ADD57R,0.0190X0.0002*%
%ADD58R,0.0195X0.0003*%
%ADD59R,0.0200X0.0002*%
%ADD60R,0.0205X0.0003*%
%ADD61R,0.0210X0.0002*%
%ADD62R,0.0215X0.0003*%
%ADD63R,0.0217X0.0002*%
%ADD64R,0.0222X0.0003*%
%ADD65R,0.0227X0.0002*%
%ADD66R,0.0230X0.0003*%
%ADD67R,0.0235X0.0002*%
%ADD68R,0.0237X0.0003*%
%ADD69R,0.0240X0.0002*%
%ADD70R,0.0245X0.0003*%
%ADD71R,0.0113X0.0002*%
%ADD72R,0.0543X0.0003*%
%ADD73R,0.0102X0.0003*%
%ADD74R,0.0543X0.0002*%
%ADD75R,0.0097X0.0002*%
%ADD76R,0.0537X0.0003*%
%ADD77R,0.0093X0.0003*%
%ADD78R,0.0537X0.0002*%
%ADD79R,0.0533X0.0003*%
%ADD80R,0.0087X0.0003*%
%ADD81R,0.0532X0.0002*%
%ADD82R,0.0530X0.0003*%
%ADD83R,0.0085X0.0003*%
%ADD84R,0.0525X0.0002*%
%ADD85R,0.0083X0.0002*%
%ADD86R,0.0522X0.0003*%
%ADD87R,0.0080X0.0003*%
%ADD88R,0.0522X0.0002*%
%ADD89R,0.0080X0.0002*%
%ADD90R,0.0520X0.0003*%
%ADD91R,0.0077X0.0003*%
%ADD92R,0.0520X0.0002*%
%ADD93R,0.0077X0.0002*%
%ADD94R,0.0517X0.0003*%
%ADD95R,0.0057X0.0003*%
%ADD96R,0.0517X0.0002*%
%ADD97R,0.0075X0.0002*%
%ADD98R,0.0515X0.0003*%
%ADD99R,0.0067X0.0003*%
%ADD100R,0.0073X0.0003*%
%ADD101R,0.0515X0.0002*%
%ADD102R,0.0073X0.0002*%
%ADD103R,0.0513X0.0003*%
%ADD104R,0.0075X0.0003*%
%ADD105R,0.0513X0.0002*%
%ADD106R,0.0082X0.0002*%
%ADD107R,0.0072X0.0002*%
%ADD108R,0.0070X0.0003*%
%ADD109R,0.0072X0.0003*%
%ADD110R,0.0087X0.0002*%
%ADD111R,0.0070X0.0002*%
%ADD112R,0.0047X0.0003*%
%ADD113R,0.0047X0.0002*%
%ADD114R,0.0092X0.0002*%
%ADD115R,0.0092X0.0003*%
%ADD116R,0.0095X0.0002*%
%ADD117R,0.0097X0.0003*%
%ADD118R,0.0133X0.0002*%
%ADD119R,0.0130X0.0003*%
%ADD120R,0.0130X0.0002*%
%ADD121R,0.0127X0.0003*%
%ADD122R,0.0125X0.0002*%
%ADD123R,0.0082X0.0003*%
%ADD124R,0.0125X0.0003*%
%ADD125R,0.0122X0.0002*%
%ADD126R,0.0123X0.0003*%
%ADD127R,0.0120X0.0002*%
%ADD128R,0.0117X0.0003*%
%ADD129R,0.0117X0.0002*%
%ADD130R,0.0035X0.0003*%
%ADD131R,0.0022X0.0002*%
%ADD132R,0.0083X0.0003*%
%ADD133R,0.0115X0.0003*%
%ADD134R,0.0093X0.0002*%
%ADD135R,0.0123X0.0002*%
%ADD136R,0.0122X0.0003*%
%ADD137R,0.0100X0.0002*%
%ADD138R,0.0127X0.0002*%
%ADD139R,0.0105X0.0003*%
%ADD140R,0.0273X0.0002*%
%ADD141R,0.0267X0.0003*%
%ADD142R,0.0263X0.0002*%
%ADD143R,0.0260X0.0003*%
%ADD144R,0.0255X0.0002*%
%ADD145R,0.0250X0.0003*%
%ADD146R,0.0245X0.0002*%
%ADD147R,0.0243X0.0003*%
%ADD148R,0.0235X0.0003*%
%ADD149R,0.0230X0.0002*%
%ADD150R,0.0225X0.0003*%
%ADD151R,0.0220X0.0002*%
%ADD152R,0.0203X0.0003*%
%ADD153R,0.0193X0.0003*%
%ADD154R,0.0187X0.0002*%
%ADD155R,0.0180X0.0003*%
%ADD156R,0.0167X0.0003*%
%ADD157R,0.0163X0.0002*%
%ADD158R,0.0153X0.0003*%
%ADD159R,0.0147X0.0002*%
%ADD160R,0.0135X0.0003*%
%ADD161R,0.0110X0.0003*%
%ADD162R,0.0107X0.0003*%
%ADD163R,0.0102X0.0002*%
%ADD164R,0.0100X0.0003*%
%ADD165R,0.0103X0.0003*%
%ADD166R,0.0105X0.0002*%
%ADD167R,0.0115X0.0002*%
%ADD168R,0.0107X0.0002*%
%ADD169R,0.0323X0.0002*%
%ADD170R,0.0325X0.0003*%
%ADD171R,0.0327X0.0002*%
%ADD172R,0.0330X0.0003*%
%ADD173R,0.0333X0.0002*%
%ADD174R,0.0333X0.0003*%
%ADD175R,0.0337X0.0002*%
%ADD176R,0.0337X0.0003*%
%ADD177R,0.0343X0.0002*%
%ADD178R,0.0343X0.0003*%
%ADD179R,0.0347X0.0002*%
%ADD180R,0.0347X0.0003*%
%ADD181R,0.0353X0.0002*%
%ADD182R,0.0353X0.0003*%
%ADD183R,0.0357X0.0002*%
%ADD184R,0.0357X0.0003*%
%ADD185R,0.0360X0.0002*%
%ADD186R,0.0363X0.0003*%
%ADD187R,0.0365X0.0002*%
%ADD188R,0.0303X0.0003*%
%ADD189R,0.0303X0.0002*%
%ADD190R,0.0165X0.0003*%
%ADD191R,0.0223X0.0003*%
%ADD192R,0.0223X0.0002*%
%ADD193R,0.0217X0.0003*%
%ADD194R,0.0213X0.0002*%
%ADD195R,0.0210X0.0003*%
%ADD196R,0.0207X0.0002*%
%ADD197R,0.0203X0.0002*%
%ADD198R,0.0200X0.0003*%
%ADD199R,0.0197X0.0002*%
%ADD200R,0.0193X0.0002*%
%ADD201R,0.0190X0.0003*%
%ADD202R,0.0043X0.0003*%
%ADD203R,0.0043X0.0002*%
%ADD204R,0.0112X0.0002*%
%ADD205R,0.0040X0.0002*%
%ADD206R,0.0920X0.0002*%
%ADD207R,0.0923X0.0003*%
%ADD208R,0.0927X0.0002*%
%ADD209R,0.0927X0.0003*%
%ADD210R,0.0933X0.0002*%
%ADD211R,0.0933X0.0003*%
%ADD212R,0.0935X0.0002*%
%ADD213R,0.0937X0.0003*%
%ADD214R,0.0937X0.0002*%
%ADD215R,0.0940X0.0003*%
%ADD216R,0.0943X0.0002*%
%ADD217R,0.0943X0.0003*%
%ADD218R,0.0945X0.0002*%
%ADD219R,0.0945X0.0003*%
%ADD220R,0.0947X0.0002*%
%ADD221R,0.0947X0.0003*%
%ADD222R,0.0145X0.0003*%
%ADD223R,0.0147X0.0003*%
%ADD224R,0.0052X0.0002*%
%ADD225R,0.0153X0.0002*%
%ADD226R,0.0155X0.0003*%
%ADD227R,0.0157X0.0002*%
%ADD228R,0.0057X0.0002*%
%ADD229R,0.0160X0.0002*%
%ADD230R,0.0160X0.0003*%
%ADD231R,0.0167X0.0002*%
%ADD232R,0.0173X0.0002*%
%ADD233R,0.0175X0.0003*%
%ADD234R,0.0152X0.0003*%
%ADD235R,0.0152X0.0002*%
%ADD236R,0.0142X0.0003*%
%ADD237R,0.0142X0.0002*%
%ADD238R,0.0103X0.0002*%
%ADD239R,0.0137X0.0003*%
%ADD240R,0.0135X0.0002*%
%ADD241R,0.0132X0.0003*%
%ADD242R,0.0143X0.0002*%
%ADD243R,0.0170X0.0002*%
%ADD244R,0.0407X0.0003*%
%ADD245R,0.0205X0.0002*%
%ADD246R,0.0405X0.0002*%
%ADD247R,0.0227X0.0003*%
%ADD248R,0.0042X0.0003*%
%ADD249R,0.0267X0.0002*%
%ADD250R,0.0262X0.0003*%
%ADD251R,0.0260X0.0002*%
%ADD252R,0.0185X0.0003*%
%ADD253R,0.0560X0.0002*%
%ADD254R,0.0547X0.0003*%
%ADD255R,0.0527X0.0003*%
%ADD256R,0.0430X0.0002*%
%ADD257R,0.0402X0.0003*%
%ADD258R,0.0380X0.0002*%
%ADD259R,0.0340X0.0003*%
%ADD260R,0.0310X0.0002*%
%ADD261R,0.0277X0.0003*%
%ADD262R,0.0257X0.0002*%
%ADD263R,0.0053X0.0003*%
%ADD264R,0.0037X0.0003*%
%ADD265R,0.0033X0.0003*%
%ADD266R,0.0030X0.0002*%
%ADD267R,0.0027X0.0003*%
%ADD268R,0.0025X0.0002*%
%ADD269R,0.0023X0.0003*%
%ADD270R,0.0023X0.0002*%
%ADD271R,0.0020X0.0002*%
%ADD272R,0.0017X0.0003*%
%ADD273R,0.0015X0.0002*%
%ADD274R,0.0015X0.0003*%
%ADD275R,0.0013X0.0002*%
%ADD276R,0.0005X0.0003*%
%ADD277R,0.0003X0.0002*%
%ADD278R,0.0840X0.0010*%
%ADD279R,0.0810X0.0010*%
%ADD280R,0.0800X0.0010*%
%ADD281R,0.0770X0.0010*%
%ADD282R,0.0350X0.0010*%
%ADD283R,0.0380X0.0010*%
%ADD284R,0.0230X0.0010*%
%ADD285R,0.0050X0.0010*%
%ADD286R,0.0360X0.0010*%
%ADD287R,0.0220X0.0010*%
%ADD288R,0.0030X0.0010*%
%ADD289R,0.0330X0.0010*%
%ADD290R,0.0210X0.0010*%
%ADD291R,0.0310X0.0010*%
%ADD292R,0.0200X0.0010*%
%ADD293R,0.0020X0.0010*%
%ADD294R,0.0280X0.0010*%
%ADD295R,0.0010X0.0010*%
%ADD296R,0.0270X0.0010*%
%ADD297R,0.0180X0.0010*%
%ADD298R,0.0240X0.0010*%
%ADD299R,0.0040X0.0010*%
%ADD300R,0.0170X0.0010*%
%ADD301R,0.0160X0.0010*%
%ADD302R,0.0070X0.0010*%
%ADD303R,0.0150X0.0010*%
%ADD304R,0.0140X0.0010*%
%ADD305R,0.0120X0.0010*%
%ADD306R,0.0090X0.0010*%
%ADD307R,0.0100X0.0010*%
%ADD308R,0.0060X0.0010*%
%ADD309R,0.0110X0.0010*%
%ADD310R,0.0130X0.0010*%
%ADD311R,0.0080X0.0010*%
%ADD312R,0.0190X0.0010*%
%ADD313R,0.0300X0.0010*%
%ADD314R,0.0290X0.0010*%
%ADD315R,0.0260X0.0010*%
%ADD316R,0.0250X0.0010*%
%ADD317R,0.0036X0.0003*%
%ADD318R,0.0045X0.0003*%
%ADD319R,0.0039X0.0003*%
%ADD320R,0.0090X0.0003*%
%ADD321R,0.0114X0.0003*%
%ADD322R,0.0099X0.0003*%
%ADD323R,0.0075X0.0003*%
%ADD324R,0.0120X0.0003*%
%ADD325R,0.0156X0.0003*%
%ADD326R,0.0135X0.0003*%
%ADD327R,0.0021X0.0003*%
%ADD328R,0.0027X0.0003*%
%ADD329R,0.0060X0.0003*%
%ADD330R,0.0024X0.0003*%
%ADD331R,0.0024X0.0003*%
%ADD332R,0.0066X0.0003*%
%ADD333R,0.0102X0.0003*%
%ADD334R,0.0057X0.0003*%
%ADD335R,0.0141X0.0003*%
%ADD336R,0.0186X0.0003*%
%ADD337R,0.0165X0.0003*%
%ADD338R,0.0105X0.0003*%
%ADD339R,0.0042X0.0003*%
%ADD340R,0.0117X0.0003*%
%ADD341R,0.0081X0.0003*%
%ADD342R,0.0162X0.0003*%
%ADD343R,0.0210X0.0003*%
%ADD344R,0.0189X0.0003*%
%ADD345R,0.0051X0.0003*%
%ADD346R,0.0132X0.0003*%
%ADD347R,0.0051X0.0003*%
%ADD348R,0.0147X0.0003*%
%ADD349R,0.0096X0.0003*%
%ADD350R,0.0180X0.0003*%
%ADD351R,0.0231X0.0003*%
%ADD352R,0.0207X0.0003*%
%ADD353R,0.0063X0.0003*%
%ADD354R,0.0057X0.0003*%
%ADD355R,0.0174X0.0003*%
%ADD356R,0.0150X0.0003*%
%ADD357R,0.0111X0.0003*%
%ADD358R,0.0198X0.0003*%
%ADD359R,0.0255X0.0003*%
%ADD360R,0.0228X0.0003*%
%ADD361R,0.0069X0.0003*%
%ADD362R,0.0174X0.0003*%
%ADD363R,0.0198X0.0003*%
%ADD364R,0.0123X0.0003*%
%ADD365R,0.0270X0.0003*%
%ADD366R,0.0246X0.0003*%
%ADD367R,0.0072X0.0003*%
%ADD368R,0.0216X0.0003*%
%ADD369R,0.0225X0.0003*%
%ADD370R,0.0288X0.0003*%
%ADD371R,0.0261X0.0003*%
%ADD372R,0.0078X0.0003*%
%ADD373R,0.0207X0.0003*%
%ADD374R,0.0234X0.0003*%
%ADD375R,0.0237X0.0003*%
%ADD376R,0.0300X0.0003*%
%ADD377R,0.0279X0.0003*%
%ADD378R,0.0084X0.0003*%
%ADD379R,0.0081X0.0003*%
%ADD380R,0.0219X0.0003*%
%ADD381R,0.0249X0.0003*%
%ADD382R,0.0315X0.0003*%
%ADD383R,0.0291X0.0003*%
%ADD384R,0.0087X0.0003*%
%ADD385R,0.0087X0.0003*%
%ADD386R,0.0231X0.0003*%
%ADD387R,0.0267X0.0003*%
%ADD388R,0.0204X0.0003*%
%ADD389R,0.0159X0.0003*%
%ADD390R,0.0261X0.0003*%
%ADD391R,0.0330X0.0003*%
%ADD392R,0.0306X0.0003*%
%ADD393R,0.0243X0.0003*%
%ADD394R,0.0342X0.0003*%
%ADD395R,0.0318X0.0003*%
%ADD396R,0.0093X0.0003*%
%ADD397R,0.0084X0.0003*%
%ADD398R,0.0291X0.0003*%
%ADD399R,0.0222X0.0003*%
%ADD400R,0.0171X0.0003*%
%ADD401R,0.0354X0.0003*%
%ADD402R,0.0327X0.0003*%
%ADD403R,0.0264X0.0003*%
%ADD404R,0.0363X0.0003*%
%ADD405R,0.0339X0.0003*%
%ADD406R,0.0273X0.0003*%
%ADD407R,0.0318X0.0003*%
%ADD408R,0.0240X0.0003*%
%ADD409R,0.0312X0.0003*%
%ADD410R,0.0141X0.0003*%
%ADD411R,0.0153X0.0003*%
%ADD412R,0.0285X0.0003*%
%ADD413R,0.0138X0.0003*%
%ADD414R,0.0129X0.0003*%
%ADD415R,0.0282X0.0003*%
%ADD416R,0.0108X0.0003*%
%ADD417R,0.0114X0.0003*%
%ADD418R,0.0348X0.0003*%
%ADD419R,0.0111X0.0003*%
%ADD420R,0.0108X0.0003*%
%ADD421R,0.0357X0.0003*%
%ADD422R,0.0366X0.0003*%
%ADD423R,0.0324X0.0003*%
%ADD424R,0.0375X0.0003*%
%ADD425R,0.0384X0.0003*%
%ADD426R,0.0117X0.0003*%
%ADD427R,0.0336X0.0003*%
%ADD428R,0.0390X0.0003*%
%ADD429R,0.0402X0.0003*%
%ADD430R,0.0054X0.0003*%
%ADD431R,0.0351X0.0003*%
%ADD432R,0.0408X0.0003*%
%ADD433R,0.0414X0.0003*%
%ADD434R,0.0078X0.0003*%
%ADD435R,0.0360X0.0003*%
%ADD436R,0.0420X0.0003*%
%ADD437R,0.0054X0.0003*%
%ADD438R,0.0126X0.0003*%
%ADD439R,0.0429X0.0003*%
%ADD440R,0.0048X0.0003*%
%ADD441R,0.0168X0.0003*%
%ADD442R,0.0171X0.0003*%
%ADD443R,0.0195X0.0003*%
%ADD444R,0.0048X0.0003*%
%ADD445R,0.0033X0.0003*%
%ADD446R,0.0144X0.0003*%
%ADD447R,0.0030X0.0003*%
%ADD448R,0.0144X0.0003*%
%ADD449R,0.0021X0.0003*%
%ADD450R,0.0018X0.0003*%
%ADD451R,0.0015X0.0003*%
%ADD452R,0.0009X0.0003*%
%ADD453R,0.0147X0.0003*%
%ADD454R,0.0006X0.0003*%
%ADD455R,0.0183X0.0003*%
%ADD456R,0.0138X0.0003*%
%ADD457R,0.0177X0.0003*%
%ADD458R,0.0003X0.0003*%
%ADD459R,0.0168X0.0003*%
%ADD460R,0.0201X0.0003*%
%ADD461R,0.0192X0.0003*%
%ADD462R,0.0537X0.0003*%
%ADD463R,0.0546X0.0003*%
%ADD464R,0.0555X0.0003*%
%ADD465R,0.0561X0.0003*%
%ADD466R,0.0564X0.0003*%
%ADD467R,0.0567X0.0003*%
%ADD468R,0.0570X0.0003*%
%ADD469R,0.0573X0.0003*%
%ADD470R,0.0228X0.0003*%
%ADD471R,0.0576X0.0003*%
%ADD472R,0.0579X0.0003*%
%ADD473R,0.0012X0.0003*%
%ADD474R,0.0204X0.0003*%
%ADD475R,0.0378X0.0003*%
%ADD476R,0.0345X0.0003*%
%ADD477R,0.0369X0.0003*%
%ADD478R,0.0018X0.0003*%
%ADD479R,0.0333X0.0003*%
%ADD480R,0.0348X0.0003*%
%ADD481R,0.0321X0.0003*%
%ADD482R,0.0288X0.0003*%
%ADD483R,0.0309X0.0003*%
%ADD484R,0.0201X0.0003*%
%ADD485R,0.0258X0.0003*%
%ADD486R,0.0237X0.0003*%
%ADD487R,0.0252X0.0003*%
%ADD488R,0.0258X0.0003*%
%ADD489R,0.0267X0.0003*%
%ADD490R,0.0303X0.0003*%
%ADD491R,0.0297X0.0003*%
%ADD492R,0.0294X0.0003*%
%ADD493R,0.0294X0.0003*%
%ADD494R,0.0297X0.0003*%
%ADD495R,0.0321X0.0003*%
%ADD496R,0.0327X0.0003*%
%ADD497R,0.0351X0.0003*%
%ADD498R,0.0354X0.0003*%
%ADD499R,0.0357X0.0003*%
%ADD500R,0.0324X0.0003*%
%ADD501R,0.0276X0.0003*%
%ADD502R,0.0213X0.0003*%
%ADD503R,0.0177X0.0003*%
%ADD504C,0.0000*%
%ADD505R,0.0118X0.0059*%
%ADD506R,0.0118X0.0118*%
%ADD507C,0.0050*%
%ADD508C,0.0060*%
%ADD509C,0.0079*%
D10*
X022783Y017071D02*
X022783Y018081D01*
X022785Y018094D01*
X022790Y018106D01*
X022798Y018116D01*
X022808Y018124D01*
X022820Y018129D01*
X022833Y018131D01*
X023813Y018131D01*
X023826Y018129D01*
X023839Y018125D01*
X023850Y018118D01*
X023860Y018108D01*
X023867Y018097D01*
X023871Y018084D01*
X023873Y018071D01*
X023873Y017081D01*
X023872Y017071D01*
X023868Y017061D01*
X023861Y017053D01*
X023853Y017046D01*
X023843Y017042D01*
X023833Y017041D01*
X022813Y017041D01*
X022804Y017042D01*
X022795Y017047D01*
X022789Y017053D01*
X022784Y017062D01*
X022783Y017071D01*
D11*
X010248Y017175D02*
X010248Y017465D01*
X010103Y017465D01*
X010055Y017417D01*
X010055Y017320D01*
X010103Y017272D01*
X010248Y017272D01*
X009954Y017272D02*
X009809Y017272D01*
X009760Y017320D01*
X009760Y017417D01*
X009809Y017465D01*
X009954Y017465D01*
X009954Y017175D01*
X009857Y017272D02*
X009760Y017175D01*
X009659Y017224D02*
X009611Y017175D01*
X009514Y017175D01*
X009466Y017224D01*
X009466Y017417D01*
X009514Y017465D01*
X009611Y017465D01*
X009659Y017417D01*
X009659Y017224D01*
X009364Y017224D02*
X009364Y017417D01*
X009316Y017465D01*
X009219Y017465D01*
X009171Y017417D01*
X009171Y017320D02*
X009268Y017320D01*
X009171Y017320D02*
X009171Y017224D01*
X009219Y017175D01*
X009316Y017175D01*
X009364Y017224D01*
X009070Y017272D02*
X008925Y017272D01*
X008876Y017320D01*
X008876Y017417D01*
X008925Y017465D01*
X009070Y017465D01*
X009070Y017175D01*
X008973Y017272D02*
X008876Y017175D01*
X008775Y017175D02*
X008775Y017369D01*
X008678Y017465D01*
X008582Y017369D01*
X008582Y017175D01*
X008480Y017175D02*
X008480Y017465D01*
X008384Y017369D01*
X008287Y017465D01*
X008287Y017175D01*
X008582Y017320D02*
X008775Y017320D01*
D12*
X008721Y014591D02*
X008426Y014591D01*
X008327Y014492D01*
X008327Y014296D01*
X008426Y014197D01*
X008721Y014197D01*
X008721Y014000D02*
X008721Y014591D01*
X008935Y014296D02*
X009329Y014296D01*
X009543Y014394D02*
X009641Y014296D01*
X009937Y014296D01*
X010151Y014296D02*
X010544Y014296D01*
X010544Y014591D02*
X010544Y014000D01*
X010151Y014000D02*
X010151Y014591D01*
X009937Y014591D02*
X009641Y014591D01*
X009543Y014492D01*
X009543Y014394D01*
X009641Y014296D02*
X009543Y014197D01*
X009543Y014099D01*
X009641Y014000D01*
X009937Y014000D01*
X009937Y014591D01*
X008524Y014197D02*
X008327Y014000D01*
X008113Y014000D02*
X008113Y014591D01*
X007720Y014591D01*
X007917Y014296D02*
X008113Y014296D01*
X007506Y014296D02*
X007112Y014296D01*
X006898Y014197D02*
X006603Y014197D01*
X006504Y014296D01*
X006504Y014492D01*
X006603Y014591D01*
X006898Y014591D01*
X006898Y014000D01*
X006290Y014000D02*
X006093Y014000D01*
X006192Y014000D02*
X006192Y014591D01*
X006290Y014591D02*
X006093Y014591D01*
X005885Y014492D02*
X005885Y014099D01*
X005787Y014000D01*
X005590Y014000D01*
X005491Y014099D01*
X005277Y014099D02*
X005179Y014000D01*
X004982Y014000D01*
X004884Y014099D01*
X004884Y014492D01*
X004982Y014591D01*
X005179Y014591D01*
X005277Y014492D01*
X005277Y014099D01*
X005491Y014492D02*
X005590Y014591D01*
X005787Y014591D01*
X005885Y014492D01*
X004062Y014591D02*
X004062Y014197D01*
X003865Y014000D01*
X003668Y014197D01*
X003668Y014591D01*
X003454Y014394D02*
X003257Y014591D01*
X003257Y014000D01*
X003061Y014000D02*
X003454Y014000D01*
X002847Y014000D02*
X002748Y014000D01*
X002748Y014099D01*
X002847Y014099D01*
X002847Y014000D01*
X002543Y014099D02*
X002149Y014492D01*
X002149Y014099D01*
X002247Y014000D01*
X002444Y014000D01*
X002543Y014099D01*
X002543Y014492D01*
X002444Y014591D01*
X002247Y014591D01*
X002149Y014492D01*
D13*
X023341Y014208D03*
X023341Y014203D03*
X023341Y014198D03*
X023341Y014193D03*
X023341Y014188D03*
X023341Y014183D03*
X023341Y014178D03*
X023341Y014173D03*
X023341Y014168D03*
X023341Y014163D03*
X023341Y014158D03*
X023341Y014153D03*
X023341Y014148D03*
X023341Y014143D03*
X023341Y014138D03*
X023341Y014133D03*
X023341Y014128D03*
X023341Y014123D03*
X023341Y014118D03*
X023341Y014113D03*
X023341Y014108D03*
X023341Y014103D03*
X023341Y014098D03*
X023341Y014093D03*
X023341Y014088D03*
X023341Y014083D03*
X023341Y014078D03*
X023341Y014073D03*
X023341Y014068D03*
X023341Y014063D03*
X023341Y014058D03*
X023341Y014053D03*
X023341Y014048D03*
X023341Y014043D03*
X023341Y014038D03*
X023341Y014033D03*
X023341Y014028D03*
X023341Y014023D03*
X023341Y014018D03*
X023341Y014013D03*
X023341Y014008D03*
X023341Y014003D03*
X023341Y013998D03*
X023341Y013993D03*
X023341Y013988D03*
X023341Y013983D03*
X023341Y013978D03*
X023341Y013973D03*
X023341Y013968D03*
X023341Y013963D03*
X023341Y013958D03*
X023341Y013953D03*
X023341Y013948D03*
X023341Y013943D03*
X023341Y013938D03*
X023341Y013933D03*
X023341Y013928D03*
X023341Y013923D03*
X023341Y013918D03*
X023341Y013913D03*
X023341Y013908D03*
X023341Y013903D03*
X023341Y013898D03*
X023341Y013893D03*
X023341Y013888D03*
X023341Y013883D03*
X023341Y013878D03*
X023341Y013873D03*
X023341Y013868D03*
X023341Y013863D03*
X023341Y013858D03*
D14*
X023341Y013861D03*
X023341Y013866D03*
X023341Y013871D03*
X023341Y013876D03*
X023341Y013881D03*
X023341Y013886D03*
X023341Y013891D03*
X023341Y013896D03*
X023341Y013901D03*
X023341Y013906D03*
X023341Y013911D03*
X023341Y013916D03*
X023341Y013921D03*
X023341Y013926D03*
X023341Y013931D03*
X023341Y013936D03*
X023341Y013941D03*
X023341Y013946D03*
X023341Y013951D03*
X023341Y013956D03*
X023341Y013961D03*
X023341Y013966D03*
X023341Y013971D03*
X023341Y013976D03*
X023341Y013981D03*
X023341Y013986D03*
X023341Y013991D03*
X023341Y013996D03*
X023341Y014001D03*
X023341Y014006D03*
X023341Y014011D03*
X023341Y014016D03*
X023341Y014021D03*
X023341Y014026D03*
X023341Y014031D03*
X023341Y014036D03*
X023341Y014041D03*
X023341Y014046D03*
X023341Y014051D03*
X023341Y014056D03*
X023341Y014061D03*
X023341Y014066D03*
X023341Y014071D03*
X023341Y014076D03*
X023341Y014081D03*
X023341Y014086D03*
X023341Y014091D03*
X023341Y014096D03*
X023341Y014101D03*
X023341Y014106D03*
X023341Y014111D03*
X023341Y014116D03*
X023341Y014121D03*
X023341Y014126D03*
X023341Y014131D03*
X023341Y014136D03*
X023341Y014141D03*
X023341Y014146D03*
X023341Y014151D03*
X023341Y014156D03*
X023341Y014161D03*
X023341Y014166D03*
X023341Y014171D03*
X023341Y014176D03*
X023341Y014181D03*
X023341Y014186D03*
X023341Y014191D03*
X023341Y014196D03*
X023341Y014201D03*
X023341Y014206D03*
X023341Y014211D03*
D15*
X022606Y014563D03*
X024136Y014563D03*
D16*
X024139Y014566D03*
X022606Y014566D03*
X022489Y016331D03*
X024194Y016331D03*
D17*
X024139Y014568D03*
D18*
X022605Y014568D03*
X022490Y016328D03*
X024193Y016328D03*
D19*
X024189Y016321D03*
X024139Y014571D03*
X022606Y014571D03*
D20*
X024139Y014573D03*
D21*
X022605Y014573D03*
D22*
X022606Y014576D03*
X023054Y014831D03*
X024139Y014576D03*
X024184Y016311D03*
D23*
X024139Y014578D03*
D24*
X022605Y014578D03*
D25*
X023054Y014736D03*
X024139Y014581D03*
D26*
X022605Y014581D03*
X022503Y016301D03*
X024180Y016301D03*
D27*
X023705Y015963D03*
X023705Y015958D03*
X023705Y015953D03*
X023705Y015948D03*
X023703Y015943D03*
X023703Y015938D03*
X023703Y015933D03*
X023703Y015928D03*
X023703Y015923D03*
X023700Y015908D03*
X023700Y015903D03*
X023700Y015898D03*
X023700Y015893D03*
X023700Y015888D03*
X023698Y015883D03*
X023698Y015878D03*
X023698Y015873D03*
X023698Y015868D03*
X023695Y015848D03*
X023695Y015843D03*
X023695Y015838D03*
X023695Y015833D03*
X023693Y015823D03*
X023683Y015693D03*
X023680Y015673D03*
X023680Y015668D03*
X023680Y015663D03*
X023680Y015658D03*
X023678Y015648D03*
X023678Y015643D03*
X023678Y015638D03*
X023678Y015633D03*
X023675Y015613D03*
X023675Y015608D03*
X023675Y015603D03*
X023675Y015598D03*
X023673Y015593D03*
X023673Y015588D03*
X023673Y015583D03*
X023673Y015578D03*
X023673Y015573D03*
X023670Y015558D03*
X023670Y015553D03*
X023670Y015548D03*
X023670Y015543D03*
X023670Y015538D03*
X023668Y015533D03*
X023668Y015528D03*
X023668Y015523D03*
X023668Y015518D03*
X023665Y015498D03*
X023665Y015493D03*
X023665Y015488D03*
X023665Y015483D03*
X023663Y015473D03*
X023663Y015468D03*
X023663Y015463D03*
X023663Y015458D03*
X023660Y015438D03*
X023660Y015433D03*
X023660Y015428D03*
X023660Y015423D03*
X023658Y015418D03*
X023658Y015413D03*
X023658Y015408D03*
X023658Y015403D03*
X023658Y015398D03*
X023655Y015383D03*
X023655Y015378D03*
X023655Y015373D03*
X023655Y015368D03*
X023655Y015363D03*
X023653Y015358D03*
X023653Y015353D03*
X023653Y015348D03*
X023653Y015343D03*
X023650Y015323D03*
X023650Y015318D03*
X023650Y015313D03*
X023650Y015308D03*
X023648Y015298D03*
X023648Y015293D03*
X023648Y015288D03*
X023648Y015283D03*
X023645Y015263D03*
X023645Y015258D03*
X023645Y015253D03*
X023645Y015248D03*
X023643Y015238D03*
X023643Y015233D03*
X023643Y015228D03*
X023643Y015223D03*
X023640Y015203D03*
X023640Y015198D03*
X023640Y015193D03*
X023640Y015188D03*
X023638Y015183D03*
X023638Y015178D03*
X023638Y015173D03*
X023628Y015063D03*
X023628Y015058D03*
X023628Y015053D03*
X023628Y015048D03*
X023625Y015028D03*
X023625Y015023D03*
X023625Y015018D03*
X023625Y015013D03*
X023623Y015008D03*
X023623Y015003D03*
X023623Y014998D03*
X023623Y014993D03*
X023623Y014988D03*
X023620Y014973D03*
X023620Y014968D03*
X023620Y014963D03*
X023620Y014958D03*
X023620Y014953D03*
X023618Y014948D03*
X023618Y014943D03*
X023618Y014938D03*
X023618Y014933D03*
X023615Y014913D03*
X023615Y014908D03*
X023615Y014903D03*
X023615Y014898D03*
X023613Y014888D03*
X023613Y014883D03*
X023613Y014878D03*
X023613Y014873D03*
X023610Y014853D03*
X024140Y014583D03*
X023038Y015123D03*
X023035Y015128D03*
X023035Y015133D03*
X023035Y015138D03*
X023035Y015143D03*
X023035Y015148D03*
X023033Y015168D03*
X023033Y015173D03*
X023033Y015178D03*
X023033Y015183D03*
X023030Y015193D03*
X023030Y015198D03*
X023030Y015203D03*
X023030Y015208D03*
X023028Y015228D03*
X023028Y015233D03*
X023028Y015238D03*
X023028Y015243D03*
X023028Y015248D03*
X023025Y015253D03*
X023025Y015258D03*
X023025Y015263D03*
X023025Y015268D03*
X023025Y015273D03*
X023023Y015288D03*
X023023Y015293D03*
X023023Y015298D03*
X023023Y015303D03*
X023023Y015308D03*
X023020Y015313D03*
X023020Y015318D03*
X023020Y015323D03*
X023020Y015328D03*
X023020Y015333D03*
X023018Y015353D03*
X023018Y015358D03*
X023018Y015363D03*
X023018Y015368D03*
X023015Y015378D03*
X023015Y015383D03*
X023015Y015388D03*
X023015Y015393D03*
X023013Y015413D03*
X023013Y015418D03*
X023013Y015423D03*
X023013Y015428D03*
X023013Y015433D03*
X023010Y015438D03*
X023010Y015443D03*
X023010Y015448D03*
X023010Y015453D03*
X023008Y015473D03*
X023008Y015478D03*
X023008Y015483D03*
X023008Y015488D03*
X023008Y015493D03*
X023005Y015498D03*
X023005Y015503D03*
X023005Y015508D03*
X023005Y015513D03*
X023005Y015518D03*
X023003Y015538D03*
X023003Y015543D03*
X023003Y015548D03*
X023003Y015553D03*
X023000Y015563D03*
X023000Y015568D03*
X023000Y015573D03*
X023000Y015578D03*
X022998Y015598D03*
X022998Y015603D03*
X022998Y015608D03*
X022998Y015613D03*
X022995Y015623D03*
X022995Y015628D03*
X022995Y015633D03*
X022995Y015638D03*
X022993Y015658D03*
X022993Y015663D03*
X022993Y015668D03*
X022993Y015673D03*
X022993Y015678D03*
X022990Y015683D03*
X022990Y015688D03*
X022990Y015693D03*
X022990Y015698D03*
X022990Y015703D03*
X022973Y015908D03*
X022973Y015913D03*
X022973Y015918D03*
X022973Y015923D03*
X022970Y015928D03*
X022970Y015933D03*
X022970Y015938D03*
X022970Y015943D03*
X022970Y015948D03*
X022968Y015968D03*
D28*
X023053Y014833D03*
X022605Y014583D03*
D29*
X023053Y014836D03*
X024140Y014586D03*
X023713Y016036D03*
X024173Y016286D03*
X022510Y016286D03*
D30*
X022508Y016291D03*
X022968Y015966D03*
X022970Y015946D03*
X022970Y015941D03*
X022970Y015936D03*
X022970Y015931D03*
X022973Y015921D03*
X022973Y015916D03*
X022973Y015911D03*
X022973Y015906D03*
X022990Y015701D03*
X022990Y015696D03*
X022990Y015691D03*
X022990Y015686D03*
X022993Y015676D03*
X022993Y015671D03*
X022993Y015666D03*
X022993Y015661D03*
X022995Y015641D03*
X022995Y015636D03*
X022995Y015631D03*
X022995Y015626D03*
X022998Y015616D03*
X022998Y015611D03*
X022998Y015606D03*
X022998Y015601D03*
X023000Y015581D03*
X023000Y015576D03*
X023000Y015571D03*
X023000Y015566D03*
X023000Y015561D03*
X023003Y015556D03*
X023003Y015551D03*
X023003Y015546D03*
X023003Y015541D03*
X023003Y015536D03*
X023005Y015516D03*
X023005Y015511D03*
X023005Y015506D03*
X023005Y015501D03*
X023008Y015491D03*
X023008Y015486D03*
X023008Y015481D03*
X023008Y015476D03*
X023010Y015456D03*
X023010Y015451D03*
X023010Y015446D03*
X023010Y015441D03*
X023013Y015431D03*
X023013Y015426D03*
X023013Y015421D03*
X023013Y015416D03*
X023015Y015396D03*
X023015Y015391D03*
X023015Y015386D03*
X023015Y015381D03*
X023015Y015376D03*
X023018Y015371D03*
X023018Y015366D03*
X023018Y015361D03*
X023018Y015356D03*
X023018Y015351D03*
X023020Y015331D03*
X023020Y015326D03*
X023020Y015321D03*
X023020Y015316D03*
X023023Y015306D03*
X023023Y015301D03*
X023023Y015296D03*
X023023Y015291D03*
X023025Y015271D03*
X023025Y015266D03*
X023025Y015261D03*
X023025Y015256D03*
X023028Y015246D03*
X023028Y015241D03*
X023028Y015236D03*
X023028Y015231D03*
X023030Y015211D03*
X023030Y015206D03*
X023030Y015201D03*
X023030Y015196D03*
X023030Y015191D03*
X023033Y015186D03*
X023033Y015181D03*
X023033Y015176D03*
X023033Y015171D03*
X023033Y015166D03*
X023035Y015146D03*
X023035Y015141D03*
X023035Y015136D03*
X023035Y015131D03*
X023038Y015121D03*
X023628Y015061D03*
X023628Y015056D03*
X023628Y015051D03*
X023625Y015031D03*
X023625Y015026D03*
X023625Y015021D03*
X023625Y015016D03*
X023623Y015006D03*
X023623Y015001D03*
X023623Y014996D03*
X023623Y014991D03*
X023620Y014971D03*
X023620Y014966D03*
X023620Y014961D03*
X023620Y014956D03*
X023618Y014946D03*
X023618Y014941D03*
X023618Y014936D03*
X023618Y014931D03*
X023615Y014911D03*
X023615Y014906D03*
X023615Y014901D03*
X023615Y014896D03*
X023613Y014891D03*
X023613Y014886D03*
X023613Y014881D03*
X023613Y014876D03*
X023610Y014856D03*
X023638Y015171D03*
X023638Y015176D03*
X023638Y015181D03*
X023640Y015191D03*
X023640Y015196D03*
X023640Y015201D03*
X023640Y015206D03*
X023643Y015226D03*
X023643Y015231D03*
X023643Y015236D03*
X023643Y015241D03*
X023645Y015246D03*
X023645Y015251D03*
X023645Y015256D03*
X023645Y015261D03*
X023645Y015266D03*
X023648Y015281D03*
X023648Y015286D03*
X023648Y015291D03*
X023648Y015296D03*
X023648Y015301D03*
X023650Y015306D03*
X023650Y015311D03*
X023650Y015316D03*
X023650Y015321D03*
X023653Y015341D03*
X023653Y015346D03*
X023653Y015351D03*
X023653Y015356D03*
X023655Y015366D03*
X023655Y015371D03*
X023655Y015376D03*
X023655Y015381D03*
X023658Y015401D03*
X023658Y015406D03*
X023658Y015411D03*
X023658Y015416D03*
X023660Y015426D03*
X023660Y015431D03*
X023660Y015436D03*
X023660Y015441D03*
X023663Y015461D03*
X023663Y015466D03*
X023663Y015471D03*
X023663Y015476D03*
X023665Y015481D03*
X023665Y015486D03*
X023665Y015491D03*
X023665Y015496D03*
X023668Y015516D03*
X023668Y015521D03*
X023668Y015526D03*
X023668Y015531D03*
X023670Y015541D03*
X023670Y015546D03*
X023670Y015551D03*
X023670Y015556D03*
X023673Y015576D03*
X023673Y015581D03*
X023673Y015586D03*
X023673Y015591D03*
X023675Y015601D03*
X023675Y015606D03*
X023675Y015611D03*
X023675Y015616D03*
X023678Y015636D03*
X023678Y015641D03*
X023678Y015646D03*
X023678Y015651D03*
X023680Y015656D03*
X023680Y015661D03*
X023680Y015666D03*
X023680Y015671D03*
X023683Y015691D03*
X023693Y015826D03*
X023695Y015831D03*
X023695Y015836D03*
X023695Y015841D03*
X023695Y015846D03*
X023698Y015866D03*
X023698Y015871D03*
X023698Y015876D03*
X023698Y015881D03*
X023698Y015886D03*
X023700Y015891D03*
X023700Y015896D03*
X023700Y015901D03*
X023700Y015906D03*
X023703Y015926D03*
X023703Y015931D03*
X023703Y015936D03*
X023703Y015941D03*
X023705Y015951D03*
X023705Y015956D03*
X023705Y015961D03*
X023705Y015966D03*
X024175Y016291D03*
X022605Y014586D03*
D31*
X023053Y014918D03*
X024140Y014588D03*
X023708Y016043D03*
D32*
X023710Y016038D03*
X023713Y016033D03*
X022915Y016093D03*
X022915Y015968D03*
X022605Y014588D03*
D33*
X023150Y015181D03*
X023178Y015211D03*
X023215Y015251D03*
X023243Y015281D03*
X023280Y015321D03*
X023285Y015326D03*
X023308Y015351D03*
X023393Y015441D03*
X023410Y015461D03*
X023415Y015466D03*
X023420Y015471D03*
X023453Y015506D03*
X023458Y015511D03*
X023475Y015531D03*
X023480Y015536D03*
X023485Y015541D03*
X023518Y015576D03*
X023523Y015581D03*
X023528Y015586D03*
X023540Y015601D03*
X023545Y015606D03*
X023550Y015611D03*
X023583Y015646D03*
X023588Y015651D03*
X023593Y015656D03*
X023605Y015671D03*
X023610Y015676D03*
X023615Y015681D03*
X023620Y015686D03*
X023680Y015751D03*
X023685Y015756D03*
X023750Y015826D03*
X023755Y015831D03*
X023778Y015856D03*
X023783Y015861D03*
X023788Y015866D03*
X023793Y015871D03*
X023805Y015886D03*
X023810Y015891D03*
X023815Y015896D03*
X023820Y015901D03*
X023843Y015926D03*
X023848Y015931D03*
X023853Y015936D03*
X023858Y015941D03*
X023863Y015946D03*
X023870Y015956D03*
X023875Y015961D03*
X023880Y015966D03*
X023885Y015971D03*
X023908Y015996D03*
X023913Y016001D03*
X023918Y016006D03*
X023923Y016011D03*
X023928Y016016D03*
X023945Y016036D03*
X023950Y016041D03*
X023955Y016046D03*
X023960Y016051D03*
X023965Y016056D03*
X023970Y016061D03*
X023973Y016066D03*
X023978Y016071D03*
X023983Y016076D03*
X023988Y016081D03*
X023993Y016086D03*
X024010Y016106D03*
X024015Y016111D03*
X024020Y016116D03*
X024025Y016121D03*
X024030Y016126D03*
X024035Y016131D03*
X024038Y016136D03*
X024043Y016141D03*
X024048Y016146D03*
X024053Y016151D03*
X024058Y016156D03*
X024063Y016161D03*
X024075Y016176D03*
X024080Y016181D03*
X024085Y016186D03*
X024090Y016191D03*
X024095Y016196D03*
X024100Y016201D03*
X024103Y016206D03*
X024108Y016211D03*
X024113Y016216D03*
X024118Y016221D03*
X024123Y016226D03*
X024128Y016231D03*
X024140Y016246D03*
X024145Y016251D03*
X024150Y016256D03*
X024155Y016261D03*
X024160Y016266D03*
X024165Y016271D03*
X023698Y016056D03*
X022615Y016171D03*
X022610Y016176D03*
X022558Y016231D03*
X022515Y016276D03*
X024140Y014591D03*
D34*
X022605Y014591D03*
X023705Y016046D03*
X024170Y016281D03*
X022513Y016281D03*
D35*
X022983Y015793D03*
X022993Y015778D03*
X023690Y016063D03*
X023493Y015263D03*
X023545Y015208D03*
X023625Y015128D03*
X023628Y015123D03*
X023633Y015118D03*
X023685Y015063D03*
X023690Y015058D03*
X023763Y014983D03*
X023768Y014978D03*
X023773Y014973D03*
X023815Y014928D03*
X023820Y014923D03*
X023825Y014918D03*
X023830Y014913D03*
X023898Y014843D03*
X023903Y014838D03*
X023908Y014833D03*
X023913Y014828D03*
X023918Y014823D03*
X023980Y014758D03*
X023985Y014753D03*
X023990Y014748D03*
X023995Y014743D03*
X024000Y014738D03*
X024038Y014698D03*
X024043Y014693D03*
X024048Y014688D03*
X024053Y014683D03*
X024058Y014678D03*
X024120Y014613D03*
X024125Y014608D03*
X024130Y014603D03*
X024135Y014598D03*
X024140Y014593D03*
X023033Y015053D03*
X022780Y014783D03*
D36*
X022748Y014748D03*
X022683Y014678D03*
X022605Y014593D03*
X022813Y014818D03*
X022850Y014858D03*
X022855Y014863D03*
X022878Y014888D03*
X023053Y014738D03*
X023045Y015068D03*
X023115Y015143D03*
X023120Y015148D03*
X023125Y015153D03*
X023138Y015168D03*
X023143Y015173D03*
X023148Y015178D03*
X023180Y015213D03*
X023185Y015218D03*
X023190Y015223D03*
X023203Y015238D03*
X023208Y015243D03*
X023213Y015248D03*
X023218Y015253D03*
X023245Y015283D03*
X023250Y015288D03*
X023255Y015293D03*
X023268Y015308D03*
X023273Y015313D03*
X023278Y015318D03*
X023283Y015323D03*
X023310Y015353D03*
X023315Y015358D03*
X023320Y015363D03*
X023325Y015368D03*
X023390Y015438D03*
X023413Y015463D03*
X023418Y015468D03*
X023423Y015473D03*
X023428Y015478D03*
X023433Y015483D03*
X023440Y015493D03*
X023445Y015498D03*
X023450Y015503D03*
X023455Y015508D03*
X023460Y015513D03*
X023478Y015533D03*
X023483Y015538D03*
X023488Y015543D03*
X023493Y015548D03*
X023498Y015553D03*
X023505Y015563D03*
X023510Y015568D03*
X023515Y015573D03*
X023520Y015578D03*
X023525Y015583D03*
X023543Y015603D03*
X023548Y015608D03*
X023553Y015613D03*
X023558Y015618D03*
X023563Y015623D03*
X023568Y015628D03*
X023570Y015633D03*
X023575Y015638D03*
X023580Y015643D03*
X023585Y015648D03*
X023590Y015653D03*
X023608Y015673D03*
X023613Y015678D03*
X023618Y015683D03*
X023623Y015688D03*
X023628Y015693D03*
X023683Y015753D03*
X023688Y015758D03*
X023693Y015763D03*
X023748Y015823D03*
X023753Y015828D03*
X023758Y015833D03*
X023763Y015838D03*
X023770Y015848D03*
X023775Y015853D03*
X023780Y015858D03*
X023785Y015863D03*
X023790Y015868D03*
X023795Y015873D03*
X023803Y015883D03*
X023808Y015888D03*
X023813Y015893D03*
X023818Y015898D03*
X023823Y015903D03*
X023828Y015908D03*
X023835Y015918D03*
X023840Y015923D03*
X023845Y015928D03*
X023850Y015933D03*
X023855Y015938D03*
X023860Y015943D03*
X023868Y015953D03*
X023873Y015958D03*
X023878Y015963D03*
X023883Y015968D03*
X023888Y015973D03*
X023893Y015978D03*
X023898Y015983D03*
X023903Y015988D03*
X023910Y015998D03*
X023915Y016003D03*
X023920Y016008D03*
X023925Y016013D03*
X023933Y016023D03*
X023938Y016028D03*
X023943Y016033D03*
X023948Y016038D03*
X023953Y016043D03*
X023958Y016048D03*
X023963Y016053D03*
X023968Y016058D03*
X023975Y016068D03*
X023980Y016073D03*
X023985Y016078D03*
X023990Y016083D03*
X023995Y016088D03*
X024013Y016108D03*
X024018Y016113D03*
X024023Y016118D03*
X024028Y016123D03*
X024033Y016128D03*
X024040Y016138D03*
X024045Y016143D03*
X024050Y016148D03*
X024055Y016153D03*
X024060Y016158D03*
X024078Y016178D03*
X024083Y016183D03*
X024088Y016188D03*
X024093Y016193D03*
X024098Y016198D03*
X024103Y016203D03*
X024105Y016208D03*
X024110Y016213D03*
X024115Y016218D03*
X024120Y016223D03*
X024125Y016228D03*
X024143Y016248D03*
X024148Y016253D03*
X024153Y016258D03*
X024158Y016263D03*
X024163Y016268D03*
X024168Y016273D03*
X023700Y016053D03*
X023188Y015578D03*
X023183Y015583D03*
X023265Y015498D03*
X023048Y015723D03*
X022990Y015783D03*
X022985Y015788D03*
X022860Y015918D03*
X022855Y015923D03*
X022850Y015928D03*
X022845Y015933D03*
X022840Y015938D03*
X022778Y016003D03*
X022773Y016008D03*
X022768Y016013D03*
X022763Y016018D03*
X022758Y016023D03*
X022753Y016028D03*
X022695Y016088D03*
X022690Y016093D03*
X022685Y016098D03*
X022680Y016103D03*
X022675Y016108D03*
X022670Y016113D03*
X022643Y016143D03*
X022638Y016148D03*
X022633Y016153D03*
X022628Y016158D03*
X022623Y016163D03*
X022618Y016168D03*
X022613Y016173D03*
X022560Y016228D03*
X022555Y016233D03*
X022550Y016238D03*
X022545Y016243D03*
X022540Y016248D03*
X022535Y016253D03*
X022530Y016258D03*
X022525Y016263D03*
D37*
X022755Y016026D03*
X022760Y016021D03*
X022765Y016016D03*
X022770Y016011D03*
X022775Y016006D03*
X022780Y016001D03*
X022838Y015941D03*
X022983Y015791D03*
X023055Y015716D03*
X023060Y015711D03*
X023065Y015706D03*
X023190Y015576D03*
X023195Y015571D03*
X023200Y015566D03*
X023205Y015561D03*
X023243Y015521D03*
X023248Y015516D03*
X023253Y015511D03*
X023258Y015506D03*
X023263Y015501D03*
X023318Y015361D03*
X023408Y015351D03*
X023413Y015346D03*
X023418Y015341D03*
X023423Y015336D03*
X023428Y015331D03*
X023433Y015326D03*
X023465Y015291D03*
X023470Y015286D03*
X023475Y015281D03*
X023480Y015276D03*
X023485Y015271D03*
X023490Y015266D03*
X023548Y015206D03*
X023553Y015201D03*
X023558Y015196D03*
X023563Y015191D03*
X023568Y015186D03*
X023573Y015181D03*
X023578Y015176D03*
X023625Y015126D03*
X023630Y015121D03*
X023643Y015106D03*
X023688Y015061D03*
X023693Y015056D03*
X023698Y015051D03*
X023703Y015046D03*
X023708Y015041D03*
X023713Y015036D03*
X023718Y015031D03*
X023735Y015011D03*
X023740Y015006D03*
X023745Y015001D03*
X023750Y014996D03*
X023755Y014991D03*
X023760Y014986D03*
X023765Y014981D03*
X023770Y014976D03*
X023775Y014971D03*
X023818Y014926D03*
X023823Y014921D03*
X023828Y014916D03*
X023833Y014911D03*
X023838Y014906D03*
X023843Y014901D03*
X023848Y014896D03*
X023853Y014891D03*
X023858Y014886D03*
X023870Y014871D03*
X023875Y014866D03*
X023880Y014861D03*
X023885Y014856D03*
X023890Y014851D03*
X023895Y014846D03*
X023900Y014841D03*
X023905Y014836D03*
X023910Y014831D03*
X023915Y014826D03*
X023920Y014821D03*
X023925Y014816D03*
X023930Y014811D03*
X023935Y014806D03*
X023940Y014801D03*
X023945Y014796D03*
X023953Y014786D03*
X023958Y014781D03*
X023963Y014776D03*
X023968Y014771D03*
X023973Y014766D03*
X023978Y014761D03*
X023983Y014756D03*
X023988Y014751D03*
X023993Y014746D03*
X023998Y014741D03*
X024003Y014736D03*
X024035Y014701D03*
X024040Y014696D03*
X024045Y014691D03*
X024050Y014686D03*
X024055Y014681D03*
X024060Y014676D03*
X024065Y014671D03*
X024070Y014666D03*
X024075Y014661D03*
X024080Y014656D03*
X024085Y014651D03*
X024093Y014641D03*
X024098Y014636D03*
X024103Y014631D03*
X024108Y014626D03*
X024113Y014621D03*
X024118Y014616D03*
X024123Y014611D03*
X024128Y014606D03*
X024133Y014601D03*
X024138Y014596D03*
X023053Y014841D03*
X022848Y014856D03*
X022820Y014826D03*
X022783Y014786D03*
X022778Y014781D03*
X022755Y014756D03*
X022750Y014751D03*
X022745Y014746D03*
X022740Y014741D03*
X022718Y014716D03*
X022713Y014711D03*
X022675Y014671D03*
X022670Y014666D03*
X022653Y014646D03*
X022648Y014641D03*
X022610Y014601D03*
X022605Y014596D03*
X023050Y015076D03*
X023678Y015746D03*
X023698Y015771D03*
X023693Y016061D03*
D38*
X023694Y016058D03*
X023864Y015948D03*
X023799Y015878D03*
X023699Y015773D03*
X023679Y015748D03*
X023604Y015668D03*
X023599Y015663D03*
X023594Y015658D03*
X023539Y015598D03*
X023534Y015593D03*
X023529Y015588D03*
X023474Y015528D03*
X023469Y015523D03*
X023464Y015518D03*
X023409Y015458D03*
X023404Y015453D03*
X023399Y015448D03*
X023394Y015443D03*
X023324Y015438D03*
X023319Y015443D03*
X023314Y015448D03*
X023309Y015453D03*
X023304Y015458D03*
X023299Y015463D03*
X023294Y015468D03*
X023289Y015473D03*
X023284Y015478D03*
X023279Y015483D03*
X023274Y015488D03*
X023269Y015493D03*
X023179Y015588D03*
X023174Y015593D03*
X023169Y015598D03*
X023164Y015603D03*
X023159Y015608D03*
X023154Y015613D03*
X023149Y015618D03*
X023144Y015623D03*
X023264Y015303D03*
X023259Y015298D03*
X023199Y015233D03*
X023194Y015228D03*
X023134Y015163D03*
X023129Y015158D03*
X023049Y015073D03*
X022874Y014883D03*
X022869Y014878D03*
X022864Y014873D03*
X022859Y014868D03*
X022809Y014813D03*
X022804Y014808D03*
X022799Y014803D03*
X022794Y014798D03*
X022789Y014793D03*
X022784Y014788D03*
X022744Y014743D03*
X022739Y014738D03*
X022734Y014733D03*
X022729Y014728D03*
X022724Y014723D03*
X022719Y014718D03*
X022714Y014713D03*
X022709Y014708D03*
X022679Y014673D03*
X022674Y014668D03*
X022669Y014663D03*
X022664Y014658D03*
X022659Y014653D03*
X022654Y014648D03*
X022649Y014643D03*
X022644Y014638D03*
X022614Y014603D03*
X022609Y014598D03*
X023469Y015288D03*
X023474Y015283D03*
X023479Y015278D03*
X023484Y015273D03*
X023489Y015268D03*
X023464Y015293D03*
X023459Y015298D03*
X023454Y015303D03*
X023449Y015308D03*
X023444Y015313D03*
X023439Y015318D03*
X023434Y015323D03*
X023429Y015328D03*
X023424Y015333D03*
X023419Y015338D03*
X023414Y015343D03*
X023409Y015348D03*
X023549Y015203D03*
X023554Y015198D03*
X023559Y015193D03*
X023564Y015188D03*
X023569Y015183D03*
X023574Y015178D03*
X023579Y015173D03*
X023694Y015053D03*
X023699Y015048D03*
X023704Y015043D03*
X023709Y015038D03*
X023714Y015033D03*
X023719Y015028D03*
X023724Y015023D03*
X023729Y015018D03*
X023734Y015013D03*
X023739Y015008D03*
X023744Y015003D03*
X023749Y014998D03*
X023754Y014993D03*
X023759Y014988D03*
X023834Y014908D03*
X023839Y014903D03*
X023844Y014898D03*
X023849Y014893D03*
X023854Y014888D03*
X023859Y014883D03*
X023864Y014878D03*
X023869Y014873D03*
X023874Y014868D03*
X023879Y014863D03*
X023884Y014858D03*
X023889Y014853D03*
X023894Y014848D03*
X024004Y014733D03*
X024009Y014728D03*
X024014Y014723D03*
X024019Y014718D03*
X024024Y014713D03*
X024029Y014708D03*
X024034Y014703D03*
X022879Y015898D03*
X022874Y015903D03*
X022869Y015908D03*
X022864Y015913D03*
X022749Y016033D03*
X022744Y016038D03*
X022739Y016043D03*
X022734Y016048D03*
X022729Y016053D03*
X022724Y016058D03*
X022719Y016063D03*
X022714Y016068D03*
X022709Y016073D03*
X022704Y016078D03*
X022699Y016083D03*
X022609Y016178D03*
X022604Y016183D03*
X022599Y016188D03*
X022594Y016193D03*
X022589Y016198D03*
X022584Y016203D03*
X022579Y016208D03*
X022574Y016213D03*
X022569Y016218D03*
X022564Y016223D03*
X023929Y016018D03*
D39*
X023904Y015991D03*
X023899Y015986D03*
X023894Y015981D03*
X023889Y015976D03*
X023839Y015921D03*
X023834Y015916D03*
X023829Y015911D03*
X023824Y015906D03*
X023774Y015851D03*
X023769Y015846D03*
X023764Y015841D03*
X023759Y015836D03*
X023694Y015766D03*
X023689Y015761D03*
X023624Y015691D03*
X023579Y015641D03*
X023574Y015636D03*
X023569Y015631D03*
X023564Y015626D03*
X023559Y015621D03*
X023554Y015616D03*
X023514Y015571D03*
X023509Y015566D03*
X023504Y015561D03*
X023499Y015556D03*
X023494Y015551D03*
X023489Y015546D03*
X023449Y015501D03*
X023444Y015496D03*
X023439Y015491D03*
X023434Y015486D03*
X023429Y015481D03*
X023424Y015476D03*
X023394Y015366D03*
X023399Y015361D03*
X023404Y015356D03*
X023314Y015356D03*
X023304Y015346D03*
X023299Y015341D03*
X023294Y015336D03*
X023289Y015331D03*
X023239Y015276D03*
X023234Y015271D03*
X023229Y015266D03*
X023224Y015261D03*
X023219Y015256D03*
X023174Y015206D03*
X023169Y015201D03*
X023164Y015196D03*
X023159Y015191D03*
X023154Y015186D03*
X023109Y015136D03*
X023104Y015131D03*
X023099Y015126D03*
X023094Y015121D03*
X023044Y015066D03*
X023039Y015061D03*
X023034Y015056D03*
X023054Y014916D03*
X022844Y014851D03*
X022839Y014846D03*
X022834Y014841D03*
X022829Y014836D03*
X022824Y014831D03*
X022774Y014776D03*
X022769Y014771D03*
X022764Y014766D03*
X022759Y014761D03*
X022709Y014706D03*
X022704Y014701D03*
X022699Y014696D03*
X022694Y014691D03*
X022689Y014686D03*
X022684Y014681D03*
X022679Y014676D03*
X022644Y014636D03*
X022639Y014631D03*
X022634Y014626D03*
X022629Y014621D03*
X022624Y014616D03*
X022619Y014611D03*
X022614Y014606D03*
X023494Y015261D03*
X023499Y015256D03*
X023504Y015251D03*
X023509Y015246D03*
X023514Y015241D03*
X023519Y015236D03*
X023524Y015231D03*
X023529Y015226D03*
X023534Y015221D03*
X023539Y015216D03*
X023544Y015211D03*
X023634Y015116D03*
X023639Y015111D03*
X023779Y014966D03*
X023784Y014961D03*
X023789Y014956D03*
X023794Y014951D03*
X023799Y014946D03*
X023804Y014941D03*
X023809Y014936D03*
X023814Y014931D03*
X023949Y014791D03*
X023239Y015526D03*
X023234Y015531D03*
X023229Y015536D03*
X023224Y015541D03*
X023219Y015546D03*
X023214Y015551D03*
X023209Y015556D03*
X023094Y015676D03*
X023089Y015681D03*
X023084Y015686D03*
X023079Y015691D03*
X023074Y015696D03*
X023069Y015701D03*
X022834Y015946D03*
X022829Y015951D03*
X022824Y015956D03*
X022819Y015961D03*
X022814Y015966D03*
X022809Y015971D03*
X022804Y015976D03*
X022799Y015981D03*
X022794Y015986D03*
X022789Y015991D03*
X022784Y015996D03*
X022694Y016091D03*
X022689Y016096D03*
X022684Y016101D03*
X022679Y016106D03*
X022674Y016111D03*
X022669Y016116D03*
X022664Y016121D03*
X022659Y016126D03*
X022654Y016131D03*
X022649Y016136D03*
X022644Y016141D03*
X022639Y016146D03*
X022634Y016151D03*
X022629Y016156D03*
X022624Y016161D03*
X022619Y016166D03*
X022554Y016236D03*
X022549Y016241D03*
X022544Y016246D03*
X022539Y016251D03*
X022534Y016256D03*
X022529Y016261D03*
X022524Y016266D03*
X022519Y016271D03*
D40*
X022516Y016273D03*
X022521Y016268D03*
X022646Y016138D03*
X022651Y016133D03*
X022656Y016128D03*
X022661Y016123D03*
X022666Y016118D03*
X022781Y015998D03*
X022786Y015993D03*
X022791Y015988D03*
X022796Y015983D03*
X022801Y015978D03*
X022806Y015973D03*
X022811Y015968D03*
X022816Y015963D03*
X022821Y015958D03*
X022826Y015953D03*
X022831Y015948D03*
X022836Y015943D03*
X023051Y015718D03*
X023056Y015713D03*
X023061Y015708D03*
X023066Y015703D03*
X023071Y015698D03*
X023076Y015693D03*
X023081Y015688D03*
X023086Y015683D03*
X023091Y015678D03*
X023096Y015673D03*
X023191Y015573D03*
X023196Y015568D03*
X023201Y015563D03*
X023206Y015558D03*
X023211Y015553D03*
X023216Y015548D03*
X023221Y015543D03*
X023226Y015538D03*
X023231Y015533D03*
X023236Y015528D03*
X023241Y015523D03*
X023246Y015518D03*
X023251Y015513D03*
X023256Y015508D03*
X023261Y015503D03*
X023356Y015403D03*
X023391Y015368D03*
X023396Y015363D03*
X023401Y015358D03*
X023406Y015353D03*
X023306Y015348D03*
X023301Y015343D03*
X023296Y015338D03*
X023291Y015333D03*
X023286Y015328D03*
X023241Y015278D03*
X023236Y015273D03*
X023231Y015268D03*
X023226Y015263D03*
X023221Y015258D03*
X023176Y015208D03*
X023171Y015203D03*
X023166Y015198D03*
X023161Y015193D03*
X023156Y015188D03*
X023151Y015183D03*
X023111Y015138D03*
X023106Y015133D03*
X023101Y015128D03*
X023096Y015123D03*
X023041Y015063D03*
X023036Y015058D03*
X022846Y014853D03*
X022841Y014848D03*
X022836Y014843D03*
X022831Y014838D03*
X022826Y014833D03*
X022821Y014828D03*
X022816Y014823D03*
X022776Y014778D03*
X022771Y014773D03*
X022766Y014768D03*
X022761Y014763D03*
X022756Y014758D03*
X022751Y014753D03*
X022706Y014703D03*
X022701Y014698D03*
X022696Y014693D03*
X022691Y014688D03*
X022686Y014683D03*
X022641Y014633D03*
X022636Y014628D03*
X022631Y014623D03*
X022626Y014618D03*
X022621Y014613D03*
X022616Y014608D03*
X023496Y015258D03*
X023501Y015253D03*
X023506Y015248D03*
X023511Y015243D03*
X023516Y015238D03*
X023521Y015233D03*
X023526Y015228D03*
X023531Y015223D03*
X023536Y015218D03*
X023541Y015213D03*
X023636Y015113D03*
X023641Y015108D03*
X023776Y014968D03*
X023781Y014963D03*
X023786Y014958D03*
X023791Y014953D03*
X023796Y014948D03*
X023801Y014943D03*
X023806Y014938D03*
X023811Y014933D03*
X023921Y014818D03*
X023926Y014813D03*
X023931Y014808D03*
X023936Y014803D03*
X023941Y014798D03*
X023946Y014793D03*
X023951Y014788D03*
X023956Y014783D03*
X023961Y014778D03*
X023966Y014773D03*
X023971Y014768D03*
X023976Y014763D03*
X024061Y014673D03*
X024066Y014668D03*
X024071Y014663D03*
X024076Y014658D03*
X024081Y014653D03*
X024086Y014648D03*
X024091Y014643D03*
X024096Y014638D03*
X024101Y014633D03*
X024106Y014628D03*
X024111Y014623D03*
X024116Y014618D03*
X023436Y015488D03*
X023501Y015558D03*
X023696Y015768D03*
X023906Y015993D03*
X023971Y016063D03*
X024036Y016133D03*
D41*
X023701Y015776D03*
X023356Y015406D03*
X023356Y015401D03*
X023031Y015051D03*
X024089Y014646D03*
X022994Y015776D03*
D42*
X022991Y015781D03*
X022986Y015786D03*
X023051Y015721D03*
X023146Y015621D03*
X023151Y015616D03*
X023156Y015611D03*
X023161Y015606D03*
X023166Y015601D03*
X023171Y015596D03*
X023176Y015591D03*
X023181Y015586D03*
X023186Y015581D03*
X023266Y015496D03*
X023271Y015491D03*
X023276Y015486D03*
X023281Y015481D03*
X023286Y015476D03*
X023291Y015471D03*
X023296Y015466D03*
X023301Y015461D03*
X023306Y015456D03*
X023311Y015451D03*
X023316Y015446D03*
X023321Y015441D03*
X023321Y015366D03*
X023276Y015316D03*
X023271Y015311D03*
X023266Y015306D03*
X023261Y015301D03*
X023256Y015296D03*
X023251Y015291D03*
X023246Y015286D03*
X023211Y015246D03*
X023206Y015241D03*
X023201Y015236D03*
X023196Y015231D03*
X023191Y015226D03*
X023186Y015221D03*
X023181Y015216D03*
X023146Y015176D03*
X023141Y015171D03*
X023136Y015166D03*
X023131Y015161D03*
X023126Y015156D03*
X023121Y015151D03*
X023116Y015146D03*
X023111Y015141D03*
X023046Y015071D03*
X022876Y014886D03*
X022871Y014881D03*
X022866Y014876D03*
X022861Y014871D03*
X022856Y014866D03*
X022851Y014861D03*
X022816Y014821D03*
X022811Y014816D03*
X022806Y014811D03*
X022801Y014806D03*
X022796Y014801D03*
X022791Y014796D03*
X022786Y014791D03*
X022736Y014736D03*
X022731Y014731D03*
X022726Y014726D03*
X022721Y014721D03*
X022666Y014661D03*
X022661Y014656D03*
X022656Y014651D03*
X023581Y015171D03*
X023461Y015296D03*
X023456Y015301D03*
X023451Y015306D03*
X023446Y015311D03*
X023441Y015316D03*
X023436Y015321D03*
X023396Y015446D03*
X023401Y015451D03*
X023406Y015456D03*
X023461Y015516D03*
X023466Y015521D03*
X023471Y015526D03*
X023531Y015591D03*
X023536Y015596D03*
X023596Y015661D03*
X023601Y015666D03*
X023796Y015876D03*
X023801Y015881D03*
X023866Y015951D03*
X023931Y016021D03*
X023936Y016026D03*
X023941Y016031D03*
X023996Y016091D03*
X024001Y016096D03*
X024006Y016101D03*
X024066Y016166D03*
X024071Y016171D03*
X024131Y016236D03*
X024136Y016241D03*
X022916Y016091D03*
X022841Y015936D03*
X022846Y015931D03*
X022851Y015926D03*
X022856Y015921D03*
X022861Y015916D03*
X022866Y015911D03*
X022871Y015906D03*
X022876Y015901D03*
X022881Y015896D03*
X022751Y016031D03*
X022746Y016036D03*
X022741Y016041D03*
X022736Y016046D03*
X022731Y016051D03*
X022726Y016056D03*
X022721Y016061D03*
X022716Y016066D03*
X022711Y016071D03*
X022706Y016076D03*
X022701Y016081D03*
X022696Y016086D03*
X022606Y016181D03*
X022601Y016186D03*
X022596Y016191D03*
X022591Y016196D03*
X022586Y016201D03*
X022581Y016206D03*
X022576Y016211D03*
X022571Y016216D03*
X022566Y016221D03*
X022561Y016226D03*
X023721Y015026D03*
X023726Y015021D03*
X023731Y015016D03*
X023861Y014881D03*
X023866Y014876D03*
X024006Y014731D03*
X024011Y014726D03*
X024016Y014721D03*
X024021Y014716D03*
X024026Y014711D03*
X024031Y014706D03*
D43*
X023568Y014736D03*
X023568Y014741D03*
X023568Y014746D03*
X023568Y014751D03*
X023568Y014756D03*
X023568Y014761D03*
X023568Y014766D03*
X023568Y014771D03*
X023568Y014776D03*
X023568Y014781D03*
X023568Y014786D03*
X023568Y014791D03*
X023568Y014796D03*
X023568Y014801D03*
X023568Y014806D03*
X023053Y014896D03*
X022970Y014816D03*
X023663Y015716D03*
X023713Y015801D03*
X022915Y016081D03*
D44*
X022970Y015818D03*
X023358Y015388D03*
X023653Y015083D03*
X023568Y014803D03*
X023568Y014798D03*
X023568Y014793D03*
X023568Y014788D03*
X023568Y014783D03*
X023568Y014778D03*
X023568Y014773D03*
X023568Y014768D03*
X023568Y014763D03*
X023568Y014758D03*
X023568Y014753D03*
X023568Y014748D03*
X023568Y014743D03*
X023568Y014738D03*
X023053Y014858D03*
X023023Y015028D03*
D45*
X023145Y014931D03*
X022965Y014821D03*
X023053Y014741D03*
X023615Y015146D03*
X023358Y015391D03*
X023665Y015721D03*
X023710Y015796D03*
X023600Y016031D03*
X023600Y016036D03*
X023600Y016041D03*
X023600Y016046D03*
X023600Y016051D03*
X023600Y016056D03*
X023600Y016061D03*
X023600Y016066D03*
X023600Y016151D03*
X023600Y016156D03*
X023018Y016081D03*
D46*
X022968Y015823D03*
X023658Y015708D03*
X023718Y015808D03*
X023655Y015078D03*
X023133Y014943D03*
X023020Y015023D03*
X023053Y014743D03*
D47*
X023053Y014746D03*
X023660Y015066D03*
D48*
X023358Y015373D03*
X023355Y015433D03*
X022955Y015848D03*
X022953Y014938D03*
X022930Y014913D03*
X023053Y014748D03*
D49*
X023054Y014751D03*
D50*
X023053Y014753D03*
D51*
X023053Y014756D03*
X022925Y016036D03*
D52*
X022931Y016048D03*
X023154Y016138D03*
X023596Y016108D03*
X023636Y016073D03*
X023054Y014758D03*
D53*
X023053Y014761D03*
X022933Y015721D03*
X022933Y015851D03*
X022933Y015856D03*
X022933Y015861D03*
X022933Y015866D03*
X022933Y015871D03*
X022933Y015876D03*
X022933Y015881D03*
X022933Y015886D03*
X022933Y015891D03*
X023150Y016136D03*
D54*
X023148Y016133D03*
X022943Y016063D03*
X023053Y014763D03*
D55*
X023054Y014766D03*
X023039Y015001D03*
X022951Y016071D03*
X023144Y016131D03*
D56*
X023574Y016113D03*
X023054Y014768D03*
D57*
X023053Y014771D03*
D58*
X023053Y014773D03*
X022948Y015758D03*
X023135Y016123D03*
D59*
X023043Y014991D03*
X023053Y014776D03*
D60*
X023053Y014778D03*
X022953Y015748D03*
X023130Y016118D03*
D61*
X023043Y014986D03*
X023053Y014781D03*
D62*
X023053Y014783D03*
X023043Y014983D03*
X022958Y015738D03*
D63*
X022959Y015736D03*
X023054Y014786D03*
D64*
X023054Y014788D03*
D65*
X023054Y014791D03*
X022964Y015726D03*
D66*
X023053Y014793D03*
D67*
X023053Y014796D03*
X023308Y016076D03*
X023308Y016081D03*
X023308Y016086D03*
X023308Y016091D03*
X023308Y016096D03*
X023308Y016101D03*
X023308Y016106D03*
X023308Y016111D03*
X023308Y016171D03*
X023308Y016176D03*
X023308Y016181D03*
D68*
X023054Y014798D03*
D69*
X023053Y014801D03*
X023043Y014971D03*
D70*
X023053Y014803D03*
D71*
X022986Y014806D03*
X023121Y014806D03*
D72*
X023346Y014808D03*
D73*
X022979Y014808D03*
X023609Y015163D03*
X023654Y015698D03*
D74*
X023371Y016146D03*
X023351Y014811D03*
D75*
X023054Y014871D03*
X023054Y014876D03*
X023054Y014881D03*
X023054Y014886D03*
X022976Y014811D03*
X023019Y015021D03*
X023064Y015106D03*
X023356Y015421D03*
X023656Y015706D03*
X023719Y015811D03*
X022966Y015826D03*
X023656Y015076D03*
D76*
X023356Y014813D03*
D77*
X022971Y014813D03*
X023061Y015103D03*
X023356Y015418D03*
X023661Y015713D03*
X023031Y016088D03*
X022916Y016078D03*
D78*
X023359Y014816D03*
D79*
X023361Y014818D03*
D80*
X023139Y014938D03*
X023054Y014898D03*
X022966Y014818D03*
X023059Y015098D03*
X023664Y015718D03*
X023711Y015798D03*
D81*
X023364Y014821D03*
D82*
X023365Y014823D03*
D83*
X023143Y014933D03*
X023053Y014853D03*
X022963Y014823D03*
X023025Y015033D03*
X023058Y015093D03*
X023615Y015148D03*
X023650Y015088D03*
X022973Y015813D03*
X023023Y016083D03*
X023600Y016068D03*
X023600Y016063D03*
X023600Y016058D03*
X023600Y016053D03*
X023600Y016048D03*
X023600Y016043D03*
X023600Y016038D03*
X023600Y016033D03*
X023600Y016028D03*
X023600Y016153D03*
D84*
X023368Y014826D03*
D85*
X023026Y015036D03*
X023056Y015091D03*
X022961Y014826D03*
D86*
X023369Y014828D03*
D87*
X023028Y015038D03*
X022960Y014828D03*
X023618Y015143D03*
X023648Y015093D03*
X023358Y015393D03*
X022975Y015808D03*
D88*
X023369Y014831D03*
D89*
X023148Y014926D03*
X023053Y014906D03*
X022958Y014831D03*
X023028Y015041D03*
X023618Y015141D03*
X023668Y015726D03*
X023708Y015791D03*
D90*
X023370Y014833D03*
D91*
X023149Y014923D03*
X023054Y014908D03*
X023054Y014848D03*
X022956Y014833D03*
X022954Y014838D03*
X023056Y015088D03*
X023669Y015728D03*
X023706Y015788D03*
X023014Y016078D03*
D92*
X023373Y014836D03*
D93*
X023154Y014916D03*
X023151Y014921D03*
X022954Y014836D03*
X023356Y015411D03*
X023646Y015096D03*
X023669Y015731D03*
X022976Y015806D03*
X023011Y016076D03*
D94*
X023374Y014838D03*
D95*
X023054Y014838D03*
X023766Y015843D03*
X023831Y015913D03*
X023704Y016048D03*
X023999Y016093D03*
X024004Y016098D03*
X024009Y016103D03*
X024064Y016163D03*
X024069Y016168D03*
X024074Y016173D03*
X024129Y016233D03*
X024134Y016238D03*
X024139Y016243D03*
X024169Y016278D03*
X022514Y016278D03*
D96*
X023374Y014841D03*
D97*
X023155Y014911D03*
X023053Y014846D03*
X022953Y014841D03*
X023055Y015086D03*
X023358Y015396D03*
X023620Y015136D03*
X023673Y015736D03*
X023705Y015786D03*
X022978Y015801D03*
X022915Y016086D03*
D98*
X023375Y014843D03*
D99*
X023054Y014843D03*
X023054Y014913D03*
X023051Y015078D03*
X023676Y015743D03*
X023701Y015778D03*
D100*
X023356Y015408D03*
X023156Y014908D03*
X023161Y014878D03*
X022951Y014843D03*
X022946Y014863D03*
X023006Y016073D03*
D101*
X023375Y014846D03*
D102*
X023161Y014876D03*
X023156Y014906D03*
X022951Y014846D03*
X022946Y014861D03*
X022946Y014866D03*
X022996Y015771D03*
D103*
X023376Y014848D03*
D104*
X023155Y014913D03*
X023153Y014918D03*
X023028Y015043D03*
X022950Y014848D03*
X023620Y015138D03*
X023645Y015098D03*
X023670Y015733D03*
X022998Y015768D03*
X022978Y015803D03*
D105*
X023376Y014851D03*
D106*
X023054Y014851D03*
X023649Y015091D03*
X022974Y015811D03*
D107*
X023704Y015781D03*
X023644Y015101D03*
X023159Y014901D03*
X023159Y014856D03*
X023054Y014911D03*
X022949Y014851D03*
X023029Y015046D03*
D108*
X023030Y015048D03*
X022945Y014888D03*
X022945Y014883D03*
X022945Y014878D03*
X022945Y014873D03*
X022945Y014868D03*
X022948Y014858D03*
X023158Y014853D03*
X023160Y014858D03*
X023160Y014863D03*
X023160Y014868D03*
X023160Y014873D03*
X023160Y014883D03*
X023160Y014888D03*
X023160Y014893D03*
X023158Y014903D03*
X023623Y015133D03*
X023643Y015103D03*
X023358Y015398D03*
X022995Y015773D03*
X022980Y015798D03*
X022915Y016088D03*
D109*
X023684Y016068D03*
X023704Y015783D03*
X023674Y015738D03*
X023054Y015083D03*
X023159Y014898D03*
X022949Y014853D03*
D110*
X023054Y014856D03*
X023054Y014901D03*
X023141Y014936D03*
X023024Y015031D03*
X023059Y015096D03*
X023356Y015416D03*
X023651Y015086D03*
X022971Y015816D03*
D111*
X022980Y015796D03*
X023675Y015741D03*
X023688Y016066D03*
X023623Y015131D03*
X023160Y014896D03*
X023160Y014891D03*
X023160Y014886D03*
X023160Y014881D03*
X023160Y014871D03*
X023160Y014866D03*
X023160Y014861D03*
X022948Y014856D03*
X022945Y014871D03*
X022945Y014876D03*
X022945Y014881D03*
X022945Y014886D03*
X023053Y015081D03*
D112*
X023034Y015153D03*
X023034Y015158D03*
X023034Y015163D03*
X023031Y015188D03*
X023029Y015213D03*
X023029Y015218D03*
X023029Y015223D03*
X023024Y015278D03*
X023024Y015283D03*
X023019Y015338D03*
X023019Y015343D03*
X023019Y015348D03*
X023016Y015373D03*
X023014Y015398D03*
X023014Y015403D03*
X023014Y015408D03*
X023009Y015458D03*
X023009Y015463D03*
X023009Y015468D03*
X023004Y015523D03*
X023004Y015528D03*
X023004Y015533D03*
X023001Y015558D03*
X022999Y015583D03*
X022999Y015588D03*
X022999Y015593D03*
X022996Y015618D03*
X022994Y015643D03*
X022994Y015648D03*
X022994Y015653D03*
X022989Y015708D03*
X022989Y015713D03*
X022989Y015718D03*
X022974Y015898D03*
X022974Y015903D03*
X022969Y015953D03*
X022969Y015958D03*
X022969Y015963D03*
X022509Y016288D03*
X023716Y016028D03*
X023706Y015973D03*
X023706Y015968D03*
X023701Y015918D03*
X023701Y015913D03*
X023696Y015863D03*
X023696Y015858D03*
X023696Y015853D03*
X023694Y015828D03*
X023681Y015688D03*
X023681Y015683D03*
X023681Y015678D03*
X023679Y015653D03*
X023676Y015628D03*
X023676Y015623D03*
X023676Y015618D03*
X023671Y015568D03*
X023671Y015563D03*
X023666Y015513D03*
X023666Y015508D03*
X023666Y015503D03*
X023664Y015478D03*
X023661Y015453D03*
X023661Y015448D03*
X023661Y015443D03*
X023656Y015393D03*
X023656Y015388D03*
X023651Y015338D03*
X023651Y015333D03*
X023651Y015328D03*
X023649Y015303D03*
X023646Y015278D03*
X023646Y015273D03*
X023646Y015268D03*
X023644Y015243D03*
X023641Y015218D03*
X023641Y015213D03*
X023641Y015208D03*
X023626Y015043D03*
X023626Y015038D03*
X023626Y015033D03*
X023621Y014983D03*
X023621Y014978D03*
X023616Y014928D03*
X023616Y014923D03*
X023616Y014918D03*
X023614Y014893D03*
X023611Y014868D03*
X023611Y014863D03*
X023611Y014858D03*
X024174Y016288D03*
D113*
X023714Y016031D03*
X023706Y015971D03*
X023704Y015946D03*
X023701Y015921D03*
X023701Y015916D03*
X023701Y015911D03*
X023696Y015861D03*
X023696Y015856D03*
X023696Y015851D03*
X023681Y015686D03*
X023681Y015681D03*
X023681Y015676D03*
X023676Y015631D03*
X023676Y015626D03*
X023676Y015621D03*
X023674Y015596D03*
X023671Y015571D03*
X023671Y015566D03*
X023671Y015561D03*
X023669Y015536D03*
X023666Y015511D03*
X023666Y015506D03*
X023666Y015501D03*
X023661Y015456D03*
X023661Y015451D03*
X023661Y015446D03*
X023659Y015421D03*
X023656Y015396D03*
X023656Y015391D03*
X023656Y015386D03*
X023654Y015361D03*
X023651Y015336D03*
X023651Y015331D03*
X023651Y015326D03*
X023646Y015276D03*
X023646Y015271D03*
X023641Y015221D03*
X023641Y015216D03*
X023641Y015211D03*
X023639Y015186D03*
X023626Y015046D03*
X023626Y015041D03*
X023626Y015036D03*
X023624Y015011D03*
X023621Y014986D03*
X023621Y014981D03*
X023621Y014976D03*
X023619Y014951D03*
X023616Y014926D03*
X023616Y014921D03*
X023616Y014916D03*
X023611Y014871D03*
X023611Y014866D03*
X023611Y014861D03*
X023054Y014921D03*
X023036Y015126D03*
X023034Y015151D03*
X023034Y015156D03*
X023034Y015161D03*
X023029Y015216D03*
X023029Y015221D03*
X023029Y015226D03*
X023026Y015251D03*
X023024Y015276D03*
X023024Y015281D03*
X023024Y015286D03*
X023021Y015311D03*
X023019Y015336D03*
X023019Y015341D03*
X023019Y015346D03*
X023014Y015401D03*
X023014Y015406D03*
X023014Y015411D03*
X023011Y015436D03*
X023009Y015461D03*
X023009Y015466D03*
X023009Y015471D03*
X023006Y015496D03*
X023004Y015521D03*
X023004Y015526D03*
X023004Y015531D03*
X022999Y015586D03*
X022999Y015591D03*
X022999Y015596D03*
X022996Y015621D03*
X022994Y015646D03*
X022994Y015651D03*
X022994Y015656D03*
X022991Y015681D03*
X022989Y015706D03*
X022989Y015711D03*
X022989Y015716D03*
X022974Y015896D03*
X022974Y015901D03*
X022971Y015926D03*
X022969Y015951D03*
X022969Y015956D03*
X022969Y015961D03*
D114*
X022969Y015821D03*
X023614Y015151D03*
X023654Y015081D03*
X023054Y014861D03*
D115*
X023054Y014863D03*
X023054Y014893D03*
X023614Y015153D03*
X023714Y015803D03*
D116*
X023715Y015806D03*
X023660Y015711D03*
X023358Y015386D03*
X023613Y015156D03*
X023053Y014891D03*
X023053Y014866D03*
D117*
X023054Y014868D03*
X023054Y014873D03*
X023054Y014878D03*
X023054Y014883D03*
X023054Y014888D03*
X023064Y015108D03*
X023611Y015158D03*
X023719Y015813D03*
D118*
X022916Y014891D03*
D119*
X022918Y014893D03*
X022968Y014948D03*
X023068Y016103D03*
D120*
X023620Y016101D03*
X022918Y014896D03*
D121*
X022919Y014898D03*
D122*
X022920Y014901D03*
X023358Y015371D03*
X023355Y015436D03*
D123*
X023709Y015793D03*
X023054Y014903D03*
D124*
X022923Y014903D03*
D125*
X022924Y014906D03*
D126*
X022926Y014908D03*
D127*
X022928Y014911D03*
X022933Y014916D03*
X022950Y014936D03*
D128*
X022939Y014923D03*
X022934Y014918D03*
X023054Y016098D03*
D129*
X022956Y015846D03*
X023356Y015431D03*
X022944Y014931D03*
X022939Y014926D03*
X022936Y014921D03*
D130*
X023053Y014923D03*
D131*
X023054Y014926D03*
D132*
X023146Y014928D03*
X023356Y015413D03*
X023666Y015723D03*
X022916Y016083D03*
D133*
X022958Y015843D03*
X022948Y014933D03*
X022943Y014928D03*
D134*
X023021Y015026D03*
X023061Y015101D03*
X023136Y014941D03*
X023026Y016086D03*
D135*
X022956Y014941D03*
D136*
X022959Y014943D03*
D137*
X023130Y014946D03*
X023065Y015111D03*
X023610Y015161D03*
X023720Y015816D03*
X022915Y016076D03*
D138*
X023061Y016101D03*
X023029Y015016D03*
X022964Y014946D03*
D139*
X023125Y014948D03*
X022963Y015833D03*
D140*
X023041Y014951D03*
D141*
X023041Y014953D03*
D142*
X023041Y014956D03*
D143*
X023043Y014958D03*
X023513Y016128D03*
X023513Y016133D03*
X023513Y016138D03*
D144*
X023043Y014961D03*
D145*
X023043Y014963D03*
D146*
X023043Y014966D03*
D147*
X023041Y014968D03*
D148*
X023043Y014973D03*
X023308Y016073D03*
X023308Y016078D03*
X023308Y016083D03*
X023308Y016088D03*
X023308Y016093D03*
X023308Y016098D03*
X023308Y016103D03*
X023308Y016108D03*
X023308Y016168D03*
X023308Y016173D03*
X023308Y016178D03*
D149*
X023043Y014976D03*
D150*
X023043Y014978D03*
D151*
X023043Y014981D03*
D152*
X023041Y014988D03*
D153*
X023041Y014993D03*
D154*
X023041Y014996D03*
X022944Y015766D03*
D155*
X023040Y014998D03*
D156*
X023039Y015003D03*
D157*
X023036Y015006D03*
X022936Y016056D03*
D158*
X022926Y016038D03*
X023086Y016108D03*
X023036Y015008D03*
D159*
X023034Y015011D03*
X022924Y016031D03*
X023604Y016106D03*
X023631Y016086D03*
D160*
X023030Y015013D03*
D161*
X023023Y015018D03*
X023358Y015378D03*
X023355Y015428D03*
X022960Y015838D03*
X022935Y015973D03*
D162*
X023069Y015118D03*
X023606Y015168D03*
X023659Y015068D03*
D163*
X023659Y015071D03*
X023654Y015701D03*
X022964Y015831D03*
D164*
X022965Y015828D03*
X023355Y015423D03*
X023358Y015383D03*
X023658Y015073D03*
X023655Y015703D03*
D165*
X023721Y015818D03*
X023041Y016093D03*
X022916Y016073D03*
X023066Y015113D03*
D166*
X023068Y015116D03*
X023358Y015381D03*
X023608Y015166D03*
X023723Y015821D03*
X022938Y015971D03*
D167*
X023358Y015376D03*
D168*
X023356Y015426D03*
X023651Y015696D03*
X022961Y015836D03*
D169*
X023271Y015626D03*
D170*
X023270Y015628D03*
D171*
X023269Y015631D03*
D172*
X023268Y015633D03*
D173*
X023266Y015636D03*
D174*
X023266Y015638D03*
D175*
X023264Y015641D03*
D176*
X023264Y015643D03*
D177*
X023261Y015646D03*
D178*
X023261Y015648D03*
D179*
X023259Y015651D03*
D180*
X023259Y015653D03*
D181*
X023256Y015656D03*
D182*
X023256Y015658D03*
D183*
X023254Y015661D03*
D184*
X023254Y015663D03*
D185*
X023253Y015666D03*
D186*
X023251Y015668D03*
D187*
X023250Y015671D03*
D188*
X023281Y015673D03*
X023281Y015678D03*
X023281Y015683D03*
X023281Y015688D03*
X023281Y015693D03*
X023281Y015698D03*
X023281Y015703D03*
X023281Y015708D03*
X023281Y015713D03*
X023281Y015718D03*
D189*
X023281Y015716D03*
X023281Y015721D03*
X023281Y015711D03*
X023281Y015706D03*
X023281Y015701D03*
X023281Y015696D03*
X023281Y015691D03*
X023281Y015686D03*
X023281Y015681D03*
X023281Y015676D03*
D190*
X022933Y015723D03*
X022933Y015853D03*
X022933Y015858D03*
X022933Y015863D03*
X022933Y015868D03*
X022933Y015873D03*
X022933Y015878D03*
X022933Y015883D03*
X022933Y015888D03*
X022933Y015893D03*
X022938Y016058D03*
D191*
X022961Y015728D03*
D192*
X022961Y015731D03*
D193*
X022959Y015733D03*
D194*
X022956Y015741D03*
D195*
X022955Y015743D03*
D196*
X022954Y015746D03*
D197*
X022951Y015751D03*
X023131Y016121D03*
D198*
X022950Y015753D03*
D199*
X022949Y015756D03*
D200*
X022946Y015761D03*
X023136Y016126D03*
D201*
X022945Y015763D03*
D202*
X022871Y015768D03*
X022871Y015773D03*
X022871Y015778D03*
X022871Y015783D03*
X022871Y015788D03*
X022871Y015793D03*
X022871Y015798D03*
X022871Y015803D03*
X022871Y015808D03*
X022871Y015813D03*
X022871Y015818D03*
X022871Y015823D03*
X022871Y015828D03*
X022871Y015833D03*
X022871Y015838D03*
X022871Y015843D03*
X022871Y015848D03*
X022506Y016293D03*
X024176Y016293D03*
D203*
X022871Y015846D03*
X022871Y015841D03*
X022871Y015836D03*
X022871Y015831D03*
X022871Y015826D03*
X022871Y015821D03*
X022871Y015816D03*
X022871Y015811D03*
X022871Y015806D03*
X022871Y015801D03*
X022871Y015796D03*
X022871Y015791D03*
X022871Y015786D03*
X022871Y015781D03*
X022871Y015776D03*
X022871Y015771D03*
D204*
X022959Y015841D03*
X023049Y016096D03*
D205*
X022915Y016096D03*
X022915Y015966D03*
X022505Y016296D03*
X024178Y016296D03*
D206*
X023338Y015976D03*
D207*
X023336Y015978D03*
D208*
X023334Y015981D03*
D209*
X023334Y015983D03*
D210*
X023331Y015986D03*
D211*
X023331Y015988D03*
D212*
X023330Y015991D03*
D213*
X023329Y015993D03*
D214*
X023329Y015996D03*
D215*
X023328Y015998D03*
D216*
X023326Y016001D03*
X023326Y016006D03*
D217*
X023326Y016008D03*
X023326Y016003D03*
D218*
X023325Y016011D03*
D219*
X023325Y016013D03*
D220*
X023324Y016016D03*
X023324Y016021D03*
X023324Y016026D03*
D221*
X023324Y016023D03*
X023324Y016018D03*
D222*
X022923Y016028D03*
D223*
X022924Y016033D03*
X023631Y016083D03*
D224*
X023709Y016041D03*
D225*
X022926Y016041D03*
D226*
X022928Y016043D03*
D227*
X022929Y016046D03*
X023636Y016076D03*
D228*
X023701Y016051D03*
X024169Y016276D03*
D229*
X023638Y016071D03*
X022933Y016051D03*
D230*
X022935Y016053D03*
D231*
X022939Y016061D03*
D232*
X022946Y016066D03*
D233*
X022948Y016068D03*
D234*
X023634Y016078D03*
D235*
X023634Y016081D03*
D236*
X023629Y016088D03*
D237*
X023629Y016091D03*
D238*
X023036Y016091D03*
D239*
X023614Y016103D03*
X023626Y016093D03*
D240*
X023625Y016096D03*
D241*
X023624Y016098D03*
D242*
X023076Y016106D03*
D243*
X023098Y016111D03*
X023585Y016111D03*
D244*
X023221Y016113D03*
D245*
X023558Y016116D03*
D246*
X023223Y016116D03*
D247*
X023541Y016118D03*
D248*
X023404Y016118D03*
D249*
X023516Y016121D03*
D250*
X023514Y016123D03*
D251*
X023513Y016126D03*
X023513Y016131D03*
X023513Y016136D03*
D252*
X023140Y016128D03*
D253*
X023363Y016141D03*
D254*
X023369Y016143D03*
D255*
X023379Y016148D03*
D256*
X023340Y016151D03*
D257*
X023339Y016153D03*
D258*
X023340Y016156D03*
D259*
X023340Y016158D03*
D260*
X023340Y016161D03*
D261*
X023329Y016163D03*
D262*
X023319Y016166D03*
D263*
X022511Y016283D03*
X024171Y016283D03*
D264*
X024179Y016298D03*
X022504Y016298D03*
D265*
X022501Y016303D03*
X024181Y016303D03*
D266*
X024183Y016306D03*
X022500Y016306D03*
D267*
X022499Y016308D03*
X024184Y016308D03*
D268*
X022498Y016311D03*
D269*
X022496Y016313D03*
X024186Y016313D03*
D270*
X024186Y016316D03*
D271*
X022495Y016316D03*
D272*
X022494Y016318D03*
X024189Y016318D03*
D273*
X022493Y016321D03*
D274*
X022493Y016323D03*
X024190Y016323D03*
D275*
X024191Y016326D03*
X022491Y016326D03*
D276*
X022488Y016333D03*
X024195Y016333D03*
D277*
X024196Y016336D03*
X022486Y016336D03*
D278*
X023348Y017201D03*
D279*
X023353Y017211D03*
D280*
X023358Y017221D03*
D281*
X023363Y017231D03*
D282*
X023573Y017241D03*
D283*
X023188Y017241D03*
D284*
X023623Y017251D03*
X023373Y017691D03*
X023313Y017811D03*
D285*
X023313Y017961D03*
X023313Y017971D03*
X023493Y017651D03*
X023553Y017541D03*
X023563Y017521D03*
X023573Y017501D03*
X023583Y017481D03*
X023423Y017481D03*
X023443Y017361D03*
X023443Y017251D03*
X023073Y017551D03*
X022943Y017321D03*
D286*
X023188Y017251D03*
D287*
X023228Y017311D03*
X023618Y017261D03*
D288*
X023443Y017261D03*
X023443Y017271D03*
X023433Y017491D03*
X022913Y017301D03*
X023313Y017981D03*
D289*
X023193Y017261D03*
D290*
X023623Y017271D03*
X023313Y017821D03*
X023313Y017831D03*
D291*
X023313Y017741D03*
X023203Y017271D03*
D292*
X023228Y017321D03*
X023088Y017451D03*
X023618Y017291D03*
X023618Y017281D03*
D293*
X023438Y017281D03*
X023438Y017291D03*
X023438Y017301D03*
X023438Y017311D03*
X023438Y017321D03*
X023438Y017331D03*
X023558Y017561D03*
X023488Y017631D03*
X023318Y017991D03*
X023068Y017561D03*
X022908Y017291D03*
D294*
X023208Y017281D03*
X023338Y017711D03*
X023308Y017761D03*
D295*
X023313Y018001D03*
X023263Y017391D03*
X022893Y017281D03*
D296*
X023213Y017291D03*
X023353Y017701D03*
X023313Y017771D03*
D297*
X023308Y017851D03*
X023068Y017431D03*
X023238Y017331D03*
X023618Y017311D03*
X023618Y017301D03*
D298*
X023218Y017301D03*
X023308Y017801D03*
D299*
X023488Y017641D03*
X023548Y017551D03*
X023558Y017531D03*
X023568Y017511D03*
X023578Y017491D03*
X023438Y017351D03*
X023438Y017341D03*
X023258Y017381D03*
X022928Y017311D03*
D300*
X023053Y017421D03*
X023083Y017461D03*
X023613Y017321D03*
X023313Y017861D03*
D301*
X023078Y017471D03*
X023608Y017331D03*
D302*
X023593Y017441D03*
X023433Y017391D03*
X023433Y017381D03*
X023423Y017471D03*
X023253Y017371D03*
X023073Y017531D03*
X022963Y017341D03*
X022953Y017331D03*
X023313Y017941D03*
X023313Y017951D03*
D303*
X023313Y017881D03*
X023313Y017871D03*
X023423Y017681D03*
X023043Y017411D03*
X023033Y017401D03*
X023243Y017341D03*
X023613Y017341D03*
D304*
X023608Y017351D03*
X023608Y017361D03*
X023078Y017481D03*
D305*
X023008Y017381D03*
X022998Y017371D03*
X023248Y017351D03*
X023408Y017431D03*
X023408Y017441D03*
X023608Y017381D03*
X023608Y017371D03*
D306*
X023603Y017411D03*
X023423Y017411D03*
X023073Y017511D03*
X022973Y017351D03*
X023313Y017931D03*
D307*
X023418Y017461D03*
X023418Y017421D03*
X023248Y017361D03*
X022988Y017361D03*
D308*
X023068Y017541D03*
X023438Y017371D03*
X023588Y017461D03*
X023588Y017471D03*
X023598Y017451D03*
X023478Y017661D03*
D309*
X023413Y017451D03*
X023603Y017401D03*
X023603Y017391D03*
X023073Y017501D03*
X023313Y017911D03*
X023313Y017921D03*
D310*
X023313Y017901D03*
X023313Y017891D03*
X023073Y017491D03*
X023023Y017391D03*
D311*
X023068Y017521D03*
X023428Y017401D03*
X023598Y017421D03*
X023598Y017431D03*
X023458Y017671D03*
D312*
X023313Y017841D03*
X023083Y017441D03*
D313*
X023328Y017721D03*
X023318Y017731D03*
D314*
X023313Y017751D03*
D315*
X023308Y017781D03*
D316*
X023313Y017791D03*
D317*
X007106Y018115D03*
X006929Y017911D03*
X006689Y017779D03*
X006551Y017134D03*
X001928Y017134D03*
D318*
X002088Y017284D03*
X002091Y017296D03*
X002091Y017299D03*
X002091Y017302D03*
X002091Y017338D03*
X002091Y017341D03*
X002091Y017344D03*
X002091Y017347D03*
X002088Y017359D03*
X001767Y017356D03*
X001764Y017341D03*
X001764Y017338D03*
X001764Y017335D03*
X001764Y017332D03*
X001764Y017329D03*
X001764Y017326D03*
X001764Y017323D03*
X001764Y017320D03*
X001764Y017317D03*
X001764Y017314D03*
X001764Y017311D03*
X001764Y017308D03*
X001764Y017305D03*
X001764Y017302D03*
X001767Y017287D03*
X003615Y017830D03*
X004995Y017704D03*
X004995Y017701D03*
X004995Y017698D03*
X004995Y017695D03*
X004995Y017692D03*
X004995Y017689D03*
X004995Y017686D03*
X004998Y017680D03*
X004998Y017677D03*
X004998Y017674D03*
X004998Y017710D03*
X004998Y017713D03*
X004998Y017716D03*
X004989Y017425D03*
X004986Y017416D03*
X004986Y017413D03*
X004986Y017410D03*
X004983Y017404D03*
X004983Y017401D03*
X004983Y017398D03*
X004983Y017395D03*
X004983Y017392D03*
X004983Y017389D03*
X004980Y017383D03*
X004980Y017380D03*
X004980Y017377D03*
X004980Y017374D03*
X004980Y017371D03*
X004980Y017368D03*
X004980Y017365D03*
X004980Y017362D03*
X004980Y017359D03*
X004983Y017353D03*
X004983Y017350D03*
X004983Y017347D03*
X004983Y017344D03*
X004983Y017341D03*
X004983Y017338D03*
X004983Y017335D03*
X004986Y017329D03*
X004986Y017326D03*
X004986Y017323D03*
X004989Y017314D03*
X004992Y017305D03*
X005484Y017281D03*
X005487Y017290D03*
X005487Y017293D03*
X005487Y017296D03*
X005487Y017299D03*
X005487Y017302D03*
X005487Y017305D03*
X005487Y017308D03*
X005487Y017311D03*
X005487Y017314D03*
X005487Y017317D03*
X005592Y017338D03*
X005592Y017341D03*
X005589Y017350D03*
X005589Y017353D03*
X005586Y017362D03*
X005586Y017365D03*
X005586Y017368D03*
X005586Y017371D03*
X005586Y017374D03*
X005583Y017383D03*
X005583Y017386D03*
X005583Y017389D03*
X005583Y017392D03*
X005583Y017395D03*
X005583Y017398D03*
X005583Y017401D03*
X005583Y017404D03*
X005583Y017407D03*
X005583Y017410D03*
X005583Y017413D03*
X005583Y017416D03*
X005583Y017419D03*
X005583Y017422D03*
X005583Y017425D03*
X005583Y017428D03*
X005583Y017431D03*
X005583Y017434D03*
X005583Y017437D03*
X005583Y017440D03*
X005583Y017443D03*
X005583Y017446D03*
X005583Y017449D03*
X005583Y017452D03*
X005583Y017455D03*
X005583Y017458D03*
X005583Y017461D03*
X005583Y017464D03*
X005583Y017467D03*
X005583Y017470D03*
X005583Y017473D03*
X005583Y017476D03*
X005583Y017479D03*
X005583Y017482D03*
X005583Y017485D03*
X005583Y017488D03*
X005583Y017491D03*
X005583Y017494D03*
X005583Y017497D03*
X005583Y017500D03*
X005583Y017503D03*
X005583Y017506D03*
X005583Y017509D03*
X005583Y017512D03*
X005583Y017515D03*
X005583Y017518D03*
X005583Y017521D03*
X005583Y017524D03*
X005583Y017527D03*
X005583Y017530D03*
X005583Y017533D03*
X005583Y017536D03*
X005583Y017539D03*
X005583Y017542D03*
X005583Y017545D03*
X005583Y017548D03*
X005583Y017551D03*
X005583Y017554D03*
X005583Y017557D03*
X005583Y017560D03*
X005583Y017563D03*
X005583Y017566D03*
X005583Y017569D03*
X005583Y017572D03*
X005583Y017575D03*
X005583Y017578D03*
X005583Y017581D03*
X005583Y017584D03*
X005583Y017587D03*
X005583Y017590D03*
X005583Y017593D03*
X005583Y017596D03*
X005583Y017599D03*
X005583Y017602D03*
X005583Y017605D03*
X005583Y017608D03*
X005583Y017611D03*
X005583Y017614D03*
X005583Y017617D03*
X005583Y017620D03*
X005583Y017623D03*
X005583Y017626D03*
X005583Y017629D03*
X005583Y017632D03*
X005583Y017635D03*
X005583Y017638D03*
X005583Y017641D03*
X005583Y017644D03*
X005583Y017647D03*
X005583Y017650D03*
X005583Y017653D03*
X005583Y017656D03*
X005583Y017659D03*
X005583Y017662D03*
X005583Y017665D03*
X005583Y017668D03*
X005583Y017671D03*
X005583Y017674D03*
X005583Y017677D03*
X005583Y017680D03*
X005583Y017683D03*
X005583Y017686D03*
X005583Y017689D03*
X005583Y017692D03*
X005583Y017695D03*
X005583Y017698D03*
X005583Y017701D03*
X005583Y017704D03*
X005583Y017707D03*
X005583Y017710D03*
X005583Y017713D03*
X005583Y017716D03*
X005583Y017719D03*
X005583Y017722D03*
X005583Y017725D03*
X005583Y017728D03*
X005583Y017731D03*
X005583Y017734D03*
X005583Y017737D03*
X005586Y017746D03*
X005586Y017749D03*
X005589Y017758D03*
X005460Y017677D03*
X005463Y017668D03*
X005463Y017665D03*
X005463Y017662D03*
X005466Y017653D03*
X005466Y017650D03*
X005466Y017647D03*
X005466Y017644D03*
X005466Y017641D03*
X005466Y017638D03*
X005466Y017635D03*
X005466Y017632D03*
X005466Y017629D03*
X005466Y017626D03*
X005466Y017623D03*
X005466Y017617D03*
X005466Y017614D03*
X005466Y017611D03*
X005466Y017608D03*
X005466Y017605D03*
X005466Y017602D03*
X005466Y017599D03*
X005466Y017596D03*
X005466Y017593D03*
X005463Y017584D03*
X005463Y017581D03*
X005463Y017578D03*
X005460Y017569D03*
X005595Y017329D03*
X005793Y017395D03*
X005790Y017404D03*
X005790Y017407D03*
X005790Y017410D03*
X005790Y017413D03*
X005790Y017416D03*
X005790Y017419D03*
X005790Y017422D03*
X005790Y017425D03*
X005790Y017428D03*
X005790Y017431D03*
X005790Y017434D03*
X005790Y017437D03*
X005790Y017440D03*
X005790Y017443D03*
X005790Y017446D03*
X005790Y017449D03*
X005790Y017452D03*
X005790Y017455D03*
X005790Y017458D03*
X005790Y017461D03*
X005790Y017464D03*
X005790Y017467D03*
X005790Y017470D03*
X005790Y017473D03*
X005790Y017476D03*
X005790Y017479D03*
X005790Y017482D03*
X005790Y017485D03*
X005790Y017488D03*
X005790Y017491D03*
X005790Y017494D03*
X005790Y017497D03*
X005790Y017500D03*
X005790Y017503D03*
X005790Y017506D03*
X005790Y017509D03*
X005790Y017512D03*
X005790Y017515D03*
X005790Y017518D03*
X005790Y017521D03*
X005790Y017524D03*
X005790Y017527D03*
X005790Y017530D03*
X005790Y017533D03*
X005790Y017536D03*
X005790Y017539D03*
X005790Y017542D03*
X005790Y017545D03*
X005790Y017548D03*
X005790Y017551D03*
X005790Y017554D03*
X005790Y017557D03*
X005790Y017560D03*
X005790Y017563D03*
X005790Y017566D03*
X005790Y017569D03*
X005790Y017572D03*
X005790Y017575D03*
X005790Y017578D03*
X005790Y017581D03*
X005790Y017584D03*
X005790Y017587D03*
X005790Y017590D03*
X005790Y017593D03*
X005790Y017596D03*
X005790Y017599D03*
X005790Y017602D03*
X005790Y017605D03*
X005790Y017608D03*
X005790Y017611D03*
X005790Y017614D03*
X005790Y017617D03*
X005790Y017620D03*
X005790Y017623D03*
X005790Y017626D03*
X005790Y017629D03*
X005790Y017632D03*
X005790Y017635D03*
X005790Y017638D03*
X005790Y017641D03*
X005790Y017644D03*
X005790Y017647D03*
X005790Y017650D03*
X005790Y017653D03*
X005790Y017656D03*
X005790Y017659D03*
X005790Y017662D03*
X005790Y017665D03*
X005790Y017668D03*
X005790Y017671D03*
X005790Y017674D03*
X005790Y017677D03*
X005790Y017680D03*
X005790Y017683D03*
X005790Y017686D03*
X005790Y017689D03*
X005790Y017692D03*
X005790Y017695D03*
X005790Y017698D03*
X005790Y017701D03*
X005790Y017704D03*
X005790Y017707D03*
X005790Y017710D03*
X005790Y017713D03*
X005790Y017716D03*
X005790Y017719D03*
X005790Y017722D03*
X005790Y017725D03*
X005790Y017728D03*
X005787Y017734D03*
X005787Y017737D03*
X005787Y017740D03*
X005787Y017743D03*
X005787Y017746D03*
X005784Y017752D03*
X005961Y017740D03*
X005961Y017737D03*
X005961Y017734D03*
X005961Y017731D03*
X005961Y017728D03*
X005961Y017725D03*
X005961Y017722D03*
X005961Y017719D03*
X005961Y017716D03*
X005961Y017713D03*
X005961Y017710D03*
X005961Y017707D03*
X005961Y017704D03*
X005961Y017701D03*
X005961Y017698D03*
X005961Y017695D03*
X005961Y017692D03*
X005961Y017689D03*
X005961Y017686D03*
X005961Y017683D03*
X005961Y017680D03*
X005961Y017677D03*
X005961Y017674D03*
X005961Y017671D03*
X005961Y017668D03*
X005961Y017665D03*
X005961Y017662D03*
X005961Y017659D03*
X005961Y017656D03*
X005961Y017653D03*
X005961Y017650D03*
X005961Y017647D03*
X005961Y017644D03*
X005961Y017641D03*
X005961Y017638D03*
X005961Y017635D03*
X005961Y017632D03*
X005961Y017629D03*
X005961Y017626D03*
X005961Y017623D03*
X005961Y017620D03*
X005961Y017617D03*
X005961Y017614D03*
X005961Y017611D03*
X005961Y017608D03*
X005961Y017605D03*
X005961Y017602D03*
X005961Y017599D03*
X005961Y017596D03*
X005961Y017593D03*
X005961Y017590D03*
X005961Y017587D03*
X005961Y017584D03*
X005961Y017581D03*
X005961Y017578D03*
X005961Y017575D03*
X005961Y017572D03*
X005961Y017569D03*
X005961Y017566D03*
X005961Y017563D03*
X005961Y017560D03*
X005961Y017557D03*
X005961Y017554D03*
X005961Y017551D03*
X005961Y017548D03*
X005961Y017545D03*
X005961Y017542D03*
X005961Y017539D03*
X005961Y017536D03*
X005961Y017533D03*
X005961Y017530D03*
X005961Y017527D03*
X005961Y017524D03*
X005961Y017521D03*
X005961Y017518D03*
X005961Y017515D03*
X005961Y017512D03*
X005961Y017509D03*
X005961Y017506D03*
X005961Y017503D03*
X005961Y017500D03*
X005961Y017497D03*
X005961Y017494D03*
X005961Y017491D03*
X005961Y017488D03*
X005961Y017485D03*
X005961Y017482D03*
X005961Y017479D03*
X005961Y017476D03*
X005961Y017473D03*
X005961Y017470D03*
X005961Y017467D03*
X005961Y017464D03*
X005961Y017461D03*
X005961Y017458D03*
X005961Y017455D03*
X005961Y017452D03*
X005961Y017449D03*
X005961Y017446D03*
X005961Y017443D03*
X005961Y017440D03*
X005961Y017437D03*
X005961Y017434D03*
X005961Y017431D03*
X005961Y017428D03*
X005961Y017425D03*
X005961Y017422D03*
X005961Y017419D03*
X005961Y017416D03*
X005958Y017410D03*
X005958Y017407D03*
X005958Y017404D03*
X005958Y017401D03*
X005955Y017392D03*
X006162Y017365D03*
X006162Y017362D03*
X006162Y017359D03*
X006162Y017356D03*
X006159Y017347D03*
X006159Y017344D03*
X006156Y017335D03*
X006165Y017374D03*
X006165Y017377D03*
X006165Y017380D03*
X006165Y017383D03*
X006165Y017386D03*
X006165Y017389D03*
X006165Y017392D03*
X006165Y017395D03*
X006168Y017401D03*
X006168Y017404D03*
X006168Y017407D03*
X006168Y017410D03*
X006168Y017413D03*
X006168Y017416D03*
X006168Y017419D03*
X006168Y017422D03*
X006168Y017425D03*
X006168Y017428D03*
X006168Y017431D03*
X006168Y017434D03*
X006168Y017437D03*
X006168Y017440D03*
X006168Y017443D03*
X006168Y017446D03*
X006168Y017449D03*
X006168Y017452D03*
X006168Y017455D03*
X006168Y017458D03*
X006168Y017461D03*
X006168Y017464D03*
X006168Y017467D03*
X006168Y017470D03*
X006168Y017473D03*
X006168Y017476D03*
X006168Y017479D03*
X006168Y017482D03*
X006168Y017485D03*
X006168Y017488D03*
X006168Y017491D03*
X006168Y017494D03*
X006168Y017497D03*
X006168Y017500D03*
X006168Y017503D03*
X006168Y017506D03*
X006168Y017509D03*
X006168Y017512D03*
X006168Y017515D03*
X006168Y017518D03*
X006168Y017521D03*
X006168Y017524D03*
X006168Y017527D03*
X006168Y017530D03*
X006168Y017533D03*
X006168Y017536D03*
X006168Y017539D03*
X006168Y017542D03*
X006168Y017545D03*
X006168Y017548D03*
X006168Y017551D03*
X006168Y017554D03*
X006168Y017557D03*
X006168Y017560D03*
X006168Y017563D03*
X006168Y017566D03*
X006168Y017569D03*
X006168Y017572D03*
X006168Y017575D03*
X006168Y017578D03*
X006168Y017581D03*
X006168Y017584D03*
X006168Y017587D03*
X006168Y017590D03*
X006168Y017593D03*
X006168Y017596D03*
X006168Y017599D03*
X006168Y017602D03*
X006168Y017605D03*
X006168Y017608D03*
X006168Y017611D03*
X006168Y017614D03*
X006168Y017617D03*
X006168Y017620D03*
X006168Y017623D03*
X006168Y017626D03*
X006168Y017629D03*
X006168Y017632D03*
X006168Y017635D03*
X006168Y017638D03*
X006168Y017641D03*
X006168Y017644D03*
X006168Y017647D03*
X006168Y017650D03*
X006168Y017653D03*
X006168Y017656D03*
X006168Y017659D03*
X006168Y017662D03*
X006168Y017665D03*
X006168Y017668D03*
X006168Y017671D03*
X006168Y017674D03*
X006168Y017677D03*
X006168Y017680D03*
X006168Y017683D03*
X006168Y017686D03*
X006168Y017689D03*
X006168Y017692D03*
X006168Y017695D03*
X006168Y017698D03*
X006168Y017701D03*
X006168Y017704D03*
X006168Y017707D03*
X006168Y017710D03*
X006168Y017713D03*
X006168Y017716D03*
X006168Y017719D03*
X006168Y017722D03*
X006168Y017725D03*
X006165Y017731D03*
X006165Y017734D03*
X006165Y017737D03*
X006165Y017740D03*
X006165Y017743D03*
X006162Y017752D03*
X006285Y017635D03*
X006282Y017626D03*
X006279Y017617D03*
X006279Y017614D03*
X006276Y017608D03*
X006276Y017605D03*
X006273Y017596D03*
X006273Y017593D03*
X006270Y017584D03*
X006270Y017581D03*
X006270Y017578D03*
X006270Y017575D03*
X006267Y017569D03*
X006267Y017566D03*
X006267Y017563D03*
X006267Y017560D03*
X006264Y017554D03*
X006264Y017551D03*
X006264Y017548D03*
X006264Y017545D03*
X006264Y017542D03*
X006264Y017539D03*
X006264Y017536D03*
X006264Y017533D03*
X006261Y017527D03*
X006261Y017524D03*
X006261Y017521D03*
X006261Y017518D03*
X006261Y017515D03*
X006261Y017512D03*
X006261Y017509D03*
X006261Y017506D03*
X006261Y017503D03*
X006261Y017500D03*
X006261Y017497D03*
X006261Y017494D03*
X006261Y017491D03*
X006261Y017488D03*
X006261Y017485D03*
X006261Y017482D03*
X006261Y017479D03*
X006261Y017476D03*
X006261Y017473D03*
X006261Y017470D03*
X006261Y017467D03*
X006261Y017464D03*
X006261Y017461D03*
X006261Y017458D03*
X006261Y017455D03*
X006261Y017452D03*
X006264Y017446D03*
X006264Y017443D03*
X006264Y017440D03*
X006264Y017437D03*
X006264Y017434D03*
X006264Y017431D03*
X006267Y017422D03*
X006267Y017419D03*
X006267Y017416D03*
X006270Y017407D03*
X006270Y017404D03*
X006270Y017401D03*
X006273Y017392D03*
X006276Y017383D03*
X006276Y017380D03*
X006279Y017371D03*
X006474Y017443D03*
X006474Y017446D03*
X006474Y017449D03*
X006471Y017455D03*
X006471Y017458D03*
X006471Y017461D03*
X006471Y017464D03*
X006468Y017473D03*
X006468Y017476D03*
X006468Y017479D03*
X006468Y017482D03*
X006468Y017485D03*
X006468Y017488D03*
X006468Y017491D03*
X006468Y017494D03*
X006468Y017497D03*
X006468Y017500D03*
X006468Y017503D03*
X006468Y017506D03*
X006468Y017509D03*
X006468Y017512D03*
X006468Y017515D03*
X006468Y017518D03*
X006471Y017524D03*
X006471Y017527D03*
X006471Y017530D03*
X006471Y017533D03*
X006474Y017542D03*
X006474Y017545D03*
X006477Y017554D03*
X006675Y017554D03*
X006675Y017557D03*
X006678Y017545D03*
X006678Y017542D03*
X006678Y017539D03*
X006681Y017533D03*
X006681Y017530D03*
X006681Y017527D03*
X006681Y017524D03*
X006681Y017521D03*
X006681Y017518D03*
X006681Y017515D03*
X006681Y017512D03*
X006684Y017506D03*
X006684Y017503D03*
X006684Y017500D03*
X006684Y017497D03*
X006684Y017494D03*
X006681Y017488D03*
X006681Y017485D03*
X006681Y017482D03*
X006681Y017479D03*
X006681Y017476D03*
X006681Y017473D03*
X006681Y017470D03*
X006681Y017467D03*
X006678Y017458D03*
X006678Y017455D03*
X006678Y017452D03*
X006675Y017443D03*
X006891Y017443D03*
X006891Y017440D03*
X006891Y017437D03*
X006891Y017434D03*
X006891Y017431D03*
X006891Y017428D03*
X006891Y017425D03*
X006891Y017422D03*
X006891Y017419D03*
X006891Y017416D03*
X006891Y017413D03*
X006891Y017410D03*
X006891Y017407D03*
X006891Y017404D03*
X006891Y017401D03*
X006891Y017398D03*
X006891Y017395D03*
X006891Y017392D03*
X006891Y017389D03*
X006891Y017386D03*
X006891Y017383D03*
X006891Y017380D03*
X006891Y017377D03*
X006891Y017374D03*
X006891Y017371D03*
X006891Y017368D03*
X006891Y017365D03*
X006891Y017362D03*
X006891Y017359D03*
X006891Y017356D03*
X006891Y017353D03*
X006891Y017350D03*
X006891Y017347D03*
X006891Y017344D03*
X006891Y017341D03*
X006891Y017338D03*
X006891Y017335D03*
X006891Y017332D03*
X006891Y017329D03*
X006891Y017326D03*
X006891Y017323D03*
X006891Y017320D03*
X006891Y017317D03*
X006891Y017314D03*
X006891Y017311D03*
X006891Y017308D03*
X006891Y017305D03*
X006891Y017302D03*
X006891Y017299D03*
X006891Y017296D03*
X006891Y017293D03*
X006891Y017290D03*
X006891Y017287D03*
X006891Y017284D03*
X006891Y017281D03*
X006891Y017278D03*
X006891Y017275D03*
X006891Y017272D03*
X006891Y017269D03*
X006891Y017266D03*
X006888Y017260D03*
X006888Y017257D03*
X006888Y017254D03*
X006888Y017251D03*
X006888Y017248D03*
X006885Y017242D03*
X006885Y017239D03*
X006882Y017230D03*
X006696Y017221D03*
X006891Y017446D03*
X006891Y017449D03*
X006891Y017452D03*
X006891Y017455D03*
X006891Y017458D03*
X006891Y017461D03*
X006891Y017464D03*
X006891Y017467D03*
X006891Y017470D03*
X006891Y017473D03*
X006891Y017476D03*
X006891Y017479D03*
X006891Y017482D03*
X006891Y017485D03*
X006891Y017488D03*
X006891Y017491D03*
X006891Y017494D03*
X006891Y017497D03*
X006891Y017500D03*
X006891Y017503D03*
X006891Y017506D03*
X006891Y017509D03*
X006891Y017512D03*
X006891Y017515D03*
X006891Y017518D03*
X006891Y017521D03*
X006891Y017524D03*
X006891Y017527D03*
X006891Y017530D03*
X006891Y017533D03*
X006891Y017536D03*
X006891Y017539D03*
X006891Y017542D03*
X006891Y017545D03*
X006891Y017548D03*
X006891Y017551D03*
X006891Y017554D03*
X006891Y017557D03*
X006891Y017560D03*
X006891Y017563D03*
X006891Y017566D03*
X006891Y017569D03*
X006891Y017572D03*
X006891Y017575D03*
X006891Y017578D03*
X006891Y017581D03*
X006891Y017584D03*
X006891Y017587D03*
X006891Y017590D03*
X006891Y017593D03*
X006891Y017596D03*
X006891Y017599D03*
X006891Y017602D03*
X006891Y017605D03*
X006891Y017608D03*
X006891Y017611D03*
X006891Y017614D03*
X006891Y017617D03*
X006891Y017620D03*
X006891Y017623D03*
X006891Y017626D03*
X006891Y017629D03*
X006891Y017632D03*
X006891Y017635D03*
X006891Y017638D03*
X006891Y017641D03*
X006891Y017644D03*
X006891Y017647D03*
X006891Y017650D03*
X006891Y017653D03*
X006891Y017656D03*
X006891Y017659D03*
X006891Y017662D03*
X006891Y017665D03*
X006891Y017668D03*
X006891Y017671D03*
X006891Y017674D03*
X006891Y017677D03*
X006891Y017680D03*
X006891Y017683D03*
X006891Y017686D03*
X006891Y017689D03*
X006891Y017692D03*
X006891Y017695D03*
X006891Y017698D03*
X006891Y017701D03*
X006891Y017704D03*
X006891Y017707D03*
X006891Y017710D03*
X006891Y017713D03*
X006891Y017716D03*
X006891Y017719D03*
X006891Y017722D03*
X006891Y017725D03*
X006891Y017728D03*
X006891Y017731D03*
X006891Y017734D03*
X006891Y017737D03*
X006891Y017740D03*
X006891Y017743D03*
X006891Y017746D03*
X006891Y017749D03*
X006891Y017752D03*
X006891Y017755D03*
X006891Y017758D03*
X006891Y017761D03*
X006891Y017764D03*
X006891Y017767D03*
X006891Y017770D03*
X006891Y017773D03*
X006891Y017776D03*
X006891Y017779D03*
X006891Y017782D03*
X006891Y017785D03*
X006891Y017788D03*
X006891Y017791D03*
X006891Y017794D03*
X006891Y017797D03*
X006891Y017800D03*
X006891Y017803D03*
X006891Y017806D03*
X006891Y017809D03*
X006891Y017812D03*
X006891Y017815D03*
X006891Y017818D03*
X006891Y017821D03*
X006891Y017824D03*
X006891Y017827D03*
X006891Y017830D03*
X006891Y017833D03*
X006891Y017836D03*
X006891Y017839D03*
X006891Y017842D03*
X006891Y017845D03*
X006891Y017848D03*
X006891Y017851D03*
X006891Y017854D03*
X006891Y017857D03*
X006891Y017860D03*
X006885Y018019D03*
X006690Y018025D03*
X006687Y018016D03*
X006687Y018013D03*
X006684Y018004D03*
X006684Y018001D03*
X006684Y017998D03*
X006684Y017995D03*
X006684Y017992D03*
X006684Y017989D03*
X006684Y017986D03*
X006684Y017983D03*
X006684Y017980D03*
X006684Y017977D03*
X006684Y017974D03*
X006684Y017971D03*
X006684Y017968D03*
X006684Y017965D03*
X006684Y017962D03*
X006684Y017959D03*
X006684Y017956D03*
X006684Y017953D03*
X006684Y017950D03*
X006684Y017947D03*
X006684Y017944D03*
X006684Y017941D03*
X006684Y017938D03*
X006684Y017935D03*
X006684Y017932D03*
X006684Y017929D03*
X006684Y017926D03*
X006684Y017923D03*
X006684Y017920D03*
X006684Y017917D03*
X006684Y017914D03*
X006684Y017911D03*
X006684Y017908D03*
X006684Y017905D03*
X006684Y017902D03*
X006684Y017899D03*
X006684Y017896D03*
X006684Y017893D03*
X006684Y017890D03*
X006684Y017887D03*
X006684Y017884D03*
X006684Y017881D03*
X006684Y017878D03*
X006684Y017875D03*
X006684Y017872D03*
X006684Y017869D03*
X006684Y017866D03*
X006684Y017863D03*
X006684Y017860D03*
X006684Y017857D03*
X006684Y017854D03*
X006684Y017851D03*
X006684Y017848D03*
X006684Y017845D03*
X006684Y017842D03*
X006684Y017839D03*
X006684Y017836D03*
X006684Y017785D03*
X007257Y017893D03*
X007257Y017896D03*
X007260Y017902D03*
X007260Y017905D03*
X007260Y017908D03*
X007260Y017911D03*
X007263Y017917D03*
X007263Y017920D03*
X007263Y017923D03*
X007263Y017926D03*
X007263Y017929D03*
X007263Y017932D03*
X007263Y017935D03*
X007263Y017938D03*
X007263Y017941D03*
X007263Y017944D03*
X007263Y017947D03*
X007263Y017950D03*
X007263Y017953D03*
X007263Y017956D03*
X007260Y017962D03*
X007260Y017965D03*
X007260Y017968D03*
X007260Y017971D03*
X007257Y017977D03*
X007257Y017980D03*
X005967Y017758D03*
X005964Y017749D03*
X005964Y017746D03*
X005874Y017134D03*
D319*
X005235Y017134D03*
X004632Y017143D03*
X004212Y017143D03*
X004005Y017827D03*
X003375Y017827D03*
X003114Y017827D03*
X004842Y017827D03*
X005223Y017857D03*
X006546Y017857D03*
X006786Y018115D03*
X007530Y017761D03*
X007974Y017761D03*
X006696Y017224D03*
D320*
X006551Y017137D03*
X006416Y017797D03*
X006662Y017803D03*
X006929Y017893D03*
X006929Y017980D03*
X007031Y018067D03*
X007184Y018067D03*
X005702Y017200D03*
X005414Y017206D03*
X005393Y017413D03*
X005210Y017386D03*
X005090Y017533D03*
X005084Y017530D03*
X005240Y017605D03*
X005363Y017797D03*
X005069Y017794D03*
X004841Y017797D03*
X004841Y017800D03*
X004754Y017521D03*
X004751Y017512D03*
X004751Y017509D03*
X004748Y017503D03*
X004748Y017500D03*
X004745Y017494D03*
X004745Y017491D03*
X004742Y017485D03*
X004742Y017482D03*
X004739Y017476D03*
X004739Y017473D03*
X004736Y017467D03*
X004736Y017464D03*
X004736Y017461D03*
X004733Y017458D03*
X004733Y017455D03*
X004733Y017452D03*
X004730Y017449D03*
X004730Y017446D03*
X004730Y017443D03*
X004727Y017440D03*
X004727Y017437D03*
X004727Y017434D03*
X004724Y017431D03*
X004724Y017428D03*
X004724Y017425D03*
X004721Y017422D03*
X004721Y017419D03*
X004721Y017416D03*
X004718Y017410D03*
X004718Y017407D03*
X004715Y017401D03*
X004715Y017398D03*
X004712Y017392D03*
X004712Y017389D03*
X004709Y017383D03*
X004709Y017380D03*
X004706Y017374D03*
X004706Y017371D03*
X004703Y017365D03*
X004703Y017362D03*
X004700Y017353D03*
X004697Y017344D03*
X004694Y017335D03*
X004691Y017326D03*
X004688Y017317D03*
X004634Y017167D03*
X004211Y017167D03*
X004160Y017314D03*
X004157Y017323D03*
X004154Y017332D03*
X004151Y017341D03*
X004148Y017350D03*
X004145Y017359D03*
X004145Y017362D03*
X004142Y017368D03*
X004142Y017371D03*
X004139Y017377D03*
X004139Y017380D03*
X004136Y017386D03*
X004136Y017389D03*
X004133Y017395D03*
X004133Y017398D03*
X004130Y017404D03*
X004130Y017407D03*
X004127Y017413D03*
X004127Y017416D03*
X004127Y017419D03*
X004124Y017422D03*
X004124Y017425D03*
X004124Y017428D03*
X004121Y017431D03*
X004121Y017434D03*
X004121Y017437D03*
X004118Y017440D03*
X004118Y017443D03*
X004118Y017446D03*
X004115Y017449D03*
X004115Y017452D03*
X004115Y017455D03*
X004112Y017458D03*
X004112Y017461D03*
X004112Y017464D03*
X004109Y017470D03*
X004109Y017473D03*
X004106Y017479D03*
X004106Y017482D03*
X004103Y017488D03*
X004103Y017491D03*
X004100Y017497D03*
X004100Y017500D03*
X004097Y017506D03*
X004097Y017509D03*
X004094Y017518D03*
X004091Y017527D03*
X004088Y017536D03*
X004085Y017545D03*
X004007Y017794D03*
X004007Y017797D03*
X004424Y017806D03*
X003374Y017788D03*
X003374Y017785D03*
X003374Y017782D03*
X003374Y017779D03*
X003116Y017779D03*
X003116Y017776D03*
X003116Y017773D03*
X003116Y017770D03*
X003116Y017767D03*
X003116Y017764D03*
X003116Y017761D03*
X003116Y017758D03*
X003116Y017755D03*
X003116Y017752D03*
X003116Y017749D03*
X003116Y017746D03*
X003116Y017743D03*
X003116Y017740D03*
X003116Y017737D03*
X003116Y017734D03*
X003116Y017731D03*
X003116Y017728D03*
X003116Y017725D03*
X003116Y017722D03*
X003116Y017719D03*
X003116Y017716D03*
X003116Y017713D03*
X003116Y017782D03*
X003116Y017785D03*
X003116Y017788D03*
X003116Y017791D03*
X003116Y017530D03*
X003116Y017527D03*
X003116Y017524D03*
X003116Y017521D03*
X003116Y017518D03*
X003116Y017515D03*
X003116Y017512D03*
X003116Y017509D03*
X003116Y017506D03*
X003116Y017503D03*
X003116Y017500D03*
X003116Y017497D03*
X003116Y017494D03*
X003116Y017491D03*
X003116Y017488D03*
X003116Y017485D03*
X003116Y017482D03*
X003116Y017479D03*
X003116Y017476D03*
X003116Y017473D03*
X003116Y017470D03*
X003116Y017467D03*
X003116Y017464D03*
X003116Y017461D03*
X003116Y017458D03*
X003116Y017455D03*
X003116Y017452D03*
X003116Y017449D03*
X003116Y017446D03*
X003116Y017443D03*
X003116Y017440D03*
X003116Y017437D03*
X003116Y017434D03*
X003116Y017431D03*
X003116Y017428D03*
X003116Y017425D03*
X003116Y017422D03*
X003116Y017419D03*
X003116Y017416D03*
X003116Y017413D03*
X003116Y017410D03*
X003116Y017407D03*
X003116Y017404D03*
X003116Y017401D03*
X003116Y017398D03*
X003116Y017395D03*
X003116Y017392D03*
X003116Y017389D03*
X003116Y017386D03*
X003116Y017383D03*
X003116Y017380D03*
X003116Y017377D03*
X003116Y017374D03*
X003116Y017371D03*
X003116Y017368D03*
X003116Y017365D03*
X003116Y017362D03*
X003116Y017359D03*
X003116Y017356D03*
X003116Y017353D03*
X003116Y017350D03*
X003116Y017347D03*
X003116Y017344D03*
X003116Y017341D03*
X003116Y017338D03*
X003116Y017335D03*
X003116Y017332D03*
X003116Y017329D03*
X003116Y017326D03*
X003116Y017323D03*
X003116Y017320D03*
X003116Y017317D03*
X003116Y017314D03*
X003116Y017311D03*
X003116Y017308D03*
X003116Y017305D03*
X003116Y017302D03*
X003116Y017299D03*
X003116Y017296D03*
X003116Y017293D03*
X003116Y017290D03*
X003116Y017287D03*
X003116Y017284D03*
X003116Y017281D03*
X003116Y017278D03*
X003116Y017275D03*
X003116Y017272D03*
X003116Y017269D03*
X003116Y017266D03*
X003116Y017263D03*
X003116Y017260D03*
X003116Y017257D03*
X003116Y017254D03*
X003116Y017251D03*
X003116Y017248D03*
X003116Y017245D03*
X003116Y017242D03*
X003116Y017239D03*
X003116Y017236D03*
X003116Y017233D03*
X003116Y017230D03*
X003116Y017227D03*
X003116Y017224D03*
X003116Y017221D03*
X003116Y017218D03*
X003116Y017215D03*
X003116Y017212D03*
X003116Y017209D03*
X003116Y017206D03*
X003116Y017203D03*
X003116Y017200D03*
X003116Y017197D03*
X003116Y017194D03*
X003116Y017191D03*
X003116Y017188D03*
X003116Y017185D03*
X003116Y017182D03*
X003116Y017179D03*
X003374Y017182D03*
X003374Y017185D03*
X003374Y017188D03*
X003374Y017191D03*
X002012Y017185D03*
X001844Y017185D03*
X001928Y017503D03*
D321*
X001928Y017500D03*
X002666Y017719D03*
X002681Y017269D03*
X003386Y017344D03*
X003386Y017347D03*
X003386Y017350D03*
X003491Y017227D03*
X003788Y017263D03*
X003791Y017266D03*
X003788Y017704D03*
X003785Y017707D03*
X003491Y017743D03*
X003386Y017626D03*
X003386Y017623D03*
X003386Y017620D03*
X005138Y017557D03*
X005243Y017404D03*
X005303Y017431D03*
X005381Y017191D03*
X005876Y017137D03*
X006020Y017188D03*
D322*
X006036Y017194D03*
X005715Y017194D03*
X005235Y017137D03*
X005097Y017191D03*
X005220Y017392D03*
X005106Y017542D03*
X005100Y017539D03*
X005229Y017599D03*
X005349Y017803D03*
X005223Y017854D03*
X005076Y017797D03*
X004836Y017776D03*
X004833Y017764D03*
X004830Y017755D03*
X004827Y017746D03*
X004824Y017737D03*
X004821Y017728D03*
X004422Y017797D03*
X004026Y017725D03*
X004023Y017734D03*
X004020Y017743D03*
X004017Y017752D03*
X004014Y017761D03*
X004011Y017773D03*
X003828Y017629D03*
X003831Y017620D03*
X003834Y017611D03*
X003837Y017602D03*
X003837Y017599D03*
X003840Y017593D03*
X003840Y017590D03*
X003843Y017581D03*
X003843Y017578D03*
X003843Y017575D03*
X003846Y017566D03*
X003846Y017563D03*
X003846Y017560D03*
X003846Y017557D03*
X003849Y017551D03*
X003849Y017548D03*
X003849Y017545D03*
X003849Y017542D03*
X003849Y017539D03*
X003849Y017536D03*
X003849Y017533D03*
X003852Y017527D03*
X003852Y017524D03*
X003852Y017521D03*
X003852Y017518D03*
X003852Y017515D03*
X003852Y017512D03*
X003852Y017509D03*
X003852Y017506D03*
X003852Y017503D03*
X003852Y017500D03*
X003852Y017497D03*
X003852Y017494D03*
X003852Y017491D03*
X003852Y017488D03*
X003852Y017485D03*
X003852Y017482D03*
X003852Y017479D03*
X003852Y017476D03*
X003852Y017473D03*
X003852Y017470D03*
X003852Y017467D03*
X003852Y017464D03*
X003852Y017461D03*
X003852Y017458D03*
X003852Y017455D03*
X003852Y017452D03*
X003852Y017449D03*
X003852Y017446D03*
X003852Y017443D03*
X003852Y017440D03*
X003849Y017434D03*
X003849Y017431D03*
X003849Y017428D03*
X003849Y017425D03*
X003849Y017422D03*
X003849Y017419D03*
X003849Y017416D03*
X003846Y017407D03*
X003846Y017404D03*
X003846Y017401D03*
X003843Y017389D03*
X003843Y017386D03*
X003840Y017374D03*
X003477Y017236D03*
X003474Y017239D03*
X003378Y017398D03*
X003378Y017401D03*
X003378Y017404D03*
X003378Y017407D03*
X003378Y017410D03*
X003378Y017557D03*
X003378Y017560D03*
X003378Y017563D03*
X003378Y017566D03*
X003378Y017569D03*
X003378Y017572D03*
X003474Y017731D03*
X003111Y017599D03*
X003111Y017596D03*
X003111Y017593D03*
X003111Y017590D03*
X003111Y017587D03*
X002742Y017545D03*
X002742Y017542D03*
X002742Y017539D03*
X002736Y017578D03*
X002727Y017611D03*
X002724Y017620D03*
X002721Y017629D03*
X002718Y017635D03*
X002718Y017638D03*
X002715Y017644D03*
X002712Y017650D03*
X002709Y017653D03*
X002709Y017656D03*
X002706Y017662D03*
X002703Y017668D03*
X002742Y017428D03*
X002742Y017425D03*
X002742Y017422D03*
X002739Y017404D03*
X002736Y017389D03*
X002733Y017377D03*
X002730Y017368D03*
X002730Y017365D03*
X002727Y017359D03*
X002727Y017356D03*
X002724Y017350D03*
X002724Y017347D03*
X002721Y017344D03*
X002721Y017341D03*
X002721Y017338D03*
X002718Y017335D03*
X002274Y017284D03*
X002265Y017521D03*
X002265Y017524D03*
X002265Y017527D03*
X002265Y017530D03*
X002265Y017533D03*
X002265Y017536D03*
X002265Y017539D03*
X002265Y017542D03*
X002265Y017545D03*
X002265Y017548D03*
X002268Y017554D03*
X002268Y017557D03*
X002268Y017560D03*
X002268Y017563D03*
X002268Y017566D03*
X002268Y017569D03*
X002271Y017572D03*
X002271Y017575D03*
X002271Y017578D03*
X002271Y017581D03*
X002271Y017584D03*
X002274Y017587D03*
X002274Y017590D03*
X002274Y017593D03*
X002274Y017596D03*
X002277Y017602D03*
X002277Y017605D03*
X002280Y017614D03*
X002283Y017623D03*
X002502Y017827D03*
X002004Y017182D03*
X001851Y017182D03*
X004212Y017179D03*
X004212Y017176D03*
X004635Y017176D03*
X006576Y017338D03*
X006576Y017653D03*
X007107Y018109D03*
X007530Y017767D03*
D323*
X007530Y017764D03*
X007200Y017815D03*
X007014Y017815D03*
X006930Y017974D03*
X007011Y018058D03*
X007107Y018112D03*
X006723Y018067D03*
X006390Y017782D03*
X006522Y017617D03*
X006003Y017803D03*
X005625Y017803D03*
X005388Y017782D03*
X005382Y017785D03*
X005391Y017479D03*
X005388Y017476D03*
X005436Y017221D03*
X005676Y017215D03*
X006072Y017215D03*
X006390Y017212D03*
X006693Y017206D03*
X006846Y017188D03*
X007974Y017764D03*
X005055Y017512D03*
X005052Y017509D03*
X005043Y017779D03*
X004842Y017812D03*
X004005Y017812D03*
X003375Y017809D03*
X003375Y017161D03*
X003375Y017158D03*
X002028Y017194D03*
X001929Y017137D03*
X001827Y017194D03*
X001824Y017197D03*
X001830Y017449D03*
X002031Y017446D03*
X005061Y017212D03*
D324*
X005231Y017335D03*
X005249Y017407D03*
X005255Y017410D03*
X005276Y017419D03*
X005282Y017422D03*
X005390Y017407D03*
X005372Y017188D03*
X005165Y017569D03*
X005159Y017566D03*
X005186Y017578D03*
X005192Y017581D03*
X005099Y017806D03*
X005687Y017836D03*
X006065Y017836D03*
X006929Y017872D03*
X006929Y017875D03*
X006929Y017998D03*
X006575Y017344D03*
X006452Y017182D03*
X006551Y017140D03*
X006011Y017185D03*
X004424Y017761D03*
X004424Y017764D03*
X004424Y017767D03*
X004211Y017209D03*
X004211Y017206D03*
X003494Y017224D03*
X003389Y017329D03*
X003389Y017332D03*
X003389Y017335D03*
X003389Y017635D03*
X003389Y017638D03*
X003389Y017641D03*
X003497Y017746D03*
X003101Y017647D03*
X003101Y017644D03*
X002927Y017809D03*
X002339Y017716D03*
X002285Y017266D03*
X002288Y017263D03*
X002666Y017254D03*
X002669Y017257D03*
X002672Y017260D03*
X001928Y017143D03*
D325*
X002936Y017788D03*
X003083Y017689D03*
X003407Y017698D03*
X003407Y017272D03*
X003617Y017149D03*
X003737Y017221D03*
X004211Y017260D03*
X004211Y017263D03*
X004211Y017266D03*
X004637Y017263D03*
X004424Y017704D03*
X004424Y017707D03*
X005210Y017638D03*
X005687Y017824D03*
X006065Y017824D03*
X006575Y017359D03*
X005876Y017140D03*
D326*
X005751Y017182D03*
X005874Y017335D03*
X006576Y017350D03*
X006786Y017158D03*
X006786Y018097D03*
X007107Y018103D03*
X005217Y017647D03*
X005235Y017140D03*
X004635Y017227D03*
X004635Y017230D03*
X004635Y017233D03*
X004212Y017230D03*
X003756Y017233D03*
X003396Y017302D03*
X003396Y017668D03*
X003093Y017668D03*
X002988Y017731D03*
X002928Y017803D03*
X002634Y017743D03*
X002361Y017737D03*
X002649Y017239D03*
X002646Y017236D03*
X001929Y017146D03*
X003750Y017740D03*
X004422Y017740D03*
D327*
X004422Y017830D03*
X004005Y017830D03*
X003375Y017830D03*
X004632Y017140D03*
X004842Y017830D03*
D328*
X004212Y017140D03*
X006699Y017233D03*
X006693Y017773D03*
D329*
X006647Y017608D03*
X006650Y017605D03*
X006509Y017608D03*
X006359Y017755D03*
X006356Y017752D03*
X006353Y017749D03*
X006350Y017746D03*
X006347Y017743D03*
X006140Y017791D03*
X005990Y017794D03*
X005987Y017791D03*
X005762Y017791D03*
X005609Y017791D03*
X005420Y017755D03*
X005417Y017758D03*
X005429Y017512D03*
X005426Y017509D03*
X005423Y017506D03*
X005420Y017503D03*
X005459Y017368D03*
X005462Y017365D03*
X005465Y017362D03*
X005462Y017242D03*
X005642Y017245D03*
X005645Y017242D03*
X005810Y017368D03*
X006104Y017242D03*
X006107Y017245D03*
X006110Y017248D03*
X006113Y017251D03*
X006350Y017248D03*
X006353Y017245D03*
X006356Y017242D03*
X006644Y017383D03*
X006647Y017386D03*
X006695Y017212D03*
X006860Y017197D03*
X006863Y017200D03*
X006992Y017833D03*
X006989Y017836D03*
X006986Y017839D03*
X006929Y017905D03*
X006896Y018007D03*
X006863Y018058D03*
X006986Y018034D03*
X006989Y018037D03*
X006992Y018040D03*
X007220Y018043D03*
X007223Y018040D03*
X007226Y018037D03*
X007229Y018034D03*
X007226Y017836D03*
X007223Y017833D03*
X006713Y018058D03*
X005225Y017323D03*
X005189Y017371D03*
X005033Y017239D03*
X005033Y017236D03*
X004634Y017149D03*
X005021Y017632D03*
X005021Y017758D03*
X005024Y017761D03*
X005027Y017764D03*
X004841Y017821D03*
X004004Y017821D03*
X003614Y017140D03*
X003116Y017149D03*
X002264Y017308D03*
X002057Y017221D03*
X002054Y017218D03*
X002057Y017422D03*
X002054Y017425D03*
X001808Y017431D03*
X001805Y017428D03*
X001802Y017425D03*
X001799Y017221D03*
X001802Y017218D03*
D330*
X003374Y017140D03*
D331*
X003116Y017140D03*
D332*
X003116Y017152D03*
X002489Y017140D03*
X002045Y017206D03*
X002042Y017437D03*
X001928Y017506D03*
X001814Y017437D03*
X001814Y017206D03*
X004004Y017818D03*
X004841Y017818D03*
X005030Y017767D03*
X005033Y017770D03*
X005084Y017584D03*
X005039Y017497D03*
X005192Y017374D03*
X005411Y017494D03*
X005414Y017497D03*
X005456Y017371D03*
X005453Y017233D03*
X005813Y017365D03*
X006092Y017230D03*
X006095Y017233D03*
X006362Y017236D03*
X006365Y017233D03*
X006368Y017230D03*
X006575Y017332D03*
X006857Y017194D03*
X006512Y017611D03*
X006368Y017764D03*
X006371Y017767D03*
X006134Y017797D03*
X005756Y017797D03*
X005405Y017770D03*
X004634Y017152D03*
X006674Y017794D03*
X006998Y017827D03*
X007001Y017824D03*
X007214Y017824D03*
X007217Y018046D03*
X007214Y018049D03*
X007004Y018052D03*
X007001Y018049D03*
X006854Y018064D03*
X006719Y018064D03*
D333*
X006788Y018106D03*
X006929Y017986D03*
X006929Y017887D03*
X006656Y017806D03*
X006428Y017803D03*
X006434Y017188D03*
X005396Y017197D03*
X005312Y017371D03*
X005336Y017446D03*
X005342Y017449D03*
X005225Y017395D03*
X004634Y017179D03*
X004211Y017182D03*
X003830Y017338D03*
X003830Y017341D03*
X003833Y017347D03*
X003833Y017350D03*
X003836Y017356D03*
X003836Y017359D03*
X003836Y017362D03*
X003839Y017365D03*
X003839Y017368D03*
X003839Y017371D03*
X003842Y017377D03*
X003842Y017380D03*
X003842Y017383D03*
X003845Y017392D03*
X003845Y017395D03*
X003845Y017398D03*
X003848Y017410D03*
X003848Y017413D03*
X003851Y017437D03*
X003851Y017530D03*
X003848Y017554D03*
X003845Y017569D03*
X003845Y017572D03*
X003842Y017584D03*
X003842Y017587D03*
X003839Y017596D03*
X003836Y017605D03*
X003836Y017608D03*
X003833Y017614D03*
X003833Y017617D03*
X003830Y017623D03*
X003830Y017626D03*
X003827Y017632D03*
X003827Y017635D03*
X003824Y017638D03*
X003824Y017641D03*
X003821Y017647D03*
X003818Y017653D03*
X003482Y017737D03*
X003479Y017734D03*
X003380Y017584D03*
X003380Y017581D03*
X003380Y017578D03*
X003380Y017575D03*
X003380Y017395D03*
X003380Y017392D03*
X003380Y017389D03*
X003380Y017386D03*
X003110Y017602D03*
X003110Y017605D03*
X003110Y017608D03*
X003014Y017716D03*
X002708Y017659D03*
X002705Y017665D03*
X002702Y017671D03*
X002699Y017674D03*
X002699Y017677D03*
X002696Y017680D03*
X002693Y017683D03*
X002690Y017689D03*
X002294Y017650D03*
X002291Y017644D03*
X002291Y017641D03*
X002288Y017635D03*
X002288Y017632D03*
X002285Y017629D03*
X002285Y017626D03*
X002282Y017620D03*
X002282Y017617D03*
X002279Y017611D03*
X002279Y017608D03*
X002276Y017599D03*
X002276Y017281D03*
X001928Y017140D03*
X002708Y017311D03*
X002711Y017317D03*
X002711Y017320D03*
X002714Y017323D03*
X002714Y017326D03*
X002717Y017329D03*
X002717Y017332D03*
X003827Y017332D03*
X004424Y017791D03*
X004424Y017794D03*
D334*
X005019Y017755D03*
X005013Y017641D03*
X005016Y017638D03*
X005019Y017635D03*
X005022Y017482D03*
X005019Y017479D03*
X005016Y017476D03*
X005019Y017254D03*
X005028Y017242D03*
X005463Y017245D03*
X005466Y017248D03*
X005469Y017251D03*
X005469Y017356D03*
X005433Y017518D03*
X005436Y017521D03*
X005262Y017623D03*
X005427Y017743D03*
X005427Y017746D03*
X005424Y017749D03*
X005421Y017752D03*
X005604Y017785D03*
X005607Y017788D03*
X005766Y017788D03*
X006063Y017848D03*
X006144Y017788D03*
X006336Y017731D03*
X006339Y017734D03*
X006342Y017737D03*
X006501Y017602D03*
X006504Y017605D03*
X006651Y017602D03*
X006654Y017599D03*
X006678Y017791D03*
X006891Y018010D03*
X006864Y018055D03*
X006963Y018007D03*
X006981Y017845D03*
X006984Y017842D03*
X007227Y017839D03*
X007233Y017845D03*
X007233Y018028D03*
X006708Y018055D03*
X006651Y017392D03*
X006648Y017389D03*
X006504Y017386D03*
X006501Y017389D03*
X006498Y017392D03*
X006333Y017269D03*
X006339Y017260D03*
X006342Y017257D03*
X006348Y017251D03*
X006324Y017281D03*
X006123Y017266D03*
X006117Y017257D03*
X006114Y017254D03*
X005943Y017371D03*
X005874Y017317D03*
X005637Y017251D03*
X005634Y017254D03*
X005631Y017257D03*
X005631Y017260D03*
X005628Y017263D03*
X006786Y017143D03*
X006867Y017203D03*
X007974Y018115D03*
X003114Y017821D03*
X002919Y017827D03*
X002064Y017413D03*
X002061Y017416D03*
X002058Y017419D03*
X002064Y017230D03*
X002061Y017224D03*
X001797Y017224D03*
X001794Y017227D03*
X001791Y017230D03*
X001794Y017416D03*
X001797Y017419D03*
D335*
X002931Y017797D03*
X003399Y017677D03*
X003744Y017743D03*
X003399Y017293D03*
X005214Y017644D03*
X005874Y017338D03*
X006549Y017143D03*
X006786Y017161D03*
X006576Y017641D03*
D336*
X005876Y017143D03*
X005687Y017809D03*
X005222Y017845D03*
X003422Y017725D03*
X003068Y017710D03*
X003422Y017245D03*
X001928Y017158D03*
X007973Y018091D03*
D337*
X007974Y018097D03*
X007530Y018097D03*
X006786Y018085D03*
X006576Y017629D03*
X006063Y017821D03*
X005874Y017350D03*
X005772Y017179D03*
X005979Y017179D03*
X005235Y017143D03*
X004635Y017275D03*
X004635Y017278D03*
X004422Y017692D03*
X003723Y017752D03*
X003618Y017818D03*
X003411Y017707D03*
X002967Y017743D03*
X002940Y017779D03*
X003411Y017263D03*
X002334Y017227D03*
X005205Y017635D03*
X006786Y017170D03*
D338*
X006690Y017197D03*
X006027Y017191D03*
X005874Y017326D03*
X005721Y017191D03*
X005388Y017194D03*
X005301Y017368D03*
X005328Y017443D03*
X005391Y017410D03*
X005223Y017596D03*
X005223Y017656D03*
X005118Y017548D03*
X005112Y017545D03*
X005082Y017800D03*
X005106Y017188D03*
X004635Y017185D03*
X004635Y017182D03*
X004212Y017185D03*
X004212Y017188D03*
X003825Y017326D03*
X003825Y017329D03*
X003822Y017323D03*
X003822Y017320D03*
X003819Y017317D03*
X003819Y017314D03*
X003816Y017308D03*
X003813Y017302D03*
X003828Y017335D03*
X003831Y017344D03*
X003834Y017353D03*
X003822Y017644D03*
X003819Y017650D03*
X003816Y017656D03*
X003816Y017659D03*
X003813Y017662D03*
X003813Y017665D03*
X003810Y017668D03*
X003810Y017671D03*
X003807Y017674D03*
X003804Y017680D03*
X003381Y017596D03*
X003381Y017593D03*
X003381Y017590D03*
X003381Y017587D03*
X003381Y017383D03*
X003381Y017380D03*
X003381Y017377D03*
X003381Y017374D03*
X003480Y017233D03*
X003615Y017143D03*
X003108Y017611D03*
X003108Y017614D03*
X003108Y017617D03*
X003009Y017719D03*
X002691Y017686D03*
X002688Y017692D03*
X002685Y017695D03*
X002301Y017665D03*
X002301Y017662D03*
X002298Y017659D03*
X002298Y017656D03*
X002295Y017653D03*
X002292Y017647D03*
X002289Y017638D03*
X002001Y017461D03*
X001854Y017461D03*
X002277Y017278D03*
X002700Y017299D03*
X002703Y017302D03*
X002703Y017305D03*
X002706Y017308D03*
X002709Y017314D03*
X004422Y017788D03*
X006435Y017806D03*
X007038Y018070D03*
X007173Y018070D03*
D339*
X006932Y017965D03*
X006686Y017782D03*
X006575Y017662D03*
X006575Y017329D03*
X004424Y017827D03*
X003374Y017143D03*
X003116Y017143D03*
X002264Y017314D03*
D340*
X002283Y017269D03*
X002487Y017143D03*
X002673Y017263D03*
X002676Y017266D03*
X002661Y017722D03*
X002658Y017725D03*
X002334Y017713D03*
X002331Y017710D03*
X002328Y017707D03*
X003102Y017641D03*
X003102Y017638D03*
X003387Y017632D03*
X003387Y017629D03*
X003774Y017719D03*
X003777Y017716D03*
X004422Y017770D03*
X004212Y017203D03*
X004212Y017200D03*
X003786Y017260D03*
X003783Y017257D03*
X003387Y017338D03*
X003387Y017341D03*
X005151Y017563D03*
X005199Y017584D03*
X005289Y017425D03*
X005874Y017329D03*
X006687Y017194D03*
X006648Y017809D03*
X006444Y017809D03*
X006786Y018103D03*
X007107Y018106D03*
X007974Y017770D03*
D341*
X007191Y018064D03*
X006729Y018070D03*
X006666Y017800D03*
X006399Y017788D03*
X005826Y017359D03*
X005691Y017206D03*
X005424Y017212D03*
X005226Y017326D03*
X005379Y017470D03*
X005244Y017608D03*
X005379Y017788D03*
X004536Y017464D03*
X004536Y017461D03*
X004539Y017455D03*
X004539Y017452D03*
X004551Y017416D03*
X004551Y017413D03*
X004554Y017407D03*
X004554Y017404D03*
X004566Y017368D03*
X004566Y017365D03*
X004569Y017359D03*
X004569Y017356D03*
X004569Y017353D03*
X004581Y017320D03*
X004581Y017317D03*
X004584Y017311D03*
X004584Y017308D03*
X004584Y017305D03*
X004524Y017500D03*
X004524Y017503D03*
X004521Y017509D03*
X004521Y017512D03*
X004509Y017548D03*
X004509Y017551D03*
X004506Y017557D03*
X004506Y017560D03*
X004494Y017596D03*
X004494Y017599D03*
X004491Y017605D03*
X004491Y017608D03*
X004479Y017644D03*
X004479Y017647D03*
X004476Y017653D03*
X004476Y017656D03*
X004374Y017665D03*
X004374Y017668D03*
X004371Y017659D03*
X004371Y017656D03*
X004359Y017620D03*
X004359Y017617D03*
X004356Y017611D03*
X004356Y017608D03*
X004344Y017572D03*
X004344Y017569D03*
X004341Y017563D03*
X004341Y017560D03*
X004329Y017524D03*
X004329Y017521D03*
X004326Y017515D03*
X004326Y017512D03*
X004314Y017476D03*
X004314Y017473D03*
X004311Y017467D03*
X004311Y017464D03*
X004299Y017428D03*
X004299Y017425D03*
X004296Y017419D03*
X004296Y017416D03*
X004284Y017380D03*
X004284Y017377D03*
X004281Y017371D03*
X004281Y017368D03*
X004269Y017332D03*
X004269Y017329D03*
X004266Y017323D03*
X004266Y017320D03*
X003114Y017167D03*
X003114Y017803D03*
X006399Y017206D03*
X006786Y017146D03*
D342*
X006548Y017146D03*
X006575Y017362D03*
X005687Y017821D03*
X005222Y017848D03*
X005093Y017608D03*
X005243Y017353D03*
X005336Y017179D03*
X004637Y017272D03*
X004211Y017272D03*
X004211Y017269D03*
X004211Y017275D03*
X004424Y017695D03*
X004424Y017698D03*
X003410Y017704D03*
X003080Y017695D03*
X002939Y017782D03*
X002615Y017752D03*
X001928Y017152D03*
X003410Y017266D03*
D343*
X003620Y017809D03*
X001928Y017476D03*
X005876Y017146D03*
X006548Y017155D03*
X007532Y017794D03*
X007973Y017794D03*
D344*
X007530Y018091D03*
X007107Y017785D03*
X006786Y018073D03*
X006546Y017842D03*
X006063Y017809D03*
X006063Y017806D03*
X005196Y017626D03*
X005253Y017365D03*
X005235Y017146D03*
X003618Y017155D03*
X003423Y017242D03*
X003423Y017728D03*
D345*
X003375Y017824D03*
X004005Y017824D03*
X004842Y017824D03*
X005007Y017740D03*
X005010Y017743D03*
X005013Y017749D03*
X005007Y017653D03*
X005007Y017650D03*
X004998Y017449D03*
X004998Y017446D03*
X004995Y017440D03*
X004992Y017434D03*
X004998Y017290D03*
X005007Y017272D03*
X004632Y017146D03*
X004212Y017146D03*
X003375Y017146D03*
X002082Y017263D03*
X002073Y017245D03*
X002070Y017239D03*
X002085Y017371D03*
X002082Y017377D03*
X002073Y017398D03*
X001788Y017407D03*
X001785Y017401D03*
X001782Y017398D03*
X001782Y017395D03*
X001773Y017377D03*
X001770Y017275D03*
X001773Y017266D03*
X001782Y017248D03*
X001782Y017245D03*
X005442Y017530D03*
X005445Y017536D03*
X005448Y017539D03*
X005448Y017542D03*
X005448Y017710D03*
X005448Y017713D03*
X005445Y017716D03*
X005442Y017722D03*
X005595Y017773D03*
X005598Y017776D03*
X005772Y017779D03*
X005775Y017776D03*
X005775Y017773D03*
X005778Y017770D03*
X005970Y017767D03*
X005973Y017773D03*
X006150Y017779D03*
X006153Y017773D03*
X006312Y017695D03*
X006312Y017692D03*
X006315Y017698D03*
X006318Y017704D03*
X006303Y017677D03*
X006300Y017671D03*
X006297Y017665D03*
X006492Y017590D03*
X006492Y017587D03*
X006495Y017593D03*
X006660Y017590D03*
X006663Y017587D03*
X006663Y017584D03*
X006663Y017410D03*
X006660Y017404D03*
X006657Y017401D03*
X006483Y017419D03*
X006303Y017317D03*
X006303Y017314D03*
X006300Y017320D03*
X006297Y017326D03*
X006288Y017347D03*
X006312Y017299D03*
X006318Y017290D03*
X006147Y017308D03*
X006138Y017290D03*
X006135Y017284D03*
X006132Y017278D03*
X005952Y017383D03*
X005802Y017377D03*
X005613Y017287D03*
X005610Y017290D03*
X005610Y017293D03*
X005607Y017296D03*
X005607Y017299D03*
X005478Y017266D03*
X005475Y017260D03*
X005478Y017341D03*
X005478Y017344D03*
X005475Y017347D03*
X006873Y017212D03*
X006972Y017857D03*
X006927Y017908D03*
X006972Y018016D03*
X007242Y018013D03*
X007245Y018010D03*
X007245Y018007D03*
X007248Y018004D03*
X007248Y017869D03*
X007245Y017866D03*
X007245Y017863D03*
X007242Y017860D03*
D346*
X007532Y017773D03*
X007973Y017773D03*
X005222Y017851D03*
X005111Y017809D03*
X005087Y017599D03*
X004424Y017743D03*
X004424Y017746D03*
X003758Y017734D03*
X003755Y017737D03*
X003395Y017665D03*
X003395Y017662D03*
X003095Y017662D03*
X003095Y017665D03*
X002639Y017740D03*
X002357Y017734D03*
X002354Y017731D03*
X001928Y017497D03*
X002300Y017251D03*
X003395Y017305D03*
X003395Y017308D03*
X003617Y017146D03*
X003761Y017236D03*
X004211Y017227D03*
X004211Y017224D03*
D347*
X005001Y017281D03*
X005001Y017284D03*
X005004Y017278D03*
X005004Y017275D03*
X005001Y017452D03*
X005004Y017458D03*
X005004Y017656D03*
X005004Y017734D03*
X005451Y017704D03*
X005451Y017548D03*
X005451Y017545D03*
X005394Y017419D03*
X005481Y017272D03*
X005601Y017311D03*
X005604Y017305D03*
X005616Y017281D03*
X005799Y017380D03*
X005799Y017383D03*
X005949Y017380D03*
X006141Y017296D03*
X006144Y017302D03*
X006294Y017332D03*
X006306Y017311D03*
X006306Y017308D03*
X006309Y017305D03*
X006309Y017302D03*
X006489Y017407D03*
X006486Y017413D03*
X006486Y017578D03*
X006489Y017584D03*
X006666Y017578D03*
X006666Y017416D03*
X006876Y017218D03*
X006876Y017215D03*
X006681Y017788D03*
X006894Y017866D03*
X006969Y018013D03*
X006879Y018034D03*
X006876Y018040D03*
X006699Y018043D03*
X006696Y018040D03*
X006696Y018037D03*
X007239Y018019D03*
X007239Y017854D03*
X006324Y017713D03*
X006309Y017689D03*
X006309Y017686D03*
X006306Y017683D03*
X006159Y017761D03*
X005976Y017776D03*
X005976Y017779D03*
X003114Y017146D03*
X002079Y017254D03*
X002079Y017257D03*
X002076Y017251D03*
X002076Y017248D03*
X002079Y017386D03*
X002076Y017392D03*
X001779Y017392D03*
X001779Y017389D03*
X001776Y017386D03*
X001776Y017383D03*
X001776Y017260D03*
X001776Y017257D03*
X001779Y017254D03*
X001779Y017251D03*
D348*
X002487Y017146D03*
X002631Y017227D03*
X002376Y017746D03*
X002931Y017794D03*
X003087Y017680D03*
X003402Y017686D03*
X003618Y017821D03*
X003738Y017746D03*
X003402Y017284D03*
X004212Y017248D03*
X005388Y017398D03*
X005874Y017341D03*
X006576Y017638D03*
X006063Y017827D03*
X007107Y018100D03*
X007974Y017776D03*
D349*
X007973Y017767D03*
X006929Y017890D03*
X006929Y017983D03*
X006785Y017149D03*
X005708Y017197D03*
X005408Y017203D03*
X005402Y017200D03*
X005228Y017329D03*
X005348Y017452D03*
X005234Y017602D03*
X005084Y017590D03*
X004808Y017683D03*
X004808Y017686D03*
X004808Y017689D03*
X004811Y017692D03*
X004811Y017695D03*
X004811Y017698D03*
X004814Y017701D03*
X004814Y017704D03*
X004814Y017707D03*
X004817Y017710D03*
X004817Y017713D03*
X004817Y017716D03*
X004820Y017719D03*
X004820Y017722D03*
X004820Y017725D03*
X004823Y017731D03*
X004823Y017734D03*
X004826Y017740D03*
X004826Y017743D03*
X004829Y017749D03*
X004829Y017752D03*
X004832Y017758D03*
X004832Y017761D03*
X004835Y017767D03*
X004835Y017770D03*
X004835Y017773D03*
X004838Y017779D03*
X004838Y017782D03*
X004838Y017785D03*
X004805Y017680D03*
X004805Y017677D03*
X004805Y017674D03*
X004802Y017668D03*
X004802Y017665D03*
X004799Y017659D03*
X004799Y017656D03*
X004796Y017650D03*
X004796Y017647D03*
X004793Y017641D03*
X004793Y017638D03*
X004790Y017632D03*
X004790Y017629D03*
X004787Y017623D03*
X004787Y017620D03*
X004784Y017611D03*
X004781Y017602D03*
X004778Y017593D03*
X004775Y017584D03*
X004772Y017575D03*
X004424Y017800D03*
X004043Y017677D03*
X004043Y017674D03*
X004043Y017671D03*
X004046Y017668D03*
X004046Y017665D03*
X004046Y017662D03*
X004049Y017656D03*
X004049Y017653D03*
X004052Y017647D03*
X004052Y017644D03*
X004055Y017638D03*
X004055Y017635D03*
X004058Y017629D03*
X004058Y017626D03*
X004061Y017620D03*
X004061Y017617D03*
X004064Y017608D03*
X004067Y017599D03*
X004070Y017590D03*
X004073Y017581D03*
X004076Y017572D03*
X004040Y017680D03*
X004040Y017683D03*
X004040Y017686D03*
X004037Y017689D03*
X004037Y017692D03*
X004037Y017695D03*
X004034Y017698D03*
X004034Y017701D03*
X004034Y017704D03*
X004031Y017707D03*
X004031Y017710D03*
X004031Y017713D03*
X004028Y017716D03*
X004028Y017719D03*
X004028Y017722D03*
X004025Y017728D03*
X004025Y017731D03*
X004022Y017737D03*
X004022Y017740D03*
X004019Y017746D03*
X004019Y017749D03*
X004016Y017755D03*
X004016Y017758D03*
X004013Y017764D03*
X004013Y017767D03*
X004013Y017770D03*
X004010Y017776D03*
X004010Y017779D03*
X004010Y017782D03*
X004007Y017788D03*
X003377Y017554D03*
X003377Y017551D03*
X003377Y017548D03*
X003377Y017545D03*
X003377Y017542D03*
X003377Y017539D03*
X003377Y017536D03*
X003377Y017434D03*
X003377Y017431D03*
X003377Y017428D03*
X003377Y017425D03*
X003377Y017422D03*
X003377Y017419D03*
X003377Y017416D03*
X003377Y017413D03*
X003113Y017572D03*
X003113Y017575D03*
X003113Y017578D03*
X003113Y017581D03*
X003113Y017584D03*
X003017Y017713D03*
X002924Y017818D03*
X002714Y017647D03*
X002717Y017641D03*
X002720Y017632D03*
X002723Y017626D03*
X002723Y017623D03*
X002726Y017617D03*
X002726Y017614D03*
X002729Y017608D03*
X002729Y017605D03*
X002729Y017602D03*
X002732Y017599D03*
X002732Y017596D03*
X002732Y017593D03*
X002735Y017590D03*
X002735Y017587D03*
X002735Y017584D03*
X002735Y017581D03*
X002738Y017575D03*
X002738Y017572D03*
X002738Y017569D03*
X002738Y017566D03*
X002738Y017563D03*
X002741Y017560D03*
X002741Y017557D03*
X002741Y017554D03*
X002741Y017551D03*
X002741Y017548D03*
X002744Y017536D03*
X002744Y017533D03*
X002744Y017530D03*
X002744Y017527D03*
X002744Y017524D03*
X002744Y017521D03*
X002744Y017443D03*
X002744Y017440D03*
X002744Y017437D03*
X002744Y017434D03*
X002744Y017431D03*
X002741Y017419D03*
X002741Y017416D03*
X002741Y017413D03*
X002741Y017410D03*
X002741Y017407D03*
X002738Y017401D03*
X002738Y017398D03*
X002738Y017395D03*
X002738Y017392D03*
X002735Y017386D03*
X002735Y017383D03*
X002735Y017380D03*
X002732Y017374D03*
X002732Y017371D03*
X002729Y017362D03*
X002726Y017353D03*
X002273Y017287D03*
X002267Y017551D03*
X004211Y017173D03*
X004634Y017173D03*
X005357Y017800D03*
X005687Y017842D03*
D350*
X005687Y017812D03*
X005201Y017629D03*
X005096Y017614D03*
X006575Y017371D03*
X006548Y017149D03*
X006785Y017176D03*
X006788Y018079D03*
X003620Y017815D03*
X003071Y017707D03*
X002348Y017221D03*
X001928Y017485D03*
D351*
X001929Y017173D03*
X005874Y017149D03*
D352*
X005235Y017149D03*
X007530Y018085D03*
D353*
X007218Y017830D03*
X007215Y017827D03*
X006993Y017830D03*
X006930Y017971D03*
X006993Y018043D03*
X006996Y018046D03*
X006858Y018061D03*
X006714Y018061D03*
X006642Y017611D03*
X006639Y017380D03*
X006510Y017380D03*
X006507Y017383D03*
X006360Y017239D03*
X006102Y017239D03*
X006099Y017236D03*
X005937Y017365D03*
X005655Y017233D03*
X005652Y017236D03*
X005649Y017239D03*
X005457Y017239D03*
X005454Y017236D03*
X005418Y017500D03*
X005259Y017620D03*
X005256Y017617D03*
X005406Y017767D03*
X005409Y017764D03*
X005412Y017761D03*
X005613Y017794D03*
X005616Y017797D03*
X005760Y017794D03*
X005994Y017797D03*
X006138Y017794D03*
X006360Y017758D03*
X006363Y017761D03*
X005025Y017629D03*
X005034Y017494D03*
X005031Y017491D03*
X005028Y017488D03*
X005037Y017233D03*
X005040Y017230D03*
X005043Y017227D03*
X004212Y017149D03*
X003375Y017152D03*
X003375Y017818D03*
X003114Y017818D03*
X002052Y017428D03*
X002049Y017431D03*
X002046Y017434D03*
X002052Y017215D03*
X002049Y017212D03*
X002046Y017209D03*
X001809Y017209D03*
X001806Y017212D03*
X001803Y017215D03*
X001809Y017434D03*
X004422Y017821D03*
D354*
X005025Y017485D03*
X005025Y017245D03*
X005430Y017515D03*
X005430Y017740D03*
X005805Y017371D03*
X005940Y017368D03*
X006120Y017260D03*
X006330Y017272D03*
X006345Y017254D03*
X006330Y017722D03*
X006345Y017740D03*
X006705Y018052D03*
X007230Y018031D03*
X007230Y017842D03*
X007530Y018115D03*
X005640Y017248D03*
X003375Y017149D03*
X003375Y017821D03*
X001800Y017422D03*
D355*
X001928Y017155D03*
X002486Y017149D03*
X002951Y017758D03*
X002951Y017761D03*
X002948Y017764D03*
X002501Y017818D03*
X003416Y017716D03*
X003416Y017254D03*
X005093Y017611D03*
X005876Y017356D03*
X006575Y017368D03*
X006065Y017815D03*
X007973Y017782D03*
D356*
X006785Y017164D03*
X006689Y017188D03*
X006548Y017848D03*
X005213Y017641D03*
X004637Y017254D03*
X004211Y017254D03*
X004211Y017251D03*
X004211Y017257D03*
X003743Y017224D03*
X003404Y017278D03*
X003404Y017281D03*
X003404Y017689D03*
X003086Y017683D03*
X002624Y017749D03*
X002318Y017236D03*
X001928Y017149D03*
X004424Y017713D03*
X004424Y017716D03*
X004424Y017719D03*
D357*
X003789Y017701D03*
X003384Y017617D03*
X003384Y017614D03*
X003384Y017611D03*
X003384Y017359D03*
X003384Y017356D03*
X003384Y017353D03*
X003801Y017281D03*
X003804Y017287D03*
X003006Y017722D03*
X002676Y017707D03*
X002319Y017695D03*
X002319Y017692D03*
X002316Y017689D03*
X002691Y017284D03*
X005091Y017803D03*
X005211Y017590D03*
X005316Y017437D03*
X005229Y017332D03*
X006576Y017341D03*
X006786Y017152D03*
X006576Y017650D03*
X007044Y017803D03*
D358*
X006548Y017152D03*
X001928Y017161D03*
D359*
X003621Y017170D03*
X003621Y017797D03*
X005874Y017152D03*
X007530Y017815D03*
X007530Y018064D03*
X007974Y018064D03*
D360*
X007532Y018076D03*
X005237Y017152D03*
D361*
X005049Y017221D03*
X005046Y017224D03*
X005040Y017500D03*
X005043Y017503D03*
X005229Y017665D03*
X005400Y017773D03*
X005406Y017491D03*
X005403Y017488D03*
X005448Y017230D03*
X005658Y017230D03*
X005661Y017227D03*
X005664Y017224D03*
X005817Y017362D03*
X005931Y017362D03*
X006081Y017221D03*
X006084Y017224D03*
X006087Y017227D03*
X006372Y017227D03*
X006375Y017224D03*
X006378Y017221D03*
X006516Y017377D03*
X006636Y017377D03*
X006693Y017209D03*
X006852Y017191D03*
X006516Y017614D03*
X006576Y017659D03*
X006378Y017773D03*
X006375Y017770D03*
X006129Y017800D03*
X005997Y017800D03*
X005751Y017800D03*
X005040Y017776D03*
X005037Y017773D03*
X004422Y017818D03*
X004005Y017815D03*
X003375Y017815D03*
X003114Y017815D03*
X003114Y017155D03*
X003375Y017155D03*
X004212Y017152D03*
X002265Y017305D03*
X002040Y017203D03*
X002037Y017200D03*
X001815Y017203D03*
X001818Y017440D03*
X001821Y017443D03*
X002040Y017440D03*
X006786Y018112D03*
X007008Y018055D03*
X006927Y017902D03*
X007005Y017821D03*
X007107Y017761D03*
X007209Y017821D03*
X007209Y018052D03*
X007206Y018055D03*
D362*
X005687Y017815D03*
X005384Y017389D03*
X003617Y017152D03*
X002957Y017752D03*
X002954Y017755D03*
D363*
X003620Y017812D03*
X002486Y017152D03*
X007106Y017788D03*
D364*
X006930Y017869D03*
X006927Y018001D03*
X006546Y017851D03*
X006576Y017647D03*
X006786Y017155D03*
X005739Y017185D03*
X005268Y017416D03*
X005262Y017413D03*
X005178Y017575D03*
X005172Y017572D03*
X005151Y017623D03*
X005085Y017596D03*
X005220Y017650D03*
X005331Y017809D03*
X004422Y017758D03*
X003771Y017722D03*
X003768Y017725D03*
X003765Y017728D03*
X003618Y017824D03*
X003390Y017647D03*
X003390Y017644D03*
X003099Y017650D03*
X003099Y017653D03*
X002655Y017728D03*
X002652Y017731D03*
X002346Y017725D03*
X002343Y017722D03*
X002340Y017719D03*
X003390Y017326D03*
X003390Y017323D03*
X003771Y017245D03*
X003774Y017248D03*
X003777Y017251D03*
X004212Y017212D03*
X004635Y017212D03*
X004635Y017209D03*
X004635Y017215D03*
X007530Y018106D03*
D365*
X007532Y018055D03*
X007973Y018055D03*
X007973Y017821D03*
X005876Y017155D03*
X005219Y017830D03*
X002501Y017797D03*
D366*
X002501Y017803D03*
X001928Y017464D03*
X001928Y017179D03*
X005237Y017155D03*
X007532Y017809D03*
X007973Y017809D03*
X007973Y018067D03*
D367*
X007202Y018058D03*
X007205Y017818D03*
X007010Y017818D03*
X006851Y018067D03*
X006671Y017797D03*
X006638Y017614D03*
X006386Y017779D03*
X006383Y017776D03*
X006383Y017218D03*
X006386Y017215D03*
X006077Y017218D03*
X005672Y017218D03*
X005669Y017221D03*
X005444Y017227D03*
X005441Y017224D03*
X005450Y017374D03*
X005393Y017416D03*
X005396Y017482D03*
X005399Y017485D03*
X005252Y017614D03*
X005396Y017776D03*
X005393Y017779D03*
X005621Y017800D03*
X005195Y017377D03*
X005048Y017506D03*
X005030Y017626D03*
X004841Y017815D03*
X005054Y017218D03*
X005057Y017215D03*
X004634Y017155D03*
X004211Y017155D03*
X003374Y017812D03*
X003116Y017812D03*
X002921Y017824D03*
X003116Y017158D03*
X002267Y017302D03*
X002033Y017197D03*
X001820Y017200D03*
X001826Y017446D03*
X002036Y017443D03*
D368*
X001928Y017167D03*
X002486Y017155D03*
X007106Y017794D03*
X007532Y017797D03*
X007973Y017797D03*
X007106Y018079D03*
D369*
X007107Y018076D03*
X007530Y017800D03*
X007974Y017800D03*
X006546Y017836D03*
X006546Y017158D03*
X005220Y017839D03*
D370*
X005876Y017158D03*
X006545Y017176D03*
X002501Y017791D03*
D371*
X005238Y017158D03*
X007530Y017818D03*
X007530Y018061D03*
D372*
X007196Y018061D03*
X007019Y018061D03*
X006929Y017899D03*
X007196Y017812D03*
X006632Y017617D03*
X006629Y017374D03*
X006521Y017374D03*
X006395Y017209D03*
X005876Y017320D03*
X005681Y017212D03*
X005432Y017218D03*
X005429Y017215D03*
X005384Y017473D03*
X005249Y017611D03*
X005066Y017518D03*
X005060Y017515D03*
X005201Y017380D03*
X005066Y017209D03*
X005069Y017206D03*
X004634Y017158D03*
X004211Y017158D03*
X005054Y017785D03*
X005687Y017845D03*
X005747Y017803D03*
X006065Y017845D03*
X006125Y017803D03*
X006395Y017785D03*
X004424Y017815D03*
X003116Y017809D03*
X003116Y017806D03*
X003116Y017164D03*
X003116Y017161D03*
X002267Y017299D03*
X002024Y017191D03*
X002027Y017449D03*
D373*
X002502Y017812D03*
X003618Y017158D03*
X005379Y017377D03*
X006546Y017839D03*
X007107Y017791D03*
X007107Y018082D03*
D374*
X007973Y018073D03*
X007973Y017803D03*
X003620Y017803D03*
X002501Y017806D03*
X002486Y017158D03*
D375*
X001929Y017467D03*
X006546Y017161D03*
D376*
X005876Y017161D03*
X007973Y017842D03*
X003623Y017782D03*
X003623Y017185D03*
X002501Y017788D03*
D377*
X002484Y017167D03*
X005238Y017161D03*
X006546Y017173D03*
X006567Y017833D03*
X007530Y017827D03*
X007530Y018049D03*
X007974Y018049D03*
X007974Y017827D03*
D378*
X006929Y017896D03*
X006404Y017791D03*
X005924Y017359D03*
X006059Y017206D03*
X005369Y017464D03*
X005204Y017383D03*
X005084Y017587D03*
X005039Y017623D03*
X005057Y017788D03*
X005369Y017794D03*
X004532Y017476D03*
X004529Y017485D03*
X004517Y017524D03*
X004514Y017533D03*
X004502Y017572D03*
X004499Y017581D03*
X004499Y017584D03*
X004487Y017620D03*
X004484Y017629D03*
X004484Y017632D03*
X004472Y017668D03*
X004469Y017677D03*
X004469Y017680D03*
X004379Y017680D03*
X004379Y017683D03*
X004367Y017644D03*
X004364Y017635D03*
X004364Y017632D03*
X004352Y017596D03*
X004349Y017587D03*
X004349Y017584D03*
X004337Y017548D03*
X004334Y017536D03*
X004322Y017500D03*
X004319Y017488D03*
X004307Y017452D03*
X004304Y017440D03*
X004289Y017392D03*
X004274Y017344D03*
X004259Y017296D03*
X004559Y017389D03*
X004562Y017380D03*
X004574Y017341D03*
X004577Y017332D03*
X004589Y017293D03*
X004634Y017161D03*
X004547Y017428D03*
X004544Y017437D03*
X004424Y017809D03*
X003374Y017800D03*
X003374Y017170D03*
X006692Y017203D03*
D379*
X006405Y017203D03*
X006063Y017209D03*
X005685Y017209D03*
X005070Y017521D03*
X004572Y017350D03*
X004572Y017347D03*
X004572Y017344D03*
X004575Y017338D03*
X004575Y017335D03*
X004578Y017329D03*
X004578Y017326D03*
X004587Y017302D03*
X004587Y017299D03*
X004587Y017296D03*
X004590Y017290D03*
X004590Y017287D03*
X004563Y017374D03*
X004563Y017377D03*
X004560Y017383D03*
X004560Y017386D03*
X004557Y017392D03*
X004557Y017395D03*
X004557Y017398D03*
X004548Y017422D03*
X004548Y017425D03*
X004545Y017431D03*
X004545Y017434D03*
X004542Y017440D03*
X004542Y017443D03*
X004542Y017446D03*
X004533Y017470D03*
X004533Y017473D03*
X004530Y017479D03*
X004530Y017482D03*
X004527Y017488D03*
X004527Y017491D03*
X004527Y017494D03*
X004518Y017518D03*
X004518Y017521D03*
X004515Y017527D03*
X004515Y017530D03*
X004512Y017536D03*
X004512Y017539D03*
X004512Y017542D03*
X004503Y017566D03*
X004503Y017569D03*
X004500Y017575D03*
X004500Y017578D03*
X004497Y017587D03*
X004497Y017590D03*
X004488Y017614D03*
X004488Y017617D03*
X004485Y017623D03*
X004485Y017626D03*
X004482Y017635D03*
X004482Y017638D03*
X004473Y017662D03*
X004473Y017665D03*
X004470Y017671D03*
X004470Y017674D03*
X004467Y017683D03*
X004467Y017686D03*
X004380Y017686D03*
X004377Y017677D03*
X004377Y017674D03*
X004368Y017650D03*
X004368Y017647D03*
X004365Y017641D03*
X004365Y017638D03*
X004362Y017629D03*
X004362Y017626D03*
X004353Y017602D03*
X004353Y017599D03*
X004350Y017593D03*
X004350Y017590D03*
X004347Y017581D03*
X004347Y017578D03*
X004338Y017554D03*
X004338Y017551D03*
X004335Y017545D03*
X004335Y017542D03*
X004335Y017539D03*
X004332Y017533D03*
X004332Y017530D03*
X004323Y017506D03*
X004323Y017503D03*
X004320Y017497D03*
X004320Y017494D03*
X004320Y017491D03*
X004317Y017485D03*
X004317Y017482D03*
X004308Y017458D03*
X004308Y017455D03*
X004305Y017449D03*
X004305Y017446D03*
X004305Y017443D03*
X004302Y017437D03*
X004302Y017434D03*
X004293Y017410D03*
X004293Y017407D03*
X004293Y017404D03*
X004290Y017401D03*
X004290Y017398D03*
X004290Y017395D03*
X004287Y017389D03*
X004287Y017386D03*
X004278Y017362D03*
X004278Y017359D03*
X004278Y017356D03*
X004275Y017353D03*
X004275Y017350D03*
X004275Y017347D03*
X004272Y017341D03*
X004272Y017338D03*
X004263Y017314D03*
X004263Y017311D03*
X004263Y017308D03*
X004260Y017305D03*
X004260Y017302D03*
X004260Y017299D03*
X004257Y017293D03*
X004257Y017290D03*
X004212Y017161D03*
X003375Y017164D03*
X003375Y017167D03*
X003375Y017803D03*
X003375Y017806D03*
X004005Y017806D03*
X004005Y017809D03*
X004422Y017812D03*
X004842Y017809D03*
X006843Y018070D03*
X006930Y017977D03*
X007023Y018064D03*
X007017Y017812D03*
X002268Y017296D03*
X002022Y017452D03*
X001833Y017452D03*
X001833Y017191D03*
D380*
X003618Y017161D03*
D381*
X002484Y017161D03*
X006546Y017164D03*
X007530Y017812D03*
X007530Y018067D03*
D382*
X007530Y018022D03*
X007530Y017854D03*
X005874Y017164D03*
D383*
X005238Y017164D03*
X006735Y017182D03*
X007530Y017836D03*
X007530Y018043D03*
D384*
X007530Y018112D03*
X005085Y017197D03*
X004695Y017338D03*
X004695Y017341D03*
X004680Y017296D03*
X004680Y017293D03*
X004680Y017290D03*
X004710Y017386D03*
X004635Y017164D03*
X004155Y017326D03*
X004155Y017329D03*
X004140Y017374D03*
X004005Y017800D03*
X004005Y017803D03*
X003375Y017797D03*
X003375Y017794D03*
X003375Y017791D03*
X003375Y017179D03*
X003375Y017176D03*
X003375Y017173D03*
D385*
X003114Y017176D03*
X003114Y017794D03*
X004128Y017410D03*
X004131Y017401D03*
X004134Y017392D03*
X004137Y017383D03*
X004143Y017365D03*
X004146Y017356D03*
X004146Y017353D03*
X004149Y017347D03*
X004149Y017344D03*
X004152Y017338D03*
X004152Y017335D03*
X004158Y017320D03*
X004158Y017317D03*
X004161Y017311D03*
X004161Y017308D03*
X004161Y017305D03*
X004164Y017302D03*
X004164Y017299D03*
X004164Y017296D03*
X004167Y017293D03*
X004167Y017290D03*
X004167Y017287D03*
X004212Y017164D03*
X004677Y017287D03*
X004683Y017299D03*
X004683Y017302D03*
X004683Y017305D03*
X004686Y017308D03*
X004686Y017311D03*
X004686Y017314D03*
X004689Y017320D03*
X004689Y017323D03*
X004692Y017329D03*
X004692Y017332D03*
X004698Y017347D03*
X004698Y017350D03*
X004701Y017356D03*
X004701Y017359D03*
X004704Y017368D03*
X004707Y017377D03*
X004713Y017395D03*
X004716Y017404D03*
X004719Y017413D03*
X005079Y017527D03*
X005064Y017791D03*
X005364Y017461D03*
X005418Y017209D03*
X006048Y017200D03*
X006054Y017203D03*
X006414Y017197D03*
X006576Y017656D03*
X006408Y017794D03*
X006786Y018109D03*
X007974Y018112D03*
D386*
X007530Y017803D03*
X007107Y017800D03*
X007107Y018073D03*
X003618Y017164D03*
D387*
X002484Y017164D03*
X006546Y017170D03*
X007974Y018058D03*
D388*
X007973Y018085D03*
X001928Y017479D03*
X001928Y017164D03*
D389*
X001929Y017491D03*
X002328Y017230D03*
X002619Y017221D03*
X002382Y017749D03*
X002937Y017785D03*
X002970Y017740D03*
X003081Y017692D03*
X003408Y017701D03*
X003408Y017269D03*
X004422Y017701D03*
X004635Y017269D03*
X004635Y017266D03*
X005241Y017350D03*
X005388Y017395D03*
X005874Y017347D03*
X006576Y017632D03*
X006786Y018088D03*
X007107Y018097D03*
X007107Y017776D03*
X007530Y017779D03*
X007974Y017779D03*
X006786Y017167D03*
X005127Y017812D03*
D390*
X006546Y017167D03*
X007974Y018061D03*
D391*
X007973Y018007D03*
X007973Y017872D03*
X007973Y017869D03*
X007532Y018007D03*
X005876Y017167D03*
X005219Y017815D03*
X003623Y017197D03*
D392*
X003623Y017188D03*
X003623Y017779D03*
X002483Y017173D03*
X005240Y017167D03*
X005219Y017821D03*
X006554Y017818D03*
X007532Y018031D03*
X007973Y018031D03*
X007973Y017848D03*
X007973Y017845D03*
D393*
X007530Y018070D03*
X003621Y017800D03*
X003621Y017167D03*
D394*
X003623Y017203D03*
X002501Y017773D03*
X005876Y017170D03*
X007532Y017887D03*
X007973Y017887D03*
X007973Y017884D03*
X007973Y017890D03*
X007973Y017989D03*
X007973Y017992D03*
D395*
X007532Y018019D03*
X007532Y017857D03*
X005219Y017818D03*
X005240Y017170D03*
X002501Y017782D03*
D396*
X003114Y017569D03*
X003114Y017566D03*
X003114Y017563D03*
X003114Y017560D03*
X003114Y017557D03*
X003114Y017554D03*
X003114Y017551D03*
X003114Y017548D03*
X003114Y017545D03*
X003114Y017542D03*
X003114Y017539D03*
X003114Y017536D03*
X003114Y017533D03*
X003375Y017533D03*
X003375Y017530D03*
X003375Y017527D03*
X003375Y017524D03*
X003375Y017521D03*
X003375Y017518D03*
X003375Y017515D03*
X003375Y017512D03*
X003375Y017509D03*
X003375Y017506D03*
X003375Y017503D03*
X003375Y017500D03*
X003375Y017497D03*
X003375Y017494D03*
X003375Y017491D03*
X003375Y017488D03*
X003375Y017485D03*
X003375Y017482D03*
X003375Y017479D03*
X003375Y017476D03*
X003375Y017473D03*
X003375Y017470D03*
X003375Y017467D03*
X003375Y017464D03*
X003375Y017461D03*
X003375Y017458D03*
X003375Y017455D03*
X003375Y017452D03*
X003375Y017449D03*
X003375Y017446D03*
X003375Y017443D03*
X003375Y017440D03*
X003375Y017437D03*
X003375Y017239D03*
X003375Y017236D03*
X003375Y017233D03*
X003375Y017230D03*
X003375Y017227D03*
X003375Y017224D03*
X003375Y017221D03*
X003375Y017218D03*
X003375Y017215D03*
X003375Y017212D03*
X003375Y017209D03*
X003375Y017206D03*
X003375Y017203D03*
X003375Y017200D03*
X003375Y017197D03*
X003375Y017194D03*
X004110Y017467D03*
X004107Y017476D03*
X004104Y017485D03*
X004101Y017494D03*
X004098Y017503D03*
X004095Y017512D03*
X004095Y017515D03*
X004092Y017521D03*
X004092Y017524D03*
X004089Y017530D03*
X004089Y017533D03*
X004086Y017539D03*
X004086Y017542D03*
X004083Y017548D03*
X004083Y017551D03*
X004080Y017554D03*
X004080Y017557D03*
X004080Y017560D03*
X004077Y017563D03*
X004077Y017566D03*
X004077Y017569D03*
X004074Y017575D03*
X004074Y017578D03*
X004071Y017584D03*
X004071Y017587D03*
X004068Y017593D03*
X004068Y017596D03*
X004065Y017602D03*
X004065Y017605D03*
X004062Y017611D03*
X004062Y017614D03*
X004059Y017623D03*
X004056Y017632D03*
X004053Y017641D03*
X004050Y017650D03*
X004047Y017659D03*
X004008Y017785D03*
X004008Y017791D03*
X003615Y017827D03*
X003375Y017776D03*
X003375Y017773D03*
X003375Y017770D03*
X003375Y017767D03*
X003375Y017764D03*
X003375Y017761D03*
X003375Y017758D03*
X003375Y017755D03*
X003375Y017752D03*
X003375Y017749D03*
X003375Y017746D03*
X003375Y017743D03*
X003375Y017740D03*
X003375Y017737D03*
X003375Y017734D03*
X003375Y017731D03*
X004212Y017170D03*
X004635Y017170D03*
X004737Y017470D03*
X004740Y017479D03*
X004743Y017488D03*
X004746Y017497D03*
X004749Y017506D03*
X004752Y017515D03*
X004752Y017518D03*
X004755Y017524D03*
X004755Y017527D03*
X004758Y017530D03*
X004758Y017533D03*
X004758Y017536D03*
X004761Y017539D03*
X004761Y017542D03*
X004761Y017545D03*
X004764Y017548D03*
X004764Y017551D03*
X004764Y017554D03*
X004767Y017557D03*
X004767Y017560D03*
X004767Y017563D03*
X004770Y017566D03*
X004770Y017569D03*
X004770Y017572D03*
X004773Y017578D03*
X004773Y017581D03*
X004776Y017587D03*
X004776Y017590D03*
X004779Y017596D03*
X004779Y017599D03*
X004782Y017605D03*
X004782Y017608D03*
X004785Y017614D03*
X004785Y017617D03*
X004788Y017626D03*
X004791Y017635D03*
X004794Y017644D03*
X004797Y017653D03*
X004800Y017662D03*
X004803Y017671D03*
X004839Y017788D03*
X004839Y017791D03*
X004839Y017794D03*
X005094Y017536D03*
X005226Y017659D03*
X005352Y017455D03*
X005358Y017458D03*
X005214Y017389D03*
X005091Y017194D03*
X005874Y017323D03*
X006042Y017197D03*
X006420Y017194D03*
X006426Y017191D03*
X006690Y017200D03*
X006420Y017800D03*
X006546Y017854D03*
X006063Y017842D03*
X007032Y017806D03*
X007107Y017764D03*
X007182Y017806D03*
X004422Y017803D03*
X002271Y017290D03*
X002010Y017458D03*
X001845Y017458D03*
D397*
X001841Y017455D03*
X002018Y017455D03*
X002018Y017188D03*
X001838Y017188D03*
X002270Y017293D03*
X003116Y017173D03*
X003116Y017170D03*
X003116Y017797D03*
X003116Y017800D03*
X002921Y017821D03*
X004295Y017413D03*
X004298Y017422D03*
X004301Y017431D03*
X004310Y017461D03*
X004313Y017470D03*
X004316Y017479D03*
X004325Y017509D03*
X004328Y017518D03*
X004331Y017527D03*
X004340Y017557D03*
X004343Y017566D03*
X004346Y017575D03*
X004355Y017605D03*
X004358Y017614D03*
X004361Y017623D03*
X004370Y017653D03*
X004373Y017662D03*
X004376Y017671D03*
X004475Y017659D03*
X004478Y017650D03*
X004481Y017641D03*
X004490Y017611D03*
X004493Y017602D03*
X004496Y017593D03*
X004505Y017563D03*
X004508Y017554D03*
X004511Y017545D03*
X004520Y017515D03*
X004523Y017506D03*
X004526Y017497D03*
X004535Y017467D03*
X004538Y017458D03*
X004541Y017449D03*
X004550Y017419D03*
X004553Y017410D03*
X004556Y017401D03*
X004565Y017371D03*
X004568Y017362D03*
X004580Y017323D03*
X004583Y017314D03*
X004286Y017383D03*
X004283Y017374D03*
X004280Y017365D03*
X004271Y017335D03*
X004268Y017326D03*
X004265Y017317D03*
X004256Y017287D03*
X005075Y017203D03*
X005081Y017200D03*
X005075Y017524D03*
X005228Y017662D03*
X005375Y017791D03*
X005375Y017467D03*
X005696Y017203D03*
X006410Y017200D03*
X006575Y017335D03*
X007025Y017809D03*
X007190Y017809D03*
X004841Y017806D03*
X004841Y017803D03*
D398*
X003621Y017182D03*
X002484Y017170D03*
X006561Y017827D03*
D399*
X007106Y017797D03*
X007532Y018079D03*
X007973Y018079D03*
X003620Y017806D03*
X002501Y017809D03*
X001928Y017473D03*
X001928Y017170D03*
D400*
X001929Y017488D03*
X002391Y017752D03*
X002946Y017767D03*
X003414Y017713D03*
X003414Y017257D03*
X005244Y017356D03*
X005874Y017353D03*
X006576Y017365D03*
X006576Y017626D03*
X006546Y017845D03*
X006786Y018082D03*
X006786Y017173D03*
D401*
X005876Y017173D03*
X007973Y017908D03*
X007973Y017911D03*
X007973Y017914D03*
X007973Y017917D03*
X007973Y017920D03*
X007973Y017923D03*
X007973Y017956D03*
X007973Y017959D03*
X007973Y017962D03*
X007973Y017965D03*
X007973Y017968D03*
X002501Y017767D03*
D402*
X002481Y017179D03*
X003624Y017770D03*
X005241Y017173D03*
X007974Y017866D03*
X007974Y018010D03*
D403*
X007973Y017818D03*
X003623Y017794D03*
X003620Y017173D03*
D404*
X005874Y017176D03*
D405*
X005241Y017176D03*
X003624Y017764D03*
X002481Y017182D03*
X007530Y017881D03*
X007530Y017884D03*
X007530Y017992D03*
X007530Y017995D03*
X007530Y017998D03*
X007974Y017995D03*
X007974Y017881D03*
D406*
X007974Y017824D03*
X007530Y017824D03*
X003621Y017791D03*
X003621Y017176D03*
D407*
X003623Y017191D03*
X002483Y017176D03*
X007973Y017857D03*
X007973Y018019D03*
X007973Y018022D03*
D408*
X007973Y018070D03*
X007973Y017806D03*
X005219Y017836D03*
X001928Y017176D03*
D409*
X003623Y017776D03*
X006551Y017815D03*
X006722Y017179D03*
X007532Y018025D03*
X007973Y018025D03*
X007973Y017854D03*
X007973Y017851D03*
D410*
X007530Y018103D03*
X006465Y017179D03*
X005388Y017401D03*
X005352Y017182D03*
X004635Y017236D03*
X004635Y017239D03*
X004635Y017242D03*
X004212Y017239D03*
X004422Y017731D03*
X005685Y017830D03*
X006063Y017830D03*
X003090Y017674D03*
X002982Y017734D03*
X002628Y017746D03*
X002370Y017743D03*
X002310Y017242D03*
D411*
X002322Y017233D03*
X002625Y017224D03*
X002976Y017737D03*
X002934Y017791D03*
X003084Y017686D03*
X003405Y017692D03*
X003405Y017695D03*
X003732Y017749D03*
X004422Y017710D03*
X004635Y017260D03*
X004635Y017257D03*
X005142Y017179D03*
X005238Y017347D03*
X005091Y017605D03*
X005874Y017344D03*
X006576Y017356D03*
X006576Y017635D03*
X006786Y018091D03*
X007530Y018100D03*
X007974Y018100D03*
X003405Y017275D03*
X002502Y017821D03*
D412*
X003621Y017179D03*
X006564Y017830D03*
X007530Y017830D03*
X007530Y017833D03*
X007530Y018046D03*
X007974Y018046D03*
D413*
X006461Y017812D03*
X005999Y017182D03*
X005234Y017341D03*
X004424Y017734D03*
X004424Y017737D03*
X004211Y017236D03*
X004211Y017233D03*
X003752Y017230D03*
X003509Y017218D03*
X003512Y017752D03*
X003092Y017671D03*
X002930Y017800D03*
X002366Y017740D03*
X002306Y017245D03*
X002642Y017233D03*
D414*
X002652Y017242D03*
X002295Y017254D03*
X002349Y017728D03*
X002502Y017824D03*
X002643Y017737D03*
X003096Y017659D03*
X003393Y017659D03*
X003393Y017656D03*
X003393Y017314D03*
X003393Y017311D03*
X003501Y017221D03*
X003765Y017239D03*
X003768Y017242D03*
X004212Y017221D03*
X004635Y017221D03*
X004635Y017218D03*
X004635Y017224D03*
X005124Y017182D03*
X005232Y017338D03*
X005388Y017404D03*
X005361Y017185D03*
X006576Y017347D03*
X006687Y017191D03*
X006576Y017644D03*
X006063Y017833D03*
X005685Y017833D03*
X004422Y017749D03*
X007107Y017770D03*
D415*
X006743Y017185D03*
X007973Y017830D03*
X005219Y017827D03*
X003623Y017788D03*
X002501Y017794D03*
D416*
X002678Y017704D03*
X002303Y017668D03*
X002693Y017287D03*
X003383Y017362D03*
X003383Y017365D03*
X003383Y017368D03*
X003383Y017371D03*
X003383Y017599D03*
X003383Y017602D03*
X003383Y017605D03*
X003383Y017608D03*
X003488Y017740D03*
X003803Y017683D03*
X003818Y017311D03*
X003803Y017284D03*
X006443Y017185D03*
X007973Y018109D03*
D417*
X006929Y017995D03*
X006929Y017878D03*
X005309Y017434D03*
X005237Y017401D03*
X005144Y017560D03*
X005132Y017554D03*
X005222Y017653D03*
X005114Y017185D03*
X004634Y017197D03*
X004424Y017773D03*
X004424Y017776D03*
X003782Y017710D03*
X003797Y017275D03*
X003794Y017269D03*
X003104Y017632D03*
X003104Y017635D03*
X002924Y017812D03*
X002669Y017716D03*
X002327Y017704D03*
X002324Y017701D03*
X002282Y017272D03*
X002684Y017275D03*
X002687Y017278D03*
D418*
X002483Y017185D03*
X007973Y017896D03*
X007973Y017899D03*
X007973Y017902D03*
X007973Y017974D03*
X007973Y017977D03*
X007973Y017980D03*
X007973Y017983D03*
D419*
X007170Y017803D03*
X007107Y017767D03*
X006927Y017992D03*
X005730Y017188D03*
X005322Y017440D03*
X005217Y017593D03*
X005085Y017593D03*
X005340Y017806D03*
X004422Y017779D03*
X003798Y017689D03*
X003795Y017695D03*
X003792Y017698D03*
X003798Y017278D03*
X003795Y017272D03*
X004212Y017197D03*
X004212Y017194D03*
X004212Y017191D03*
X004635Y017191D03*
X004635Y017194D03*
X003105Y017626D03*
X003105Y017629D03*
X002673Y017710D03*
X002670Y017713D03*
X002322Y017698D03*
X002313Y017686D03*
X002688Y017281D03*
X002682Y017272D03*
D420*
X002696Y017290D03*
X002696Y017293D03*
X002699Y017296D03*
X002279Y017275D03*
X002306Y017671D03*
X002306Y017674D03*
X002309Y017677D03*
X002309Y017680D03*
X002312Y017683D03*
X002681Y017701D03*
X002684Y017698D03*
X002924Y017815D03*
X003107Y017623D03*
X003107Y017620D03*
X003485Y017230D03*
X003806Y017290D03*
X003809Y017293D03*
X003809Y017296D03*
X003812Y017299D03*
X003815Y017305D03*
X003806Y017677D03*
X003800Y017686D03*
X003797Y017692D03*
X004424Y017782D03*
X004424Y017785D03*
X004634Y017188D03*
X005126Y017551D03*
X005231Y017398D03*
X005321Y017374D03*
X005687Y017839D03*
X006065Y017839D03*
X006929Y017881D03*
X006929Y017884D03*
X006929Y017989D03*
X007532Y018109D03*
D421*
X007974Y017953D03*
X007974Y017950D03*
X007974Y017947D03*
X007974Y017944D03*
X007974Y017941D03*
X007974Y017938D03*
X007974Y017935D03*
X007974Y017932D03*
X007974Y017929D03*
X007974Y017926D03*
X003624Y017755D03*
X003624Y017209D03*
X002481Y017188D03*
D422*
X002480Y017191D03*
X003626Y017215D03*
D423*
X003623Y017194D03*
X002501Y017779D03*
X007973Y017863D03*
X007973Y018013D03*
X007973Y018016D03*
D424*
X002481Y017194D03*
D425*
X002480Y017197D03*
X002501Y017755D03*
D426*
X003000Y017725D03*
X003780Y017713D03*
X003780Y017254D03*
X004635Y017206D03*
X004635Y017203D03*
X004635Y017200D03*
X005295Y017428D03*
X005205Y017587D03*
X007530Y017770D03*
D427*
X007532Y017878D03*
X007973Y017878D03*
X007973Y017875D03*
X007973Y017998D03*
X007973Y018001D03*
X003623Y017200D03*
X002501Y017776D03*
D428*
X002480Y017200D03*
D429*
X002480Y017203D03*
D430*
X002264Y017311D03*
X002072Y017242D03*
X002069Y017236D03*
X002072Y017401D03*
X002069Y017404D03*
X002069Y017407D03*
X001787Y017404D03*
X001784Y017242D03*
X001787Y017239D03*
X001787Y017236D03*
X004424Y017824D03*
X005012Y017746D03*
X005009Y017647D03*
X005012Y017644D03*
X005012Y017470D03*
X005012Y017467D03*
X005009Y017464D03*
X005009Y017269D03*
X005012Y017266D03*
X005012Y017263D03*
X005024Y017248D03*
X005474Y017257D03*
X005477Y017263D03*
X005474Y017350D03*
X005624Y017269D03*
X005627Y017266D03*
X005804Y017374D03*
X006122Y017263D03*
X006134Y017281D03*
X006137Y017287D03*
X006314Y017296D03*
X006317Y017293D03*
X006329Y017275D03*
X006494Y017398D03*
X006494Y017401D03*
X006497Y017395D03*
X006497Y017596D03*
X006659Y017593D03*
X006332Y017725D03*
X006329Y017719D03*
X006317Y017701D03*
X006152Y017776D03*
X006149Y017782D03*
X005984Y017788D03*
X005687Y017848D03*
X005444Y017719D03*
X005432Y017737D03*
X005444Y017533D03*
X006704Y018049D03*
X006869Y018049D03*
X006869Y018052D03*
X006872Y018046D03*
X006932Y017968D03*
X006974Y018019D03*
X006977Y018022D03*
X006974Y017854D03*
X006977Y017851D03*
X006872Y017209D03*
X006869Y017206D03*
D431*
X007974Y017905D03*
X007974Y017971D03*
X003624Y017758D03*
X003624Y017206D03*
D432*
X002480Y017206D03*
D433*
X002480Y017209D03*
D434*
X005048Y017782D03*
X006068Y017212D03*
D435*
X003626Y017212D03*
X002501Y017764D03*
D436*
X002480Y017212D03*
D437*
X002066Y017233D03*
X002063Y017227D03*
X002075Y017395D03*
X002066Y017410D03*
X001793Y017413D03*
X001790Y017410D03*
X001790Y017233D03*
X005003Y017455D03*
X005006Y017461D03*
X005015Y017473D03*
X005186Y017368D03*
X005018Y017257D03*
X005015Y017260D03*
X005021Y017251D03*
X005471Y017254D03*
X005471Y017353D03*
X005468Y017359D03*
X005615Y017284D03*
X005618Y017278D03*
X005621Y017275D03*
X005621Y017272D03*
X005438Y017524D03*
X005441Y017527D03*
X005441Y017725D03*
X005438Y017728D03*
X005438Y017731D03*
X005435Y017734D03*
X005600Y017779D03*
X005603Y017782D03*
X005768Y017785D03*
X005771Y017782D03*
X005981Y017782D03*
X005981Y017785D03*
X006146Y017785D03*
X006320Y017707D03*
X006323Y017710D03*
X006326Y017716D03*
X006335Y017728D03*
X006500Y017599D03*
X006656Y017596D03*
X006656Y017398D03*
X006653Y017395D03*
X006491Y017404D03*
X006323Y017284D03*
X006320Y017287D03*
X006326Y017278D03*
X006335Y017266D03*
X006338Y017263D03*
X006131Y017275D03*
X006128Y017272D03*
X006125Y017269D03*
X005948Y017377D03*
X005945Y017374D03*
X006695Y017215D03*
X006980Y017848D03*
X006971Y017860D03*
X006968Y017863D03*
X006965Y017866D03*
X006968Y018010D03*
X006980Y018025D03*
X006980Y018028D03*
X006983Y018031D03*
X006890Y018013D03*
X006875Y018043D03*
X006701Y018046D03*
X007235Y018025D03*
X007238Y018022D03*
X007241Y018016D03*
X007241Y017857D03*
X007238Y017851D03*
X007235Y017848D03*
X005015Y017752D03*
D438*
X004424Y017752D03*
X004424Y017755D03*
X003761Y017731D03*
X003503Y017749D03*
X003392Y017653D03*
X003392Y017650D03*
X003098Y017656D03*
X002996Y017728D03*
X002927Y017806D03*
X002648Y017734D03*
X002663Y017251D03*
X002660Y017248D03*
X002657Y017245D03*
X002294Y017257D03*
X002291Y017260D03*
X003392Y017317D03*
X003392Y017320D03*
X004211Y017218D03*
X004211Y017215D03*
X005876Y017332D03*
X006929Y018004D03*
X006785Y018100D03*
X007973Y018106D03*
D439*
X002478Y017215D03*
D440*
X002090Y017287D03*
X002090Y017290D03*
X002090Y017293D03*
X002087Y017281D03*
X002087Y017278D03*
X002087Y017275D03*
X002084Y017272D03*
X002084Y017269D03*
X002084Y017266D03*
X002081Y017260D03*
X002090Y017350D03*
X002090Y017353D03*
X002090Y017356D03*
X002087Y017362D03*
X002087Y017365D03*
X002087Y017368D03*
X002084Y017374D03*
X002081Y017380D03*
X002081Y017383D03*
X001775Y017380D03*
X001772Y017374D03*
X001772Y017371D03*
X001772Y017368D03*
X001769Y017365D03*
X001769Y017362D03*
X001769Y017359D03*
X001766Y017353D03*
X001766Y017350D03*
X001766Y017347D03*
X001766Y017344D03*
X001766Y017299D03*
X001766Y017296D03*
X001766Y017293D03*
X001766Y017290D03*
X001769Y017284D03*
X001769Y017281D03*
X001769Y017278D03*
X001772Y017272D03*
X001772Y017269D03*
X001775Y017263D03*
X002504Y017830D03*
X003116Y017824D03*
X004997Y017707D03*
X005000Y017719D03*
X005000Y017722D03*
X005000Y017725D03*
X005006Y017737D03*
X004997Y017683D03*
X005000Y017671D03*
X005000Y017668D03*
X005000Y017665D03*
X005084Y017581D03*
X004997Y017443D03*
X004994Y017437D03*
X004991Y017431D03*
X004991Y017428D03*
X004985Y017407D03*
X004982Y017386D03*
X004982Y017356D03*
X004985Y017332D03*
X004991Y017311D03*
X004991Y017308D03*
X004994Y017302D03*
X004994Y017299D03*
X004997Y017296D03*
X004997Y017293D03*
X005000Y017287D03*
X005480Y017269D03*
X005486Y017284D03*
X005486Y017287D03*
X005486Y017320D03*
X005486Y017323D03*
X005486Y017326D03*
X005480Y017338D03*
X005591Y017344D03*
X005591Y017347D03*
X005594Y017335D03*
X005594Y017332D03*
X005597Y017326D03*
X005597Y017323D03*
X005597Y017320D03*
X005600Y017317D03*
X005600Y017314D03*
X005606Y017302D03*
X005585Y017377D03*
X005585Y017380D03*
X005792Y017398D03*
X005792Y017401D03*
X005795Y017392D03*
X005795Y017389D03*
X005954Y017389D03*
X005954Y017386D03*
X005957Y017395D03*
X005957Y017398D03*
X005960Y017413D03*
X006167Y017398D03*
X006164Y017371D03*
X006164Y017368D03*
X006161Y017353D03*
X006161Y017350D03*
X006155Y017332D03*
X006155Y017329D03*
X006155Y017326D03*
X006152Y017323D03*
X006152Y017320D03*
X006152Y017317D03*
X006149Y017314D03*
X006149Y017311D03*
X006146Y017305D03*
X006140Y017293D03*
X006284Y017356D03*
X006284Y017359D03*
X006284Y017362D03*
X006281Y017365D03*
X006281Y017368D03*
X006287Y017353D03*
X006287Y017350D03*
X006290Y017344D03*
X006290Y017341D03*
X006296Y017329D03*
X006299Y017323D03*
X006275Y017386D03*
X006275Y017389D03*
X006272Y017395D03*
X006272Y017398D03*
X006269Y017410D03*
X006269Y017413D03*
X006266Y017425D03*
X006266Y017428D03*
X006266Y017557D03*
X006269Y017572D03*
X006272Y017587D03*
X006272Y017590D03*
X006275Y017599D03*
X006275Y017602D03*
X006281Y017620D03*
X006281Y017623D03*
X006284Y017629D03*
X006284Y017632D03*
X006287Y017638D03*
X006287Y017641D03*
X006290Y017644D03*
X006290Y017647D03*
X006290Y017650D03*
X006296Y017659D03*
X006296Y017662D03*
X006299Y017668D03*
X006302Y017674D03*
X006305Y017680D03*
X006167Y017728D03*
X006164Y017746D03*
X006164Y017749D03*
X006161Y017755D03*
X006161Y017758D03*
X006155Y017770D03*
X005972Y017770D03*
X005969Y017764D03*
X005969Y017761D03*
X005966Y017755D03*
X005966Y017752D03*
X005789Y017731D03*
X005786Y017749D03*
X005780Y017764D03*
X005780Y017767D03*
X005594Y017767D03*
X005594Y017770D03*
X005591Y017764D03*
X005591Y017761D03*
X005585Y017743D03*
X005585Y017740D03*
X005456Y017695D03*
X005456Y017692D03*
X005456Y017689D03*
X005459Y017686D03*
X005459Y017683D03*
X005459Y017680D03*
X005462Y017674D03*
X005462Y017671D03*
X005465Y017659D03*
X005465Y017656D03*
X005450Y017707D03*
X005465Y017590D03*
X005465Y017587D03*
X005462Y017575D03*
X005462Y017572D03*
X005459Y017566D03*
X005459Y017563D03*
X005456Y017560D03*
X005456Y017557D03*
X005456Y017554D03*
X005231Y017668D03*
X006470Y017521D03*
X006476Y017548D03*
X006476Y017551D03*
X006479Y017557D03*
X006479Y017560D03*
X006479Y017563D03*
X006482Y017566D03*
X006482Y017569D03*
X006485Y017572D03*
X006485Y017575D03*
X006470Y017470D03*
X006470Y017467D03*
X006476Y017440D03*
X006476Y017437D03*
X006479Y017434D03*
X006479Y017431D03*
X006479Y017428D03*
X006482Y017425D03*
X006482Y017422D03*
X006485Y017416D03*
X006662Y017407D03*
X006665Y017413D03*
X006671Y017425D03*
X006671Y017428D03*
X006671Y017431D03*
X006674Y017434D03*
X006674Y017437D03*
X006674Y017440D03*
X006677Y017446D03*
X006677Y017449D03*
X006680Y017461D03*
X006680Y017464D03*
X006680Y017536D03*
X006677Y017548D03*
X006677Y017551D03*
X006674Y017560D03*
X006674Y017563D03*
X006671Y017566D03*
X006671Y017569D03*
X006671Y017572D03*
X006665Y017581D03*
X006686Y018007D03*
X006686Y018010D03*
X006689Y018019D03*
X006689Y018022D03*
X006692Y018028D03*
X006692Y018031D03*
X006695Y018034D03*
X006881Y018031D03*
X006881Y018028D03*
X006884Y018025D03*
X006884Y018022D03*
X006887Y018016D03*
X007250Y018001D03*
X007250Y017998D03*
X007256Y017986D03*
X007256Y017983D03*
X007259Y017974D03*
X007262Y017959D03*
X007262Y017914D03*
X007259Y017899D03*
X007256Y017890D03*
X007256Y017887D03*
X007250Y017875D03*
X007250Y017872D03*
X006890Y017263D03*
X006887Y017245D03*
X006884Y017236D03*
X006884Y017233D03*
X006881Y017227D03*
X006881Y017224D03*
X006695Y017218D03*
D441*
X003728Y017218D03*
X003413Y017260D03*
X003413Y017710D03*
X002963Y017746D03*
D442*
X002958Y017749D03*
X002943Y017770D03*
X003075Y017701D03*
X002610Y017218D03*
X002340Y017224D03*
X004635Y017284D03*
X005202Y017632D03*
X005685Y017818D03*
X006063Y017818D03*
X007107Y017779D03*
X007530Y017782D03*
X007107Y018094D03*
D443*
X007530Y018088D03*
X007974Y018088D03*
X002358Y017218D03*
D444*
X002093Y017305D03*
X002093Y017308D03*
X002093Y017311D03*
X002093Y017314D03*
X002093Y017317D03*
X002093Y017320D03*
X002093Y017323D03*
X002093Y017326D03*
X002093Y017329D03*
X002093Y017332D03*
X002093Y017335D03*
X002078Y017389D03*
X004988Y017419D03*
X004988Y017422D03*
X004988Y017320D03*
X004988Y017317D03*
X005483Y017329D03*
X005483Y017332D03*
X005483Y017335D03*
X005483Y017278D03*
X005483Y017275D03*
X005603Y017308D03*
X005588Y017356D03*
X005588Y017359D03*
X005798Y017386D03*
X006143Y017299D03*
X006158Y017338D03*
X006158Y017341D03*
X006278Y017374D03*
X006278Y017377D03*
X006293Y017338D03*
X006293Y017335D03*
X006263Y017449D03*
X006263Y017530D03*
X006278Y017611D03*
X006293Y017653D03*
X006293Y017656D03*
X006158Y017764D03*
X006158Y017767D03*
X005963Y017743D03*
X005783Y017755D03*
X005783Y017758D03*
X005783Y017761D03*
X005588Y017755D03*
X005588Y017752D03*
X005453Y017701D03*
X005453Y017698D03*
X005468Y017620D03*
X005453Y017551D03*
X005003Y017659D03*
X005003Y017662D03*
X005003Y017728D03*
X005003Y017731D03*
X006473Y017539D03*
X006473Y017536D03*
X006488Y017581D03*
X006473Y017452D03*
X006488Y017410D03*
X006668Y017419D03*
X006668Y017422D03*
X006683Y017491D03*
X006683Y017509D03*
X006668Y017575D03*
X006893Y017863D03*
X006878Y018037D03*
X007253Y017995D03*
X007253Y017992D03*
X007253Y017989D03*
X007253Y017884D03*
X007253Y017881D03*
X007253Y017878D03*
X006878Y017221D03*
D445*
X006699Y017227D03*
D446*
X005237Y017344D03*
X004424Y017722D03*
X004424Y017725D03*
X004424Y017728D03*
X003749Y017227D03*
X003089Y017677D03*
D447*
X002918Y017830D03*
X002264Y017317D03*
X006698Y017230D03*
X006692Y017776D03*
D448*
X006635Y017812D03*
X006785Y018094D03*
X007106Y017773D03*
X006575Y017353D03*
X005315Y017812D03*
X005090Y017602D03*
X004211Y017245D03*
X004211Y017242D03*
X003401Y017287D03*
X003401Y017290D03*
X003401Y017680D03*
X003401Y017683D03*
X002636Y017230D03*
X002315Y017239D03*
X001928Y017494D03*
D449*
X003114Y017830D03*
X005874Y017314D03*
X006699Y017236D03*
X006696Y017770D03*
D450*
X006932Y017962D03*
X007106Y017758D03*
X006701Y017239D03*
D451*
X006702Y017242D03*
X006699Y017764D03*
D452*
X006702Y017761D03*
X006702Y017245D03*
D453*
X007530Y017776D03*
X005685Y017827D03*
X004635Y017251D03*
X004635Y017248D03*
X004635Y017245D03*
D454*
X006704Y017248D03*
X006704Y017251D03*
X006704Y017758D03*
D455*
X006576Y017620D03*
X006063Y017812D03*
X006786Y018076D03*
X007107Y018091D03*
X007530Y017785D03*
X007974Y017785D03*
X005382Y017386D03*
X005250Y017362D03*
X003420Y017248D03*
X003420Y017722D03*
D456*
X003398Y017674D03*
X003398Y017671D03*
X003398Y017299D03*
X003398Y017296D03*
X002303Y017248D03*
X007973Y018103D03*
D457*
X007974Y018094D03*
X007107Y017782D03*
X006576Y017623D03*
X005247Y017359D03*
X003417Y017251D03*
X003417Y017719D03*
X003072Y017704D03*
D458*
X006705Y017254D03*
D459*
X005387Y017392D03*
X004637Y017281D03*
X004211Y017281D03*
X004211Y017278D03*
X004211Y017284D03*
X004424Y017689D03*
X003077Y017698D03*
X002942Y017773D03*
X002942Y017776D03*
D460*
X005382Y017380D03*
X007107Y018085D03*
X007530Y017791D03*
D461*
X007532Y017788D03*
X007973Y017788D03*
X007106Y018088D03*
X005687Y017806D03*
X005099Y017617D03*
X005384Y017383D03*
X002501Y017815D03*
X001928Y017482D03*
D462*
X002523Y017446D03*
D463*
X002519Y017449D03*
D464*
X002517Y017452D03*
D465*
X002514Y017455D03*
D466*
X002513Y017458D03*
D467*
X002511Y017461D03*
D468*
X002510Y017464D03*
D469*
X002508Y017467D03*
X002508Y017470D03*
D470*
X001928Y017470D03*
X007973Y018076D03*
D471*
X002504Y017518D03*
X002507Y017476D03*
X002507Y017473D03*
D472*
X002505Y017479D03*
X002505Y017482D03*
X002505Y017485D03*
X002505Y017488D03*
X002505Y017491D03*
X002505Y017494D03*
X002505Y017497D03*
X002505Y017500D03*
X002505Y017503D03*
X002505Y017506D03*
X002505Y017509D03*
X002505Y017512D03*
X002505Y017515D03*
D473*
X005084Y017578D03*
D474*
X005102Y017620D03*
X005222Y017842D03*
D475*
X002501Y017758D03*
D476*
X003624Y017761D03*
X007530Y017890D03*
X007530Y017893D03*
X007530Y017896D03*
X007530Y017983D03*
X007530Y017986D03*
X007530Y017989D03*
X007974Y017986D03*
X007974Y017893D03*
D477*
X002499Y017761D03*
D478*
X006698Y017767D03*
D479*
X007530Y017872D03*
X007530Y017875D03*
X007530Y018001D03*
X007530Y018004D03*
X007974Y018004D03*
X003624Y017767D03*
D480*
X002501Y017770D03*
X007532Y017899D03*
X007532Y017980D03*
D481*
X007974Y017860D03*
X003624Y017773D03*
D482*
X003623Y017785D03*
X007973Y017833D03*
X007973Y018043D03*
D483*
X007974Y018028D03*
X007530Y018028D03*
X007530Y017851D03*
X007530Y017848D03*
X002502Y017785D03*
D484*
X007974Y017791D03*
D485*
X005219Y017833D03*
X002501Y017800D03*
D486*
X007530Y017806D03*
X007530Y018073D03*
D487*
X007973Y017812D03*
D488*
X007973Y017815D03*
D489*
X007530Y017821D03*
X007530Y018058D03*
D490*
X007530Y018034D03*
X007530Y017845D03*
X007530Y017842D03*
X007974Y018034D03*
X006555Y017821D03*
D491*
X006558Y017824D03*
X007974Y018037D03*
D492*
X007532Y018040D03*
X005219Y017824D03*
D493*
X007973Y017836D03*
X007973Y017839D03*
X007973Y018040D03*
D494*
X007530Y018037D03*
X007530Y017839D03*
D495*
X007530Y017860D03*
X007530Y017863D03*
X007530Y018016D03*
D496*
X007530Y018010D03*
X007530Y017869D03*
X007530Y017866D03*
D497*
X007530Y017902D03*
X007530Y017905D03*
X007530Y017908D03*
X007530Y017911D03*
X007530Y017968D03*
X007530Y017971D03*
X007530Y017974D03*
X007530Y017977D03*
D498*
X007532Y017965D03*
X007532Y017962D03*
X007532Y017914D03*
D499*
X007530Y017917D03*
X007530Y017920D03*
X007530Y017923D03*
X007530Y017926D03*
X007530Y017929D03*
X007530Y017932D03*
X007530Y017935D03*
X007530Y017938D03*
X007530Y017941D03*
X007530Y017944D03*
X007530Y017947D03*
X007530Y017950D03*
X007530Y017953D03*
X007530Y017956D03*
X007530Y017959D03*
D500*
X007532Y018013D03*
D501*
X007532Y018052D03*
X007973Y018052D03*
D502*
X007974Y018082D03*
X007530Y018082D03*
D503*
X007530Y018094D03*
D504*
X000528Y013628D02*
X025528Y013628D01*
X025528Y018352D01*
X000528Y018352D01*
X000528Y013628D01*
X004087Y015990D02*
X004089Y016020D01*
X004095Y016050D01*
X004104Y016079D01*
X004117Y016106D01*
X004134Y016131D01*
X004153Y016154D01*
X004176Y016175D01*
X004201Y016192D01*
X004227Y016206D01*
X004256Y016216D01*
X004285Y016223D01*
X004315Y016226D01*
X004346Y016225D01*
X004376Y016220D01*
X004405Y016211D01*
X004432Y016199D01*
X004458Y016184D01*
X004482Y016165D01*
X004503Y016143D01*
X004521Y016119D01*
X004536Y016092D01*
X004547Y016064D01*
X004555Y016035D01*
X004559Y016005D01*
X004559Y015975D01*
X004555Y015945D01*
X004547Y015916D01*
X004536Y015888D01*
X004521Y015861D01*
X004503Y015837D01*
X004482Y015815D01*
X004458Y015796D01*
X004432Y015781D01*
X004405Y015769D01*
X004376Y015760D01*
X004346Y015755D01*
X004315Y015754D01*
X004285Y015757D01*
X004256Y015764D01*
X004227Y015774D01*
X004201Y015788D01*
X004176Y015805D01*
X004153Y015826D01*
X004134Y015849D01*
X004117Y015874D01*
X004104Y015901D01*
X004095Y015930D01*
X004089Y015960D01*
X004087Y015990D01*
X022087Y015990D02*
X022089Y016020D01*
X022095Y016050D01*
X022104Y016079D01*
X022117Y016106D01*
X022134Y016131D01*
X022153Y016154D01*
X022176Y016175D01*
X022201Y016192D01*
X022227Y016206D01*
X022256Y016216D01*
X022285Y016223D01*
X022315Y016226D01*
X022346Y016225D01*
X022376Y016220D01*
X022405Y016211D01*
X022432Y016199D01*
X022458Y016184D01*
X022482Y016165D01*
X022503Y016143D01*
X022521Y016119D01*
X022536Y016092D01*
X022547Y016064D01*
X022555Y016035D01*
X022559Y016005D01*
X022559Y015975D01*
X022555Y015945D01*
X022547Y015916D01*
X022536Y015888D01*
X022521Y015861D01*
X022503Y015837D01*
X022482Y015815D01*
X022458Y015796D01*
X022432Y015781D01*
X022405Y015769D01*
X022376Y015760D01*
X022346Y015755D01*
X022315Y015754D01*
X022285Y015757D01*
X022256Y015764D01*
X022227Y015774D01*
X022201Y015788D01*
X022176Y015805D01*
X022153Y015826D01*
X022134Y015849D01*
X022117Y015874D01*
X022104Y015901D01*
X022095Y015930D01*
X022089Y015960D01*
X022087Y015990D01*
X024210Y015990D02*
X024212Y016036D01*
X024218Y016081D01*
X024228Y016126D01*
X024241Y016169D01*
X024258Y016212D01*
X024279Y016252D01*
X024303Y016291D01*
X024331Y016327D01*
X024362Y016361D01*
X024395Y016393D01*
X024431Y016421D01*
X024469Y016446D01*
X024509Y016468D01*
X024551Y016486D01*
X024594Y016500D01*
X024639Y016511D01*
X024684Y016518D01*
X024730Y016521D01*
X024775Y016520D01*
X024821Y016515D01*
X024866Y016506D01*
X024909Y016494D01*
X024952Y016477D01*
X024993Y016457D01*
X025032Y016434D01*
X025070Y016407D01*
X025104Y016377D01*
X025136Y016345D01*
X025165Y016309D01*
X025191Y016272D01*
X025214Y016232D01*
X025233Y016191D01*
X025248Y016148D01*
X025260Y016103D01*
X025268Y016058D01*
X025272Y016013D01*
X025272Y015967D01*
X025268Y015922D01*
X025260Y015877D01*
X025248Y015832D01*
X025233Y015789D01*
X025214Y015748D01*
X025191Y015708D01*
X025165Y015671D01*
X025136Y015635D01*
X025104Y015603D01*
X025070Y015573D01*
X025032Y015546D01*
X024993Y015523D01*
X024952Y015503D01*
X024909Y015486D01*
X024866Y015474D01*
X024821Y015465D01*
X024775Y015460D01*
X024730Y015459D01*
X024684Y015462D01*
X024639Y015469D01*
X024594Y015480D01*
X024551Y015494D01*
X024509Y015512D01*
X024469Y015534D01*
X024431Y015559D01*
X024395Y015587D01*
X024362Y015619D01*
X024331Y015653D01*
X024303Y015689D01*
X024279Y015728D01*
X024258Y015768D01*
X024241Y015811D01*
X024228Y015854D01*
X024218Y015899D01*
X024212Y015944D01*
X024210Y015990D01*
D505*
X018964Y014818D03*
X018964Y014523D03*
D506*
X018964Y014670D03*
D507*
X018200Y014572D02*
X018200Y014769D01*
X017807Y014769D01*
X017807Y014572D01*
X018200Y014572D01*
X018200Y015172D02*
X017807Y015172D01*
X017807Y015369D01*
X018200Y015369D01*
X018200Y015172D01*
X018200Y015652D02*
X017807Y015652D01*
X017807Y015849D01*
X018200Y015849D01*
X018200Y015652D01*
X018767Y015772D02*
X018767Y015969D01*
X019160Y015969D01*
X019160Y015772D01*
X018767Y015772D01*
X018373Y016098D02*
X018373Y017082D01*
X019554Y017082D01*
X019554Y016098D01*
X018373Y016098D01*
X018102Y016393D02*
X018102Y016787D01*
X017905Y016787D01*
X017905Y016393D01*
X018102Y016393D01*
X019765Y016393D02*
X019962Y016393D01*
X019962Y016787D01*
X019765Y016787D01*
X019765Y016393D01*
X016130Y017752D02*
X016130Y017949D01*
X015737Y017949D01*
X015737Y017752D01*
X016130Y017752D01*
X013902Y017747D02*
X013902Y017353D01*
X013705Y017353D01*
X013705Y017747D01*
X013902Y017747D01*
X013422Y017747D02*
X013422Y017353D01*
X013225Y017353D01*
X013225Y017747D01*
X013422Y017747D01*
X013244Y016974D02*
X010882Y016974D01*
X010825Y017353D02*
X011022Y017353D01*
X011022Y017747D01*
X010825Y017747D01*
X010825Y017353D01*
X010110Y016797D02*
X010110Y015183D01*
X008496Y015183D01*
X008496Y016797D01*
X010110Y016797D01*
X009106Y015990D02*
X009108Y016017D01*
X009114Y016044D01*
X009123Y016070D01*
X009136Y016094D01*
X009152Y016117D01*
X009171Y016136D01*
X009193Y016153D01*
X009217Y016167D01*
X009242Y016177D01*
X009269Y016184D01*
X009296Y016187D01*
X009324Y016186D01*
X009351Y016181D01*
X009377Y016173D01*
X009401Y016161D01*
X009424Y016145D01*
X009445Y016127D01*
X009462Y016106D01*
X009477Y016082D01*
X009488Y016057D01*
X009496Y016031D01*
X009500Y016004D01*
X009500Y015976D01*
X009496Y015949D01*
X009488Y015923D01*
X009477Y015898D01*
X009462Y015874D01*
X009445Y015853D01*
X009424Y015835D01*
X009402Y015819D01*
X009377Y015807D01*
X009351Y015799D01*
X009324Y015794D01*
X009296Y015793D01*
X009269Y015796D01*
X009242Y015803D01*
X009217Y015813D01*
X009193Y015827D01*
X009171Y015844D01*
X009152Y015863D01*
X009136Y015886D01*
X009123Y015910D01*
X009114Y015936D01*
X009108Y015963D01*
X009106Y015990D01*
X007242Y015793D02*
X007242Y016187D01*
X007045Y016187D01*
X007045Y015793D01*
X007242Y015793D01*
X006260Y015249D02*
X005867Y015249D01*
X005867Y015052D01*
X006260Y015052D01*
X006260Y015249D01*
X006260Y016732D02*
X005867Y016732D01*
X005867Y016929D01*
X006260Y016929D01*
X006260Y016732D01*
X010882Y015006D02*
X013244Y015006D01*
X013765Y014833D02*
X013962Y014833D01*
X013962Y015227D01*
X013765Y015227D01*
X013765Y014833D01*
X013967Y014229D02*
X013967Y014032D01*
X014360Y014032D01*
X014360Y014229D01*
X013967Y014229D01*
X016307Y014169D02*
X016307Y013972D01*
X016700Y013972D01*
X016700Y014169D01*
X016307Y014169D01*
D508*
X016985Y014612D02*
X017221Y014612D01*
X017221Y014848D01*
X014702Y014612D02*
X014465Y014612D01*
X014465Y014848D01*
X014465Y017132D02*
X014465Y017368D01*
X014333Y017368D02*
X014335Y017390D01*
X014341Y017412D01*
X014350Y017432D01*
X014362Y017451D01*
X014378Y017467D01*
X014396Y017480D01*
X014416Y017490D01*
X014437Y017497D01*
X014459Y017500D01*
X014482Y017499D01*
X014504Y017494D01*
X014524Y017486D01*
X014543Y017474D01*
X014560Y017459D01*
X014574Y017442D01*
X014585Y017422D01*
X014593Y017401D01*
X014597Y017379D01*
X014597Y017357D01*
X014593Y017335D01*
X014585Y017314D01*
X014574Y017294D01*
X014560Y017277D01*
X014543Y017262D01*
X014524Y017250D01*
X014504Y017242D01*
X014482Y017237D01*
X014459Y017236D01*
X014437Y017239D01*
X014416Y017246D01*
X014396Y017256D01*
X014378Y017269D01*
X014362Y017285D01*
X014350Y017304D01*
X014341Y017324D01*
X014335Y017346D01*
X014333Y017368D01*
X014465Y017368D02*
X014721Y017368D01*
X016985Y017368D02*
X017221Y017368D01*
X017221Y017132D01*
X006382Y016550D02*
X006382Y016513D01*
X006382Y016550D02*
X005744Y016550D01*
X005744Y016513D01*
X005744Y016196D02*
X005744Y016159D01*
X005744Y015822D02*
X005744Y015784D01*
X005744Y015467D02*
X005744Y015430D01*
X006382Y015430D01*
X006382Y015467D01*
X006382Y015784D02*
X006382Y016196D01*
D509*
X013633Y016740D02*
X013635Y016752D01*
X013640Y016763D01*
X013649Y016772D01*
X013660Y016777D01*
X013672Y016779D01*
X013684Y016777D01*
X013695Y016772D01*
X013704Y016763D01*
X013709Y016752D01*
X013711Y016740D01*
X013709Y016728D01*
X013704Y016717D01*
X013695Y016708D01*
X013684Y016703D01*
X013672Y016701D01*
X013660Y016703D01*
X013649Y016708D01*
X013640Y016717D01*
X013635Y016728D01*
X013633Y016740D01*
M02*
