G75*
%MOIN*%
%OFA0B0*%
%FSLAX24Y24*%
%IPPOS*%
%LPD*%
%AMOC8*
5,1,8,0,0,1.08239X$1,22.5*
%
%ADD10R,0.0394X0.0433*%
%ADD11C,0.0397*%
%ADD12C,0.0397*%
%ADD13R,0.0315X0.0315*%
%ADD14R,0.0500X0.0250*%
%ADD15R,0.0138X0.0276*%
%ADD16R,0.0236X0.0236*%
%ADD17C,0.0394*%
%ADD18R,0.0079X0.0344*%
%ADD19R,0.0344X0.0079*%
%ADD20C,0.0126*%
%ADD21R,0.0472X0.0217*%
%ADD22R,0.0354X0.0295*%
%ADD23C,0.0043*%
%ADD24R,0.1339X0.1693*%
%ADD25C,0.0060*%
%ADD26C,0.0220*%
%ADD27C,0.0240*%
%ADD28C,0.0180*%
%ADD29C,0.0080*%
%ADD30C,0.0150*%
%ADD31C,0.0090*%
%ADD32C,0.0180*%
D10*
X007623Y015656D03*
X007623Y016325D03*
D11*
X001108Y017289D02*
X000712Y017289D01*
X000712Y014691D02*
X001108Y014691D01*
D12*
X001107Y014691D03*
X000713Y014691D03*
X000713Y017289D03*
X001107Y017289D03*
D13*
X018728Y014670D03*
X019319Y014670D03*
D14*
X009933Y015163D03*
X008673Y015163D03*
X008673Y016817D03*
X009933Y016817D03*
D15*
X010170Y015990D03*
D16*
X010923Y017314D03*
X010923Y017786D03*
X013323Y017786D03*
X013803Y017786D03*
X013803Y017314D03*
X013323Y017314D03*
X015697Y017850D03*
X016170Y017850D03*
X018003Y016826D03*
X018003Y016354D03*
X017767Y015750D03*
X018240Y015750D03*
X018727Y015870D03*
X019200Y015870D03*
X019863Y016354D03*
X019863Y016826D03*
X018240Y015270D03*
X017767Y015270D03*
X017767Y014670D03*
X018240Y014670D03*
X016740Y014070D03*
X016267Y014070D03*
X014400Y014130D03*
X013927Y014130D03*
X013863Y014794D03*
X013863Y015266D03*
X007143Y015754D03*
X007143Y016226D03*
X006300Y016830D03*
X005827Y016830D03*
X005827Y015150D03*
X006300Y015150D03*
D17*
X000922Y017959D03*
X025134Y014022D03*
D18*
X016867Y014632D03*
X016710Y014632D03*
X016552Y014632D03*
X016395Y014632D03*
X016237Y014632D03*
X016080Y014632D03*
X015922Y014632D03*
X015765Y014632D03*
X015607Y014632D03*
X015450Y014632D03*
X015292Y014632D03*
X015135Y014632D03*
X014977Y014632D03*
X014820Y014632D03*
X014820Y017348D03*
X014977Y017348D03*
X015135Y017348D03*
X015292Y017348D03*
X015450Y017348D03*
X015607Y017348D03*
X015765Y017348D03*
X015922Y017348D03*
X016080Y017348D03*
X016237Y017348D03*
X016395Y017348D03*
X016552Y017348D03*
X016710Y017348D03*
X016867Y017348D03*
D19*
X017202Y017014D03*
X017202Y016856D03*
X017202Y016699D03*
X017202Y016541D03*
X017202Y016384D03*
X017202Y016226D03*
X017202Y016069D03*
X017202Y015911D03*
X017202Y015754D03*
X017202Y015596D03*
X017202Y015439D03*
X017202Y015281D03*
X017202Y015124D03*
X017202Y014967D03*
X014485Y014967D03*
X014485Y015124D03*
X014485Y015281D03*
X014485Y015439D03*
X014485Y015596D03*
X014485Y015754D03*
X014485Y015911D03*
X014485Y016069D03*
X014485Y016226D03*
X014485Y016384D03*
X014485Y016541D03*
X014485Y016699D03*
X014485Y016856D03*
X014485Y017014D03*
D20*
X015276Y016557D02*
X015276Y015423D01*
X015276Y016557D02*
X016410Y016557D01*
X016410Y015423D01*
X015276Y015423D01*
X015276Y015548D02*
X016410Y015548D01*
X016410Y015673D02*
X015276Y015673D01*
X015276Y015798D02*
X016410Y015798D01*
X016410Y015923D02*
X015276Y015923D01*
X015276Y016048D02*
X016410Y016048D01*
X016410Y016173D02*
X015276Y016173D01*
X015276Y016298D02*
X016410Y016298D01*
X016410Y016423D02*
X015276Y016423D01*
X015276Y016548D02*
X016410Y016548D01*
D21*
X006575Y016364D03*
X005552Y016364D03*
X005552Y015990D03*
X005552Y015616D03*
X006575Y015616D03*
D22*
X018639Y016344D03*
X019288Y016344D03*
X019288Y016836D03*
X018639Y016836D03*
D23*
X013366Y016805D02*
X013000Y016805D01*
X013366Y016805D02*
X013366Y016675D01*
X013000Y016675D01*
X013000Y016805D01*
X013000Y016717D02*
X013366Y016717D01*
X013366Y016759D02*
X013000Y016759D01*
X013000Y016801D02*
X013366Y016801D01*
X013366Y016305D02*
X013000Y016305D01*
X013366Y016305D02*
X013366Y016175D01*
X013000Y016175D01*
X013000Y016305D01*
X013000Y016217D02*
X013366Y016217D01*
X013366Y016259D02*
X013000Y016259D01*
X013000Y016301D02*
X013366Y016301D01*
X013366Y015805D02*
X013000Y015805D01*
X013366Y015805D02*
X013366Y015675D01*
X013000Y015675D01*
X013000Y015805D01*
X013000Y015717D02*
X013366Y015717D01*
X013366Y015759D02*
X013000Y015759D01*
X013000Y015801D02*
X013366Y015801D01*
X013366Y015305D02*
X013000Y015305D01*
X013366Y015305D02*
X013366Y015175D01*
X013000Y015175D01*
X013000Y015305D01*
X013000Y015217D02*
X013366Y015217D01*
X013366Y015259D02*
X013000Y015259D01*
X013000Y015301D02*
X013366Y015301D01*
X011126Y015305D02*
X010760Y015305D01*
X011126Y015305D02*
X011126Y015175D01*
X010760Y015175D01*
X010760Y015305D01*
X010760Y015217D02*
X011126Y015217D01*
X011126Y015259D02*
X010760Y015259D01*
X010760Y015301D02*
X011126Y015301D01*
X011126Y015805D02*
X010760Y015805D01*
X011126Y015805D02*
X011126Y015675D01*
X010760Y015675D01*
X010760Y015805D01*
X010760Y015717D02*
X011126Y015717D01*
X011126Y015759D02*
X010760Y015759D01*
X010760Y015801D02*
X011126Y015801D01*
X011126Y016305D02*
X010760Y016305D01*
X011126Y016305D02*
X011126Y016175D01*
X010760Y016175D01*
X010760Y016305D01*
X010760Y016217D02*
X011126Y016217D01*
X011126Y016259D02*
X010760Y016259D01*
X010760Y016301D02*
X011126Y016301D01*
X011126Y016805D02*
X010760Y016805D01*
X011126Y016805D02*
X011126Y016675D01*
X010760Y016675D01*
X010760Y016805D01*
X010760Y016717D02*
X011126Y016717D01*
X011126Y016759D02*
X010760Y016759D01*
X010760Y016801D02*
X011126Y016801D01*
D24*
X012063Y015990D03*
D25*
X000658Y014413D02*
X000658Y013758D01*
X015616Y013758D01*
X015613Y013760D01*
X015487Y013887D01*
X015487Y014380D01*
X015377Y014380D01*
X015371Y014386D01*
X015365Y014380D01*
X015220Y014380D01*
X015213Y014386D01*
X015207Y014380D01*
X015062Y014380D01*
X015056Y014386D01*
X015050Y014380D01*
X014993Y014380D01*
X014993Y014025D01*
X014929Y013960D01*
X014579Y013960D01*
X014551Y013932D01*
X014248Y013932D01*
X014201Y013979D01*
X014201Y014281D01*
X014233Y014313D01*
X014233Y014894D01*
X014233Y014894D01*
X014233Y015039D01*
X014233Y015040D01*
X014233Y015051D01*
X014233Y015052D01*
X014233Y015100D01*
X014123Y015100D01*
X014077Y015146D01*
X014061Y015146D01*
X014061Y015115D01*
X014015Y015068D01*
X013712Y015068D01*
X013665Y015115D01*
X013665Y015418D01*
X013712Y015464D01*
X013873Y015464D01*
X013873Y015601D01*
X014002Y015730D01*
X014073Y015730D01*
X014098Y015755D01*
X014013Y015840D01*
X014013Y015900D01*
X013954Y015840D01*
X013813Y015840D01*
X013713Y015940D01*
X013713Y015960D01*
X013481Y015728D01*
X013468Y015705D01*
X013468Y015633D01*
X013409Y015574D01*
X012958Y015574D01*
X012899Y015633D01*
X012899Y015847D01*
X012958Y015907D01*
X013320Y015907D01*
X013613Y016200D01*
X013613Y016390D01*
X013468Y016245D01*
X013468Y016133D01*
X013409Y016074D01*
X012958Y016074D01*
X012899Y016133D01*
X012899Y016347D01*
X012958Y016407D01*
X013290Y016407D01*
X013777Y016894D01*
X013637Y016894D01*
X013468Y016725D01*
X013468Y016633D01*
X013409Y016574D01*
X012958Y016574D01*
X012899Y016633D01*
X012899Y016847D01*
X012958Y016907D01*
X013310Y016907D01*
X013436Y017032D01*
X013352Y017116D01*
X013172Y017116D01*
X013125Y017163D01*
X013125Y017465D01*
X013172Y017512D01*
X013201Y017512D01*
X013153Y017560D01*
X013153Y017607D01*
X013125Y017635D01*
X013125Y017938D01*
X013172Y017984D01*
X013436Y017984D01*
X013390Y018030D01*
X010253Y018030D01*
X010083Y017860D01*
X010083Y017022D01*
X010216Y017022D01*
X010263Y016975D01*
X010263Y016659D01*
X010216Y016612D01*
X009650Y016612D01*
X009603Y016659D01*
X009603Y016975D01*
X009650Y017022D01*
X009843Y017022D01*
X009843Y017960D01*
X009914Y018030D01*
X010106Y018222D01*
X001346Y018222D01*
X001346Y017553D01*
X001328Y017535D01*
X001243Y017535D01*
X001266Y017525D01*
X001344Y017447D01*
X001387Y017345D01*
X001387Y017234D01*
X001344Y017132D01*
X001266Y017053D01*
X001164Y017011D01*
X000658Y017011D01*
X000658Y014969D01*
X001164Y014969D01*
X001266Y014927D01*
X001344Y014849D01*
X001387Y014746D01*
X001387Y014636D01*
X001344Y014533D01*
X001266Y014455D01*
X001164Y014413D01*
X000658Y014413D01*
X000658Y014411D02*
X014233Y014411D01*
X014233Y014469D02*
X001280Y014469D01*
X001339Y014528D02*
X014233Y014528D01*
X014233Y014586D02*
X001366Y014586D01*
X001387Y014645D02*
X014233Y014645D01*
X014233Y014703D02*
X001387Y014703D01*
X001381Y014762D02*
X014233Y014762D01*
X014233Y014820D02*
X001356Y014820D01*
X001314Y014879D02*
X014233Y014879D01*
X014233Y014937D02*
X005826Y014937D01*
X005841Y014952D02*
X005978Y014952D01*
X006025Y014999D01*
X006025Y015301D01*
X005978Y015348D01*
X005873Y015348D01*
X005873Y017656D01*
X005809Y017720D01*
X005718Y017720D01*
X004098Y017720D01*
X004033Y017656D01*
X004033Y016218D01*
X004013Y016198D01*
X003957Y016063D01*
X003957Y015917D01*
X004013Y015783D01*
X004033Y015762D01*
X004033Y014985D01*
X004098Y014920D01*
X005809Y014920D01*
X005841Y014952D01*
X005763Y015030D02*
X004143Y015030D01*
X004143Y015668D01*
X004251Y015624D01*
X004396Y015624D01*
X004531Y015680D01*
X004634Y015783D01*
X004690Y015917D01*
X004690Y016063D01*
X004634Y016198D01*
X004531Y016301D01*
X004396Y016356D01*
X004251Y016356D01*
X004143Y016312D01*
X004143Y017610D01*
X005725Y017610D01*
X005745Y017590D01*
X005763Y017590D01*
X005763Y017028D01*
X005676Y017028D01*
X005629Y016981D01*
X005629Y016679D01*
X005676Y016632D01*
X005763Y016632D01*
X005763Y016190D01*
X005469Y016190D01*
X005457Y016178D01*
X005282Y016178D01*
X005235Y016132D01*
X005235Y015849D01*
X005282Y015802D01*
X005457Y015802D01*
X005469Y015790D01*
X005763Y015790D01*
X005763Y015030D01*
X005763Y015054D02*
X004143Y015054D01*
X004143Y015113D02*
X005763Y015113D01*
X005763Y015171D02*
X004143Y015171D01*
X004143Y015230D02*
X005763Y015230D01*
X005763Y015288D02*
X004143Y015288D01*
X004143Y015347D02*
X005763Y015347D01*
X005763Y015405D02*
X004143Y015405D01*
X004143Y015464D02*
X005763Y015464D01*
X005763Y015522D02*
X004143Y015522D01*
X004143Y015581D02*
X005763Y015581D01*
X005763Y015639D02*
X004433Y015639D01*
X004549Y015698D02*
X005763Y015698D01*
X005763Y015756D02*
X004607Y015756D01*
X004647Y015815D02*
X005269Y015815D01*
X005235Y015873D02*
X004671Y015873D01*
X004690Y015932D02*
X005235Y015932D01*
X005235Y015990D02*
X004690Y015990D01*
X004690Y016049D02*
X005235Y016049D01*
X005235Y016107D02*
X004671Y016107D01*
X004647Y016166D02*
X005269Y016166D01*
X005763Y016224D02*
X004607Y016224D01*
X004549Y016283D02*
X005763Y016283D01*
X005763Y016341D02*
X004433Y016341D01*
X004214Y016341D02*
X004143Y016341D01*
X004143Y016400D02*
X005763Y016400D01*
X005763Y016458D02*
X004143Y016458D01*
X004143Y016517D02*
X005763Y016517D01*
X005763Y016575D02*
X004143Y016575D01*
X004143Y016634D02*
X005674Y016634D01*
X005629Y016692D02*
X004143Y016692D01*
X004143Y016751D02*
X005629Y016751D01*
X005629Y016809D02*
X004143Y016809D01*
X004143Y016868D02*
X005629Y016868D01*
X005629Y016926D02*
X004143Y016926D01*
X004143Y016985D02*
X005632Y016985D01*
X005763Y017043D02*
X004143Y017043D01*
X004143Y017102D02*
X005763Y017102D01*
X005763Y017160D02*
X004143Y017160D01*
X004143Y017219D02*
X005763Y017219D01*
X005763Y017277D02*
X004143Y017277D01*
X004143Y017336D02*
X005763Y017336D01*
X005763Y017394D02*
X004143Y017394D01*
X004143Y017453D02*
X005763Y017453D01*
X005763Y017511D02*
X004143Y017511D01*
X004143Y017570D02*
X005763Y017570D01*
X005873Y017570D02*
X009843Y017570D01*
X009843Y017628D02*
X005873Y017628D01*
X005842Y017687D02*
X009843Y017687D01*
X009843Y017745D02*
X001346Y017745D01*
X001346Y017687D02*
X004064Y017687D01*
X004033Y017628D02*
X001346Y017628D01*
X001346Y017570D02*
X004033Y017570D01*
X004033Y017511D02*
X001280Y017511D01*
X001339Y017453D02*
X004033Y017453D01*
X004033Y017394D02*
X001366Y017394D01*
X001387Y017336D02*
X004033Y017336D01*
X004033Y017277D02*
X001387Y017277D01*
X001381Y017219D02*
X004033Y017219D01*
X004033Y017160D02*
X001356Y017160D01*
X001314Y017102D02*
X004033Y017102D01*
X004033Y017043D02*
X001242Y017043D01*
X000658Y016985D02*
X004033Y016985D01*
X004033Y016926D02*
X000658Y016926D01*
X000658Y016868D02*
X004033Y016868D01*
X004033Y016809D02*
X000658Y016809D01*
X000658Y016751D02*
X004033Y016751D01*
X004033Y016692D02*
X000658Y016692D01*
X000658Y016634D02*
X004033Y016634D01*
X004033Y016575D02*
X000658Y016575D01*
X000658Y016517D02*
X004033Y016517D01*
X004033Y016458D02*
X000658Y016458D01*
X000658Y016400D02*
X004033Y016400D01*
X004033Y016341D02*
X000658Y016341D01*
X000658Y016283D02*
X004033Y016283D01*
X004033Y016224D02*
X000658Y016224D01*
X000658Y016166D02*
X004000Y016166D01*
X003975Y016107D02*
X000658Y016107D01*
X000658Y016049D02*
X003957Y016049D01*
X003957Y015990D02*
X000658Y015990D01*
X000658Y015932D02*
X003957Y015932D01*
X003975Y015873D02*
X000658Y015873D01*
X000658Y015815D02*
X004000Y015815D01*
X004033Y015756D02*
X000658Y015756D01*
X000658Y015698D02*
X004033Y015698D01*
X004033Y015639D02*
X000658Y015639D01*
X000658Y015581D02*
X004033Y015581D01*
X004033Y015522D02*
X000658Y015522D01*
X000658Y015464D02*
X004033Y015464D01*
X004033Y015405D02*
X000658Y015405D01*
X000658Y015347D02*
X004033Y015347D01*
X004033Y015288D02*
X000658Y015288D01*
X000658Y015230D02*
X004033Y015230D01*
X004033Y015171D02*
X000658Y015171D01*
X000658Y015113D02*
X004033Y015113D01*
X004033Y015054D02*
X000658Y015054D01*
X000658Y014996D02*
X004033Y014996D01*
X004081Y014937D02*
X001242Y014937D01*
X000658Y014352D02*
X014233Y014352D01*
X014214Y014294D02*
X000658Y014294D01*
X000658Y014235D02*
X014201Y014235D01*
X014201Y014177D02*
X000658Y014177D01*
X000658Y014118D02*
X014201Y014118D01*
X014201Y014060D02*
X000658Y014060D01*
X000658Y014001D02*
X014201Y014001D01*
X014238Y013943D02*
X000658Y013943D01*
X000658Y013884D02*
X015490Y013884D01*
X015487Y013943D02*
X014561Y013943D01*
X014343Y014070D02*
X014883Y014070D01*
X014883Y014401D01*
X014858Y014427D01*
X014858Y014837D01*
X014883Y014863D01*
X014883Y015150D01*
X014343Y015150D01*
X014343Y014070D01*
X014343Y014118D02*
X014883Y014118D01*
X014883Y014177D02*
X014343Y014177D01*
X014343Y014235D02*
X014883Y014235D01*
X014883Y014294D02*
X014343Y014294D01*
X014343Y014352D02*
X014883Y014352D01*
X014874Y014411D02*
X014343Y014411D01*
X014343Y014469D02*
X014858Y014469D01*
X014858Y014528D02*
X014343Y014528D01*
X014343Y014586D02*
X014858Y014586D01*
X014858Y014645D02*
X014343Y014645D01*
X014343Y014703D02*
X014858Y014703D01*
X014858Y014762D02*
X014343Y014762D01*
X014343Y014820D02*
X014858Y014820D01*
X014883Y014879D02*
X014343Y014879D01*
X014343Y014937D02*
X014883Y014937D01*
X014883Y014996D02*
X014343Y014996D01*
X014343Y015054D02*
X014883Y015054D01*
X014883Y015113D02*
X014343Y015113D01*
X014233Y015054D02*
X010263Y015054D01*
X010263Y015005D02*
X010263Y015322D01*
X010216Y015368D01*
X009650Y015368D01*
X009603Y015322D01*
X009603Y015005D01*
X009650Y014958D01*
X010216Y014958D01*
X010263Y015005D01*
X010254Y014996D02*
X014233Y014996D01*
X014110Y015113D02*
X014059Y015113D01*
X013668Y015113D02*
X011208Y015113D01*
X011228Y015133D02*
X011228Y015347D01*
X011168Y015407D01*
X010718Y015407D01*
X010672Y015360D01*
X010623Y015360D01*
X010473Y015510D01*
X010473Y015600D01*
X010493Y015580D01*
X010712Y015580D01*
X010718Y015574D01*
X011168Y015574D01*
X011228Y015633D01*
X011228Y015847D01*
X011168Y015907D01*
X011017Y015907D01*
X011004Y015920D01*
X010493Y015920D01*
X010473Y015901D01*
X010473Y016310D01*
X010503Y016340D01*
X010574Y016340D01*
X010673Y016440D01*
X010673Y016581D01*
X010574Y016680D01*
X010433Y016680D01*
X010333Y016581D01*
X010333Y016510D01*
X010233Y016410D01*
X010233Y016208D01*
X010067Y016208D01*
X010021Y016161D01*
X010021Y015819D01*
X010067Y015772D01*
X010233Y015772D01*
X010233Y015410D01*
X010304Y015340D01*
X010524Y015120D01*
X010672Y015120D01*
X010718Y015074D01*
X011168Y015074D01*
X011228Y015133D01*
X011228Y015171D02*
X013665Y015171D01*
X013665Y015230D02*
X011228Y015230D01*
X011228Y015288D02*
X013665Y015288D01*
X013665Y015347D02*
X011228Y015347D01*
X011170Y015405D02*
X013665Y015405D01*
X013711Y015464D02*
X010520Y015464D01*
X010473Y015522D02*
X013873Y015522D01*
X013873Y015581D02*
X013416Y015581D01*
X013468Y015639D02*
X013911Y015639D01*
X013970Y015698D02*
X013468Y015698D01*
X013509Y015756D02*
X014097Y015756D01*
X014038Y015815D02*
X013568Y015815D01*
X013626Y015873D02*
X013780Y015873D01*
X013721Y015932D02*
X013685Y015932D01*
X013521Y016107D02*
X013442Y016107D01*
X013462Y016049D02*
X011253Y016049D01*
X011253Y016020D02*
X011253Y016170D01*
X011228Y016196D01*
X011228Y016347D01*
X011168Y016407D01*
X011017Y016407D01*
X011014Y016410D01*
X010873Y016410D01*
X010870Y016407D01*
X010718Y016407D01*
X010659Y016347D01*
X010659Y016133D01*
X010718Y016074D01*
X010870Y016074D01*
X010913Y016030D01*
X010913Y016020D01*
X011013Y015920D01*
X011154Y015920D01*
X011253Y016020D01*
X011224Y015990D02*
X013404Y015990D01*
X013345Y015932D02*
X011165Y015932D01*
X011202Y015873D02*
X012925Y015873D01*
X012899Y015815D02*
X011228Y015815D01*
X011228Y015756D02*
X012899Y015756D01*
X012899Y015698D02*
X011228Y015698D01*
X011228Y015639D02*
X012899Y015639D01*
X012951Y015581D02*
X011176Y015581D01*
X011001Y015932D02*
X010473Y015932D01*
X010473Y015990D02*
X010943Y015990D01*
X010894Y016049D02*
X010473Y016049D01*
X010473Y016107D02*
X010685Y016107D01*
X010659Y016166D02*
X010473Y016166D01*
X010473Y016224D02*
X010659Y016224D01*
X010659Y016283D02*
X010473Y016283D01*
X010575Y016341D02*
X010659Y016341D01*
X010633Y016400D02*
X010711Y016400D01*
X010673Y016458D02*
X013342Y016458D01*
X013400Y016517D02*
X010673Y016517D01*
X010673Y016575D02*
X010717Y016575D01*
X010718Y016574D02*
X011168Y016574D01*
X011228Y016633D01*
X011228Y016796D01*
X011313Y016880D01*
X011362Y016880D01*
X011473Y016991D01*
X011473Y017149D01*
X011362Y017260D01*
X011279Y017260D01*
X011121Y017367D01*
X011121Y017465D01*
X011075Y017512D01*
X010772Y017512D01*
X010725Y017465D01*
X010725Y017163D01*
X010772Y017116D01*
X010940Y017116D01*
X011041Y017047D01*
X010901Y016907D01*
X010718Y016907D01*
X010659Y016847D01*
X010659Y016633D01*
X010718Y016574D01*
X010659Y016634D02*
X010620Y016634D01*
X010659Y016692D02*
X010263Y016692D01*
X010263Y016751D02*
X010659Y016751D01*
X010659Y016809D02*
X010263Y016809D01*
X010263Y016868D02*
X010679Y016868D01*
X010920Y016926D02*
X010263Y016926D01*
X010254Y016985D02*
X010979Y016985D01*
X011037Y017043D02*
X010083Y017043D01*
X010083Y017102D02*
X010960Y017102D01*
X010728Y017160D02*
X010083Y017160D01*
X010083Y017219D02*
X010725Y017219D01*
X010725Y017277D02*
X010083Y017277D01*
X010083Y017336D02*
X010725Y017336D01*
X010725Y017394D02*
X010083Y017394D01*
X010083Y017453D02*
X010725Y017453D01*
X010771Y017511D02*
X010083Y017511D01*
X010083Y017570D02*
X013153Y017570D01*
X013171Y017511D02*
X011076Y017511D01*
X011121Y017453D02*
X013125Y017453D01*
X013125Y017394D02*
X011121Y017394D01*
X011168Y017336D02*
X013125Y017336D01*
X013125Y017277D02*
X011254Y017277D01*
X011404Y017219D02*
X013125Y017219D01*
X013128Y017160D02*
X011462Y017160D01*
X011473Y017102D02*
X013366Y017102D01*
X013424Y017043D02*
X011473Y017043D01*
X011467Y016985D02*
X013388Y016985D01*
X013330Y016926D02*
X011408Y016926D01*
X011300Y016868D02*
X012919Y016868D01*
X012899Y016809D02*
X011242Y016809D01*
X011228Y016751D02*
X012899Y016751D01*
X012899Y016692D02*
X011228Y016692D01*
X011228Y016634D02*
X012899Y016634D01*
X012957Y016575D02*
X011170Y016575D01*
X011176Y016400D02*
X012951Y016400D01*
X012899Y016341D02*
X011228Y016341D01*
X011228Y016283D02*
X012899Y016283D01*
X012899Y016224D02*
X011228Y016224D01*
X011253Y016166D02*
X012899Y016166D01*
X012925Y016107D02*
X011253Y016107D01*
X010492Y015581D02*
X010473Y015581D01*
X010578Y015405D02*
X010717Y015405D01*
X010679Y015113D02*
X010263Y015113D01*
X010263Y015171D02*
X010473Y015171D01*
X010414Y015230D02*
X010263Y015230D01*
X010263Y015288D02*
X010356Y015288D01*
X010297Y015347D02*
X010238Y015347D01*
X010239Y015405D02*
X007913Y015405D01*
X007913Y015347D02*
X009628Y015347D01*
X009603Y015288D02*
X007857Y015288D01*
X007849Y015280D02*
X006409Y015280D01*
X006318Y015280D01*
X006253Y015345D01*
X006253Y015916D01*
X006318Y015980D01*
X007849Y015980D01*
X007913Y015916D01*
X007913Y015345D01*
X007849Y015280D01*
X007803Y015390D02*
X006363Y015390D01*
X006363Y015870D01*
X007803Y015870D01*
X007803Y015390D01*
X007803Y015405D02*
X006363Y015405D01*
X006363Y015464D02*
X007803Y015464D01*
X007803Y015522D02*
X006363Y015522D01*
X006363Y015581D02*
X007803Y015581D01*
X007803Y015639D02*
X006363Y015639D01*
X006363Y015698D02*
X007803Y015698D01*
X007803Y015756D02*
X006363Y015756D01*
X006363Y015815D02*
X007803Y015815D01*
X007913Y015815D02*
X010025Y015815D01*
X010021Y015873D02*
X007913Y015873D01*
X007897Y015932D02*
X010021Y015932D01*
X010021Y015990D02*
X005873Y015990D01*
X005873Y015932D02*
X006269Y015932D01*
X006253Y015873D02*
X005873Y015873D01*
X005873Y015815D02*
X006253Y015815D01*
X006253Y015756D02*
X005873Y015756D01*
X005873Y015698D02*
X006253Y015698D01*
X006253Y015639D02*
X005873Y015639D01*
X005873Y015581D02*
X006253Y015581D01*
X006253Y015522D02*
X005873Y015522D01*
X005873Y015464D02*
X006253Y015464D01*
X006253Y015405D02*
X005873Y015405D01*
X005980Y015347D02*
X006253Y015347D01*
X006310Y015288D02*
X006025Y015288D01*
X006025Y015230D02*
X009603Y015230D01*
X009603Y015171D02*
X006025Y015171D01*
X006025Y015113D02*
X009603Y015113D01*
X009603Y015054D02*
X006025Y015054D01*
X006022Y014996D02*
X009613Y014996D01*
X010233Y015464D02*
X007913Y015464D01*
X007913Y015522D02*
X010233Y015522D01*
X010233Y015581D02*
X007913Y015581D01*
X007913Y015639D02*
X010233Y015639D01*
X010233Y015698D02*
X007913Y015698D01*
X007913Y015756D02*
X010233Y015756D01*
X010021Y016049D02*
X005873Y016049D01*
X005873Y016107D02*
X010021Y016107D01*
X010025Y016166D02*
X005873Y016166D01*
X005873Y016224D02*
X006259Y016224D01*
X006259Y016223D02*
X006306Y016176D01*
X006845Y016176D01*
X006891Y016223D01*
X006891Y016506D01*
X006845Y016552D01*
X006700Y016552D01*
X006700Y016606D01*
X006498Y016809D01*
X009603Y016809D01*
X009603Y016751D02*
X006556Y016751D01*
X006498Y016809D02*
X006498Y016981D01*
X006451Y017028D01*
X006148Y017028D01*
X006101Y016981D01*
X006101Y016679D01*
X006148Y016632D01*
X006321Y016632D01*
X006401Y016552D01*
X006306Y016552D01*
X006259Y016506D01*
X006259Y016223D01*
X006259Y016283D02*
X005873Y016283D01*
X005873Y016341D02*
X006259Y016341D01*
X006259Y016400D02*
X005873Y016400D01*
X005873Y016458D02*
X006259Y016458D01*
X006270Y016517D02*
X005873Y016517D01*
X005873Y016575D02*
X006378Y016575D01*
X006147Y016634D02*
X005873Y016634D01*
X005873Y016692D02*
X006101Y016692D01*
X006101Y016751D02*
X005873Y016751D01*
X005873Y016809D02*
X006101Y016809D01*
X006101Y016868D02*
X005873Y016868D01*
X005873Y016926D02*
X006101Y016926D01*
X006105Y016985D02*
X005873Y016985D01*
X005873Y017043D02*
X009843Y017043D01*
X009843Y017102D02*
X005873Y017102D01*
X005873Y017160D02*
X009843Y017160D01*
X009843Y017219D02*
X005873Y017219D01*
X005873Y017277D02*
X009843Y017277D01*
X009843Y017336D02*
X005873Y017336D01*
X005873Y017394D02*
X009843Y017394D01*
X009843Y017453D02*
X005873Y017453D01*
X005873Y017511D02*
X009843Y017511D01*
X010083Y017628D02*
X013132Y017628D01*
X013125Y017687D02*
X010083Y017687D01*
X010083Y017745D02*
X013125Y017745D01*
X013125Y017804D02*
X010083Y017804D01*
X010085Y017862D02*
X013125Y017862D01*
X013125Y017921D02*
X010144Y017921D01*
X010202Y017979D02*
X013167Y017979D01*
X013521Y017899D02*
X013521Y017635D01*
X013493Y017607D01*
X013493Y017560D01*
X013446Y017512D01*
X013475Y017512D01*
X013521Y017465D01*
X013521Y017286D01*
X013605Y017202D01*
X013605Y017465D01*
X013652Y017512D01*
X013955Y017512D01*
X014001Y017465D01*
X014001Y017163D01*
X013973Y017134D01*
X014535Y017134D01*
X014535Y017133D01*
X014690Y017133D01*
X014737Y017086D01*
X014737Y016941D01*
X014731Y016935D01*
X014737Y016929D01*
X014737Y016784D01*
X014731Y016778D01*
X014737Y016771D01*
X014737Y016685D01*
X014813Y016760D01*
X014954Y016760D01*
X015053Y016661D01*
X015053Y016520D01*
X014954Y016420D01*
X014813Y016420D01*
X014812Y016421D01*
X014737Y016421D01*
X014737Y016311D01*
X014731Y016305D01*
X014737Y016299D01*
X014737Y016240D01*
X014874Y016240D01*
X014973Y016141D01*
X014973Y016000D01*
X014874Y015900D01*
X014737Y015900D01*
X014737Y015839D01*
X014731Y015833D01*
X014737Y015826D01*
X014737Y015740D01*
X014755Y015722D01*
X014772Y015740D01*
X014955Y015740D01*
X015083Y015611D01*
X015083Y015429D01*
X014955Y015300D01*
X014884Y015300D01*
X014853Y015269D01*
X014737Y015269D01*
X014737Y015260D01*
X014929Y015260D01*
X014993Y015196D01*
X014993Y014884D01*
X015050Y014884D01*
X015056Y014878D01*
X015062Y014884D01*
X015207Y014884D01*
X015213Y014878D01*
X015220Y014884D01*
X015365Y014884D01*
X015371Y014878D01*
X015377Y014884D01*
X015522Y014884D01*
X015528Y014878D01*
X015535Y014884D01*
X015680Y014884D01*
X015686Y014878D01*
X015692Y014884D01*
X015837Y014884D01*
X015843Y014878D01*
X015850Y014884D01*
X015995Y014884D01*
X016001Y014878D01*
X016007Y014884D01*
X016152Y014884D01*
X016158Y014878D01*
X016165Y014884D01*
X016310Y014884D01*
X016316Y014878D01*
X016322Y014884D01*
X016467Y014884D01*
X016473Y014878D01*
X016480Y014884D01*
X016625Y014884D01*
X016631Y014878D01*
X016637Y014884D01*
X016782Y014884D01*
X016788Y014878D01*
X016795Y014884D01*
X016940Y014884D01*
X016986Y014837D01*
X016986Y014427D01*
X016940Y014380D01*
X016795Y014380D01*
X016788Y014386D01*
X016782Y014380D01*
X016637Y014380D01*
X016631Y014386D01*
X016625Y014380D01*
X016480Y014380D01*
X016473Y014386D01*
X016467Y014380D01*
X016403Y014380D01*
X016403Y014270D01*
X016402Y014268D01*
X016418Y014268D01*
X016465Y014221D01*
X016465Y013930D01*
X017444Y013930D01*
X017643Y014130D01*
X017643Y014472D01*
X017616Y014472D01*
X017569Y014519D01*
X017569Y014821D01*
X017616Y014868D01*
X017918Y014868D01*
X017965Y014821D01*
X017965Y014519D01*
X017918Y014472D01*
X017883Y014472D01*
X017883Y014030D01*
X017813Y013960D01*
X017611Y013758D01*
X024711Y013758D01*
X024711Y014428D01*
X024728Y014445D01*
X025398Y014445D01*
X025398Y015849D01*
X025301Y015615D01*
X025115Y015429D01*
X024872Y015329D01*
X024609Y015329D01*
X024366Y015429D01*
X024180Y015615D01*
X024079Y015859D01*
X024079Y016122D01*
X024180Y016365D01*
X024366Y016551D01*
X024609Y016652D01*
X024872Y016652D01*
X025115Y016551D01*
X025301Y016365D01*
X025398Y016132D01*
X025398Y018222D01*
X020932Y018222D01*
X020993Y018161D01*
X020993Y018020D01*
X021653Y018020D01*
X021713Y018080D01*
X021854Y018080D01*
X021953Y017981D01*
X021953Y017840D01*
X022673Y017840D01*
X022733Y017900D01*
X022874Y017900D01*
X022973Y017801D01*
X022973Y017660D01*
X022874Y017560D01*
X022733Y017560D01*
X022673Y017620D01*
X020538Y017620D01*
X020473Y017685D01*
X020418Y017740D01*
X016909Y017740D01*
X016820Y017651D01*
X016820Y017601D01*
X016940Y017601D01*
X016986Y017554D01*
X016986Y017458D01*
X017396Y017458D01*
X017413Y017476D01*
X017478Y017540D01*
X020149Y017540D01*
X020869Y016820D01*
X020933Y016756D01*
X020933Y015461D01*
X020993Y015401D01*
X020993Y015260D01*
X020894Y015160D01*
X020753Y015160D01*
X020653Y015260D01*
X020653Y015401D01*
X020713Y015461D01*
X020713Y016665D01*
X020058Y017320D01*
X018713Y017320D01*
X018713Y017180D01*
X018614Y017080D01*
X018473Y017080D01*
X018413Y017140D01*
X017629Y017140D01*
X017454Y016965D01*
X017454Y016941D01*
X017448Y016935D01*
X017454Y016929D01*
X017454Y016784D01*
X017448Y016778D01*
X017454Y016771D01*
X017454Y016626D01*
X017448Y016620D01*
X017454Y016614D01*
X017454Y016469D01*
X017407Y016422D01*
X016996Y016422D01*
X016949Y016469D01*
X016949Y016614D01*
X016956Y016620D01*
X016949Y016626D01*
X016949Y016746D01*
X016420Y016746D01*
X016394Y016720D01*
X016253Y016720D01*
X016153Y016820D01*
X016153Y016961D01*
X016253Y017060D01*
X016394Y017060D01*
X016488Y016966D01*
X016949Y016966D01*
X016949Y017086D01*
X016996Y017133D01*
X017311Y017133D01*
X017416Y017238D01*
X016986Y017238D01*
X016986Y017143D01*
X016940Y017096D01*
X016795Y017096D01*
X016788Y017102D01*
X016782Y017096D01*
X016637Y017096D01*
X016631Y017102D01*
X016625Y017096D01*
X016480Y017096D01*
X016473Y017102D01*
X016467Y017096D01*
X016322Y017096D01*
X016316Y017102D01*
X016310Y017096D01*
X016165Y017096D01*
X016158Y017102D01*
X016159Y017102D01*
X016158Y017102D02*
X016152Y017096D01*
X016007Y017096D01*
X016001Y017102D01*
X015995Y017096D01*
X015850Y017096D01*
X015843Y017102D01*
X015844Y017102D01*
X015843Y017102D02*
X015837Y017096D01*
X015692Y017096D01*
X015686Y017102D01*
X015680Y017096D01*
X015535Y017096D01*
X015528Y017102D01*
X015529Y017102D01*
X015528Y017102D02*
X015522Y017096D01*
X015402Y017096D01*
X015402Y017067D01*
X015409Y017060D01*
X015494Y017060D01*
X015593Y016961D01*
X015593Y016820D01*
X015494Y016720D01*
X015353Y016720D01*
X015253Y016820D01*
X015253Y016905D01*
X015182Y016976D01*
X015182Y017096D01*
X015062Y017096D01*
X015056Y017102D01*
X015050Y017096D01*
X014905Y017096D01*
X014899Y017102D01*
X014898Y017102D01*
X014899Y017102D02*
X014892Y017096D01*
X014747Y017096D01*
X014700Y017143D01*
X014700Y017228D01*
X014572Y017228D01*
X014524Y017180D01*
X014383Y017180D01*
X014283Y017280D01*
X014283Y017421D01*
X014383Y017520D01*
X014524Y017520D01*
X014576Y017468D01*
X014700Y017468D01*
X014700Y017554D01*
X014747Y017601D01*
X014857Y017601D01*
X014838Y017620D01*
X014773Y017685D01*
X014773Y018020D01*
X014713Y018080D01*
X014713Y018221D01*
X014715Y018222D01*
X013537Y018222D01*
X013560Y018200D01*
X013775Y017984D01*
X013955Y017984D01*
X014001Y017938D01*
X014001Y017635D01*
X013955Y017588D01*
X013652Y017588D01*
X013605Y017635D01*
X013605Y017815D01*
X013521Y017899D01*
X013521Y017862D02*
X013558Y017862D01*
X013521Y017804D02*
X013605Y017804D01*
X013605Y017745D02*
X013521Y017745D01*
X013521Y017687D02*
X013605Y017687D01*
X013612Y017628D02*
X013515Y017628D01*
X013493Y017570D02*
X014716Y017570D01*
X014700Y017511D02*
X014533Y017511D01*
X014374Y017511D02*
X013956Y017511D01*
X014001Y017453D02*
X014315Y017453D01*
X014283Y017394D02*
X014001Y017394D01*
X014001Y017336D02*
X014283Y017336D01*
X014286Y017277D02*
X014001Y017277D01*
X014001Y017219D02*
X014344Y017219D01*
X014562Y017219D02*
X014700Y017219D01*
X014700Y017160D02*
X013999Y017160D01*
X013605Y017219D02*
X013588Y017219D01*
X013605Y017277D02*
X013530Y017277D01*
X013521Y017336D02*
X013605Y017336D01*
X013605Y017394D02*
X013521Y017394D01*
X013521Y017453D02*
X013605Y017453D01*
X013651Y017511D02*
X013476Y017511D01*
X013995Y017628D02*
X014830Y017628D01*
X014773Y017687D02*
X014001Y017687D01*
X014001Y017745D02*
X014773Y017745D01*
X014773Y017804D02*
X014001Y017804D01*
X014001Y017862D02*
X014773Y017862D01*
X014773Y017921D02*
X014001Y017921D01*
X013960Y017979D02*
X014773Y017979D01*
X014755Y018038D02*
X013722Y018038D01*
X013663Y018096D02*
X014713Y018096D01*
X014713Y018155D02*
X013605Y018155D01*
X013546Y018213D02*
X014713Y018213D01*
X014883Y018150D02*
X014883Y017730D01*
X014977Y017636D01*
X014977Y017348D01*
X015135Y017348D02*
X015135Y017959D01*
X015123Y017970D01*
X015245Y017851D02*
X015245Y017601D01*
X015253Y017601D01*
X015253Y017741D01*
X015353Y017840D01*
X015494Y017840D01*
X015593Y017741D01*
X015593Y017601D01*
X015680Y017601D01*
X015686Y017594D01*
X015692Y017601D01*
X015837Y017601D01*
X015843Y017594D01*
X015850Y017601D01*
X015995Y017601D01*
X016001Y017594D01*
X016007Y017601D01*
X016043Y017601D01*
X016043Y017652D01*
X016018Y017652D01*
X015971Y017699D01*
X015971Y018001D01*
X016018Y018048D01*
X016321Y018048D01*
X016368Y018001D01*
X016368Y017870D01*
X016633Y018136D01*
X016698Y018200D01*
X020693Y018200D01*
X020715Y018222D01*
X015052Y018222D01*
X015053Y018221D01*
X015053Y018140D01*
X015194Y018140D01*
X015293Y018041D01*
X015293Y017900D01*
X015245Y017851D01*
X015256Y017862D02*
X015971Y017862D01*
X015971Y017804D02*
X015530Y017804D01*
X015589Y017745D02*
X015971Y017745D01*
X015984Y017687D02*
X015593Y017687D01*
X015593Y017628D02*
X016043Y017628D01*
X015971Y017921D02*
X015293Y017921D01*
X015293Y017979D02*
X015971Y017979D01*
X016008Y018038D02*
X015293Y018038D01*
X015238Y018096D02*
X016594Y018096D01*
X016652Y018155D02*
X015053Y018155D01*
X015053Y018213D02*
X020706Y018213D01*
X020823Y018090D02*
X016743Y018090D01*
X016395Y017741D01*
X016395Y017348D01*
X016552Y017348D02*
X016552Y017719D01*
X016803Y017970D01*
X020523Y017970D01*
X020583Y017910D01*
X021783Y017910D01*
X021670Y018038D02*
X020993Y018038D01*
X020993Y018096D02*
X025398Y018096D01*
X025398Y018038D02*
X021896Y018038D01*
X021953Y017979D02*
X025398Y017979D01*
X025398Y017921D02*
X021953Y017921D01*
X021953Y017862D02*
X022695Y017862D01*
X022803Y017730D02*
X020583Y017730D01*
X020463Y017850D01*
X016863Y017850D01*
X016710Y017696D01*
X016710Y017348D01*
X016867Y017348D02*
X017442Y017348D01*
X017523Y017430D01*
X020103Y017430D01*
X020823Y016710D01*
X020823Y015330D01*
X020653Y015347D02*
X018623Y015347D01*
X018623Y015405D02*
X020658Y015405D01*
X020713Y015464D02*
X018570Y015464D01*
X018524Y015510D02*
X018623Y015411D01*
X018623Y015270D01*
X018524Y015170D01*
X018453Y015170D01*
X018438Y015155D01*
X018438Y015119D01*
X018391Y015072D01*
X018088Y015072D01*
X018041Y015119D01*
X018041Y015421D01*
X018088Y015468D01*
X018341Y015468D01*
X018383Y015510D01*
X018524Y015510D01*
X018576Y015672D02*
X018529Y015719D01*
X018529Y015899D01*
X018479Y015949D01*
X017454Y015949D01*
X017454Y015911D01*
X017463Y015920D01*
X017588Y015920D01*
X017616Y015948D01*
X017918Y015948D01*
X017965Y015901D01*
X017965Y015599D01*
X017918Y015552D01*
X017616Y015552D01*
X017588Y015580D01*
X017463Y015580D01*
X017454Y015589D01*
X017454Y015524D01*
X017448Y015518D01*
X017454Y015511D01*
X017454Y015401D01*
X017569Y015401D01*
X017569Y015421D01*
X017616Y015468D01*
X017918Y015468D01*
X017965Y015421D01*
X017965Y015119D01*
X017918Y015072D01*
X017616Y015072D01*
X017569Y015119D01*
X017569Y015161D01*
X017454Y015161D01*
X017454Y015052D01*
X017448Y015045D01*
X017454Y015039D01*
X017454Y014894D01*
X017407Y014847D01*
X016996Y014847D01*
X016949Y014894D01*
X016949Y015039D01*
X016956Y015045D01*
X016949Y015052D01*
X016949Y015197D01*
X016956Y015203D01*
X016949Y015209D01*
X016949Y015354D01*
X016956Y015360D01*
X016949Y015366D01*
X016949Y015511D01*
X016956Y015518D01*
X016949Y015524D01*
X016949Y015669D01*
X016956Y015675D01*
X016949Y015681D01*
X016949Y015740D01*
X016853Y015740D01*
X016753Y015840D01*
X016753Y015981D01*
X016853Y016080D01*
X016949Y016080D01*
X016949Y016141D01*
X016956Y016148D01*
X016949Y016154D01*
X016949Y016299D01*
X016996Y016346D01*
X017151Y016346D01*
X017152Y016346D01*
X017354Y016346D01*
X017805Y016798D01*
X017805Y016978D01*
X017852Y017024D01*
X018155Y017024D01*
X018201Y016978D01*
X018201Y016946D01*
X018381Y016946D01*
X018381Y017017D01*
X018428Y017064D01*
X018849Y017064D01*
X018896Y017017D01*
X018896Y016655D01*
X018849Y016609D01*
X018428Y016609D01*
X018381Y016655D01*
X018381Y016706D01*
X018201Y016706D01*
X018201Y016675D01*
X018155Y016628D01*
X017975Y016628D01*
X017536Y016189D01*
X018381Y016189D01*
X018381Y016525D01*
X018428Y016572D01*
X018849Y016572D01*
X018896Y016525D01*
X018896Y016163D01*
X018849Y016116D01*
X018651Y016116D01*
X018699Y016068D01*
X018878Y016068D01*
X018925Y016021D01*
X018925Y015719D01*
X018878Y015672D01*
X018576Y015672D01*
X018550Y015698D02*
X017965Y015698D01*
X017965Y015756D02*
X018529Y015756D01*
X018529Y015815D02*
X017965Y015815D01*
X017965Y015873D02*
X018529Y015873D01*
X018496Y015932D02*
X017935Y015932D01*
X017965Y015639D02*
X020713Y015639D01*
X020713Y015581D02*
X017947Y015581D01*
X017923Y015464D02*
X018084Y015464D01*
X018041Y015405D02*
X017965Y015405D01*
X017965Y015347D02*
X018041Y015347D01*
X018041Y015288D02*
X017965Y015288D01*
X017965Y015230D02*
X018041Y015230D01*
X018041Y015171D02*
X017965Y015171D01*
X017959Y015113D02*
X018048Y015113D01*
X018088Y014868D02*
X018041Y014821D01*
X018041Y014519D01*
X018088Y014472D01*
X018391Y014472D01*
X018438Y014519D01*
X018438Y014550D01*
X018491Y014550D01*
X018491Y014480D01*
X018537Y014433D01*
X018919Y014433D01*
X018966Y014480D01*
X018966Y014861D01*
X018919Y014908D01*
X018537Y014908D01*
X018491Y014861D01*
X018491Y014790D01*
X018438Y014790D01*
X018438Y014821D01*
X018391Y014868D01*
X018088Y014868D01*
X018041Y014820D02*
X017965Y014820D01*
X017965Y014762D02*
X018041Y014762D01*
X018041Y014703D02*
X017965Y014703D01*
X017965Y014645D02*
X018041Y014645D01*
X018041Y014586D02*
X017965Y014586D01*
X017965Y014528D02*
X018041Y014528D01*
X017883Y014469D02*
X018501Y014469D01*
X018491Y014528D02*
X018438Y014528D01*
X018438Y014820D02*
X018491Y014820D01*
X018509Y014879D02*
X017439Y014879D01*
X017454Y014937D02*
X025398Y014937D01*
X025398Y014879D02*
X019538Y014879D01*
X019556Y014861D02*
X019509Y014908D01*
X019128Y014908D01*
X019081Y014861D01*
X019081Y014480D01*
X019128Y014433D01*
X019153Y014433D01*
X019153Y014350D01*
X019253Y014250D01*
X019394Y014250D01*
X019493Y014350D01*
X019493Y014433D01*
X019509Y014433D01*
X019556Y014480D01*
X019556Y014861D01*
X019556Y014820D02*
X025398Y014820D01*
X025398Y014762D02*
X019556Y014762D01*
X019556Y014703D02*
X025398Y014703D01*
X025398Y014645D02*
X019556Y014645D01*
X019556Y014586D02*
X025398Y014586D01*
X025398Y014528D02*
X019556Y014528D01*
X019546Y014469D02*
X025398Y014469D01*
X024711Y014411D02*
X019493Y014411D01*
X019493Y014352D02*
X024711Y014352D01*
X024711Y014294D02*
X019437Y014294D01*
X019209Y014294D02*
X017883Y014294D01*
X017883Y014352D02*
X019153Y014352D01*
X019153Y014411D02*
X017883Y014411D01*
X017883Y014235D02*
X024711Y014235D01*
X024711Y014177D02*
X017883Y014177D01*
X017883Y014118D02*
X024711Y014118D01*
X024711Y014060D02*
X017883Y014060D01*
X017854Y014001D02*
X024711Y014001D01*
X024711Y013943D02*
X017796Y013943D01*
X017737Y013884D02*
X024711Y013884D01*
X024711Y013826D02*
X017679Y013826D01*
X017620Y013767D02*
X024711Y013767D01*
X025398Y014996D02*
X017454Y014996D01*
X017454Y015054D02*
X025398Y015054D01*
X025398Y015113D02*
X018431Y015113D01*
X018525Y015171D02*
X020742Y015171D01*
X020683Y015230D02*
X018583Y015230D01*
X018623Y015288D02*
X020653Y015288D01*
X020905Y015171D02*
X025398Y015171D01*
X025398Y015230D02*
X020963Y015230D01*
X020993Y015288D02*
X025398Y015288D01*
X025398Y015347D02*
X024916Y015347D01*
X025057Y015405D02*
X025398Y015405D01*
X025398Y015464D02*
X025150Y015464D01*
X025208Y015522D02*
X025398Y015522D01*
X025398Y015581D02*
X025267Y015581D01*
X025311Y015639D02*
X025398Y015639D01*
X025398Y015698D02*
X025336Y015698D01*
X025360Y015756D02*
X025398Y015756D01*
X025398Y015815D02*
X025384Y015815D01*
X025384Y016166D02*
X025398Y016166D01*
X025398Y016224D02*
X025360Y016224D01*
X025336Y016283D02*
X025398Y016283D01*
X025398Y016341D02*
X025311Y016341D01*
X025267Y016400D02*
X025398Y016400D01*
X025398Y016458D02*
X025208Y016458D01*
X025150Y016517D02*
X025398Y016517D01*
X025398Y016575D02*
X025057Y016575D01*
X024916Y016634D02*
X025398Y016634D01*
X025398Y016692D02*
X020933Y016692D01*
X020933Y016634D02*
X024566Y016634D01*
X024424Y016575D02*
X020933Y016575D01*
X020933Y016517D02*
X024332Y016517D01*
X024273Y016458D02*
X020933Y016458D01*
X020933Y016400D02*
X024215Y016400D01*
X024170Y016341D02*
X022433Y016341D01*
X022396Y016356D02*
X022251Y016356D01*
X022116Y016301D01*
X022013Y016198D01*
X021957Y016063D01*
X021957Y015917D01*
X022013Y015783D01*
X022116Y015680D01*
X022251Y015624D01*
X022396Y015624D01*
X022531Y015680D01*
X022634Y015783D01*
X022690Y015917D01*
X022690Y016063D01*
X022634Y016198D01*
X022531Y016301D01*
X022396Y016356D01*
X022549Y016283D02*
X024146Y016283D01*
X024122Y016224D02*
X022607Y016224D01*
X022647Y016166D02*
X024097Y016166D01*
X024079Y016107D02*
X022671Y016107D01*
X022690Y016049D02*
X024079Y016049D01*
X024079Y015990D02*
X022690Y015990D01*
X022690Y015932D02*
X024079Y015932D01*
X024079Y015873D02*
X022671Y015873D01*
X022647Y015815D02*
X024097Y015815D01*
X024122Y015756D02*
X022607Y015756D01*
X022549Y015698D02*
X024146Y015698D01*
X024170Y015639D02*
X022433Y015639D01*
X022214Y015639D02*
X020933Y015639D01*
X020933Y015581D02*
X024215Y015581D01*
X024273Y015522D02*
X020933Y015522D01*
X020933Y015464D02*
X024332Y015464D01*
X024424Y015405D02*
X020989Y015405D01*
X020993Y015347D02*
X024566Y015347D01*
X025398Y016751D02*
X020933Y016751D01*
X020880Y016809D02*
X025398Y016809D01*
X025398Y016868D02*
X020821Y016868D01*
X020763Y016926D02*
X025398Y016926D01*
X025398Y016985D02*
X020704Y016985D01*
X020646Y017043D02*
X025398Y017043D01*
X025398Y017102D02*
X020587Y017102D01*
X020529Y017160D02*
X025398Y017160D01*
X025398Y017219D02*
X020470Y017219D01*
X020412Y017277D02*
X025398Y017277D01*
X025398Y017336D02*
X020353Y017336D01*
X020295Y017394D02*
X025398Y017394D01*
X025398Y017453D02*
X020236Y017453D01*
X020178Y017511D02*
X025398Y017511D01*
X025398Y017570D02*
X022883Y017570D01*
X022942Y017628D02*
X025398Y017628D01*
X025398Y017687D02*
X022973Y017687D01*
X022973Y017745D02*
X025398Y017745D01*
X025398Y017804D02*
X022970Y017804D01*
X022912Y017862D02*
X025398Y017862D01*
X025398Y018155D02*
X020993Y018155D01*
X020941Y018213D02*
X025398Y018213D01*
X022723Y017570D02*
X016971Y017570D01*
X016986Y017511D02*
X017449Y017511D01*
X017583Y017250D02*
X018543Y017250D01*
X018713Y017277D02*
X020101Y017277D01*
X020159Y017219D02*
X018713Y017219D01*
X018694Y017160D02*
X020218Y017160D01*
X020276Y017102D02*
X018635Y017102D01*
X018451Y017102D02*
X017590Y017102D01*
X017532Y017043D02*
X018408Y017043D01*
X018381Y016985D02*
X018194Y016985D01*
X018201Y016692D02*
X018381Y016692D01*
X018403Y016634D02*
X018160Y016634D01*
X017922Y016575D02*
X020713Y016575D01*
X020713Y016517D02*
X020050Y016517D01*
X020061Y016505D02*
X020015Y016552D01*
X019712Y016552D01*
X019665Y016505D01*
X019665Y016464D01*
X019545Y016464D01*
X019545Y016525D01*
X019498Y016572D01*
X019078Y016572D01*
X019031Y016525D01*
X019031Y016163D01*
X019078Y016116D01*
X019080Y016116D01*
X019080Y016068D01*
X019048Y016068D01*
X019001Y016021D01*
X019001Y015719D01*
X019048Y015672D01*
X019351Y015672D01*
X019398Y015719D01*
X019398Y016021D01*
X019351Y016068D01*
X019320Y016068D01*
X019320Y016116D01*
X019498Y016116D01*
X019545Y016163D01*
X019545Y016224D01*
X019665Y016224D01*
X019665Y016203D01*
X019712Y016156D01*
X020015Y016156D01*
X020061Y016203D01*
X020061Y016505D01*
X020061Y016458D02*
X020713Y016458D01*
X020713Y016400D02*
X020061Y016400D01*
X020061Y016341D02*
X020713Y016341D01*
X020713Y016283D02*
X020061Y016283D01*
X020061Y016224D02*
X020713Y016224D01*
X020713Y016166D02*
X020024Y016166D01*
X019702Y016166D02*
X019545Y016166D01*
X019370Y016049D02*
X020713Y016049D01*
X020713Y016107D02*
X019320Y016107D01*
X019398Y015990D02*
X020713Y015990D01*
X020713Y015932D02*
X019398Y015932D01*
X019398Y015873D02*
X020713Y015873D01*
X020713Y015815D02*
X019398Y015815D01*
X019398Y015756D02*
X020713Y015756D01*
X020713Y015698D02*
X019376Y015698D01*
X019023Y015698D02*
X018904Y015698D01*
X018925Y015756D02*
X019001Y015756D01*
X019001Y015815D02*
X018925Y015815D01*
X018925Y015873D02*
X019001Y015873D01*
X019001Y015932D02*
X018925Y015932D01*
X018925Y015990D02*
X019001Y015990D01*
X019029Y016049D02*
X018898Y016049D01*
X018896Y016166D02*
X019031Y016166D01*
X019031Y016224D02*
X018896Y016224D01*
X018896Y016283D02*
X019031Y016283D01*
X019031Y016341D02*
X018896Y016341D01*
X018896Y016400D02*
X019031Y016400D01*
X019031Y016458D02*
X018896Y016458D01*
X018896Y016517D02*
X019031Y016517D01*
X019078Y016609D02*
X019498Y016609D01*
X019545Y016655D01*
X019545Y017017D01*
X019498Y017064D01*
X019078Y017064D01*
X019031Y017017D01*
X019031Y016655D01*
X019078Y016609D01*
X019053Y016634D02*
X018874Y016634D01*
X018896Y016692D02*
X019031Y016692D01*
X019031Y016751D02*
X018896Y016751D01*
X018896Y016809D02*
X019031Y016809D01*
X019031Y016868D02*
X018896Y016868D01*
X018896Y016926D02*
X019031Y016926D01*
X019031Y016985D02*
X018896Y016985D01*
X018870Y017043D02*
X019057Y017043D01*
X019519Y017043D02*
X020335Y017043D01*
X020393Y016985D02*
X019545Y016985D01*
X019545Y016926D02*
X020452Y016926D01*
X020510Y016868D02*
X019545Y016868D01*
X019545Y016809D02*
X020569Y016809D01*
X020627Y016751D02*
X019545Y016751D01*
X019545Y016692D02*
X020686Y016692D01*
X020713Y016634D02*
X019524Y016634D01*
X019545Y016517D02*
X019677Y016517D01*
X019080Y016107D02*
X018660Y016107D01*
X018381Y016224D02*
X017571Y016224D01*
X017629Y016283D02*
X018381Y016283D01*
X018381Y016341D02*
X017688Y016341D01*
X017746Y016400D02*
X018381Y016400D01*
X018381Y016458D02*
X017805Y016458D01*
X017863Y016517D02*
X018381Y016517D01*
X017805Y016809D02*
X017454Y016809D01*
X017454Y016751D02*
X017758Y016751D01*
X017699Y016692D02*
X017454Y016692D01*
X017454Y016634D02*
X017641Y016634D01*
X017582Y016575D02*
X017454Y016575D01*
X017454Y016517D02*
X017524Y016517D01*
X017465Y016458D02*
X017443Y016458D01*
X017407Y016400D02*
X014737Y016400D01*
X014737Y016341D02*
X016992Y016341D01*
X016949Y016283D02*
X014737Y016283D01*
X014890Y016224D02*
X016949Y016224D01*
X016949Y016166D02*
X014948Y016166D01*
X014973Y016107D02*
X016949Y016107D01*
X016821Y016049D02*
X014973Y016049D01*
X014964Y015990D02*
X016763Y015990D01*
X016753Y015932D02*
X014905Y015932D01*
X014737Y015873D02*
X016753Y015873D01*
X016778Y015815D02*
X014737Y015815D01*
X014737Y015756D02*
X016837Y015756D01*
X016949Y015698D02*
X014997Y015698D01*
X015056Y015639D02*
X016949Y015639D01*
X016949Y015581D02*
X015083Y015581D01*
X015083Y015522D02*
X016951Y015522D01*
X016949Y015464D02*
X015083Y015464D01*
X015060Y015405D02*
X016949Y015405D01*
X016949Y015347D02*
X015001Y015347D01*
X014959Y015230D02*
X016949Y015230D01*
X016949Y015288D02*
X014872Y015288D01*
X014993Y015171D02*
X016949Y015171D01*
X016949Y015113D02*
X014993Y015113D01*
X014993Y015054D02*
X016949Y015054D01*
X016949Y014996D02*
X014993Y014996D01*
X014993Y014937D02*
X016949Y014937D01*
X016945Y014879D02*
X016965Y014879D01*
X016986Y014820D02*
X017569Y014820D01*
X017569Y014762D02*
X016986Y014762D01*
X016986Y014703D02*
X017569Y014703D01*
X017569Y014645D02*
X016986Y014645D01*
X016986Y014586D02*
X017569Y014586D01*
X017569Y014528D02*
X016986Y014528D01*
X016986Y014469D02*
X017643Y014469D01*
X017643Y014411D02*
X016971Y014411D01*
X016452Y014235D02*
X017643Y014235D01*
X017643Y014177D02*
X016465Y014177D01*
X016465Y014118D02*
X017632Y014118D01*
X017573Y014060D02*
X016465Y014060D01*
X016465Y014001D02*
X017515Y014001D01*
X017456Y013943D02*
X016465Y013943D01*
X016403Y014294D02*
X017643Y014294D01*
X017643Y014352D02*
X016403Y014352D01*
X015487Y014352D02*
X014993Y014352D01*
X014993Y014294D02*
X015487Y014294D01*
X015487Y014235D02*
X014993Y014235D01*
X014993Y014177D02*
X015487Y014177D01*
X015487Y014118D02*
X014993Y014118D01*
X014993Y014060D02*
X015487Y014060D01*
X015487Y014001D02*
X014970Y014001D01*
X015548Y013826D02*
X000658Y013826D01*
X000658Y013767D02*
X015607Y013767D01*
X015528Y014879D02*
X015529Y014879D01*
X015685Y014879D02*
X015687Y014879D01*
X015843Y014879D02*
X015844Y014879D01*
X016000Y014879D02*
X016002Y014879D01*
X016158Y014879D02*
X016159Y014879D01*
X016315Y014879D02*
X016317Y014879D01*
X016473Y014879D02*
X016474Y014879D01*
X016630Y014879D02*
X016632Y014879D01*
X016788Y014879D02*
X016789Y014879D01*
X017454Y015113D02*
X017575Y015113D01*
X017569Y015405D02*
X017454Y015405D01*
X017454Y015464D02*
X017611Y015464D01*
X017452Y015522D02*
X020713Y015522D01*
X020933Y015698D02*
X022098Y015698D01*
X022039Y015756D02*
X020933Y015756D01*
X020933Y015815D02*
X022000Y015815D01*
X021975Y015873D02*
X020933Y015873D01*
X020933Y015932D02*
X021957Y015932D01*
X021957Y015990D02*
X020933Y015990D01*
X020933Y016049D02*
X021957Y016049D01*
X021975Y016107D02*
X020933Y016107D01*
X020933Y016166D02*
X022000Y016166D01*
X022039Y016224D02*
X020933Y016224D01*
X020933Y016283D02*
X022098Y016283D01*
X022214Y016341D02*
X020933Y016341D01*
X020530Y017628D02*
X016820Y017628D01*
X016855Y017687D02*
X020471Y017687D01*
X017812Y016985D02*
X017473Y016985D01*
X017454Y016926D02*
X017805Y016926D01*
X017805Y016868D02*
X017454Y016868D01*
X017347Y017014D02*
X017202Y017014D01*
X017347Y017014D02*
X017583Y017250D01*
X017396Y017219D02*
X016986Y017219D01*
X016986Y017160D02*
X017338Y017160D01*
X016965Y017102D02*
X016945Y017102D01*
X016949Y017043D02*
X016411Y017043D01*
X016469Y016985D02*
X016949Y016985D01*
X016789Y017102D02*
X016788Y017102D01*
X016632Y017102D02*
X016630Y017102D01*
X016474Y017102D02*
X016473Y017102D01*
X016317Y017102D02*
X016315Y017102D01*
X016236Y017043D02*
X015511Y017043D01*
X015569Y016985D02*
X016177Y016985D01*
X016153Y016926D02*
X015593Y016926D01*
X015593Y016868D02*
X016153Y016868D01*
X016164Y016809D02*
X015583Y016809D01*
X015524Y016751D02*
X016222Y016751D01*
X016357Y016856D02*
X016323Y016890D01*
X016357Y016856D02*
X017202Y016856D01*
X016949Y016692D02*
X015022Y016692D01*
X015053Y016634D02*
X016949Y016634D01*
X016949Y016575D02*
X015053Y016575D01*
X015050Y016517D02*
X016949Y016517D01*
X016960Y016458D02*
X014992Y016458D01*
X014963Y016751D02*
X015322Y016751D01*
X015264Y016809D02*
X014737Y016809D01*
X014737Y016751D02*
X014803Y016751D01*
X014745Y016692D02*
X014737Y016692D01*
X014737Y016868D02*
X015253Y016868D01*
X015232Y016926D02*
X014737Y016926D01*
X014737Y016985D02*
X015182Y016985D01*
X015182Y017043D02*
X014737Y017043D01*
X014742Y017102D02*
X014722Y017102D01*
X015055Y017102D02*
X015057Y017102D01*
X015292Y017021D02*
X015423Y016890D01*
X015292Y017021D02*
X015292Y017348D01*
X015450Y017348D02*
X015450Y017644D01*
X015423Y017670D01*
X015253Y017687D02*
X015245Y017687D01*
X015245Y017745D02*
X015258Y017745D01*
X015245Y017804D02*
X015316Y017804D01*
X015253Y017628D02*
X015245Y017628D01*
X016368Y017921D02*
X016418Y017921D01*
X016368Y017979D02*
X016477Y017979D01*
X016535Y018038D02*
X016331Y018038D01*
X016000Y017102D02*
X016002Y017102D01*
X015687Y017102D02*
X015685Y017102D01*
X013751Y016868D02*
X013611Y016868D01*
X013552Y016809D02*
X013693Y016809D01*
X013634Y016751D02*
X013494Y016751D01*
X013468Y016692D02*
X013576Y016692D01*
X013517Y016634D02*
X013468Y016634D01*
X013459Y016575D02*
X013410Y016575D01*
X013564Y016341D02*
X013613Y016341D01*
X013613Y016283D02*
X013506Y016283D01*
X013468Y016224D02*
X013613Y016224D01*
X013579Y016166D02*
X013468Y016166D01*
X013987Y015873D02*
X014013Y015873D01*
X015055Y014879D02*
X015057Y014879D01*
X015213Y014879D02*
X015214Y014879D01*
X015370Y014879D02*
X015372Y014879D01*
X017454Y015581D02*
X017462Y015581D01*
X017454Y015932D02*
X017599Y015932D01*
X018948Y014879D02*
X019099Y014879D01*
X019081Y014820D02*
X018966Y014820D01*
X018966Y014762D02*
X019081Y014762D01*
X019081Y014703D02*
X018966Y014703D01*
X018966Y014645D02*
X019081Y014645D01*
X019081Y014586D02*
X018966Y014586D01*
X018966Y014528D02*
X019081Y014528D01*
X019092Y014469D02*
X018955Y014469D01*
X010386Y016634D02*
X010238Y016634D01*
X010333Y016575D02*
X006700Y016575D01*
X006673Y016634D02*
X009628Y016634D01*
X009603Y016692D02*
X006614Y016692D01*
X006498Y016868D02*
X009603Y016868D01*
X009603Y016926D02*
X006498Y016926D01*
X006494Y016985D02*
X009613Y016985D01*
X010282Y016458D02*
X006891Y016458D01*
X006891Y016400D02*
X010233Y016400D01*
X010233Y016341D02*
X006891Y016341D01*
X006891Y016283D02*
X010233Y016283D01*
X010233Y016224D02*
X006891Y016224D01*
X006880Y016517D02*
X010333Y016517D01*
X009843Y017804D02*
X001346Y017804D01*
X001346Y017862D02*
X009843Y017862D01*
X009843Y017921D02*
X001346Y017921D01*
X001346Y017979D02*
X009863Y017979D01*
X009921Y018038D02*
X001346Y018038D01*
X001346Y018096D02*
X009980Y018096D01*
X010038Y018155D02*
X001346Y018155D01*
X001346Y018213D02*
X010097Y018213D01*
X004214Y015639D02*
X004143Y015639D01*
D26*
X005883Y015990D03*
X006963Y015510D03*
X007323Y015510D03*
X008233Y015150D03*
X007313Y016430D03*
X006153Y017260D03*
X005823Y017780D03*
X004323Y017490D03*
X004323Y017010D03*
X002583Y017550D03*
X002173Y015280D03*
X001793Y015280D03*
X009323Y016830D03*
X011283Y017070D03*
X012493Y017250D03*
X012473Y015780D03*
X011623Y015770D03*
X015513Y015470D03*
X016363Y015470D03*
X016373Y016510D03*
X015533Y016510D03*
X018223Y016360D03*
X020173Y016780D03*
X023163Y014750D03*
D27*
X005883Y015990D02*
X005552Y015990D01*
D28*
X001512Y017959D03*
X000922Y014022D03*
X010563Y015750D03*
X011083Y016090D03*
X010503Y016510D03*
X010623Y017840D03*
X013323Y017630D03*
X014453Y017350D03*
X015123Y017970D03*
X014883Y018150D03*
X015423Y017670D03*
X015733Y018080D03*
X016213Y017660D03*
X016323Y016890D03*
X015423Y016890D03*
X014883Y016590D03*
X014803Y016070D03*
X014183Y015910D03*
X013883Y016010D03*
X014103Y016350D03*
X014863Y015520D03*
X014193Y015270D03*
X014093Y015510D03*
X014433Y014820D03*
X014433Y014400D03*
X013333Y014610D03*
X016233Y014340D03*
X016943Y014080D03*
X019323Y014420D03*
X018453Y015340D03*
X018443Y015650D03*
X017533Y015750D03*
X016923Y015910D03*
X017563Y016750D03*
X018543Y017250D03*
X020823Y018090D03*
X021783Y017910D03*
X022803Y017730D03*
X025134Y017959D03*
X020823Y015330D03*
X024544Y014022D03*
X025134Y014612D03*
D29*
X019863Y016354D02*
X019854Y016344D01*
X019288Y016344D01*
X019200Y016256D01*
X019200Y015870D01*
X018727Y015870D02*
X018528Y016069D01*
X017202Y016069D01*
X017202Y016226D02*
X017403Y016226D01*
X018003Y016826D01*
X018629Y016826D01*
X018639Y016836D01*
X017767Y015750D02*
X017533Y015750D01*
X017205Y015750D01*
X017202Y015754D01*
X017202Y015910D02*
X016923Y015910D01*
X017202Y015911D02*
X017202Y015910D01*
X017202Y015281D02*
X017756Y015281D01*
X017767Y015270D01*
X018240Y015270D02*
X018383Y015270D01*
X018453Y015340D01*
X018240Y014670D02*
X018728Y014670D01*
X019319Y014670D02*
X019319Y014420D01*
X019323Y014420D01*
X017767Y014670D02*
X017763Y014666D01*
X017763Y014080D01*
X017493Y013810D01*
X015733Y013810D01*
X015607Y013936D01*
X015607Y014632D01*
X016237Y014632D02*
X016237Y014344D01*
X016233Y014340D01*
X016233Y014104D01*
X016267Y014070D01*
X014485Y014967D02*
X014373Y014967D01*
X014485Y015281D02*
X014173Y015281D01*
X014193Y015270D01*
X014160Y015266D01*
X013863Y015266D01*
X014093Y015510D02*
X014180Y015596D01*
X014485Y015596D01*
X014485Y015439D02*
X014782Y015439D01*
X014863Y015520D01*
X014485Y015754D02*
X014485Y015911D01*
X014183Y015911D01*
X014183Y015910D01*
X014173Y016130D02*
X014003Y016130D01*
X013883Y016010D01*
X013733Y016150D02*
X013383Y015800D01*
X013183Y015740D01*
X013733Y016150D02*
X013733Y016360D01*
X014072Y016699D01*
X014485Y016699D01*
X014485Y016856D02*
X013910Y016856D01*
X013293Y016240D01*
X013183Y016240D01*
X013183Y016740D02*
X013313Y016740D01*
X013587Y017014D01*
X013587Y017050D01*
X013323Y017314D01*
X013587Y017014D02*
X013773Y017014D01*
X013773Y017284D01*
X013803Y017314D01*
X013773Y017014D02*
X014485Y017014D01*
X014455Y017348D02*
X014820Y017348D01*
X014820Y017354D01*
X013803Y017786D02*
X013440Y018150D01*
X010203Y018150D01*
X009963Y017910D01*
X009963Y016847D01*
X009933Y016817D01*
X010353Y016360D02*
X010503Y016510D01*
X010353Y016360D02*
X010353Y015460D01*
X010573Y015240D01*
X010943Y015240D01*
X010943Y015740D02*
X010933Y015750D01*
X010943Y016740D02*
X010953Y016740D01*
X013323Y017630D02*
X013323Y017786D01*
X014485Y016541D02*
X014835Y016541D01*
X014883Y016590D01*
X014485Y016384D02*
X014137Y016384D01*
X014103Y016350D01*
X014270Y016226D02*
X014173Y016130D01*
X014270Y016226D02*
X014485Y016226D01*
X014485Y016069D02*
X014802Y016069D01*
X014803Y016070D01*
X016237Y017348D02*
X016237Y017626D01*
X016213Y017660D01*
X016200Y017630D01*
X016170Y017850D01*
D30*
X011283Y017070D02*
X010923Y017314D01*
X011283Y017070D02*
X010953Y016740D01*
D31*
X014453Y017350D02*
X014455Y017348D01*
X006575Y016555D02*
X006575Y016364D01*
X006575Y016555D02*
X006300Y016830D01*
D32*
X010563Y015750D02*
X010933Y015750D01*
X011083Y016090D02*
X011083Y016100D01*
X010943Y016240D01*
M02*
