G75*
%MOIN*%
%OFA0B0*%
%FSLAX24Y24*%
%IPPOS*%
%LPD*%
%AMOC8*
5,1,8,0,0,1.08239X$1,22.5*
%
%ADD10R,0.0394X0.0433*%
%ADD11C,0.0397*%
%ADD12C,0.0397*%
%ADD13C,0.0394*%
%ADD14R,0.0236X0.0236*%
%ADD15C,0.0252*%
%ADD16C,0.0035*%
%ADD17R,0.0472X0.0217*%
%ADD18C,0.0060*%
%ADD19C,0.0220*%
%ADD20C,0.0180*%
%ADD21C,0.0120*%
%ADD22C,0.0180*%
%ADD23C,0.0200*%
%ADD24C,0.0080*%
%ADD25C,0.0090*%
D10*
X002013Y016836D03*
X002013Y017505D03*
D11*
X001108Y017289D02*
X000712Y017289D01*
X000712Y014691D02*
X001108Y014691D01*
D12*
X001107Y014691D03*
X000713Y014691D03*
X000713Y017289D03*
X001107Y017289D03*
D13*
X000922Y017959D03*
X025331Y014022D03*
D14*
X006003Y017254D03*
X006003Y017726D03*
X004923Y017366D03*
X004923Y016894D03*
X002523Y016954D03*
X002523Y017426D03*
D15*
X006807Y016434D02*
X006807Y015426D01*
X005799Y015426D01*
X005799Y016434D01*
X006807Y016434D01*
X006807Y015677D02*
X005799Y015677D01*
X005799Y015928D02*
X006807Y015928D01*
X006807Y016179D02*
X005799Y016179D01*
X005799Y016430D02*
X006807Y016430D01*
D16*
X007108Y016464D02*
X007310Y016464D01*
X007310Y016380D01*
X007108Y016380D01*
X007108Y016464D01*
X007108Y016414D02*
X007310Y016414D01*
X007310Y016448D02*
X007108Y016448D01*
X007108Y016661D02*
X007310Y016661D01*
X007310Y016577D01*
X007108Y016577D01*
X007108Y016661D01*
X007108Y016611D02*
X007310Y016611D01*
X007310Y016645D02*
X007108Y016645D01*
X006950Y016735D02*
X006950Y016937D01*
X007034Y016937D01*
X007034Y016735D01*
X006950Y016735D01*
X006950Y016769D02*
X007034Y016769D01*
X007034Y016803D02*
X006950Y016803D01*
X006950Y016837D02*
X007034Y016837D01*
X007034Y016871D02*
X006950Y016871D01*
X006950Y016905D02*
X007034Y016905D01*
X006754Y016937D02*
X006754Y016735D01*
X006754Y016937D02*
X006838Y016937D01*
X006838Y016735D01*
X006754Y016735D01*
X006754Y016769D02*
X006838Y016769D01*
X006838Y016803D02*
X006754Y016803D01*
X006754Y016837D02*
X006838Y016837D01*
X006838Y016871D02*
X006754Y016871D01*
X006754Y016905D02*
X006838Y016905D01*
X006557Y016937D02*
X006557Y016735D01*
X006557Y016937D02*
X006641Y016937D01*
X006641Y016735D01*
X006557Y016735D01*
X006557Y016769D02*
X006641Y016769D01*
X006641Y016803D02*
X006557Y016803D01*
X006557Y016837D02*
X006641Y016837D01*
X006641Y016871D02*
X006557Y016871D01*
X006557Y016905D02*
X006641Y016905D01*
X006360Y016937D02*
X006360Y016735D01*
X006360Y016937D02*
X006444Y016937D01*
X006444Y016735D01*
X006360Y016735D01*
X006360Y016769D02*
X006444Y016769D01*
X006444Y016803D02*
X006360Y016803D01*
X006360Y016837D02*
X006444Y016837D01*
X006444Y016871D02*
X006360Y016871D01*
X006360Y016905D02*
X006444Y016905D01*
X006163Y016937D02*
X006163Y016735D01*
X006163Y016937D02*
X006247Y016937D01*
X006247Y016735D01*
X006163Y016735D01*
X006163Y016769D02*
X006247Y016769D01*
X006247Y016803D02*
X006163Y016803D01*
X006163Y016837D02*
X006247Y016837D01*
X006247Y016871D02*
X006163Y016871D01*
X006163Y016905D02*
X006247Y016905D01*
X005966Y016937D02*
X005966Y016735D01*
X005966Y016937D02*
X006050Y016937D01*
X006050Y016735D01*
X005966Y016735D01*
X005966Y016769D02*
X006050Y016769D01*
X006050Y016803D02*
X005966Y016803D01*
X005966Y016837D02*
X006050Y016837D01*
X006050Y016871D02*
X005966Y016871D01*
X005966Y016905D02*
X006050Y016905D01*
X005769Y016937D02*
X005769Y016735D01*
X005769Y016937D02*
X005853Y016937D01*
X005853Y016735D01*
X005769Y016735D01*
X005769Y016769D02*
X005853Y016769D01*
X005853Y016803D02*
X005769Y016803D01*
X005769Y016837D02*
X005853Y016837D01*
X005853Y016871D02*
X005769Y016871D01*
X005769Y016905D02*
X005853Y016905D01*
X005572Y016937D02*
X005572Y016735D01*
X005572Y016937D02*
X005656Y016937D01*
X005656Y016735D01*
X005572Y016735D01*
X005572Y016769D02*
X005656Y016769D01*
X005656Y016803D02*
X005572Y016803D01*
X005572Y016837D02*
X005656Y016837D01*
X005656Y016871D02*
X005572Y016871D01*
X005572Y016905D02*
X005656Y016905D01*
X005499Y016577D02*
X005297Y016577D01*
X005297Y016661D01*
X005499Y016661D01*
X005499Y016577D01*
X005499Y016611D02*
X005297Y016611D01*
X005297Y016645D02*
X005499Y016645D01*
X005499Y016380D02*
X005297Y016380D01*
X005297Y016464D01*
X005499Y016464D01*
X005499Y016380D01*
X005499Y016414D02*
X005297Y016414D01*
X005297Y016448D02*
X005499Y016448D01*
X005499Y016183D02*
X005297Y016183D01*
X005297Y016267D01*
X005499Y016267D01*
X005499Y016183D01*
X005499Y016217D02*
X005297Y016217D01*
X005297Y016251D02*
X005499Y016251D01*
X005499Y015987D02*
X005297Y015987D01*
X005297Y016071D01*
X005499Y016071D01*
X005499Y015987D01*
X005499Y016021D02*
X005297Y016021D01*
X005297Y016055D02*
X005499Y016055D01*
X005499Y015790D02*
X005297Y015790D01*
X005297Y015874D01*
X005499Y015874D01*
X005499Y015790D01*
X005499Y015824D02*
X005297Y015824D01*
X005297Y015858D02*
X005499Y015858D01*
X005499Y015593D02*
X005297Y015593D01*
X005297Y015677D01*
X005499Y015677D01*
X005499Y015593D01*
X005499Y015627D02*
X005297Y015627D01*
X005297Y015661D02*
X005499Y015661D01*
X005499Y015396D02*
X005297Y015396D01*
X005297Y015480D01*
X005499Y015480D01*
X005499Y015396D01*
X005499Y015430D02*
X005297Y015430D01*
X005297Y015464D02*
X005499Y015464D01*
X005499Y015199D02*
X005297Y015199D01*
X005297Y015283D01*
X005499Y015283D01*
X005499Y015199D01*
X005499Y015233D02*
X005297Y015233D01*
X005297Y015267D02*
X005499Y015267D01*
X005656Y015126D02*
X005656Y014924D01*
X005572Y014924D01*
X005572Y015126D01*
X005656Y015126D01*
X005656Y014958D02*
X005572Y014958D01*
X005572Y014992D02*
X005656Y014992D01*
X005656Y015026D02*
X005572Y015026D01*
X005572Y015060D02*
X005656Y015060D01*
X005656Y015094D02*
X005572Y015094D01*
X005853Y015126D02*
X005853Y014924D01*
X005769Y014924D01*
X005769Y015126D01*
X005853Y015126D01*
X005853Y014958D02*
X005769Y014958D01*
X005769Y014992D02*
X005853Y014992D01*
X005853Y015026D02*
X005769Y015026D01*
X005769Y015060D02*
X005853Y015060D01*
X005853Y015094D02*
X005769Y015094D01*
X006050Y015126D02*
X006050Y014924D01*
X005966Y014924D01*
X005966Y015126D01*
X006050Y015126D01*
X006050Y014958D02*
X005966Y014958D01*
X005966Y014992D02*
X006050Y014992D01*
X006050Y015026D02*
X005966Y015026D01*
X005966Y015060D02*
X006050Y015060D01*
X006050Y015094D02*
X005966Y015094D01*
X006247Y015126D02*
X006247Y014924D01*
X006163Y014924D01*
X006163Y015126D01*
X006247Y015126D01*
X006247Y014958D02*
X006163Y014958D01*
X006163Y014992D02*
X006247Y014992D01*
X006247Y015026D02*
X006163Y015026D01*
X006163Y015060D02*
X006247Y015060D01*
X006247Y015094D02*
X006163Y015094D01*
X006444Y015126D02*
X006444Y014924D01*
X006360Y014924D01*
X006360Y015126D01*
X006444Y015126D01*
X006444Y014958D02*
X006360Y014958D01*
X006360Y014992D02*
X006444Y014992D01*
X006444Y015026D02*
X006360Y015026D01*
X006360Y015060D02*
X006444Y015060D01*
X006444Y015094D02*
X006360Y015094D01*
X006641Y015126D02*
X006641Y014924D01*
X006557Y014924D01*
X006557Y015126D01*
X006641Y015126D01*
X006641Y014958D02*
X006557Y014958D01*
X006557Y014992D02*
X006641Y014992D01*
X006641Y015026D02*
X006557Y015026D01*
X006557Y015060D02*
X006641Y015060D01*
X006641Y015094D02*
X006557Y015094D01*
X006838Y015126D02*
X006838Y014924D01*
X006754Y014924D01*
X006754Y015126D01*
X006838Y015126D01*
X006838Y014958D02*
X006754Y014958D01*
X006754Y014992D02*
X006838Y014992D01*
X006838Y015026D02*
X006754Y015026D01*
X006754Y015060D02*
X006838Y015060D01*
X006838Y015094D02*
X006754Y015094D01*
X007034Y015126D02*
X007034Y014924D01*
X006950Y014924D01*
X006950Y015126D01*
X007034Y015126D01*
X007034Y014958D02*
X006950Y014958D01*
X006950Y014992D02*
X007034Y014992D01*
X007034Y015026D02*
X006950Y015026D01*
X006950Y015060D02*
X007034Y015060D01*
X007034Y015094D02*
X006950Y015094D01*
X007108Y015283D02*
X007310Y015283D01*
X007310Y015199D01*
X007108Y015199D01*
X007108Y015283D01*
X007108Y015233D02*
X007310Y015233D01*
X007310Y015267D02*
X007108Y015267D01*
X007108Y015480D02*
X007310Y015480D01*
X007310Y015396D01*
X007108Y015396D01*
X007108Y015480D01*
X007108Y015430D02*
X007310Y015430D01*
X007310Y015464D02*
X007108Y015464D01*
X007108Y015677D02*
X007310Y015677D01*
X007310Y015593D01*
X007108Y015593D01*
X007108Y015677D01*
X007108Y015627D02*
X007310Y015627D01*
X007310Y015661D02*
X007108Y015661D01*
X007108Y015874D02*
X007310Y015874D01*
X007310Y015790D01*
X007108Y015790D01*
X007108Y015874D01*
X007108Y015824D02*
X007310Y015824D01*
X007310Y015858D02*
X007108Y015858D01*
X007108Y016071D02*
X007310Y016071D01*
X007310Y015987D01*
X007108Y015987D01*
X007108Y016071D01*
X007108Y016021D02*
X007310Y016021D01*
X007310Y016055D02*
X007108Y016055D01*
X007108Y016267D02*
X007310Y016267D01*
X007310Y016183D01*
X007108Y016183D01*
X007108Y016267D01*
X007108Y016217D02*
X007310Y016217D01*
X007310Y016251D02*
X007108Y016251D01*
D17*
X004235Y016816D03*
X004235Y017190D03*
X004235Y017564D03*
X003212Y017564D03*
X003212Y016816D03*
D18*
X000658Y014413D02*
X000658Y013758D01*
X024908Y013758D01*
X024908Y014428D01*
X024925Y014445D01*
X025595Y014445D01*
X025595Y018222D01*
X004866Y018222D01*
X004923Y018165D01*
X005654Y017434D01*
X005834Y017434D01*
X005852Y017452D01*
X006155Y017452D01*
X006201Y017405D01*
X006201Y017103D01*
X006155Y017056D01*
X006143Y017056D01*
X006143Y016980D01*
X006147Y016977D01*
X006147Y016695D01*
X006090Y016638D01*
X005926Y016638D01*
X005910Y016654D01*
X005893Y016638D01*
X005729Y016638D01*
X005672Y016695D01*
X005672Y016977D01*
X005729Y017034D01*
X005863Y017034D01*
X005863Y017056D01*
X005852Y017056D01*
X005834Y017074D01*
X005505Y017074D01*
X004793Y017786D01*
X004793Y017445D01*
X004729Y017380D01*
X004509Y017380D01*
X004505Y017376D01*
X003966Y017376D01*
X003962Y017380D01*
X003798Y017380D01*
X003733Y017445D01*
X003733Y017910D01*
X003558Y017910D01*
X003543Y017896D01*
X003543Y017656D01*
X003533Y017646D01*
X003533Y017265D01*
X003469Y017200D01*
X001818Y017200D01*
X001810Y017208D01*
X001783Y017208D01*
X001737Y017255D01*
X001737Y017754D01*
X001753Y017771D01*
X001753Y017896D01*
X001818Y017960D01*
X003183Y017960D01*
X003183Y018045D01*
X003289Y018150D01*
X003361Y018222D01*
X001346Y018222D01*
X001346Y017553D01*
X001328Y017535D01*
X001243Y017535D01*
X001266Y017525D01*
X001344Y017447D01*
X001387Y017345D01*
X001387Y017234D01*
X001344Y017132D01*
X001266Y017053D01*
X001164Y017011D01*
X000658Y017011D01*
X000658Y014969D01*
X001164Y014969D01*
X001266Y014927D01*
X001344Y014849D01*
X001387Y014746D01*
X001387Y014636D01*
X001344Y014533D01*
X001266Y014455D01*
X001164Y014413D01*
X000658Y014413D01*
X000658Y014411D02*
X024908Y014411D01*
X024908Y014352D02*
X000658Y014352D01*
X000658Y014294D02*
X024908Y014294D01*
X024908Y014235D02*
X000658Y014235D01*
X000658Y014177D02*
X024908Y014177D01*
X024908Y014118D02*
X000658Y014118D01*
X000658Y014060D02*
X024908Y014060D01*
X024908Y014001D02*
X000658Y014001D01*
X000658Y013943D02*
X024908Y013943D01*
X024908Y013884D02*
X000658Y013884D01*
X000658Y013826D02*
X024908Y013826D01*
X024908Y013767D02*
X000658Y013767D01*
X001280Y014469D02*
X006889Y014469D01*
X006918Y014440D02*
X006686Y014672D01*
X006686Y014832D01*
X006680Y014827D01*
X006517Y014827D01*
X006460Y014884D01*
X006460Y015166D01*
X006517Y015223D01*
X006680Y015223D01*
X006697Y015206D01*
X006714Y015223D01*
X006877Y015223D01*
X006894Y015206D01*
X006911Y015223D01*
X007011Y015223D01*
X007011Y015323D01*
X007027Y015340D01*
X007011Y015356D01*
X007011Y015520D01*
X007027Y015536D01*
X007011Y015553D01*
X007011Y015717D01*
X007027Y015733D01*
X007011Y015750D01*
X007011Y015914D01*
X007027Y015930D01*
X007011Y015947D01*
X007011Y016110D01*
X007027Y016127D01*
X007011Y016144D01*
X007011Y016307D01*
X007068Y016364D01*
X007350Y016364D01*
X007407Y016307D01*
X007407Y016144D01*
X007390Y016127D01*
X007407Y016110D01*
X007407Y015947D01*
X007390Y015930D01*
X007407Y015914D01*
X007407Y015750D01*
X007402Y015745D01*
X007403Y015745D01*
X007453Y015796D01*
X007453Y016845D01*
X007218Y017080D01*
X007133Y017080D01*
X007033Y017180D01*
X007033Y017321D01*
X007133Y017420D01*
X007274Y017420D01*
X007373Y017321D01*
X007373Y017236D01*
X007673Y016936D01*
X007673Y016821D01*
X007733Y016880D01*
X007874Y016880D01*
X007973Y016781D01*
X007973Y016696D01*
X008153Y016516D01*
X008153Y014865D01*
X008089Y014800D01*
X007729Y014440D01*
X007638Y014440D01*
X007009Y014440D01*
X006918Y014440D01*
X006963Y014550D02*
X006796Y014718D01*
X006796Y015025D01*
X006686Y014820D02*
X001356Y014820D01*
X001381Y014762D02*
X006686Y014762D01*
X006686Y014703D02*
X001387Y014703D01*
X001387Y014645D02*
X006713Y014645D01*
X006772Y014586D02*
X001366Y014586D01*
X001339Y014528D02*
X006830Y014528D01*
X006963Y014550D02*
X007683Y014550D01*
X008043Y014910D01*
X008043Y016470D01*
X007803Y016710D01*
X007945Y016809D02*
X025595Y016809D01*
X025595Y016751D02*
X007973Y016751D01*
X007977Y016692D02*
X025595Y016692D01*
X025595Y016634D02*
X024916Y016634D01*
X024872Y016652D02*
X024609Y016652D01*
X024366Y016551D01*
X024180Y016365D01*
X024079Y016122D01*
X024079Y015859D01*
X024180Y015615D01*
X024366Y015429D01*
X024609Y015329D01*
X024872Y015329D01*
X025115Y015429D01*
X025301Y015615D01*
X025402Y015859D01*
X025402Y016122D01*
X025301Y016365D01*
X025115Y016551D01*
X024872Y016652D01*
X025057Y016575D02*
X025595Y016575D01*
X025595Y016517D02*
X025150Y016517D01*
X025208Y016458D02*
X025595Y016458D01*
X025595Y016400D02*
X025267Y016400D01*
X025311Y016341D02*
X025595Y016341D01*
X025595Y016283D02*
X025336Y016283D01*
X025360Y016224D02*
X025595Y016224D01*
X025595Y016166D02*
X025384Y016166D01*
X025402Y016107D02*
X025595Y016107D01*
X025595Y016049D02*
X025402Y016049D01*
X025402Y015990D02*
X025595Y015990D01*
X025595Y015932D02*
X025402Y015932D01*
X025402Y015873D02*
X025595Y015873D01*
X025595Y015815D02*
X025384Y015815D01*
X025360Y015756D02*
X025595Y015756D01*
X025595Y015698D02*
X025336Y015698D01*
X025311Y015639D02*
X025595Y015639D01*
X025595Y015581D02*
X025267Y015581D01*
X025208Y015522D02*
X025595Y015522D01*
X025595Y015464D02*
X025150Y015464D01*
X025057Y015405D02*
X025595Y015405D01*
X025595Y015347D02*
X024916Y015347D01*
X024566Y015347D02*
X008153Y015347D01*
X008153Y015405D02*
X024424Y015405D01*
X024332Y015464D02*
X008153Y015464D01*
X008153Y015522D02*
X024273Y015522D01*
X024215Y015581D02*
X008153Y015581D01*
X008153Y015639D02*
X022214Y015639D01*
X022251Y015624D02*
X022116Y015680D01*
X022013Y015783D01*
X021957Y015917D01*
X021957Y016063D01*
X022013Y016198D01*
X022116Y016301D01*
X022251Y016356D01*
X022396Y016356D01*
X022531Y016301D01*
X022634Y016198D01*
X022690Y016063D01*
X022690Y015917D01*
X022634Y015783D01*
X022531Y015680D01*
X022396Y015624D01*
X022251Y015624D01*
X022098Y015698D02*
X008153Y015698D01*
X008153Y015756D02*
X022039Y015756D01*
X022000Y015815D02*
X008153Y015815D01*
X008153Y015873D02*
X021975Y015873D01*
X021957Y015932D02*
X008153Y015932D01*
X008153Y015990D02*
X021957Y015990D01*
X021957Y016049D02*
X008153Y016049D01*
X008153Y016107D02*
X021975Y016107D01*
X022000Y016166D02*
X008153Y016166D01*
X008153Y016224D02*
X022039Y016224D01*
X022098Y016283D02*
X008153Y016283D01*
X008153Y016341D02*
X022214Y016341D01*
X022433Y016341D02*
X024170Y016341D01*
X024146Y016283D02*
X022549Y016283D01*
X022607Y016224D02*
X024122Y016224D01*
X024097Y016166D02*
X022647Y016166D01*
X022671Y016107D02*
X024079Y016107D01*
X024079Y016049D02*
X022690Y016049D01*
X022690Y015990D02*
X024079Y015990D01*
X024079Y015932D02*
X022690Y015932D01*
X022671Y015873D02*
X024079Y015873D01*
X024097Y015815D02*
X022647Y015815D01*
X022607Y015756D02*
X024122Y015756D01*
X024146Y015698D02*
X022549Y015698D01*
X022433Y015639D02*
X024170Y015639D01*
X024215Y016400D02*
X008153Y016400D01*
X008153Y016458D02*
X024273Y016458D01*
X024332Y016517D02*
X008152Y016517D01*
X008094Y016575D02*
X024424Y016575D01*
X024566Y016634D02*
X008035Y016634D01*
X007886Y016868D02*
X025595Y016868D01*
X025595Y016926D02*
X007673Y016926D01*
X007673Y016868D02*
X007720Y016868D01*
X007624Y016985D02*
X025595Y016985D01*
X025595Y017043D02*
X007566Y017043D01*
X007507Y017102D02*
X022411Y017102D01*
X022433Y017080D02*
X022574Y017080D01*
X022673Y017180D01*
X022673Y017321D01*
X022574Y017420D01*
X022433Y017420D01*
X022383Y017370D01*
X022073Y017370D01*
X021763Y017680D01*
X021854Y017680D01*
X021953Y017780D01*
X021953Y017921D01*
X025595Y017921D01*
X025595Y017979D02*
X021895Y017979D01*
X021854Y018020D02*
X021713Y018020D01*
X021663Y017970D01*
X006854Y017970D01*
X006783Y017900D01*
X006282Y017398D01*
X006282Y016996D01*
X006263Y016977D01*
X006263Y016695D01*
X006320Y016638D01*
X006484Y016638D01*
X006500Y016654D01*
X006517Y016638D01*
X006680Y016638D01*
X006697Y016654D01*
X006714Y016638D01*
X006877Y016638D01*
X006935Y016695D01*
X006935Y016977D01*
X006877Y017034D01*
X006719Y017034D01*
X006719Y017256D01*
X007013Y017550D01*
X021554Y017550D01*
X021903Y017200D01*
X021974Y017130D01*
X022383Y017130D01*
X022433Y017080D01*
X022595Y017102D02*
X025595Y017102D01*
X025595Y017160D02*
X022654Y017160D01*
X022673Y017219D02*
X025595Y017219D01*
X025595Y017277D02*
X022673Y017277D01*
X022658Y017336D02*
X025595Y017336D01*
X025595Y017394D02*
X022600Y017394D01*
X022407Y017394D02*
X022049Y017394D01*
X021991Y017453D02*
X025595Y017453D01*
X025595Y017511D02*
X021932Y017511D01*
X021874Y017570D02*
X025595Y017570D01*
X025595Y017628D02*
X021815Y017628D01*
X021860Y017687D02*
X025595Y017687D01*
X025595Y017745D02*
X021919Y017745D01*
X021953Y017804D02*
X025595Y017804D01*
X025595Y017862D02*
X021953Y017862D01*
X021953Y017921D02*
X021854Y018020D01*
X021672Y017979D02*
X005109Y017979D01*
X005167Y017921D02*
X006804Y017921D01*
X006746Y017862D02*
X005226Y017862D01*
X005284Y017804D02*
X006687Y017804D01*
X006629Y017745D02*
X005343Y017745D01*
X005401Y017687D02*
X006570Y017687D01*
X006512Y017628D02*
X005460Y017628D01*
X005518Y017570D02*
X006453Y017570D01*
X006395Y017511D02*
X005577Y017511D01*
X005635Y017453D02*
X006336Y017453D01*
X006282Y017394D02*
X006201Y017394D01*
X006201Y017336D02*
X006282Y017336D01*
X006282Y017277D02*
X006201Y017277D01*
X006201Y017219D02*
X006282Y017219D01*
X006282Y017160D02*
X006201Y017160D01*
X006200Y017102D02*
X006282Y017102D01*
X006282Y017043D02*
X006143Y017043D01*
X006143Y016985D02*
X006271Y016985D01*
X006263Y016926D02*
X006147Y016926D01*
X006147Y016868D02*
X006263Y016868D01*
X006263Y016809D02*
X006147Y016809D01*
X006147Y016751D02*
X006263Y016751D01*
X006265Y016692D02*
X006145Y016692D01*
X006008Y016836D02*
X006003Y016840D01*
X005863Y017043D02*
X005371Y017043D01*
X005350Y017064D02*
X005453Y016961D01*
X005453Y016820D01*
X005424Y016791D01*
X005457Y016758D01*
X005539Y016758D01*
X005596Y016701D01*
X005596Y016575D01*
X007011Y016575D01*
X007011Y016537D02*
X007068Y016480D01*
X007350Y016480D01*
X007407Y016537D01*
X007407Y016701D01*
X007350Y016758D01*
X007068Y016758D01*
X007011Y016701D01*
X007011Y016537D01*
X007031Y016517D02*
X005646Y016517D01*
X005646Y016525D02*
X005596Y016575D01*
X005596Y016634D02*
X007011Y016634D01*
X007011Y016692D02*
X006932Y016692D01*
X006935Y016751D02*
X007061Y016751D01*
X006935Y016809D02*
X007453Y016809D01*
X007453Y016751D02*
X007357Y016751D01*
X007407Y016692D02*
X007453Y016692D01*
X007453Y016634D02*
X007407Y016634D01*
X007407Y016575D02*
X007453Y016575D01*
X007453Y016517D02*
X007386Y016517D01*
X007453Y016458D02*
X005646Y016458D01*
X005646Y016400D02*
X007453Y016400D01*
X007453Y016341D02*
X007373Y016341D01*
X007407Y016283D02*
X007453Y016283D01*
X007453Y016224D02*
X007407Y016224D01*
X007407Y016166D02*
X007453Y016166D01*
X007453Y016107D02*
X007407Y016107D01*
X007407Y016049D02*
X007453Y016049D01*
X007453Y015990D02*
X007407Y015990D01*
X007392Y015932D02*
X007453Y015932D01*
X007453Y015873D02*
X007407Y015873D01*
X007407Y015815D02*
X007453Y015815D01*
X007414Y015756D02*
X007407Y015756D01*
X007448Y015635D02*
X007209Y015635D01*
X007011Y015639D02*
X005596Y015639D01*
X005596Y015581D02*
X007011Y015581D01*
X007013Y015522D02*
X005594Y015522D01*
X005596Y015520D02*
X005579Y015536D01*
X005596Y015553D01*
X005596Y015717D01*
X005579Y015733D01*
X005596Y015750D01*
X005596Y015914D01*
X005579Y015930D01*
X005596Y015947D01*
X005596Y016073D01*
X005646Y016123D01*
X005646Y016525D01*
X005675Y016692D02*
X005596Y016692D01*
X005546Y016751D02*
X005672Y016751D01*
X005672Y016809D02*
X005443Y016809D01*
X005453Y016868D02*
X005672Y016868D01*
X005672Y016926D02*
X005453Y016926D01*
X005429Y016985D02*
X005680Y016985D01*
X005477Y017102D02*
X001314Y017102D01*
X001356Y017160D02*
X005419Y017160D01*
X005360Y017219D02*
X003487Y017219D01*
X003533Y017277D02*
X005302Y017277D01*
X005243Y017336D02*
X003533Y017336D01*
X003533Y017394D02*
X003784Y017394D01*
X003733Y017453D02*
X003533Y017453D01*
X003533Y017511D02*
X003733Y017511D01*
X003733Y017570D02*
X003533Y017570D01*
X003533Y017628D02*
X003733Y017628D01*
X003733Y017687D02*
X003543Y017687D01*
X003543Y017745D02*
X003733Y017745D01*
X003733Y017804D02*
X003543Y017804D01*
X003543Y017862D02*
X003733Y017862D01*
X003843Y017862D02*
X004683Y017862D01*
X004683Y017896D02*
X004683Y017490D01*
X003843Y017490D01*
X003843Y017910D01*
X004669Y017910D01*
X004683Y017896D01*
X004683Y017804D02*
X003843Y017804D01*
X003843Y017745D02*
X004683Y017745D01*
X004683Y017687D02*
X003843Y017687D01*
X003843Y017628D02*
X004683Y017628D01*
X004683Y017570D02*
X003843Y017570D01*
X003843Y017511D02*
X004683Y017511D01*
X004793Y017511D02*
X005068Y017511D01*
X005126Y017453D02*
X004793Y017453D01*
X004743Y017394D02*
X005185Y017394D01*
X005009Y017570D02*
X004793Y017570D01*
X004793Y017628D02*
X004951Y017628D01*
X004892Y017687D02*
X004793Y017687D01*
X004793Y017745D02*
X004834Y017745D01*
X005050Y018038D02*
X025595Y018038D01*
X025595Y018096D02*
X004992Y018096D01*
X004933Y018155D02*
X025595Y018155D01*
X025595Y018213D02*
X004875Y018213D01*
X003423Y017850D02*
X003423Y017310D01*
X001863Y017310D01*
X001863Y017850D01*
X003423Y017850D01*
X003423Y017804D02*
X001863Y017804D01*
X001863Y017745D02*
X003423Y017745D01*
X003423Y017687D02*
X001863Y017687D01*
X001863Y017628D02*
X003423Y017628D01*
X003423Y017570D02*
X001863Y017570D01*
X001863Y017511D02*
X003423Y017511D01*
X003423Y017453D02*
X001863Y017453D01*
X001863Y017394D02*
X003423Y017394D01*
X003423Y017336D02*
X001863Y017336D01*
X001737Y017336D02*
X001387Y017336D01*
X001387Y017277D02*
X001737Y017277D01*
X001773Y017219D02*
X001381Y017219D01*
X001366Y017394D02*
X001737Y017394D01*
X001737Y017453D02*
X001339Y017453D01*
X001280Y017511D02*
X001737Y017511D01*
X001737Y017570D02*
X001346Y017570D01*
X001346Y017628D02*
X001737Y017628D01*
X001737Y017687D02*
X001346Y017687D01*
X001346Y017745D02*
X001737Y017745D01*
X001753Y017804D02*
X001346Y017804D01*
X001346Y017862D02*
X001753Y017862D01*
X001778Y017921D02*
X001346Y017921D01*
X001346Y017979D02*
X003183Y017979D01*
X003183Y018038D02*
X001346Y018038D01*
X001346Y018096D02*
X003235Y018096D01*
X003293Y018155D02*
X001346Y018155D01*
X001346Y018213D02*
X003352Y018213D01*
X003481Y017004D02*
X002942Y017004D01*
X002895Y016958D01*
X002895Y016675D01*
X002942Y016628D01*
X003102Y016628D01*
X003102Y015436D01*
X003342Y015196D01*
X003407Y015131D01*
X005228Y015131D01*
X005257Y015102D01*
X005475Y015102D01*
X005475Y014884D01*
X005533Y014827D01*
X005696Y014827D01*
X005713Y014843D01*
X005729Y014827D01*
X005893Y014827D01*
X005910Y014843D01*
X005926Y014827D01*
X006090Y014827D01*
X006107Y014843D01*
X006123Y014827D01*
X006287Y014827D01*
X006344Y014884D01*
X006344Y015166D01*
X006287Y015223D01*
X006123Y015223D01*
X006107Y015206D01*
X006090Y015223D01*
X005926Y015223D01*
X005910Y015206D01*
X005893Y015223D01*
X005729Y015223D01*
X005713Y015206D01*
X005696Y015223D01*
X005596Y015223D01*
X005596Y015323D01*
X005579Y015340D01*
X005596Y015356D01*
X005596Y015520D01*
X005596Y015464D02*
X007011Y015464D01*
X007011Y015405D02*
X005596Y015405D01*
X005586Y015347D02*
X007020Y015347D01*
X007011Y015288D02*
X005596Y015288D01*
X005596Y015230D02*
X007011Y015230D01*
X007011Y015698D02*
X005596Y015698D01*
X005596Y015756D02*
X007011Y015756D01*
X007011Y015815D02*
X005596Y015815D01*
X005596Y015873D02*
X007011Y015873D01*
X007026Y015932D02*
X005581Y015932D01*
X005596Y015990D02*
X007011Y015990D01*
X007011Y016049D02*
X005596Y016049D01*
X005630Y016107D02*
X007011Y016107D01*
X007011Y016166D02*
X005646Y016166D01*
X005646Y016224D02*
X007011Y016224D01*
X007011Y016283D02*
X005646Y016283D01*
X005646Y016341D02*
X007045Y016341D01*
X006935Y016868D02*
X007430Y016868D01*
X007372Y016926D02*
X006935Y016926D01*
X006926Y016985D02*
X007313Y016985D01*
X007255Y017043D02*
X006719Y017043D01*
X006719Y017102D02*
X007111Y017102D01*
X007053Y017160D02*
X006719Y017160D01*
X006719Y017219D02*
X007033Y017219D01*
X007033Y017277D02*
X006740Y017277D01*
X006799Y017336D02*
X007048Y017336D01*
X007107Y017394D02*
X006857Y017394D01*
X006916Y017453D02*
X021651Y017453D01*
X021593Y017511D02*
X006974Y017511D01*
X007300Y017394D02*
X021710Y017394D01*
X021768Y017336D02*
X007358Y017336D01*
X007373Y017277D02*
X021827Y017277D01*
X021885Y017219D02*
X007390Y017219D01*
X007449Y017160D02*
X021944Y017160D01*
X025595Y015288D02*
X008153Y015288D01*
X008153Y015230D02*
X025595Y015230D01*
X025595Y015171D02*
X008153Y015171D01*
X008153Y015113D02*
X025595Y015113D01*
X025595Y015054D02*
X008153Y015054D01*
X008153Y014996D02*
X025595Y014996D01*
X025595Y014937D02*
X008153Y014937D01*
X008153Y014879D02*
X025595Y014879D01*
X025595Y014820D02*
X008109Y014820D01*
X008050Y014762D02*
X025595Y014762D01*
X025595Y014703D02*
X007992Y014703D01*
X007933Y014645D02*
X025595Y014645D01*
X025595Y014586D02*
X007875Y014586D01*
X007816Y014528D02*
X025595Y014528D01*
X025595Y014469D02*
X007758Y014469D01*
X006465Y014879D02*
X006339Y014879D01*
X006344Y014937D02*
X006460Y014937D01*
X006460Y014996D02*
X006344Y014996D01*
X006344Y015054D02*
X006460Y015054D01*
X006460Y015113D02*
X006344Y015113D01*
X006338Y015171D02*
X006465Y015171D01*
X005475Y015054D02*
X000658Y015054D01*
X000658Y014996D02*
X005475Y014996D01*
X005475Y014937D02*
X001242Y014937D01*
X001314Y014879D02*
X005480Y014879D01*
X005246Y015113D02*
X000658Y015113D01*
X000658Y015171D02*
X003367Y015171D01*
X003308Y015230D02*
X000658Y015230D01*
X000658Y015288D02*
X003250Y015288D01*
X003191Y015347D02*
X000658Y015347D01*
X000658Y015405D02*
X003133Y015405D01*
X003102Y015464D02*
X000658Y015464D01*
X000658Y015522D02*
X003102Y015522D01*
X003102Y015581D02*
X000658Y015581D01*
X000658Y015639D02*
X003102Y015639D01*
X003102Y015698D02*
X000658Y015698D01*
X000658Y015756D02*
X003102Y015756D01*
X003102Y015815D02*
X000658Y015815D01*
X000658Y015873D02*
X003102Y015873D01*
X003102Y015932D02*
X000658Y015932D01*
X000658Y015990D02*
X003102Y015990D01*
X003102Y016049D02*
X000658Y016049D01*
X000658Y016107D02*
X003102Y016107D01*
X003102Y016166D02*
X000658Y016166D01*
X000658Y016224D02*
X003102Y016224D01*
X003102Y016283D02*
X000658Y016283D01*
X000658Y016341D02*
X003102Y016341D01*
X003102Y016400D02*
X000658Y016400D01*
X000658Y016458D02*
X003102Y016458D01*
X003102Y016517D02*
X000658Y016517D01*
X000658Y016575D02*
X003102Y016575D01*
X002936Y016634D02*
X000658Y016634D01*
X000658Y016692D02*
X002895Y016692D01*
X002895Y016751D02*
X000658Y016751D01*
X000658Y016809D02*
X002895Y016809D01*
X002895Y016868D02*
X000658Y016868D01*
X000658Y016926D02*
X002895Y016926D01*
X002922Y016985D02*
X000658Y016985D01*
X001242Y017043D02*
X004725Y017043D01*
X004725Y017045D02*
X004725Y016743D01*
X004745Y016723D01*
X004643Y016621D01*
X004643Y016439D01*
X004732Y016350D01*
X004643Y016261D01*
X004643Y016175D01*
X004634Y016198D01*
X004531Y016301D01*
X004396Y016356D01*
X004251Y016356D01*
X004116Y016301D01*
X004013Y016198D01*
X003957Y016063D01*
X003957Y015917D01*
X004013Y015783D01*
X004116Y015680D01*
X004251Y015624D01*
X004396Y015624D01*
X004531Y015680D01*
X004634Y015783D01*
X004690Y015917D01*
X004690Y016033D01*
X004772Y015950D01*
X004955Y015950D01*
X005055Y016050D01*
X005200Y016050D01*
X005200Y015947D01*
X005216Y015930D01*
X005200Y015914D01*
X005200Y015774D01*
X005114Y015860D01*
X004973Y015860D01*
X004873Y015761D01*
X004873Y015740D01*
X004733Y015740D01*
X004633Y015641D01*
X004633Y015500D01*
X004733Y015400D01*
X004818Y015400D01*
X004867Y015351D01*
X003498Y015351D01*
X003322Y015528D01*
X003322Y016628D01*
X003481Y016628D01*
X003528Y016675D01*
X003528Y016958D01*
X003481Y017004D01*
X003501Y016985D02*
X003946Y016985D01*
X003966Y017004D02*
X003919Y016958D01*
X003919Y016675D01*
X003966Y016628D01*
X004505Y016628D01*
X004551Y016675D01*
X004551Y016958D01*
X004505Y017004D01*
X003966Y017004D01*
X003919Y016926D02*
X003528Y016926D01*
X003528Y016868D02*
X003919Y016868D01*
X003919Y016809D02*
X003528Y016809D01*
X003528Y016751D02*
X003919Y016751D01*
X003919Y016692D02*
X003528Y016692D01*
X003487Y016634D02*
X003960Y016634D01*
X004098Y016283D02*
X003322Y016283D01*
X003322Y016341D02*
X004214Y016341D01*
X004039Y016224D02*
X003322Y016224D01*
X003322Y016166D02*
X004000Y016166D01*
X003975Y016107D02*
X003322Y016107D01*
X003322Y016049D02*
X003957Y016049D01*
X003957Y015990D02*
X003322Y015990D01*
X003322Y015932D02*
X003957Y015932D01*
X003975Y015873D02*
X003322Y015873D01*
X003322Y015815D02*
X004000Y015815D01*
X004039Y015756D02*
X003322Y015756D01*
X003322Y015698D02*
X004098Y015698D01*
X004214Y015639D02*
X003322Y015639D01*
X003322Y015581D02*
X004633Y015581D01*
X004633Y015639D02*
X004433Y015639D01*
X004549Y015698D02*
X004690Y015698D01*
X004607Y015756D02*
X004873Y015756D01*
X004927Y015815D02*
X004647Y015815D01*
X004671Y015873D02*
X005200Y015873D01*
X005200Y015815D02*
X005159Y015815D01*
X005215Y015932D02*
X004690Y015932D01*
X004690Y015990D02*
X004732Y015990D01*
X004643Y016224D02*
X004607Y016224D01*
X004549Y016283D02*
X004665Y016283D01*
X004723Y016341D02*
X004433Y016341D01*
X004643Y016458D02*
X003322Y016458D01*
X003322Y016400D02*
X004683Y016400D01*
X004643Y016517D02*
X003322Y016517D01*
X003322Y016575D02*
X004643Y016575D01*
X004656Y016634D02*
X004510Y016634D01*
X004551Y016692D02*
X004714Y016692D01*
X004725Y016751D02*
X004551Y016751D01*
X004551Y016809D02*
X004725Y016809D01*
X004725Y016868D02*
X004551Y016868D01*
X004551Y016926D02*
X004725Y016926D01*
X004725Y016985D02*
X004524Y016985D01*
X004725Y017045D02*
X004772Y017092D01*
X005075Y017092D01*
X005103Y017064D01*
X005350Y017064D01*
X005200Y016049D02*
X005053Y016049D01*
X004995Y015990D02*
X005200Y015990D01*
X005043Y015690D02*
X005219Y015635D01*
X005398Y015635D01*
X005398Y015438D02*
X004936Y015438D01*
X004803Y015570D01*
X004669Y015464D02*
X003385Y015464D01*
X003327Y015522D02*
X004633Y015522D01*
X004728Y015405D02*
X003444Y015405D01*
X003452Y015241D02*
X005398Y015241D01*
X003452Y015241D02*
X003212Y015482D01*
X003212Y016816D01*
X007203Y017250D02*
X007563Y016890D01*
X007563Y015750D01*
X007448Y015635D01*
D19*
X006813Y015430D03*
X005803Y015420D03*
X005793Y016130D03*
X006813Y016140D03*
X005773Y017780D03*
X009833Y016690D03*
X012853Y016700D03*
X015833Y014210D03*
X017833Y016710D03*
X019823Y016710D03*
X022843Y014200D03*
X007843Y014180D03*
X002373Y015480D03*
X001593Y015480D03*
X001513Y016800D03*
D20*
X002943Y017790D03*
X003363Y017370D03*
X003363Y017100D03*
X004153Y017790D03*
X004363Y017790D03*
X004573Y017790D03*
X005223Y017210D03*
X005283Y016890D03*
X004863Y016530D03*
X004863Y016170D03*
X005043Y015690D03*
X004803Y015570D03*
X003603Y015580D03*
X000922Y014022D03*
X007243Y016870D03*
X007803Y016710D03*
X007803Y016410D03*
X007203Y017250D03*
X001512Y017959D03*
X021783Y017850D03*
X022503Y017250D03*
X025331Y017959D03*
X025331Y014612D03*
X024741Y014022D03*
D21*
X007107Y014910D02*
X006992Y015025D01*
X005398Y016619D02*
X005283Y016734D01*
X005283Y016890D01*
X006003Y016840D02*
X006003Y017254D01*
D22*
X005283Y016890D02*
X005280Y016894D01*
X004923Y016894D01*
X007803Y016410D02*
X007803Y015270D01*
X007443Y014910D01*
X007107Y014910D01*
D23*
X006003Y017254D02*
X005580Y017254D01*
X004743Y018090D01*
X003483Y018090D01*
X003363Y017970D01*
X003363Y017730D01*
D24*
X006402Y017349D02*
X006402Y016836D01*
X006599Y016836D02*
X006599Y017305D01*
X006963Y017670D01*
X021603Y017670D01*
X022023Y017250D01*
X022503Y017250D01*
X021783Y017850D02*
X006903Y017850D01*
X006402Y017349D01*
D25*
X005398Y016422D02*
X004971Y016422D01*
X004863Y016530D01*
X004919Y016225D02*
X005398Y016225D01*
X004919Y016225D02*
X004863Y016170D01*
M02*
