%
M48
M72
T01C0.0080
T02C0.0120
T03C0.0197
T04C0.0472
T05C0.1063
%
T01
X922Y14022
X3603Y15580
X4803Y15570
X5043Y15690
X4863Y16170
X4863Y16530
X5283Y16890
X5223Y17210
X4573Y17790
X4363Y17790
X4153Y17790
X3363Y17370
X3363Y17100
X2943Y17790
X1512Y17959
X7203Y17250
X7243Y16870
X7803Y16710
X7803Y16410
X21783Y17850
X22503Y17250
X25331Y17959
X25331Y14612
X24741Y14022
T02
X22843Y14200
X19823Y16710
X17833Y16710
X15833Y14210
X12853Y16700
X9833Y16690
X6813Y16140
X5793Y16130
X5803Y15420
X6813Y15430
X7843Y14180
X2373Y15480
X1593Y15480
X1513Y16800
X5773Y17780
T03
X1107Y17289
X910Y17289
X713Y17289
X713Y14691
X910Y14691
X1107Y14691
T04
X4323Y15990
X22323Y15990
T05
X24741Y15990
M30
