G75*
%MOIN*%
%OFA0B0*%
%FSLAX24Y24*%
%IPPOS*%
%LPD*%
%AMOC8*
5,1,8,0,0,1.08239X$1,22.5*
%
%ADD10C,0.0397*%
%ADD11R,0.0531X0.0157*%
%ADD12R,0.0591X0.0591*%
%ADD13C,0.0397*%
%ADD14R,0.0276X0.0335*%
%ADD15R,0.0236X0.0236*%
%ADD16C,0.0394*%
%ADD17R,0.0433X0.0866*%
%ADD18R,0.0335X0.0276*%
%ADD19C,0.0060*%
%ADD20C,0.0220*%
%ADD21C,0.0180*%
%ADD22C,0.0180*%
%ADD23C,0.0080*%
%ADD24C,0.0090*%
D10*
X000712Y014691D02*
X001108Y014691D01*
X001108Y017289D02*
X000712Y017289D01*
D11*
X001985Y016502D03*
X001985Y016246D03*
X001985Y015990D03*
X001985Y015734D03*
X001985Y015478D03*
D12*
X000922Y015596D03*
X000922Y016384D03*
X001867Y017289D03*
X001867Y014691D03*
D13*
X001107Y014691D03*
X000713Y014691D03*
X000713Y017289D03*
X001107Y017289D03*
D14*
X003003Y017466D03*
X003003Y016836D03*
D15*
X002583Y016834D03*
X002583Y017306D03*
D16*
X000922Y017959D03*
X025331Y014022D03*
D17*
X022823Y014740D03*
X021823Y014740D03*
X020823Y014740D03*
X019823Y014740D03*
X018823Y014740D03*
X017823Y014740D03*
X016823Y014740D03*
X015823Y014740D03*
X014823Y014740D03*
X013823Y014740D03*
X012823Y014740D03*
X011823Y014740D03*
X010823Y014740D03*
X009823Y014740D03*
X008823Y014740D03*
X007823Y014740D03*
X006823Y014740D03*
X005823Y014740D03*
X004823Y014740D03*
X003823Y014740D03*
X003823Y017240D03*
X004823Y017240D03*
X005823Y017240D03*
X006823Y017240D03*
X007823Y017240D03*
X008823Y017240D03*
X009823Y017240D03*
X010823Y017240D03*
X011823Y017240D03*
X012823Y017240D03*
X013823Y017240D03*
X014823Y017240D03*
X015823Y017240D03*
X016823Y017240D03*
X017823Y017240D03*
X018823Y017240D03*
X019823Y017240D03*
X020823Y017240D03*
X021823Y017240D03*
X022823Y017240D03*
D18*
X003828Y017940D03*
X003198Y017940D03*
D19*
X000658Y013758D02*
X024908Y013758D01*
X024908Y014428D01*
X024925Y014445D01*
X025595Y014445D01*
X025595Y018222D01*
X001346Y018222D01*
X001346Y017553D01*
X001328Y017535D01*
X001243Y017535D01*
X001266Y017525D01*
X001344Y017447D01*
X001387Y017345D01*
X001387Y017234D01*
X001344Y017132D01*
X001266Y017053D01*
X001164Y017011D01*
X000658Y017011D01*
X000658Y016759D01*
X001250Y016759D01*
X001297Y016712D01*
X001297Y016055D01*
X001250Y016009D01*
X000658Y016009D01*
X000658Y015972D01*
X001250Y015972D01*
X001297Y015925D01*
X001297Y015268D01*
X001250Y015221D01*
X000658Y015221D01*
X000658Y014969D01*
X001164Y014969D01*
X001266Y014927D01*
X001344Y014849D01*
X001387Y014746D01*
X001387Y014636D01*
X001344Y014533D01*
X001266Y014455D01*
X001164Y014413D01*
X000658Y014413D01*
X000658Y013758D01*
X000658Y013767D02*
X024908Y013767D01*
X024908Y013826D02*
X000658Y013826D01*
X000658Y013884D02*
X024908Y013884D01*
X024908Y013943D02*
X000658Y013943D01*
X000658Y014001D02*
X024908Y014001D01*
X024908Y014060D02*
X000658Y014060D01*
X000658Y014118D02*
X024908Y014118D01*
X024908Y014177D02*
X000658Y014177D01*
X000658Y014235D02*
X003566Y014235D01*
X003574Y014227D02*
X003527Y014274D01*
X003527Y015206D01*
X003574Y015253D01*
X004073Y015253D01*
X004120Y015206D01*
X004120Y014274D01*
X004073Y014227D01*
X003574Y014227D01*
X003527Y014294D02*
X000658Y014294D01*
X000658Y014352D02*
X001502Y014352D01*
X001491Y014363D02*
X001538Y014316D01*
X002195Y014316D01*
X002242Y014363D01*
X002242Y015019D01*
X002195Y015066D01*
X001538Y015066D01*
X001491Y015019D01*
X001491Y014363D01*
X001491Y014411D02*
X000658Y014411D01*
X001280Y014469D02*
X001491Y014469D01*
X001491Y014528D02*
X001339Y014528D01*
X001366Y014586D02*
X001491Y014586D01*
X001491Y014645D02*
X001387Y014645D01*
X001387Y014703D02*
X001491Y014703D01*
X001491Y014762D02*
X001381Y014762D01*
X001356Y014820D02*
X001491Y014820D01*
X001491Y014879D02*
X001314Y014879D01*
X001242Y014937D02*
X001491Y014937D01*
X001491Y014996D02*
X000658Y014996D01*
X000658Y015054D02*
X001526Y015054D01*
X001259Y015230D02*
X003550Y015230D01*
X003527Y015171D02*
X000658Y015171D01*
X000658Y015113D02*
X003527Y015113D01*
X003527Y015054D02*
X002207Y015054D01*
X002242Y014996D02*
X003527Y014996D01*
X003527Y014937D02*
X002242Y014937D01*
X002242Y014879D02*
X003527Y014879D01*
X003527Y014820D02*
X002242Y014820D01*
X002242Y014762D02*
X003527Y014762D01*
X003527Y014703D02*
X002242Y014703D01*
X002242Y014645D02*
X003527Y014645D01*
X003527Y014586D02*
X002242Y014586D01*
X002242Y014528D02*
X003527Y014528D01*
X003527Y014469D02*
X002242Y014469D01*
X002242Y014411D02*
X003527Y014411D01*
X003527Y014352D02*
X002232Y014352D01*
X001297Y015288D02*
X020713Y015288D01*
X020713Y015253D02*
X020574Y015253D01*
X020527Y015206D01*
X020527Y014274D01*
X020574Y014227D01*
X021073Y014227D01*
X021120Y014274D01*
X021120Y015206D01*
X021073Y015253D01*
X020933Y015253D01*
X020933Y015556D01*
X020869Y015620D01*
X020689Y015800D01*
X005174Y015800D01*
X005154Y015820D01*
X020629Y015820D01*
X020869Y016060D01*
X020933Y016125D01*
X020933Y016727D01*
X021073Y016727D01*
X021120Y016774D01*
X021120Y017706D01*
X021073Y017753D01*
X020574Y017753D01*
X020527Y017706D01*
X020527Y016774D01*
X020574Y016727D01*
X020713Y016727D01*
X020713Y016216D01*
X020538Y016040D01*
X005045Y016040D01*
X005083Y016079D01*
X005083Y016261D01*
X004995Y016350D01*
X005083Y016439D01*
X005083Y016621D01*
X004985Y016720D01*
X005029Y016720D01*
X005036Y016727D01*
X005073Y016727D01*
X005120Y016774D01*
X005120Y016813D01*
X005144Y016789D01*
X005353Y016370D01*
X005353Y016340D01*
X005384Y016309D01*
X005403Y016271D01*
X005432Y016262D01*
X005453Y016240D01*
X005496Y016240D01*
X005536Y016227D01*
X005564Y016240D01*
X007874Y016240D01*
X007973Y016340D01*
X007973Y016481D01*
X007894Y016560D01*
X007973Y016640D01*
X007973Y016727D01*
X008073Y016727D01*
X008120Y016774D01*
X008120Y017706D01*
X008073Y017753D01*
X007574Y017753D01*
X007527Y017706D01*
X007527Y016774D01*
X007574Y016727D01*
X007633Y016727D01*
X007633Y016640D01*
X007693Y016580D01*
X005628Y016580D01*
X005453Y016930D01*
X005453Y016961D01*
X005423Y016991D01*
X005404Y017029D01*
X005375Y017039D01*
X005354Y017060D01*
X005311Y017060D01*
X005270Y017074D01*
X005243Y017060D01*
X005213Y017060D01*
X005183Y017030D01*
X005144Y017011D01*
X005135Y016982D01*
X005120Y016967D01*
X005120Y017706D01*
X005093Y017733D01*
X005093Y017956D01*
X005029Y018020D01*
X004075Y018020D01*
X004075Y018111D01*
X004028Y018158D01*
X003627Y018158D01*
X003580Y018111D01*
X003580Y017983D01*
X003553Y017956D01*
X003553Y017733D01*
X003533Y017713D01*
X003533Y017896D01*
X003469Y017960D01*
X003445Y017960D01*
X003445Y018111D01*
X003398Y018158D01*
X002997Y018158D01*
X002950Y018111D01*
X002950Y017960D01*
X002838Y017960D01*
X002773Y017896D01*
X002773Y017265D01*
X002838Y017200D01*
X003469Y017200D01*
X003527Y017258D01*
X003527Y016774D01*
X003574Y016727D01*
X003611Y016727D01*
X003618Y016720D01*
X004742Y016720D01*
X004682Y016660D01*
X003620Y016660D01*
X003320Y016360D01*
X002536Y016360D01*
X002536Y016360D01*
X003169Y016360D01*
X003233Y016425D01*
X003233Y016996D01*
X003221Y017008D01*
X003221Y017036D01*
X003174Y017083D01*
X002832Y017083D01*
X002809Y017060D01*
X002242Y017060D01*
X002242Y017618D01*
X002195Y017665D01*
X001538Y017665D01*
X001491Y017618D01*
X001491Y016961D01*
X001538Y016914D01*
X001633Y016914D01*
X001633Y016425D01*
X001634Y016424D01*
X001589Y016379D01*
X001589Y015858D01*
X001639Y015808D01*
X001639Y015622D01*
X001686Y015576D01*
X002284Y015576D01*
X002331Y015622D01*
X002331Y015808D01*
X002338Y015815D01*
X002491Y015815D01*
X002536Y015860D01*
X003527Y015860D01*
X003827Y016160D01*
X003997Y016160D01*
X003957Y016063D01*
X003957Y015917D01*
X004013Y015783D01*
X004116Y015680D01*
X004251Y015624D01*
X004396Y015624D01*
X004531Y015680D01*
X004634Y015783D01*
X004690Y015917D01*
X004690Y016033D01*
X004772Y015950D01*
X004848Y015950D01*
X004693Y015796D01*
X004693Y015701D01*
X004633Y015641D01*
X004633Y015500D01*
X004733Y015400D01*
X004874Y015400D01*
X004973Y015500D01*
X004973Y015520D01*
X005114Y015520D01*
X005174Y015580D01*
X020598Y015580D01*
X020713Y015465D01*
X020713Y015253D01*
X020713Y015347D02*
X001297Y015347D01*
X001297Y015405D02*
X004728Y015405D01*
X004669Y015464D02*
X001297Y015464D01*
X001297Y015522D02*
X004633Y015522D01*
X004633Y015581D02*
X002289Y015581D01*
X002331Y015639D02*
X004214Y015639D01*
X004098Y015698D02*
X002331Y015698D01*
X002331Y015756D02*
X004039Y015756D01*
X004000Y015815D02*
X002338Y015815D01*
X001681Y015581D02*
X001297Y015581D01*
X001297Y015639D02*
X001639Y015639D01*
X001639Y015698D02*
X001297Y015698D01*
X001297Y015756D02*
X001639Y015756D01*
X001632Y015815D02*
X001297Y015815D01*
X001297Y015873D02*
X001589Y015873D01*
X001589Y015932D02*
X001290Y015932D01*
X001290Y016049D02*
X001589Y016049D01*
X001589Y016107D02*
X001297Y016107D01*
X001297Y016166D02*
X001589Y016166D01*
X001589Y016224D02*
X001297Y016224D01*
X001297Y016283D02*
X001589Y016283D01*
X001589Y016341D02*
X001297Y016341D01*
X001297Y016400D02*
X001610Y016400D01*
X001633Y016458D02*
X001297Y016458D01*
X001297Y016517D02*
X001633Y016517D01*
X001633Y016575D02*
X001297Y016575D01*
X001297Y016634D02*
X001633Y016634D01*
X001633Y016692D02*
X001297Y016692D01*
X001259Y016751D02*
X001633Y016751D01*
X001633Y016809D02*
X000658Y016809D01*
X000658Y016868D02*
X001633Y016868D01*
X001743Y016868D02*
X003123Y016868D01*
X003123Y016926D02*
X002207Y016926D01*
X002195Y016914D02*
X002231Y016950D01*
X003123Y016950D01*
X003123Y016470D01*
X001743Y016470D01*
X001743Y016914D01*
X002195Y016914D01*
X002242Y017102D02*
X003527Y017102D01*
X003527Y017160D02*
X002242Y017160D01*
X002242Y017219D02*
X002819Y017219D01*
X002773Y017277D02*
X002242Y017277D01*
X002242Y017336D02*
X002773Y017336D01*
X002773Y017394D02*
X002242Y017394D01*
X002242Y017453D02*
X002773Y017453D01*
X002773Y017511D02*
X002242Y017511D01*
X002242Y017570D02*
X002773Y017570D01*
X002773Y017628D02*
X002232Y017628D01*
X002773Y017687D02*
X001346Y017687D01*
X001346Y017745D02*
X002773Y017745D01*
X002773Y017804D02*
X001346Y017804D01*
X001346Y017862D02*
X002773Y017862D01*
X002798Y017921D02*
X001346Y017921D01*
X001346Y017979D02*
X002950Y017979D01*
X002950Y018038D02*
X001346Y018038D01*
X001346Y018096D02*
X002950Y018096D01*
X002994Y018155D02*
X001346Y018155D01*
X001346Y018213D02*
X025595Y018213D01*
X025595Y018155D02*
X004031Y018155D01*
X004075Y018096D02*
X025595Y018096D01*
X025595Y018038D02*
X004075Y018038D01*
X003663Y017910D02*
X004983Y017910D01*
X004983Y016830D01*
X003663Y016830D01*
X003663Y017910D01*
X003663Y017862D02*
X004983Y017862D01*
X004983Y017804D02*
X003663Y017804D01*
X003663Y017745D02*
X004983Y017745D01*
X004983Y017687D02*
X003663Y017687D01*
X003663Y017628D02*
X004983Y017628D01*
X004983Y017570D02*
X003663Y017570D01*
X003663Y017511D02*
X004983Y017511D01*
X004983Y017453D02*
X003663Y017453D01*
X003663Y017394D02*
X004983Y017394D01*
X004983Y017336D02*
X003663Y017336D01*
X003663Y017277D02*
X004983Y017277D01*
X004983Y017219D02*
X003663Y017219D01*
X003663Y017160D02*
X004983Y017160D01*
X004983Y017102D02*
X003663Y017102D01*
X003663Y017043D02*
X004983Y017043D01*
X004983Y016985D02*
X003663Y016985D01*
X003663Y016926D02*
X004983Y016926D01*
X004983Y016868D02*
X003663Y016868D01*
X003527Y016868D02*
X003233Y016868D01*
X003233Y016926D02*
X003527Y016926D01*
X003527Y016985D02*
X003233Y016985D01*
X003214Y017043D02*
X003527Y017043D01*
X003527Y017219D02*
X003487Y017219D01*
X003423Y017310D02*
X002883Y017310D01*
X002883Y017850D01*
X003423Y017850D01*
X003423Y017310D01*
X003423Y017336D02*
X002883Y017336D01*
X002883Y017394D02*
X003423Y017394D01*
X003423Y017453D02*
X002883Y017453D01*
X002883Y017511D02*
X003423Y017511D01*
X003423Y017570D02*
X002883Y017570D01*
X002883Y017628D02*
X003423Y017628D01*
X003423Y017687D02*
X002883Y017687D01*
X002883Y017745D02*
X003423Y017745D01*
X003423Y017804D02*
X002883Y017804D01*
X003445Y017979D02*
X003577Y017979D01*
X003580Y018038D02*
X003445Y018038D01*
X003445Y018096D02*
X003580Y018096D01*
X003624Y018155D02*
X003402Y018155D01*
X003508Y017921D02*
X003553Y017921D01*
X003553Y017862D02*
X003533Y017862D01*
X003533Y017804D02*
X003553Y017804D01*
X003553Y017745D02*
X003533Y017745D01*
X003527Y016809D02*
X003233Y016809D01*
X003233Y016751D02*
X003550Y016751D01*
X003593Y016634D02*
X003233Y016634D01*
X003233Y016692D02*
X004714Y016692D01*
X005013Y016692D02*
X005192Y016692D01*
X005222Y016634D02*
X005071Y016634D01*
X005083Y016575D02*
X005251Y016575D01*
X005280Y016517D02*
X005083Y016517D01*
X005083Y016458D02*
X005309Y016458D01*
X005339Y016400D02*
X005044Y016400D01*
X005004Y016341D02*
X005353Y016341D01*
X005397Y016283D02*
X005062Y016283D01*
X005083Y016224D02*
X020713Y016224D01*
X020713Y016283D02*
X007916Y016283D01*
X007973Y016341D02*
X020713Y016341D01*
X020713Y016400D02*
X007973Y016400D01*
X007973Y016458D02*
X020713Y016458D01*
X020713Y016517D02*
X007937Y016517D01*
X007909Y016575D02*
X020713Y016575D01*
X020713Y016634D02*
X007967Y016634D01*
X007973Y016692D02*
X020713Y016692D01*
X020550Y016751D02*
X019097Y016751D01*
X019120Y016774D02*
X019120Y017706D01*
X019073Y017753D01*
X018574Y017753D01*
X018527Y017706D01*
X018527Y016774D01*
X018574Y016727D01*
X019073Y016727D01*
X019120Y016774D01*
X019120Y016809D02*
X020527Y016809D01*
X020527Y016868D02*
X019120Y016868D01*
X019120Y016926D02*
X020527Y016926D01*
X020527Y016985D02*
X019120Y016985D01*
X019120Y017043D02*
X020527Y017043D01*
X020527Y017102D02*
X019120Y017102D01*
X019120Y017160D02*
X020527Y017160D01*
X020527Y017219D02*
X019120Y017219D01*
X019120Y017277D02*
X020527Y017277D01*
X020527Y017336D02*
X019120Y017336D01*
X019120Y017394D02*
X020527Y017394D01*
X020527Y017453D02*
X019120Y017453D01*
X019120Y017511D02*
X020527Y017511D01*
X020527Y017570D02*
X019120Y017570D01*
X019120Y017628D02*
X020527Y017628D01*
X020527Y017687D02*
X019120Y017687D01*
X019081Y017745D02*
X020566Y017745D01*
X021081Y017745D02*
X021566Y017745D01*
X021574Y017753D02*
X021527Y017706D01*
X021527Y016774D01*
X021574Y016727D01*
X022073Y016727D01*
X022120Y016774D01*
X022120Y017706D01*
X022073Y017753D01*
X021993Y017753D01*
X021993Y017921D01*
X025595Y017921D01*
X025595Y017979D02*
X021935Y017979D01*
X021894Y018020D02*
X021713Y018020D01*
X021613Y017921D01*
X021613Y017780D01*
X021640Y017753D01*
X021574Y017753D01*
X021613Y017804D02*
X005093Y017804D01*
X005093Y017862D02*
X021613Y017862D01*
X021613Y017921D02*
X005093Y017921D01*
X005070Y017979D02*
X021672Y017979D01*
X021894Y018020D02*
X021993Y017921D01*
X021993Y017862D02*
X025595Y017862D01*
X025595Y017804D02*
X021993Y017804D01*
X022081Y017745D02*
X022566Y017745D01*
X022574Y017753D02*
X022527Y017706D01*
X022527Y017420D01*
X022433Y017420D01*
X022333Y017321D01*
X022333Y017180D01*
X022343Y017170D01*
X022443Y017070D01*
X022527Y017070D01*
X022527Y016774D01*
X022574Y016727D01*
X023073Y016727D01*
X023120Y016774D01*
X023120Y017706D01*
X023073Y017753D01*
X022574Y017753D01*
X022527Y017687D02*
X022120Y017687D01*
X022120Y017628D02*
X022527Y017628D01*
X022527Y017570D02*
X022120Y017570D01*
X022120Y017511D02*
X022527Y017511D01*
X022527Y017453D02*
X022120Y017453D01*
X022120Y017394D02*
X022407Y017394D01*
X022348Y017336D02*
X022120Y017336D01*
X022120Y017277D02*
X022333Y017277D01*
X022333Y017219D02*
X022120Y017219D01*
X022120Y017160D02*
X022353Y017160D01*
X022411Y017102D02*
X022120Y017102D01*
X022120Y017043D02*
X022527Y017043D01*
X022527Y016985D02*
X022120Y016985D01*
X022120Y016926D02*
X022527Y016926D01*
X022527Y016868D02*
X022120Y016868D01*
X022120Y016809D02*
X022527Y016809D01*
X022550Y016751D02*
X022097Y016751D01*
X021550Y016751D02*
X021097Y016751D01*
X021120Y016809D02*
X021527Y016809D01*
X021527Y016868D02*
X021120Y016868D01*
X021120Y016926D02*
X021527Y016926D01*
X021527Y016985D02*
X021120Y016985D01*
X021120Y017043D02*
X021527Y017043D01*
X021527Y017102D02*
X021120Y017102D01*
X021120Y017160D02*
X021527Y017160D01*
X021527Y017219D02*
X021120Y017219D01*
X021120Y017277D02*
X021527Y017277D01*
X021527Y017336D02*
X021120Y017336D01*
X021120Y017394D02*
X021527Y017394D01*
X021527Y017453D02*
X021120Y017453D01*
X021120Y017511D02*
X021527Y017511D01*
X021527Y017570D02*
X021120Y017570D01*
X021120Y017628D02*
X021527Y017628D01*
X021527Y017687D02*
X021120Y017687D01*
X020823Y017240D02*
X020823Y016170D01*
X020583Y015930D01*
X004983Y015930D01*
X004803Y015750D01*
X004803Y015570D01*
X004690Y015698D02*
X004549Y015698D01*
X004607Y015756D02*
X004693Y015756D01*
X004712Y015815D02*
X004647Y015815D01*
X004671Y015873D02*
X004771Y015873D01*
X004829Y015932D02*
X004690Y015932D01*
X004690Y015990D02*
X004732Y015990D01*
X005053Y016049D02*
X020546Y016049D01*
X020605Y016107D02*
X005083Y016107D01*
X005083Y016166D02*
X020663Y016166D01*
X020799Y015990D02*
X021957Y015990D01*
X021957Y015932D02*
X020740Y015932D01*
X020682Y015873D02*
X021975Y015873D01*
X021957Y015917D02*
X022013Y015783D01*
X022116Y015680D01*
X022251Y015624D01*
X022396Y015624D01*
X022531Y015680D01*
X022634Y015783D01*
X022690Y015917D01*
X022690Y016063D01*
X022634Y016198D01*
X022531Y016301D01*
X022396Y016356D01*
X022251Y016356D01*
X022116Y016301D01*
X022013Y016198D01*
X021957Y016063D01*
X021957Y015917D01*
X022000Y015815D02*
X005159Y015815D01*
X005043Y015690D02*
X020643Y015690D01*
X020823Y015510D01*
X020823Y014740D01*
X020527Y014762D02*
X020120Y014762D01*
X020120Y014820D02*
X020527Y014820D01*
X020527Y014879D02*
X020120Y014879D01*
X020120Y014937D02*
X020527Y014937D01*
X020527Y014996D02*
X020120Y014996D01*
X020120Y015054D02*
X020527Y015054D01*
X020527Y015113D02*
X020120Y015113D01*
X020120Y015171D02*
X020527Y015171D01*
X020550Y015230D02*
X020097Y015230D01*
X020120Y015206D02*
X020073Y015253D01*
X019574Y015253D01*
X019527Y015206D01*
X019527Y014274D01*
X019574Y014227D01*
X020073Y014227D01*
X020120Y014274D01*
X020120Y015206D01*
X019550Y015230D02*
X019097Y015230D01*
X019120Y015206D02*
X019073Y015253D01*
X018574Y015253D01*
X018527Y015206D01*
X018527Y014274D01*
X018574Y014227D01*
X019073Y014227D01*
X019120Y014274D01*
X019120Y015206D01*
X019120Y015171D02*
X019527Y015171D01*
X019527Y015113D02*
X019120Y015113D01*
X019120Y015054D02*
X019527Y015054D01*
X019527Y014996D02*
X019120Y014996D01*
X019120Y014937D02*
X019527Y014937D01*
X019527Y014879D02*
X019120Y014879D01*
X019120Y014820D02*
X019527Y014820D01*
X019527Y014762D02*
X019120Y014762D01*
X019120Y014703D02*
X019527Y014703D01*
X019527Y014645D02*
X019120Y014645D01*
X019120Y014586D02*
X019527Y014586D01*
X019527Y014528D02*
X019120Y014528D01*
X019120Y014469D02*
X019527Y014469D01*
X019527Y014411D02*
X019120Y014411D01*
X019120Y014352D02*
X019527Y014352D01*
X019527Y014294D02*
X019120Y014294D01*
X019081Y014235D02*
X019566Y014235D01*
X020081Y014235D02*
X020566Y014235D01*
X020527Y014294D02*
X020120Y014294D01*
X020120Y014352D02*
X020527Y014352D01*
X020527Y014411D02*
X020120Y014411D01*
X020120Y014469D02*
X020527Y014469D01*
X020527Y014528D02*
X020120Y014528D01*
X020120Y014586D02*
X020527Y014586D01*
X020527Y014645D02*
X020120Y014645D01*
X020120Y014703D02*
X020527Y014703D01*
X021120Y014703D02*
X021527Y014703D01*
X021527Y014645D02*
X021120Y014645D01*
X021120Y014586D02*
X021527Y014586D01*
X021527Y014528D02*
X021120Y014528D01*
X021120Y014469D02*
X021527Y014469D01*
X021527Y014411D02*
X021120Y014411D01*
X021120Y014352D02*
X021527Y014352D01*
X021527Y014294D02*
X021120Y014294D01*
X021081Y014235D02*
X021566Y014235D01*
X021574Y014227D02*
X021527Y014274D01*
X021527Y015206D01*
X021574Y015253D01*
X022073Y015253D01*
X022120Y015206D01*
X022120Y014274D01*
X022073Y014227D01*
X021574Y014227D01*
X022081Y014235D02*
X024908Y014235D01*
X024908Y014294D02*
X022120Y014294D01*
X022120Y014352D02*
X024908Y014352D01*
X024908Y014411D02*
X022120Y014411D01*
X022120Y014469D02*
X025595Y014469D01*
X025595Y014528D02*
X022120Y014528D01*
X022120Y014586D02*
X025595Y014586D01*
X025595Y014645D02*
X022120Y014645D01*
X022120Y014703D02*
X025595Y014703D01*
X025595Y014762D02*
X022120Y014762D01*
X022120Y014820D02*
X025595Y014820D01*
X025595Y014879D02*
X022120Y014879D01*
X022120Y014937D02*
X025595Y014937D01*
X025595Y014996D02*
X022120Y014996D01*
X022120Y015054D02*
X025595Y015054D01*
X025595Y015113D02*
X022120Y015113D01*
X022120Y015171D02*
X025595Y015171D01*
X025595Y015230D02*
X022097Y015230D01*
X021550Y015230D02*
X021097Y015230D01*
X021120Y015171D02*
X021527Y015171D01*
X021527Y015113D02*
X021120Y015113D01*
X021120Y015054D02*
X021527Y015054D01*
X021527Y014996D02*
X021120Y014996D01*
X021120Y014937D02*
X021527Y014937D01*
X021527Y014879D02*
X021120Y014879D01*
X021120Y014820D02*
X021527Y014820D01*
X021527Y014762D02*
X021120Y014762D01*
X020933Y015288D02*
X025595Y015288D01*
X025595Y015347D02*
X024916Y015347D01*
X024872Y015329D02*
X025115Y015429D01*
X025301Y015615D01*
X025402Y015859D01*
X025402Y016122D01*
X025301Y016365D01*
X025115Y016551D01*
X024872Y016652D01*
X024609Y016652D01*
X024366Y016551D01*
X024180Y016365D01*
X024079Y016122D01*
X024079Y015859D01*
X024180Y015615D01*
X024366Y015429D01*
X024609Y015329D01*
X024872Y015329D01*
X025057Y015405D02*
X025595Y015405D01*
X025595Y015464D02*
X025150Y015464D01*
X025208Y015522D02*
X025595Y015522D01*
X025595Y015581D02*
X025267Y015581D01*
X025311Y015639D02*
X025595Y015639D01*
X025595Y015698D02*
X025336Y015698D01*
X025360Y015756D02*
X025595Y015756D01*
X025595Y015815D02*
X025384Y015815D01*
X025402Y015873D02*
X025595Y015873D01*
X025595Y015932D02*
X025402Y015932D01*
X025402Y015990D02*
X025595Y015990D01*
X025595Y016049D02*
X025402Y016049D01*
X025402Y016107D02*
X025595Y016107D01*
X025595Y016166D02*
X025384Y016166D01*
X025360Y016224D02*
X025595Y016224D01*
X025595Y016283D02*
X025336Y016283D01*
X025311Y016341D02*
X025595Y016341D01*
X025595Y016400D02*
X025267Y016400D01*
X025208Y016458D02*
X025595Y016458D01*
X025595Y016517D02*
X025150Y016517D01*
X025057Y016575D02*
X025595Y016575D01*
X025595Y016634D02*
X024916Y016634D01*
X024566Y016634D02*
X020933Y016634D01*
X020933Y016692D02*
X025595Y016692D01*
X025595Y016751D02*
X023097Y016751D01*
X023120Y016809D02*
X025595Y016809D01*
X025595Y016868D02*
X023120Y016868D01*
X023120Y016926D02*
X025595Y016926D01*
X025595Y016985D02*
X023120Y016985D01*
X023120Y017043D02*
X025595Y017043D01*
X025595Y017102D02*
X023120Y017102D01*
X023120Y017160D02*
X025595Y017160D01*
X025595Y017219D02*
X023120Y017219D01*
X023120Y017277D02*
X025595Y017277D01*
X025595Y017336D02*
X023120Y017336D01*
X023120Y017394D02*
X025595Y017394D01*
X025595Y017453D02*
X023120Y017453D01*
X023120Y017511D02*
X025595Y017511D01*
X025595Y017570D02*
X023120Y017570D01*
X023120Y017628D02*
X025595Y017628D01*
X025595Y017687D02*
X023120Y017687D01*
X023081Y017745D02*
X025595Y017745D01*
X024424Y016575D02*
X020933Y016575D01*
X020933Y016517D02*
X024332Y016517D01*
X024273Y016458D02*
X020933Y016458D01*
X020933Y016400D02*
X024215Y016400D01*
X024170Y016341D02*
X022433Y016341D01*
X022549Y016283D02*
X024146Y016283D01*
X024122Y016224D02*
X022607Y016224D01*
X022647Y016166D02*
X024097Y016166D01*
X024079Y016107D02*
X022671Y016107D01*
X022690Y016049D02*
X024079Y016049D01*
X024079Y015990D02*
X022690Y015990D01*
X022690Y015932D02*
X024079Y015932D01*
X024079Y015873D02*
X022671Y015873D01*
X022647Y015815D02*
X024097Y015815D01*
X024122Y015756D02*
X022607Y015756D01*
X022549Y015698D02*
X024146Y015698D01*
X024170Y015639D02*
X022433Y015639D01*
X022214Y015639D02*
X020850Y015639D01*
X020908Y015581D02*
X024215Y015581D01*
X024273Y015522D02*
X020933Y015522D01*
X020933Y015464D02*
X024332Y015464D01*
X024424Y015405D02*
X020933Y015405D01*
X020933Y015347D02*
X024566Y015347D01*
X022098Y015698D02*
X020791Y015698D01*
X020733Y015756D02*
X022039Y015756D01*
X021957Y016049D02*
X020857Y016049D01*
X020916Y016107D02*
X021975Y016107D01*
X022000Y016166D02*
X020933Y016166D01*
X020933Y016224D02*
X022039Y016224D01*
X022098Y016283D02*
X020933Y016283D01*
X020933Y016341D02*
X022214Y016341D01*
X020713Y015464D02*
X004937Y015464D01*
X004879Y015405D02*
X020713Y015405D01*
X020656Y015522D02*
X005116Y015522D01*
X005073Y015253D02*
X004574Y015253D01*
X004527Y015206D01*
X004527Y014274D01*
X004574Y014227D01*
X005073Y014227D01*
X005120Y014274D01*
X005120Y015206D01*
X005073Y015253D01*
X005097Y015230D02*
X005550Y015230D01*
X005527Y015206D02*
X005527Y014274D01*
X005574Y014227D01*
X006073Y014227D01*
X006120Y014274D01*
X006120Y015206D01*
X006073Y015253D01*
X005574Y015253D01*
X005527Y015206D01*
X005527Y015171D02*
X005120Y015171D01*
X005120Y015113D02*
X005527Y015113D01*
X005527Y015054D02*
X005120Y015054D01*
X005120Y014996D02*
X005527Y014996D01*
X005527Y014937D02*
X005120Y014937D01*
X005120Y014879D02*
X005527Y014879D01*
X005527Y014820D02*
X005120Y014820D01*
X005120Y014762D02*
X005527Y014762D01*
X005527Y014703D02*
X005120Y014703D01*
X005120Y014645D02*
X005527Y014645D01*
X005527Y014586D02*
X005120Y014586D01*
X005120Y014528D02*
X005527Y014528D01*
X005527Y014469D02*
X005120Y014469D01*
X005120Y014411D02*
X005527Y014411D01*
X005527Y014352D02*
X005120Y014352D01*
X005120Y014294D02*
X005527Y014294D01*
X005566Y014235D02*
X005081Y014235D01*
X004566Y014235D02*
X004081Y014235D01*
X004120Y014294D02*
X004527Y014294D01*
X004527Y014352D02*
X004120Y014352D01*
X004120Y014411D02*
X004527Y014411D01*
X004527Y014469D02*
X004120Y014469D01*
X004120Y014528D02*
X004527Y014528D01*
X004527Y014586D02*
X004120Y014586D01*
X004120Y014645D02*
X004527Y014645D01*
X004527Y014703D02*
X004120Y014703D01*
X004120Y014762D02*
X004527Y014762D01*
X004527Y014820D02*
X004120Y014820D01*
X004120Y014879D02*
X004527Y014879D01*
X004527Y014937D02*
X004120Y014937D01*
X004120Y014996D02*
X004527Y014996D01*
X004527Y015054D02*
X004120Y015054D01*
X004120Y015113D02*
X004527Y015113D01*
X004527Y015171D02*
X004120Y015171D01*
X004097Y015230D02*
X004550Y015230D01*
X004633Y015639D02*
X004433Y015639D01*
X003975Y015873D02*
X003540Y015873D01*
X003598Y015932D02*
X003957Y015932D01*
X003957Y015990D02*
X003657Y015990D01*
X003715Y016049D02*
X003957Y016049D01*
X003975Y016107D02*
X003774Y016107D01*
X003418Y016458D02*
X003233Y016458D01*
X003233Y016517D02*
X003476Y016517D01*
X003535Y016575D02*
X003233Y016575D01*
X003123Y016575D02*
X001743Y016575D01*
X001743Y016517D02*
X003123Y016517D01*
X003123Y016634D02*
X001743Y016634D01*
X001743Y016692D02*
X003123Y016692D01*
X003123Y016751D02*
X001743Y016751D01*
X001743Y016809D02*
X003123Y016809D01*
X003208Y016400D02*
X003359Y016400D01*
X005097Y016751D02*
X005163Y016751D01*
X005124Y016809D02*
X005120Y016809D01*
X005120Y016985D02*
X005136Y016985D01*
X005120Y017043D02*
X005196Y017043D01*
X005120Y017102D02*
X006527Y017102D01*
X006527Y017160D02*
X005120Y017160D01*
X005120Y017219D02*
X006527Y017219D01*
X006527Y017277D02*
X005120Y017277D01*
X005120Y017336D02*
X006527Y017336D01*
X006527Y017394D02*
X005120Y017394D01*
X005120Y017453D02*
X006527Y017453D01*
X006527Y017511D02*
X005120Y017511D01*
X005120Y017570D02*
X006527Y017570D01*
X006527Y017628D02*
X005120Y017628D01*
X005120Y017687D02*
X006527Y017687D01*
X006527Y017706D02*
X006527Y016774D01*
X006574Y016727D01*
X007073Y016727D01*
X007120Y016774D01*
X007120Y017080D01*
X007274Y017080D01*
X007373Y017180D01*
X007373Y017321D01*
X007274Y017420D01*
X007120Y017420D01*
X007120Y017706D01*
X007073Y017753D01*
X006574Y017753D01*
X006527Y017706D01*
X006566Y017745D02*
X005093Y017745D01*
X005371Y017043D02*
X006527Y017043D01*
X006527Y016985D02*
X005429Y016985D01*
X005455Y016926D02*
X006527Y016926D01*
X006527Y016868D02*
X005485Y016868D01*
X005514Y016809D02*
X006527Y016809D01*
X006550Y016751D02*
X005543Y016751D01*
X005572Y016692D02*
X007633Y016692D01*
X007639Y016634D02*
X005602Y016634D01*
X006823Y017240D02*
X006833Y017250D01*
X007120Y017453D02*
X007527Y017453D01*
X007527Y017511D02*
X007120Y017511D01*
X007120Y017570D02*
X007527Y017570D01*
X007527Y017628D02*
X007120Y017628D01*
X007120Y017687D02*
X007527Y017687D01*
X007566Y017745D02*
X007081Y017745D01*
X007300Y017394D02*
X007527Y017394D01*
X007527Y017336D02*
X007358Y017336D01*
X007373Y017277D02*
X007527Y017277D01*
X007527Y017219D02*
X007373Y017219D01*
X007354Y017160D02*
X007527Y017160D01*
X007527Y017102D02*
X007295Y017102D01*
X007120Y017043D02*
X007527Y017043D01*
X007527Y016985D02*
X007120Y016985D01*
X007120Y016926D02*
X007527Y016926D01*
X007527Y016868D02*
X007120Y016868D01*
X007120Y016809D02*
X007527Y016809D01*
X007550Y016751D02*
X007097Y016751D01*
X007803Y017220D02*
X007823Y017240D01*
X008120Y017219D02*
X008527Y017219D01*
X008527Y017277D02*
X008120Y017277D01*
X008120Y017336D02*
X008527Y017336D01*
X008527Y017394D02*
X008120Y017394D01*
X008120Y017453D02*
X008527Y017453D01*
X008527Y017511D02*
X008120Y017511D01*
X008120Y017570D02*
X008527Y017570D01*
X008527Y017628D02*
X008120Y017628D01*
X008120Y017687D02*
X008527Y017687D01*
X008527Y017706D02*
X008527Y016774D01*
X008574Y016727D01*
X009073Y016727D01*
X009120Y016774D01*
X009120Y017706D01*
X009073Y017753D01*
X008574Y017753D01*
X008527Y017706D01*
X008566Y017745D02*
X008081Y017745D01*
X008120Y017160D02*
X008527Y017160D01*
X008527Y017102D02*
X008120Y017102D01*
X008120Y017043D02*
X008527Y017043D01*
X008527Y016985D02*
X008120Y016985D01*
X008120Y016926D02*
X008527Y016926D01*
X008527Y016868D02*
X008120Y016868D01*
X008120Y016809D02*
X008527Y016809D01*
X008550Y016751D02*
X008097Y016751D01*
X009097Y016751D02*
X010550Y016751D01*
X010527Y016774D02*
X010574Y016727D01*
X011073Y016727D01*
X011120Y016774D01*
X011120Y017706D01*
X011073Y017753D01*
X010574Y017753D01*
X010527Y017706D01*
X010527Y016774D01*
X010527Y016809D02*
X009120Y016809D01*
X009120Y016868D02*
X010527Y016868D01*
X010527Y016926D02*
X009120Y016926D01*
X009120Y016985D02*
X010527Y016985D01*
X010527Y017043D02*
X009120Y017043D01*
X009120Y017102D02*
X010527Y017102D01*
X010527Y017160D02*
X009120Y017160D01*
X009120Y017219D02*
X010527Y017219D01*
X010527Y017277D02*
X009120Y017277D01*
X009120Y017336D02*
X010527Y017336D01*
X010527Y017394D02*
X009120Y017394D01*
X009120Y017453D02*
X010527Y017453D01*
X010527Y017511D02*
X009120Y017511D01*
X009120Y017570D02*
X010527Y017570D01*
X010527Y017628D02*
X009120Y017628D01*
X009120Y017687D02*
X010527Y017687D01*
X010566Y017745D02*
X009081Y017745D01*
X011081Y017745D02*
X011566Y017745D01*
X011574Y017753D02*
X011527Y017706D01*
X011527Y016774D01*
X011574Y016727D01*
X012073Y016727D01*
X012120Y016774D01*
X012120Y017706D01*
X012073Y017753D01*
X011574Y017753D01*
X011527Y017687D02*
X011120Y017687D01*
X011120Y017628D02*
X011527Y017628D01*
X011527Y017570D02*
X011120Y017570D01*
X011120Y017511D02*
X011527Y017511D01*
X011527Y017453D02*
X011120Y017453D01*
X011120Y017394D02*
X011527Y017394D01*
X011527Y017336D02*
X011120Y017336D01*
X011120Y017277D02*
X011527Y017277D01*
X011527Y017219D02*
X011120Y017219D01*
X011120Y017160D02*
X011527Y017160D01*
X011527Y017102D02*
X011120Y017102D01*
X011120Y017043D02*
X011527Y017043D01*
X011527Y016985D02*
X011120Y016985D01*
X011120Y016926D02*
X011527Y016926D01*
X011527Y016868D02*
X011120Y016868D01*
X011120Y016809D02*
X011527Y016809D01*
X011550Y016751D02*
X011097Y016751D01*
X012097Y016751D02*
X013550Y016751D01*
X013527Y016774D02*
X013574Y016727D01*
X014073Y016727D01*
X014120Y016774D01*
X014120Y017706D01*
X014073Y017753D01*
X013574Y017753D01*
X013527Y017706D01*
X013527Y016774D01*
X013527Y016809D02*
X012120Y016809D01*
X012120Y016868D02*
X013527Y016868D01*
X013527Y016926D02*
X012120Y016926D01*
X012120Y016985D02*
X013527Y016985D01*
X013527Y017043D02*
X012120Y017043D01*
X012120Y017102D02*
X013527Y017102D01*
X013527Y017160D02*
X012120Y017160D01*
X012120Y017219D02*
X013527Y017219D01*
X013527Y017277D02*
X012120Y017277D01*
X012120Y017336D02*
X013527Y017336D01*
X013527Y017394D02*
X012120Y017394D01*
X012120Y017453D02*
X013527Y017453D01*
X013527Y017511D02*
X012120Y017511D01*
X012120Y017570D02*
X013527Y017570D01*
X013527Y017628D02*
X012120Y017628D01*
X012120Y017687D02*
X013527Y017687D01*
X013566Y017745D02*
X012081Y017745D01*
X014081Y017745D02*
X014566Y017745D01*
X014574Y017753D02*
X014527Y017706D01*
X014527Y016774D01*
X014574Y016727D01*
X015073Y016727D01*
X015120Y016774D01*
X015120Y017706D01*
X015073Y017753D01*
X014574Y017753D01*
X014527Y017687D02*
X014120Y017687D01*
X014120Y017628D02*
X014527Y017628D01*
X014527Y017570D02*
X014120Y017570D01*
X014120Y017511D02*
X014527Y017511D01*
X014527Y017453D02*
X014120Y017453D01*
X014120Y017394D02*
X014527Y017394D01*
X014527Y017336D02*
X014120Y017336D01*
X014120Y017277D02*
X014527Y017277D01*
X014527Y017219D02*
X014120Y017219D01*
X014120Y017160D02*
X014527Y017160D01*
X014527Y017102D02*
X014120Y017102D01*
X014120Y017043D02*
X014527Y017043D01*
X014527Y016985D02*
X014120Y016985D01*
X014120Y016926D02*
X014527Y016926D01*
X014527Y016868D02*
X014120Y016868D01*
X014120Y016809D02*
X014527Y016809D01*
X014550Y016751D02*
X014097Y016751D01*
X015097Y016751D02*
X015550Y016751D01*
X015527Y016774D02*
X015574Y016727D01*
X016073Y016727D01*
X016120Y016774D01*
X016120Y017706D01*
X016073Y017753D01*
X015574Y017753D01*
X015527Y017706D01*
X015527Y016774D01*
X015527Y016809D02*
X015120Y016809D01*
X015120Y016868D02*
X015527Y016868D01*
X015527Y016926D02*
X015120Y016926D01*
X015120Y016985D02*
X015527Y016985D01*
X015527Y017043D02*
X015120Y017043D01*
X015120Y017102D02*
X015527Y017102D01*
X015527Y017160D02*
X015120Y017160D01*
X015120Y017219D02*
X015527Y017219D01*
X015527Y017277D02*
X015120Y017277D01*
X015120Y017336D02*
X015527Y017336D01*
X015527Y017394D02*
X015120Y017394D01*
X015120Y017453D02*
X015527Y017453D01*
X015527Y017511D02*
X015120Y017511D01*
X015120Y017570D02*
X015527Y017570D01*
X015527Y017628D02*
X015120Y017628D01*
X015120Y017687D02*
X015527Y017687D01*
X015566Y017745D02*
X015081Y017745D01*
X016081Y017745D02*
X016566Y017745D01*
X016574Y017753D02*
X016527Y017706D01*
X016527Y016774D01*
X016574Y016727D01*
X017073Y016727D01*
X017120Y016774D01*
X017120Y017706D01*
X017073Y017753D01*
X016574Y017753D01*
X016527Y017687D02*
X016120Y017687D01*
X016120Y017628D02*
X016527Y017628D01*
X016527Y017570D02*
X016120Y017570D01*
X016120Y017511D02*
X016527Y017511D01*
X016527Y017453D02*
X016120Y017453D01*
X016120Y017394D02*
X016527Y017394D01*
X016527Y017336D02*
X016120Y017336D01*
X016120Y017277D02*
X016527Y017277D01*
X016527Y017219D02*
X016120Y017219D01*
X016120Y017160D02*
X016527Y017160D01*
X016527Y017102D02*
X016120Y017102D01*
X016120Y017043D02*
X016527Y017043D01*
X016527Y016985D02*
X016120Y016985D01*
X016120Y016926D02*
X016527Y016926D01*
X016527Y016868D02*
X016120Y016868D01*
X016120Y016809D02*
X016527Y016809D01*
X016550Y016751D02*
X016097Y016751D01*
X017097Y016751D02*
X018550Y016751D01*
X018527Y016809D02*
X017120Y016809D01*
X017120Y016868D02*
X018527Y016868D01*
X018527Y016926D02*
X017120Y016926D01*
X017120Y016985D02*
X018527Y016985D01*
X018527Y017043D02*
X017120Y017043D01*
X017120Y017102D02*
X018527Y017102D01*
X018527Y017160D02*
X017120Y017160D01*
X017120Y017219D02*
X018527Y017219D01*
X018527Y017277D02*
X017120Y017277D01*
X017120Y017336D02*
X018527Y017336D01*
X018527Y017394D02*
X017120Y017394D01*
X017120Y017453D02*
X018527Y017453D01*
X018527Y017511D02*
X017120Y017511D01*
X017120Y017570D02*
X018527Y017570D01*
X018527Y017628D02*
X017120Y017628D01*
X017120Y017687D02*
X018527Y017687D01*
X018566Y017745D02*
X017081Y017745D01*
X017073Y015253D02*
X016574Y015253D01*
X016527Y015206D01*
X016527Y014274D01*
X016574Y014227D01*
X017073Y014227D01*
X017120Y014274D01*
X017120Y015206D01*
X017073Y015253D01*
X017097Y015230D02*
X017550Y015230D01*
X017527Y015206D02*
X017527Y014274D01*
X017574Y014227D01*
X018073Y014227D01*
X018120Y014274D01*
X018120Y015206D01*
X018073Y015253D01*
X017574Y015253D01*
X017527Y015206D01*
X017527Y015171D02*
X017120Y015171D01*
X017120Y015113D02*
X017527Y015113D01*
X017527Y015054D02*
X017120Y015054D01*
X017120Y014996D02*
X017527Y014996D01*
X017527Y014937D02*
X017120Y014937D01*
X017120Y014879D02*
X017527Y014879D01*
X017527Y014820D02*
X017120Y014820D01*
X017120Y014762D02*
X017527Y014762D01*
X017527Y014703D02*
X017120Y014703D01*
X017120Y014645D02*
X017527Y014645D01*
X017527Y014586D02*
X017120Y014586D01*
X017120Y014528D02*
X017527Y014528D01*
X017527Y014469D02*
X017120Y014469D01*
X017120Y014411D02*
X017527Y014411D01*
X017527Y014352D02*
X017120Y014352D01*
X017120Y014294D02*
X017527Y014294D01*
X017566Y014235D02*
X017081Y014235D01*
X016566Y014235D02*
X015081Y014235D01*
X015073Y014227D02*
X015120Y014274D01*
X015120Y015206D01*
X015073Y015253D01*
X014574Y015253D01*
X014527Y015206D01*
X014527Y014274D01*
X014574Y014227D01*
X015073Y014227D01*
X015120Y014294D02*
X016527Y014294D01*
X016527Y014352D02*
X015120Y014352D01*
X015120Y014411D02*
X016527Y014411D01*
X016527Y014469D02*
X015120Y014469D01*
X015120Y014528D02*
X016527Y014528D01*
X016527Y014586D02*
X015120Y014586D01*
X015120Y014645D02*
X016527Y014645D01*
X016527Y014703D02*
X015120Y014703D01*
X015120Y014762D02*
X016527Y014762D01*
X016527Y014820D02*
X015120Y014820D01*
X015120Y014879D02*
X016527Y014879D01*
X016527Y014937D02*
X015120Y014937D01*
X015120Y014996D02*
X016527Y014996D01*
X016527Y015054D02*
X015120Y015054D01*
X015120Y015113D02*
X016527Y015113D01*
X016527Y015171D02*
X015120Y015171D01*
X015097Y015230D02*
X016550Y015230D01*
X018097Y015230D02*
X018550Y015230D01*
X018527Y015171D02*
X018120Y015171D01*
X018120Y015113D02*
X018527Y015113D01*
X018527Y015054D02*
X018120Y015054D01*
X018120Y014996D02*
X018527Y014996D01*
X018527Y014937D02*
X018120Y014937D01*
X018120Y014879D02*
X018527Y014879D01*
X018527Y014820D02*
X018120Y014820D01*
X018120Y014762D02*
X018527Y014762D01*
X018527Y014703D02*
X018120Y014703D01*
X018120Y014645D02*
X018527Y014645D01*
X018527Y014586D02*
X018120Y014586D01*
X018120Y014528D02*
X018527Y014528D01*
X018527Y014469D02*
X018120Y014469D01*
X018120Y014411D02*
X018527Y014411D01*
X018527Y014352D02*
X018120Y014352D01*
X018120Y014294D02*
X018527Y014294D01*
X018566Y014235D02*
X018081Y014235D01*
X014566Y014235D02*
X014081Y014235D01*
X014073Y014227D02*
X014120Y014274D01*
X014120Y015206D01*
X014073Y015253D01*
X013574Y015253D01*
X013527Y015206D01*
X013527Y014274D01*
X013574Y014227D01*
X014073Y014227D01*
X014120Y014294D02*
X014527Y014294D01*
X014527Y014352D02*
X014120Y014352D01*
X014120Y014411D02*
X014527Y014411D01*
X014527Y014469D02*
X014120Y014469D01*
X014120Y014528D02*
X014527Y014528D01*
X014527Y014586D02*
X014120Y014586D01*
X014120Y014645D02*
X014527Y014645D01*
X014527Y014703D02*
X014120Y014703D01*
X014120Y014762D02*
X014527Y014762D01*
X014527Y014820D02*
X014120Y014820D01*
X014120Y014879D02*
X014527Y014879D01*
X014527Y014937D02*
X014120Y014937D01*
X014120Y014996D02*
X014527Y014996D01*
X014527Y015054D02*
X014120Y015054D01*
X014120Y015113D02*
X014527Y015113D01*
X014527Y015171D02*
X014120Y015171D01*
X014097Y015230D02*
X014550Y015230D01*
X013550Y015230D02*
X013097Y015230D01*
X013120Y015206D02*
X013073Y015253D01*
X012574Y015253D01*
X012527Y015206D01*
X012527Y014274D01*
X012574Y014227D01*
X013073Y014227D01*
X013120Y014274D01*
X013120Y015206D01*
X013120Y015171D02*
X013527Y015171D01*
X013527Y015113D02*
X013120Y015113D01*
X013120Y015054D02*
X013527Y015054D01*
X013527Y014996D02*
X013120Y014996D01*
X013120Y014937D02*
X013527Y014937D01*
X013527Y014879D02*
X013120Y014879D01*
X013120Y014820D02*
X013527Y014820D01*
X013527Y014762D02*
X013120Y014762D01*
X013120Y014703D02*
X013527Y014703D01*
X013527Y014645D02*
X013120Y014645D01*
X013120Y014586D02*
X013527Y014586D01*
X013527Y014528D02*
X013120Y014528D01*
X013120Y014469D02*
X013527Y014469D01*
X013527Y014411D02*
X013120Y014411D01*
X013120Y014352D02*
X013527Y014352D01*
X013527Y014294D02*
X013120Y014294D01*
X013081Y014235D02*
X013566Y014235D01*
X012566Y014235D02*
X012081Y014235D01*
X012073Y014227D02*
X012120Y014274D01*
X012120Y015206D01*
X012073Y015253D01*
X011574Y015253D01*
X011527Y015206D01*
X011527Y014274D01*
X011574Y014227D01*
X012073Y014227D01*
X012120Y014294D02*
X012527Y014294D01*
X012527Y014352D02*
X012120Y014352D01*
X012120Y014411D02*
X012527Y014411D01*
X012527Y014469D02*
X012120Y014469D01*
X012120Y014528D02*
X012527Y014528D01*
X012527Y014586D02*
X012120Y014586D01*
X012120Y014645D02*
X012527Y014645D01*
X012527Y014703D02*
X012120Y014703D01*
X012120Y014762D02*
X012527Y014762D01*
X012527Y014820D02*
X012120Y014820D01*
X012120Y014879D02*
X012527Y014879D01*
X012527Y014937D02*
X012120Y014937D01*
X012120Y014996D02*
X012527Y014996D01*
X012527Y015054D02*
X012120Y015054D01*
X012120Y015113D02*
X012527Y015113D01*
X012527Y015171D02*
X012120Y015171D01*
X012097Y015230D02*
X012550Y015230D01*
X011550Y015230D02*
X011097Y015230D01*
X011120Y015206D02*
X011073Y015253D01*
X010574Y015253D01*
X010527Y015206D01*
X010527Y014274D01*
X010574Y014227D01*
X011073Y014227D01*
X011120Y014274D01*
X011120Y015206D01*
X011120Y015171D02*
X011527Y015171D01*
X011527Y015113D02*
X011120Y015113D01*
X011120Y015054D02*
X011527Y015054D01*
X011527Y014996D02*
X011120Y014996D01*
X011120Y014937D02*
X011527Y014937D01*
X011527Y014879D02*
X011120Y014879D01*
X011120Y014820D02*
X011527Y014820D01*
X011527Y014762D02*
X011120Y014762D01*
X011120Y014703D02*
X011527Y014703D01*
X011527Y014645D02*
X011120Y014645D01*
X011120Y014586D02*
X011527Y014586D01*
X011527Y014528D02*
X011120Y014528D01*
X011120Y014469D02*
X011527Y014469D01*
X011527Y014411D02*
X011120Y014411D01*
X011120Y014352D02*
X011527Y014352D01*
X011527Y014294D02*
X011120Y014294D01*
X011081Y014235D02*
X011566Y014235D01*
X010566Y014235D02*
X010081Y014235D01*
X010073Y014227D02*
X010120Y014274D01*
X010120Y015206D01*
X010073Y015253D01*
X009574Y015253D01*
X009527Y015206D01*
X009527Y014274D01*
X009574Y014227D01*
X010073Y014227D01*
X010120Y014294D02*
X010527Y014294D01*
X010527Y014352D02*
X010120Y014352D01*
X010120Y014411D02*
X010527Y014411D01*
X010527Y014469D02*
X010120Y014469D01*
X010120Y014528D02*
X010527Y014528D01*
X010527Y014586D02*
X010120Y014586D01*
X010120Y014645D02*
X010527Y014645D01*
X010527Y014703D02*
X010120Y014703D01*
X010120Y014762D02*
X010527Y014762D01*
X010527Y014820D02*
X010120Y014820D01*
X010120Y014879D02*
X010527Y014879D01*
X010527Y014937D02*
X010120Y014937D01*
X010120Y014996D02*
X010527Y014996D01*
X010527Y015054D02*
X010120Y015054D01*
X010120Y015113D02*
X010527Y015113D01*
X010527Y015171D02*
X010120Y015171D01*
X010097Y015230D02*
X010550Y015230D01*
X009550Y015230D02*
X009097Y015230D01*
X009120Y015206D02*
X009073Y015253D01*
X008574Y015253D01*
X008527Y015206D01*
X008527Y014274D01*
X008574Y014227D01*
X009073Y014227D01*
X009120Y014274D01*
X009120Y015206D01*
X009120Y015171D02*
X009527Y015171D01*
X009527Y015113D02*
X009120Y015113D01*
X009120Y015054D02*
X009527Y015054D01*
X009527Y014996D02*
X009120Y014996D01*
X009120Y014937D02*
X009527Y014937D01*
X009527Y014879D02*
X009120Y014879D01*
X009120Y014820D02*
X009527Y014820D01*
X009527Y014762D02*
X009120Y014762D01*
X009120Y014703D02*
X009527Y014703D01*
X009527Y014645D02*
X009120Y014645D01*
X009120Y014586D02*
X009527Y014586D01*
X009527Y014528D02*
X009120Y014528D01*
X009120Y014469D02*
X009527Y014469D01*
X009527Y014411D02*
X009120Y014411D01*
X009120Y014352D02*
X009527Y014352D01*
X009527Y014294D02*
X009120Y014294D01*
X009081Y014235D02*
X009566Y014235D01*
X008566Y014235D02*
X007081Y014235D01*
X007073Y014227D02*
X007120Y014274D01*
X007120Y015206D01*
X007073Y015253D01*
X006574Y015253D01*
X006527Y015206D01*
X006527Y014274D01*
X006574Y014227D01*
X007073Y014227D01*
X007120Y014294D02*
X008527Y014294D01*
X008527Y014352D02*
X007120Y014352D01*
X007120Y014411D02*
X008527Y014411D01*
X008527Y014469D02*
X007120Y014469D01*
X007120Y014528D02*
X008527Y014528D01*
X008527Y014586D02*
X007120Y014586D01*
X007120Y014645D02*
X008527Y014645D01*
X008527Y014703D02*
X007120Y014703D01*
X007120Y014762D02*
X008527Y014762D01*
X008527Y014820D02*
X007120Y014820D01*
X007120Y014879D02*
X008527Y014879D01*
X008527Y014937D02*
X007120Y014937D01*
X007120Y014996D02*
X008527Y014996D01*
X008527Y015054D02*
X007120Y015054D01*
X007120Y015113D02*
X008527Y015113D01*
X008527Y015171D02*
X007120Y015171D01*
X007097Y015230D02*
X008550Y015230D01*
X006550Y015230D02*
X006097Y015230D01*
X006120Y015171D02*
X006527Y015171D01*
X006527Y015113D02*
X006120Y015113D01*
X006120Y015054D02*
X006527Y015054D01*
X006527Y014996D02*
X006120Y014996D01*
X006120Y014937D02*
X006527Y014937D01*
X006527Y014879D02*
X006120Y014879D01*
X006120Y014820D02*
X006527Y014820D01*
X006527Y014762D02*
X006120Y014762D01*
X006120Y014703D02*
X006527Y014703D01*
X006527Y014645D02*
X006120Y014645D01*
X006120Y014586D02*
X006527Y014586D01*
X006527Y014528D02*
X006120Y014528D01*
X006120Y014469D02*
X006527Y014469D01*
X006527Y014411D02*
X006120Y014411D01*
X006120Y014352D02*
X006527Y014352D01*
X006527Y014294D02*
X006120Y014294D01*
X006081Y014235D02*
X006566Y014235D01*
X001589Y015990D02*
X000658Y015990D01*
X000658Y016926D02*
X001526Y016926D01*
X001491Y016985D02*
X000658Y016985D01*
X001242Y017043D02*
X001491Y017043D01*
X001491Y017102D02*
X001314Y017102D01*
X001356Y017160D02*
X001491Y017160D01*
X001491Y017219D02*
X001381Y017219D01*
X001387Y017277D02*
X001491Y017277D01*
X001491Y017336D02*
X001387Y017336D01*
X001366Y017394D02*
X001491Y017394D01*
X001491Y017453D02*
X001339Y017453D01*
X001280Y017511D02*
X001491Y017511D01*
X001491Y017570D02*
X001346Y017570D01*
X001346Y017628D02*
X001502Y017628D01*
D20*
X001513Y016800D03*
X001593Y015480D03*
X002373Y015480D03*
X005803Y015420D03*
X006813Y015430D03*
X006813Y016140D03*
X005793Y016130D03*
X005773Y017780D03*
X009833Y016690D03*
X012853Y016700D03*
X015833Y014210D03*
X017833Y016710D03*
X019823Y016710D03*
X022843Y014200D03*
X007843Y014180D03*
D21*
X005043Y015690D03*
X004803Y015570D03*
X004863Y016170D03*
X004863Y016530D03*
X005283Y016890D03*
X005223Y017210D03*
X004573Y017790D03*
X004363Y017790D03*
X004153Y017790D03*
X003363Y017370D03*
X003363Y017100D03*
X002943Y017790D03*
X001512Y017959D03*
X003603Y015580D03*
X000922Y014022D03*
X007243Y016870D03*
X007803Y016710D03*
X007803Y016410D03*
X007203Y017250D03*
X021783Y017850D03*
X022503Y017250D03*
X025331Y017959D03*
X025331Y014612D03*
X024741Y014022D03*
D22*
X022823Y017240D02*
X022513Y017240D01*
X021823Y017240D02*
X021823Y017850D01*
X021783Y017850D01*
X007803Y017220D02*
X007803Y016710D01*
X007803Y016410D02*
X005523Y016410D01*
X005283Y016890D01*
X006833Y017250D02*
X007203Y017250D01*
D23*
X022503Y017250D02*
X022513Y017240D01*
D24*
X004863Y016530D02*
X004818Y016485D01*
X003692Y016485D01*
X003392Y016185D01*
X002463Y016185D01*
X002402Y016246D01*
X001985Y016246D01*
X001985Y015990D02*
X002418Y015990D01*
X002463Y016035D01*
X003454Y016035D01*
X003754Y016335D01*
X004698Y016335D01*
X004863Y016170D01*
M02*
