G75*
%MOIN*%
%OFA0B0*%
%FSLAX24Y24*%
%IPPOS*%
%LPD*%
%AMOC8*
5,1,8,0,0,1.08239X$1,22.5*
%
%ADD10C,0.1103*%
%ADD11R,0.0434X0.0473*%
%ADD12C,0.0437*%
%ADD13C,0.0437*%
%ADD14C,0.0434*%
%ADD15R,0.0787X0.0787*%
%ADD16R,0.0276X0.0276*%
%ADD17C,0.0512*%
%ADD18C,0.0197*%
%ADD19C,0.0040*%
%ADD20R,0.0512X0.0257*%
D10*
X024741Y015990D03*
D11*
X002013Y016836D03*
X002013Y017505D03*
D12*
X001108Y017289D02*
X000712Y017289D01*
X000712Y014691D02*
X001108Y014691D01*
D13*
X001107Y014691D03*
X000713Y014691D03*
X000713Y017289D03*
X001107Y017289D03*
D14*
X000922Y017959D03*
X025331Y014022D03*
D15*
X025331Y014022D03*
X000922Y017959D03*
D16*
X002523Y017426D03*
X002523Y016954D03*
X004923Y016894D03*
X004923Y017366D03*
X006003Y017254D03*
X006003Y017726D03*
D17*
X004323Y015990D03*
X022323Y015990D03*
D18*
X006825Y015990D02*
X005782Y015990D01*
X005782Y015795D02*
X006825Y015795D01*
X006825Y015599D02*
X005782Y015599D01*
X005782Y015409D02*
X006825Y015409D01*
X006825Y016452D01*
X005782Y016452D01*
X005782Y015409D01*
X005782Y016186D02*
X006825Y016186D01*
X006825Y016381D02*
X005782Y016381D01*
D19*
X005496Y016383D02*
X005496Y016462D01*
X005299Y016462D01*
X005299Y016383D01*
X005496Y016383D01*
X005496Y016414D02*
X005299Y016414D01*
X005299Y016452D02*
X005496Y016452D01*
X005496Y016580D02*
X005299Y016580D01*
X005299Y016659D01*
X005477Y016659D01*
X005496Y016639D01*
X005496Y016580D01*
X005496Y016606D02*
X005299Y016606D01*
X005299Y016645D02*
X005490Y016645D01*
X005595Y016737D02*
X005654Y016737D01*
X005654Y016934D01*
X005575Y016934D01*
X005575Y016757D01*
X005595Y016737D01*
X005575Y016760D02*
X005654Y016760D01*
X005654Y016799D02*
X005575Y016799D01*
X005575Y016837D02*
X005654Y016837D01*
X005654Y016876D02*
X005575Y016876D01*
X005575Y016914D02*
X005654Y016914D01*
X005772Y016914D02*
X005851Y016914D01*
X005851Y016934D02*
X005772Y016934D01*
X005772Y016737D01*
X005851Y016737D01*
X005851Y016934D01*
X005851Y016876D02*
X005772Y016876D01*
X005772Y016837D02*
X005851Y016837D01*
X005851Y016799D02*
X005772Y016799D01*
X005772Y016760D02*
X005851Y016760D01*
X005969Y016760D02*
X006047Y016760D01*
X006047Y016737D02*
X006047Y016934D01*
X005969Y016934D01*
X005969Y016737D01*
X006047Y016737D01*
X006047Y016799D02*
X005969Y016799D01*
X005969Y016837D02*
X006047Y016837D01*
X006047Y016876D02*
X005969Y016876D01*
X005969Y016914D02*
X006047Y016914D01*
X006166Y016914D02*
X006244Y016914D01*
X006244Y016934D02*
X006166Y016934D01*
X006166Y016737D01*
X006244Y016737D01*
X006244Y016934D01*
X006244Y016876D02*
X006166Y016876D01*
X006166Y016837D02*
X006244Y016837D01*
X006244Y016799D02*
X006166Y016799D01*
X006166Y016760D02*
X006244Y016760D01*
X006362Y016760D02*
X006441Y016760D01*
X006441Y016737D02*
X006441Y016934D01*
X006362Y016934D01*
X006362Y016737D01*
X006441Y016737D01*
X006441Y016799D02*
X006362Y016799D01*
X006362Y016837D02*
X006441Y016837D01*
X006441Y016876D02*
X006362Y016876D01*
X006362Y016914D02*
X006441Y016914D01*
X006559Y016914D02*
X006638Y016914D01*
X006638Y016934D02*
X006559Y016934D01*
X006559Y016737D01*
X006638Y016737D01*
X006638Y016934D01*
X006638Y016876D02*
X006559Y016876D01*
X006559Y016837D02*
X006638Y016837D01*
X006638Y016799D02*
X006559Y016799D01*
X006559Y016760D02*
X006638Y016760D01*
X006756Y016760D02*
X006835Y016760D01*
X006835Y016737D02*
X006835Y016934D01*
X006756Y016934D01*
X006756Y016737D01*
X006835Y016737D01*
X006835Y016799D02*
X006756Y016799D01*
X006756Y016837D02*
X006835Y016837D01*
X006835Y016876D02*
X006756Y016876D01*
X006756Y016914D02*
X006835Y016914D01*
X006953Y016914D02*
X007032Y016914D01*
X007032Y016934D02*
X006953Y016934D01*
X006953Y016737D01*
X007012Y016737D01*
X007032Y016757D01*
X007032Y016934D01*
X007032Y016876D02*
X006953Y016876D01*
X006953Y016837D02*
X007032Y016837D01*
X007032Y016799D02*
X006953Y016799D01*
X006953Y016760D02*
X007032Y016760D01*
X007130Y016659D02*
X007110Y016639D01*
X007110Y016580D01*
X007307Y016580D01*
X007307Y016659D01*
X007130Y016659D01*
X007116Y016645D02*
X007307Y016645D01*
X007307Y016606D02*
X007110Y016606D01*
X007110Y016462D02*
X007110Y016383D01*
X007307Y016383D01*
X007307Y016462D01*
X007110Y016462D01*
X007110Y016452D02*
X007307Y016452D01*
X007307Y016414D02*
X007110Y016414D01*
X007110Y016265D02*
X007110Y016186D01*
X007307Y016186D01*
X007307Y016265D01*
X007110Y016265D01*
X007110Y016260D02*
X007307Y016260D01*
X007307Y016221D02*
X007110Y016221D01*
X007110Y016068D02*
X007110Y015989D01*
X007307Y015989D01*
X007307Y016068D01*
X007110Y016068D01*
X007110Y016067D02*
X007307Y016067D01*
X007307Y016029D02*
X007110Y016029D01*
X007110Y015990D02*
X007307Y015990D01*
X007307Y015871D02*
X007307Y015792D01*
X007110Y015792D01*
X007110Y015871D01*
X007307Y015871D01*
X007307Y015836D02*
X007110Y015836D01*
X007110Y015798D02*
X007307Y015798D01*
X007307Y015674D02*
X007307Y015596D01*
X007110Y015596D01*
X007110Y015674D01*
X007307Y015674D01*
X007307Y015644D02*
X007110Y015644D01*
X007110Y015605D02*
X007307Y015605D01*
X007307Y015477D02*
X007307Y015399D01*
X007110Y015399D01*
X007110Y015477D01*
X007307Y015477D01*
X007307Y015451D02*
X007110Y015451D01*
X007110Y015413D02*
X007307Y015413D01*
X007307Y015281D02*
X007307Y015202D01*
X007130Y015202D01*
X007110Y015221D01*
X007110Y015281D01*
X007307Y015281D01*
X007307Y015259D02*
X007110Y015259D01*
X007112Y015220D02*
X007307Y015220D01*
X007032Y015103D02*
X007012Y015123D01*
X006953Y015123D01*
X006953Y014926D01*
X007032Y014926D01*
X007032Y015103D01*
X007030Y015105D02*
X006953Y015105D01*
X006953Y015066D02*
X007032Y015066D01*
X007032Y015028D02*
X006953Y015028D01*
X006953Y014989D02*
X007032Y014989D01*
X007032Y014951D02*
X006953Y014951D01*
X006835Y014951D02*
X006756Y014951D01*
X006756Y014926D02*
X006835Y014926D01*
X006835Y015123D01*
X006756Y015123D01*
X006756Y014926D01*
X006756Y014989D02*
X006835Y014989D01*
X006835Y015028D02*
X006756Y015028D01*
X006756Y015066D02*
X006835Y015066D01*
X006835Y015105D02*
X006756Y015105D01*
X006638Y015105D02*
X006559Y015105D01*
X006559Y015123D02*
X006559Y014926D01*
X006638Y014926D01*
X006638Y015123D01*
X006559Y015123D01*
X006559Y015066D02*
X006638Y015066D01*
X006638Y015028D02*
X006559Y015028D01*
X006559Y014989D02*
X006638Y014989D01*
X006638Y014951D02*
X006559Y014951D01*
X006441Y014951D02*
X006362Y014951D01*
X006362Y014926D02*
X006441Y014926D01*
X006441Y015123D01*
X006362Y015123D01*
X006362Y014926D01*
X006362Y014989D02*
X006441Y014989D01*
X006441Y015028D02*
X006362Y015028D01*
X006362Y015066D02*
X006441Y015066D01*
X006441Y015105D02*
X006362Y015105D01*
X006244Y015105D02*
X006166Y015105D01*
X006166Y015123D02*
X006166Y014926D01*
X006244Y014926D01*
X006244Y015123D01*
X006166Y015123D01*
X006166Y015066D02*
X006244Y015066D01*
X006244Y015028D02*
X006166Y015028D01*
X006166Y014989D02*
X006244Y014989D01*
X006244Y014951D02*
X006166Y014951D01*
X006047Y014951D02*
X005969Y014951D01*
X005969Y014926D02*
X006047Y014926D01*
X006047Y015123D01*
X005969Y015123D01*
X005969Y014926D01*
X005969Y014989D02*
X006047Y014989D01*
X006047Y015028D02*
X005969Y015028D01*
X005969Y015066D02*
X006047Y015066D01*
X006047Y015105D02*
X005969Y015105D01*
X005851Y015105D02*
X005772Y015105D01*
X005772Y015123D02*
X005772Y014926D01*
X005851Y014926D01*
X005851Y015123D01*
X005772Y015123D01*
X005772Y015066D02*
X005851Y015066D01*
X005851Y015028D02*
X005772Y015028D01*
X005772Y014989D02*
X005851Y014989D01*
X005851Y014951D02*
X005772Y014951D01*
X005654Y014951D02*
X005575Y014951D01*
X005575Y014926D02*
X005654Y014926D01*
X005654Y015123D01*
X005595Y015123D01*
X005575Y015103D01*
X005575Y014926D01*
X005575Y014989D02*
X005654Y014989D01*
X005654Y015028D02*
X005575Y015028D01*
X005575Y015066D02*
X005654Y015066D01*
X005654Y015105D02*
X005576Y015105D01*
X005477Y015202D02*
X005299Y015202D01*
X005299Y015281D01*
X005496Y015281D01*
X005496Y015221D01*
X005477Y015202D01*
X005495Y015220D02*
X005299Y015220D01*
X005299Y015259D02*
X005496Y015259D01*
X005496Y015399D02*
X005299Y015399D01*
X005299Y015477D01*
X005496Y015477D01*
X005496Y015399D01*
X005496Y015413D02*
X005299Y015413D01*
X005299Y015451D02*
X005496Y015451D01*
X005496Y015596D02*
X005299Y015596D01*
X005299Y015674D01*
X005496Y015674D01*
X005496Y015596D01*
X005496Y015605D02*
X005299Y015605D01*
X005299Y015644D02*
X005496Y015644D01*
X005496Y015792D02*
X005496Y015871D01*
X005299Y015871D01*
X005299Y015792D01*
X005496Y015792D01*
X005496Y015798D02*
X005299Y015798D01*
X005299Y015836D02*
X005496Y015836D01*
X005496Y015989D02*
X005496Y016068D01*
X005299Y016068D01*
X005299Y015989D01*
X005496Y015989D01*
X005496Y015990D02*
X005299Y015990D01*
X005299Y016029D02*
X005496Y016029D01*
X005496Y016067D02*
X005299Y016067D01*
X005299Y016186D02*
X005299Y016265D01*
X005496Y016265D01*
X005496Y016186D01*
X005299Y016186D01*
X005299Y016221D02*
X005496Y016221D01*
X005496Y016260D02*
X005299Y016260D01*
D20*
X004235Y016816D03*
X004235Y017190D03*
X004235Y017564D03*
X003212Y017564D03*
X003212Y016816D03*
M02*
